%TF.GenerationSoftware,KiCad,Pcbnew,(6.0.10)*%
%TF.CreationDate,2023-02-27T01:31:51-05:00*%
%TF.ProjectId,vehicle side connector,76656869-636c-4652-9073-69646520636f,rev?*%
%TF.SameCoordinates,Original*%
%TF.FileFunction,Profile,NP*%
%FSLAX46Y46*%
G04 Gerber Fmt 4.6, Leading zero omitted, Abs format (unit mm)*
G04 Created by KiCad (PCBNEW (6.0.10)) date 2023-02-27 01:31:51*
%MOMM*%
%LPD*%
G01*
G04 APERTURE LIST*
%TA.AperFunction,Profile*%
%ADD10C,0.250000*%
%TD*%
G04 APERTURE END LIST*
D10*
X121315000Y-109289400D02*
G75*
G03*
X120315000Y-110289375I0J-1000000D01*
G01*
X124640624Y-116770674D02*
X133649376Y-116770674D01*
X135010000Y-109289400D02*
G75*
G03*
X134010000Y-110289375I0J-1000000D01*
G01*
X124280000Y-116410050D02*
X124640624Y-116770674D01*
X134010000Y-116410050D02*
X134010000Y-110289375D01*
X136630624Y-116770674D02*
X145639376Y-116770674D01*
X107418848Y-116770674D02*
X120131152Y-116770674D01*
X148260000Y-110289375D02*
X148260000Y-116410050D01*
X120315000Y-116586827D02*
X120315000Y-110289375D01*
X121315000Y-109289375D02*
X123280000Y-109289375D01*
X148260025Y-110289375D02*
G75*
G03*
X147260000Y-109289375I-1000025J-25D01*
G01*
X158990000Y-109289400D02*
G75*
G03*
X157990000Y-110289375I0J-1000000D01*
G01*
X194645000Y-72039375D02*
X107235000Y-72039375D01*
X136270025Y-110289375D02*
G75*
G03*
X135270000Y-109289375I-1000025J-25D01*
G01*
X107235000Y-116586827D02*
X107418848Y-116770674D01*
X157629376Y-116770674D02*
X157990000Y-116410050D01*
X173945000Y-110289375D02*
X173945000Y-116586827D01*
X158990000Y-109289375D02*
X159250000Y-109289375D01*
X135010000Y-109289375D02*
X135270000Y-109289375D01*
X160250025Y-110289375D02*
G75*
G03*
X159250000Y-109289375I-1000025J-25D01*
G01*
X160250000Y-110289375D02*
X160250000Y-116410050D01*
X169619376Y-116770674D02*
X169980000Y-116410050D01*
X120131152Y-116770674D02*
X120315000Y-116586827D01*
X169980000Y-116410050D02*
X169980000Y-110289375D01*
X147000000Y-109289400D02*
G75*
G03*
X146000000Y-110289375I0J-1000000D01*
G01*
X124280000Y-110289375D02*
X124280000Y-116410050D01*
X170980000Y-109289400D02*
G75*
G03*
X169980000Y-110289375I0J-1000000D01*
G01*
X148260000Y-116410050D02*
X148620624Y-116770674D01*
X147000000Y-109289375D02*
X147260000Y-109289375D01*
X124280025Y-110289375D02*
G75*
G03*
X123280000Y-109289375I-1000025J-25D01*
G01*
X194461152Y-116770674D02*
X194645000Y-116586827D01*
X160610624Y-116770674D02*
X169619376Y-116770674D01*
X194645000Y-116586827D02*
X194645000Y-72039375D01*
X136270000Y-110289375D02*
X136270000Y-116410050D01*
X133649376Y-116770674D02*
X134010000Y-116410050D01*
X160250000Y-116410050D02*
X160610624Y-116770674D01*
X136270000Y-116410050D02*
X136630624Y-116770674D01*
X148620624Y-116770674D02*
X157629376Y-116770674D01*
X174128848Y-116770674D02*
X194461152Y-116770674D01*
X173945025Y-110289375D02*
G75*
G03*
X172945000Y-109289375I-1000025J-25D01*
G01*
X173945000Y-116586827D02*
X174128848Y-116770674D01*
X145639376Y-116770674D02*
X146000000Y-116410050D01*
X146000000Y-116410050D02*
X146000000Y-110289375D01*
X170980000Y-109289375D02*
X172945000Y-109289375D01*
X107235000Y-72039375D02*
X107235000Y-116586827D01*
X157990000Y-116410050D02*
X157990000Y-110289375D01*
M02*
