%TF.GenerationSoftware,KiCad,Pcbnew,(6.0.10)*%
%TF.CreationDate,2023-02-27T01:31:51-05:00*%
%TF.ProjectId,vehicle side connector,76656869-636c-4652-9073-69646520636f,rev?*%
%TF.SameCoordinates,Original*%
%TF.FileFunction,Copper,L3,Inr*%
%TF.FilePolarity,Positive*%
%FSLAX46Y46*%
G04 Gerber Fmt 4.6, Leading zero omitted, Abs format (unit mm)*
G04 Created by KiCad (PCBNEW (6.0.10)) date 2023-02-27 01:31:51*
%MOMM*%
%LPD*%
G01*
G04 APERTURE LIST*
G04 Aperture macros list*
%AMRoundRect*
0 Rectangle with rounded corners*
0 $1 Rounding radius*
0 $2 $3 $4 $5 $6 $7 $8 $9 X,Y pos of 4 corners*
0 Add a 4 corners polygon primitive as box body*
4,1,4,$2,$3,$4,$5,$6,$7,$8,$9,$2,$3,0*
0 Add four circle primitives for the rounded corners*
1,1,$1+$1,$2,$3*
1,1,$1+$1,$4,$5*
1,1,$1+$1,$6,$7*
1,1,$1+$1,$8,$9*
0 Add four rect primitives between the rounded corners*
20,1,$1+$1,$2,$3,$4,$5,0*
20,1,$1+$1,$4,$5,$6,$7,0*
20,1,$1+$1,$6,$7,$8,$9,0*
20,1,$1+$1,$8,$9,$2,$3,0*%
G04 Aperture macros list end*
%TA.AperFunction,ComponentPad*%
%ADD10RoundRect,2.250000X2.250000X2.250000X-2.250000X2.250000X-2.250000X-2.250000X2.250000X-2.250000X0*%
%TD*%
%TA.AperFunction,ComponentPad*%
%ADD11C,9.000000*%
%TD*%
%TA.AperFunction,ComponentPad*%
%ADD12RoundRect,1.500000X1.500000X1.500000X-1.500000X1.500000X-1.500000X-1.500000X1.500000X-1.500000X0*%
%TD*%
%TA.AperFunction,ComponentPad*%
%ADD13C,6.000000*%
%TD*%
%TA.AperFunction,ViaPad*%
%ADD14C,0.600000*%
%TD*%
%TA.AperFunction,ViaPad*%
%ADD15C,0.800000*%
%TD*%
%TA.AperFunction,ViaPad*%
%ADD16C,1.000000*%
%TD*%
%TA.AperFunction,Conductor*%
%ADD17C,0.076200*%
%TD*%
G04 APERTURE END LIST*
D10*
%TO.N,GND*%
%TO.C,J6*%
X145284666Y-97670000D03*
D11*
%TO.N,/V_BATT+*%
X156184666Y-97670000D03*
%TD*%
D12*
%TO.N,GND*%
%TO.C,J5*%
X132647332Y-97670000D03*
D13*
%TO.N,/V_BATT+*%
X125447332Y-97670000D03*
%TD*%
D12*
%TO.N,GND*%
%TO.C,J7*%
X176022000Y-97670000D03*
D13*
%TO.N,/V_BATT+*%
X168822000Y-97670000D03*
%TD*%
D14*
%TO.N,/CAPTURE*%
X163980000Y-81060000D03*
D15*
%TO.N,/V_BATT+*%
X152973932Y-100014141D03*
X160014226Y-96426932D03*
X152405774Y-98899068D03*
X158561141Y-94426932D03*
X158561141Y-100899068D03*
X160014226Y-98899068D03*
X156210000Y-93663000D03*
X156210000Y-101663000D03*
X160210000Y-97663000D03*
X159446068Y-100014141D03*
X152405774Y-96426932D03*
X154973932Y-101467226D03*
X157446068Y-101467226D03*
X159446068Y-95311859D03*
X153858859Y-94426932D03*
X157446068Y-93858774D03*
X152973932Y-95311859D03*
X152210000Y-97663000D03*
X153858859Y-100899068D03*
X154973932Y-93858774D03*
D14*
%TO.N,GND*%
X113175600Y-100569000D03*
D16*
X114166200Y-102245400D03*
D14*
X112718400Y-74915000D03*
D15*
X149266068Y-97713141D03*
X141461842Y-98949209D03*
X141266068Y-97713141D03*
X145266068Y-101713141D03*
D14*
X191229800Y-94422200D03*
X193846000Y-72933800D03*
X167430000Y-79614000D03*
D16*
X187165800Y-103566200D03*
D14*
X187673800Y-97698800D03*
D15*
X141461842Y-96477073D03*
D16*
X179444200Y-106919000D03*
D14*
X171240000Y-78090000D03*
D15*
X147617209Y-100949209D03*
D14*
X190544000Y-108316000D03*
D15*
X144030000Y-93908915D03*
D14*
X152444000Y-81138000D03*
D15*
X146502136Y-93908915D03*
D14*
X111524600Y-98181400D03*
X113175600Y-79258400D03*
X174821400Y-81950800D03*
X185387800Y-99375200D03*
D15*
X142914927Y-94477073D03*
X142030000Y-95362000D03*
D14*
X172002000Y-80122000D03*
D15*
X144030000Y-101517367D03*
X142914927Y-100949209D03*
X148502136Y-100064282D03*
D14*
X110102200Y-100924600D03*
D15*
X149070294Y-96477073D03*
D14*
X151758200Y-78521800D03*
D15*
X142030000Y-100064282D03*
X146502136Y-101517367D03*
D14*
X111499200Y-78928200D03*
D15*
X149070294Y-98949209D03*
X147617209Y-94477073D03*
X148502136Y-95362000D03*
X145266068Y-93713141D03*
D14*
X189629600Y-95844600D03*
%TO.N,/GPS_PPS*%
X168547600Y-76439000D03*
X183952700Y-107566700D03*
X174923000Y-84617800D03*
%TO.N,/CAPTURE*%
X184448000Y-104480600D03*
%TO.N,/I2C_SCL*%
X115639400Y-107706400D03*
X184041600Y-106487200D03*
X161511800Y-76870800D03*
%TO.N,/I2C_SDA*%
X162680200Y-76743800D03*
X182212800Y-105801400D03*
X116833200Y-107655600D03*
D15*
%TO.N,/5V*%
X179114000Y-73264000D03*
X175558000Y-73264000D03*
X176701000Y-73264000D03*
X177844000Y-73264000D03*
D16*
%TO.N,/USB_VBUS*%
X192195000Y-75067400D03*
X157727200Y-81138000D03*
D14*
%TO.N,/TRIG*%
X185556791Y-108186609D03*
X162248400Y-81976200D03*
X171748000Y-81595200D03*
%TO.N,/UART_TX*%
X164057600Y-76775000D03*
X183152600Y-105776000D03*
%TO.N,/UART_RX*%
X165220200Y-76693000D03*
X181323800Y-106588800D03*
%TO.N,/S_BUS*%
X174059400Y-85506800D03*
X180993600Y-107630200D03*
X167738259Y-77075396D03*
D15*
%TO.N,/Detect_IN*%
X117773000Y-105395000D03*
D14*
%TO.N,/ETH_TX+*%
X169671500Y-81011000D03*
X188254900Y-104349514D03*
%TO.N,/ETH_TX-*%
X168490500Y-81011000D03*
X188816800Y-105090200D03*
%TO.N,/ETH_RX+*%
X166623500Y-81011000D03*
X191737200Y-105242600D03*
%TO.N,/ETH_RX-*%
X192372800Y-104175800D03*
X165442500Y-81011000D03*
%TO.N,/USB D+*%
X160506947Y-80999853D03*
X185939200Y-105813867D03*
%TO.N,/USB D-*%
X185667200Y-107173000D03*
X159671853Y-81894653D03*
D15*
%TO.N,/CAN+*%
X110524232Y-106420768D03*
D14*
X189655000Y-107604800D03*
X158403232Y-77699232D03*
%TO.N,/CAN-*%
X157580780Y-76922488D03*
D15*
X109695800Y-107503200D03*
D14*
X190398671Y-107035699D03*
%TD*%
D17*
%TO.N,/GPS_PPS*%
X182822400Y-104328200D02*
X182822400Y-85329000D01*
X183165300Y-107566700D02*
X181603200Y-106004600D01*
X181958800Y-84389200D02*
X175151600Y-84389200D01*
X182822400Y-85252800D02*
X181958800Y-84389200D01*
X181603200Y-106004600D02*
X181603200Y-105547400D01*
X182822400Y-85329000D02*
X182822400Y-85252800D01*
X175151600Y-84389200D02*
X174923000Y-84617800D01*
X181603200Y-105547400D02*
X182822400Y-104328200D01*
X183952700Y-107566700D02*
X183165300Y-107566700D01*
%TO.N,/I2C_SCL*%
X184041600Y-106487200D02*
X184041600Y-105776000D01*
X161511800Y-75753200D02*
X161511800Y-76870800D01*
X157600200Y-75118200D02*
X160876800Y-75118200D01*
X183838400Y-105572800D02*
X183838400Y-84770200D01*
X182314400Y-83246200D02*
X173957800Y-83246200D01*
X184041600Y-105776000D02*
X183838400Y-105572800D01*
X171519400Y-85684600D02*
X157549400Y-85684600D01*
X173957800Y-83246200D02*
X171519400Y-85684600D01*
X160876800Y-75118200D02*
X161511800Y-75753200D01*
X183838400Y-84770200D02*
X182314400Y-83246200D01*
X156355600Y-84490800D02*
X156355600Y-76362800D01*
X156355600Y-76362800D02*
X157600200Y-75118200D01*
X157549400Y-85684600D02*
X156355600Y-84490800D01*
%TO.N,/I2C_SDA*%
X155796800Y-75956400D02*
X155796800Y-84871800D01*
X157244600Y-74508600D02*
X155796800Y-75956400D01*
X171925800Y-86294200D02*
X174415000Y-83805000D01*
X183355800Y-104658400D02*
X182212800Y-105801400D01*
X183355800Y-84998800D02*
X183355800Y-104658400D01*
X155796800Y-84871800D02*
X157219200Y-86294200D01*
X162680200Y-76743800D02*
X162680200Y-75905600D01*
X182162000Y-83805000D02*
X183355800Y-84998800D01*
X157219200Y-86294200D02*
X171925800Y-86294200D01*
X161283200Y-74508600D02*
X157244600Y-74508600D01*
X174415000Y-83805000D02*
X182162000Y-83805000D01*
X162680200Y-75905600D02*
X161283200Y-74508600D01*
%TO.N,/USB D+*%
X185718000Y-102975090D02*
X185718000Y-105605110D01*
X162461184Y-83525600D02*
X170992910Y-83525600D01*
X160506947Y-81571363D02*
X162461184Y-83525600D01*
X170992910Y-83525600D02*
X173685310Y-80833200D01*
X187089600Y-101603490D02*
X185718000Y-102975090D01*
X187089600Y-81271910D02*
X187089600Y-101603490D01*
X186650890Y-80833200D02*
X187089600Y-81271910D01*
X185718000Y-105605110D02*
X185926757Y-105813867D01*
X160506947Y-80999853D02*
X160506947Y-81571363D01*
X173685310Y-80833200D02*
X186650890Y-80833200D01*
X185926757Y-105813867D02*
X185939200Y-105813867D01*
%TO.N,/USB D-*%
X185667200Y-106200890D02*
X185260800Y-105794490D01*
X186632400Y-101414110D02*
X186632400Y-92542600D01*
X186632400Y-90142600D02*
X186632400Y-81461290D01*
X186632400Y-91042600D02*
X186057104Y-91042600D01*
X186720048Y-91042600D02*
X186632400Y-91042600D01*
X185260800Y-105794490D02*
X185260800Y-102785710D01*
X160183657Y-81894653D02*
X159671853Y-81894653D01*
X186461510Y-81290400D02*
X173874690Y-81290400D01*
X186632400Y-81461290D02*
X186461510Y-81290400D01*
X162271804Y-83982800D02*
X160183657Y-81894653D01*
X186057104Y-90442600D02*
X186332400Y-90442600D01*
X186332400Y-91642600D02*
X186720048Y-91642600D01*
X185260800Y-102785710D02*
X186632400Y-101414110D01*
X186807696Y-91554952D02*
X186807696Y-91130248D01*
X186332400Y-92242600D02*
X186057104Y-92242600D01*
X185667200Y-107173000D02*
X185667200Y-106200890D01*
X173874690Y-81290400D02*
X171182290Y-83982800D01*
X171182290Y-83982800D02*
X162271804Y-83982800D01*
X186057104Y-91642600D02*
X186332400Y-91642600D01*
X185757100Y-90742600D02*
G75*
G03*
X186057104Y-91042600I300000J0D01*
G01*
X186057104Y-91642604D02*
G75*
G03*
X185757104Y-91942600I-4J-299996D01*
G01*
X186720048Y-91042504D02*
G75*
G02*
X186807696Y-91130248I-48J-87696D01*
G01*
X186632400Y-90142600D02*
G75*
G02*
X186332400Y-90442600I-300000J0D01*
G01*
X186332400Y-92242600D02*
G75*
G02*
X186632400Y-92542600I0J-300000D01*
G01*
X185757100Y-91942600D02*
G75*
G03*
X186057104Y-92242600I300000J0D01*
G01*
X186807600Y-91554952D02*
G75*
G02*
X186720048Y-91642600I-87600J-48D01*
G01*
X186057104Y-90442604D02*
G75*
G03*
X185757104Y-90742600I-4J-299996D01*
G01*
%TO.N,/CAN+*%
X190290000Y-77930690D02*
X189433310Y-77074000D01*
X189590000Y-92201400D02*
X189990000Y-92201400D01*
X159184610Y-76464400D02*
X158403232Y-77245778D01*
X168388290Y-78242400D02*
X160604310Y-78242400D01*
X158403232Y-77245778D02*
X158403232Y-77699232D01*
X169556690Y-77074000D02*
X168388290Y-78242400D01*
X159937000Y-76838490D02*
X159562910Y-76464400D01*
X190544000Y-105097110D02*
X190544000Y-104956290D01*
X189629600Y-101972910D02*
X190290000Y-101312510D01*
X190544000Y-104956290D02*
X189629600Y-104041890D01*
X189655000Y-105986110D02*
X190544000Y-105097110D01*
X189629600Y-104041890D02*
X189629600Y-101972910D01*
X190290000Y-101312510D02*
X190290000Y-93101400D01*
X189433310Y-77074000D02*
X169556690Y-77074000D01*
X189990000Y-92801400D02*
X189590000Y-92801400D01*
X190290000Y-91901400D02*
X190290000Y-77930690D01*
X189655000Y-107604800D02*
X189655000Y-105986110D01*
X160604310Y-78242400D02*
X159937000Y-77575090D01*
X159937000Y-77575090D02*
X159937000Y-76838490D01*
X159562910Y-76464400D02*
X159184610Y-76464400D01*
X189290000Y-92501400D02*
G75*
G03*
X189590000Y-92801400I300000J0D01*
G01*
X189590000Y-92201400D02*
G75*
G03*
X189290000Y-92501400I0J-300000D01*
G01*
X189990000Y-92801400D02*
G75*
G02*
X190290000Y-93101400I0J-300000D01*
G01*
X190290000Y-91901400D02*
G75*
G02*
X189990000Y-92201400I-300000J0D01*
G01*
%TO.N,/CAN-*%
X169367310Y-76616800D02*
X168198910Y-77785200D01*
X191001200Y-105286490D02*
X191001200Y-104766910D01*
X158995230Y-76007200D02*
X158079942Y-76922488D01*
X190086800Y-103852510D02*
X190086800Y-102162290D01*
X159752290Y-76007200D02*
X158995230Y-76007200D01*
X160793690Y-77785200D02*
X160394200Y-77385710D01*
X160394200Y-77385710D02*
X160394200Y-76649110D01*
X190398671Y-107035699D02*
X190112200Y-106749228D01*
X190747200Y-77741310D02*
X189622690Y-76616800D01*
X190112200Y-106175490D02*
X191001200Y-105286490D01*
X168198910Y-77785200D02*
X160793690Y-77785200D01*
X158079942Y-76922488D02*
X157580780Y-76922488D01*
X190112200Y-106749228D02*
X190112200Y-106175490D01*
X191001200Y-104766910D02*
X190086800Y-103852510D01*
X189622690Y-76616800D02*
X169367310Y-76616800D01*
X190747200Y-101501890D02*
X190747200Y-77741310D01*
X190086800Y-102162290D02*
X190747200Y-101501890D01*
X160394200Y-76649110D02*
X159752290Y-76007200D01*
%TD*%
%TA.AperFunction,Conductor*%
%TO.N,GND*%
G36*
X149060931Y-72313877D02*
G01*
X149107424Y-72367533D01*
X149117528Y-72437807D01*
X149084660Y-72506128D01*
X148960822Y-72638003D01*
X148958495Y-72641205D01*
X148958494Y-72641207D01*
X148954551Y-72646634D01*
X148774034Y-72895094D01*
X148620941Y-73173568D01*
X148503958Y-73469035D01*
X148502975Y-73472865D01*
X148502972Y-73472873D01*
X148479750Y-73563319D01*
X148424929Y-73776833D01*
X148424433Y-73780761D01*
X148424432Y-73780765D01*
X148411780Y-73880916D01*
X148385100Y-74092109D01*
X148385100Y-74409891D01*
X148424929Y-74725167D01*
X148453250Y-74835470D01*
X148502972Y-75029127D01*
X148502975Y-75029135D01*
X148503958Y-75032965D01*
X148620941Y-75328432D01*
X148774034Y-75606906D01*
X148871646Y-75741257D01*
X148920856Y-75808988D01*
X148960822Y-75863997D01*
X148963533Y-75866883D01*
X148963533Y-75866884D01*
X148991633Y-75896807D01*
X149178358Y-76095650D01*
X149423214Y-76298212D01*
X149560630Y-76385419D01*
X149649974Y-76442118D01*
X149691526Y-76468488D01*
X149695105Y-76470172D01*
X149695112Y-76470176D01*
X149975473Y-76602104D01*
X149975477Y-76602106D01*
X149979063Y-76603793D01*
X149982835Y-76605019D01*
X149982836Y-76605019D01*
X150099256Y-76642846D01*
X150281292Y-76701993D01*
X150593445Y-76761539D01*
X150677256Y-76766812D01*
X150829245Y-76776375D01*
X150829261Y-76776376D01*
X150831240Y-76776500D01*
X150989960Y-76776500D01*
X150991939Y-76776376D01*
X150991955Y-76776375D01*
X151143944Y-76766812D01*
X151227755Y-76761539D01*
X151539908Y-76701993D01*
X151721944Y-76642846D01*
X151838364Y-76605019D01*
X151838365Y-76605019D01*
X151842137Y-76603793D01*
X151845723Y-76602106D01*
X151845727Y-76602104D01*
X152126088Y-76470176D01*
X152126095Y-76470172D01*
X152129674Y-76468488D01*
X152171227Y-76442118D01*
X152260570Y-76385419D01*
X152397986Y-76298212D01*
X152642842Y-76095650D01*
X152787261Y-75941859D01*
X155499487Y-75941859D01*
X155501056Y-75953388D01*
X155501056Y-75953389D01*
X155503049Y-75968032D01*
X155504200Y-75985023D01*
X155504200Y-84820949D01*
X155504022Y-84823374D01*
X155502325Y-84828316D01*
X155502761Y-84839938D01*
X155502761Y-84839941D01*
X155504111Y-84875881D01*
X155504200Y-84880609D01*
X155504200Y-84899011D01*
X155505066Y-84903660D01*
X155505275Y-84906892D01*
X155506415Y-84937241D01*
X155511008Y-84947931D01*
X155512247Y-84953428D01*
X155514938Y-84962284D01*
X155516961Y-84967526D01*
X155519090Y-84978960D01*
X155525193Y-84988861D01*
X155531558Y-84999187D01*
X155540066Y-85015566D01*
X155549443Y-85037392D01*
X155553352Y-85042151D01*
X155555546Y-85044345D01*
X155557596Y-85046606D01*
X155557394Y-85046789D01*
X155563284Y-85054239D01*
X155570180Y-85061845D01*
X155576286Y-85071750D01*
X155585547Y-85078792D01*
X155597314Y-85087740D01*
X155610142Y-85098941D01*
X156976341Y-86465140D01*
X156977933Y-86466984D01*
X156980227Y-86471677D01*
X156988756Y-86479589D01*
X156988757Y-86479590D01*
X157015133Y-86504057D01*
X157018538Y-86507337D01*
X157031541Y-86520340D01*
X157035441Y-86523015D01*
X157037858Y-86525137D01*
X157060140Y-86545807D01*
X157070942Y-86550117D01*
X157075683Y-86553114D01*
X157083872Y-86557486D01*
X157089007Y-86559761D01*
X157098603Y-86566344D01*
X157121717Y-86571829D01*
X157139310Y-86577392D01*
X157161383Y-86586199D01*
X157167512Y-86586800D01*
X157170591Y-86586800D01*
X157173663Y-86586950D01*
X157173650Y-86587221D01*
X157183075Y-86588324D01*
X157193337Y-86588826D01*
X157204659Y-86591513D01*
X157216187Y-86589944D01*
X157216188Y-86589944D01*
X157222898Y-86589031D01*
X157230831Y-86587951D01*
X157247822Y-86586800D01*
X171874949Y-86586800D01*
X171877374Y-86586978D01*
X171882316Y-86588675D01*
X171893938Y-86588239D01*
X171893941Y-86588239D01*
X171929881Y-86586889D01*
X171934609Y-86586800D01*
X171953011Y-86586800D01*
X171957660Y-86585934D01*
X171960892Y-86585725D01*
X171979612Y-86585022D01*
X171979613Y-86585022D01*
X171991241Y-86584585D01*
X172001931Y-86579992D01*
X172007428Y-86578753D01*
X172016284Y-86576062D01*
X172021526Y-86574039D01*
X172032960Y-86571910D01*
X172053187Y-86559442D01*
X172069566Y-86550934D01*
X172083223Y-86545067D01*
X172083225Y-86545066D01*
X172091392Y-86541557D01*
X172096151Y-86537648D01*
X172098345Y-86535454D01*
X172100606Y-86533404D01*
X172100789Y-86533606D01*
X172108239Y-86527716D01*
X172115845Y-86520820D01*
X172125750Y-86514714D01*
X172141740Y-86493686D01*
X172152941Y-86480858D01*
X173294218Y-85339581D01*
X173356530Y-85305555D01*
X173427345Y-85310620D01*
X173484181Y-85353167D01*
X173508992Y-85419687D01*
X173508235Y-85445122D01*
X173500115Y-85506800D01*
X173519172Y-85651554D01*
X173575045Y-85786442D01*
X173663926Y-85902274D01*
X173670476Y-85907300D01*
X173670479Y-85907303D01*
X173773204Y-85986127D01*
X173779757Y-85991155D01*
X173914646Y-86047028D01*
X174059400Y-86066085D01*
X174067588Y-86065007D01*
X174195966Y-86048106D01*
X174204154Y-86047028D01*
X174339043Y-85991155D01*
X174345596Y-85986127D01*
X174448321Y-85907303D01*
X174448324Y-85907300D01*
X174454874Y-85902274D01*
X174543755Y-85786442D01*
X174599628Y-85651554D01*
X174618685Y-85506800D01*
X174610565Y-85445122D01*
X174600706Y-85370232D01*
X174600705Y-85370230D01*
X174599628Y-85362046D01*
X174590323Y-85339581D01*
X174577035Y-85307501D01*
X174569446Y-85236912D01*
X174601225Y-85173425D01*
X174662283Y-85137197D01*
X174733234Y-85139731D01*
X174741663Y-85142875D01*
X174770613Y-85154867D01*
X174770618Y-85154868D01*
X174778246Y-85158028D01*
X174923000Y-85177085D01*
X174931188Y-85176007D01*
X175059566Y-85159106D01*
X175067754Y-85158028D01*
X175202643Y-85102155D01*
X175221429Y-85087740D01*
X175311921Y-85018303D01*
X175311924Y-85018300D01*
X175318474Y-85013274D01*
X175329284Y-84999187D01*
X175400104Y-84906892D01*
X175407355Y-84897442D01*
X175411396Y-84887688D01*
X175463228Y-84762554D01*
X175465781Y-84763611D01*
X175495690Y-84714556D01*
X175559555Y-84683542D01*
X175580434Y-84681800D01*
X181785411Y-84681800D01*
X181853532Y-84701802D01*
X181874506Y-84718705D01*
X182492895Y-85337094D01*
X182526921Y-85399406D01*
X182529800Y-85426189D01*
X182529800Y-104154811D01*
X182509798Y-104222932D01*
X182492895Y-104243906D01*
X181432260Y-105304541D01*
X181430416Y-105306133D01*
X181425723Y-105308427D01*
X181417811Y-105316956D01*
X181417810Y-105316957D01*
X181393343Y-105343333D01*
X181390063Y-105346738D01*
X181377059Y-105359742D01*
X181374384Y-105363642D01*
X181372254Y-105366067D01*
X181359506Y-105379809D01*
X181359504Y-105379812D01*
X181351593Y-105388340D01*
X181347282Y-105399145D01*
X181344283Y-105403889D01*
X181339914Y-105412072D01*
X181337639Y-105417207D01*
X181331056Y-105426803D01*
X181325571Y-105449917D01*
X181320008Y-105467510D01*
X181311201Y-105489583D01*
X181310600Y-105495712D01*
X181310600Y-105498791D01*
X181310450Y-105501863D01*
X181310179Y-105501850D01*
X181309076Y-105511275D01*
X181308574Y-105521537D01*
X181305887Y-105532859D01*
X181307456Y-105544388D01*
X181307456Y-105544389D01*
X181309449Y-105559032D01*
X181310600Y-105576023D01*
X181310600Y-105920754D01*
X181290598Y-105988875D01*
X181236942Y-106035368D01*
X181201044Y-106045676D01*
X181187233Y-106047494D01*
X181187232Y-106047494D01*
X181179046Y-106048572D01*
X181171419Y-106051731D01*
X181171420Y-106051731D01*
X181051786Y-106101285D01*
X181051784Y-106101286D01*
X181044158Y-106104445D01*
X180928326Y-106193326D01*
X180839445Y-106309158D01*
X180836286Y-106316784D01*
X180836285Y-106316786D01*
X180823565Y-106347496D01*
X180783572Y-106444046D01*
X180782495Y-106452230D01*
X180782494Y-106452232D01*
X180776944Y-106494393D01*
X180764515Y-106588800D01*
X180765593Y-106596988D01*
X180778969Y-106698588D01*
X180783572Y-106733554D01*
X180799704Y-106772499D01*
X180833662Y-106854480D01*
X180839445Y-106868442D01*
X180855008Y-106888724D01*
X180870738Y-106909224D01*
X180896338Y-106975445D01*
X180882073Y-107044993D01*
X180832472Y-107095789D01*
X180818994Y-107102337D01*
X180721586Y-107142685D01*
X180721584Y-107142686D01*
X180713958Y-107145845D01*
X180658918Y-107188079D01*
X180608100Y-107227073D01*
X180598126Y-107234726D01*
X180509245Y-107350558D01*
X180453372Y-107485446D01*
X180452295Y-107493630D01*
X180452294Y-107493632D01*
X180441876Y-107572767D01*
X180434315Y-107630200D01*
X180435393Y-107638388D01*
X180450299Y-107751609D01*
X180453372Y-107774954D01*
X180462786Y-107797681D01*
X180505341Y-107900416D01*
X180509245Y-107909842D01*
X180598126Y-108025674D01*
X180604676Y-108030700D01*
X180604679Y-108030703D01*
X180704017Y-108106928D01*
X180713957Y-108114555D01*
X180848846Y-108170428D01*
X180993600Y-108189485D01*
X181001788Y-108188407D01*
X181015446Y-108186609D01*
X181138354Y-108170428D01*
X181273243Y-108114555D01*
X181283183Y-108106928D01*
X181382521Y-108030703D01*
X181382524Y-108030700D01*
X181389074Y-108025674D01*
X181477955Y-107909842D01*
X181481860Y-107900416D01*
X181524414Y-107797681D01*
X181533828Y-107774954D01*
X181536902Y-107751609D01*
X181551807Y-107638388D01*
X181552885Y-107630200D01*
X181545324Y-107572767D01*
X181534906Y-107493632D01*
X181534905Y-107493630D01*
X181533828Y-107485446D01*
X181477955Y-107350558D01*
X181446662Y-107309776D01*
X181421062Y-107243555D01*
X181435327Y-107174007D01*
X181484928Y-107123211D01*
X181498406Y-107116663D01*
X181517466Y-107108768D01*
X181603443Y-107073155D01*
X181609996Y-107068127D01*
X181712721Y-106989303D01*
X181712724Y-106989300D01*
X181719274Y-106984274D01*
X181736511Y-106961811D01*
X181783183Y-106900986D01*
X181808155Y-106868442D01*
X181811315Y-106860814D01*
X181814972Y-106854480D01*
X181866355Y-106805487D01*
X181936068Y-106792051D01*
X182001979Y-106818437D01*
X182013186Y-106828385D01*
X182922441Y-107737640D01*
X182924033Y-107739484D01*
X182926327Y-107744177D01*
X182934856Y-107752089D01*
X182934857Y-107752090D01*
X182961233Y-107776557D01*
X182964638Y-107779837D01*
X182977642Y-107792841D01*
X182981542Y-107795516D01*
X182983967Y-107797646D01*
X182997709Y-107810394D01*
X182997712Y-107810396D01*
X183006240Y-107818307D01*
X183017045Y-107822618D01*
X183021789Y-107825617D01*
X183029972Y-107829986D01*
X183035107Y-107832261D01*
X183044703Y-107838844D01*
X183067817Y-107844329D01*
X183085410Y-107849892D01*
X183107483Y-107858699D01*
X183113612Y-107859300D01*
X183116691Y-107859300D01*
X183119763Y-107859450D01*
X183119750Y-107859721D01*
X183129175Y-107860824D01*
X183139437Y-107861326D01*
X183150759Y-107864013D01*
X183162288Y-107862444D01*
X183162289Y-107862444D01*
X183176932Y-107860451D01*
X183193923Y-107859300D01*
X183416151Y-107859300D01*
X183484272Y-107879302D01*
X183516113Y-107908596D01*
X183552195Y-107955619D01*
X183552199Y-107955623D01*
X183557226Y-107962174D01*
X183563776Y-107967200D01*
X183563779Y-107967203D01*
X183661067Y-108041855D01*
X183673057Y-108051055D01*
X183807946Y-108106928D01*
X183816134Y-108108006D01*
X183878435Y-108116208D01*
X183952700Y-108125985D01*
X183960888Y-108124907D01*
X184089266Y-108108006D01*
X184097454Y-108106928D01*
X184232343Y-108051055D01*
X184244333Y-108041855D01*
X184341621Y-107967203D01*
X184341624Y-107967200D01*
X184348174Y-107962174D01*
X184362661Y-107943295D01*
X184413673Y-107876814D01*
X184437055Y-107846342D01*
X184445301Y-107826436D01*
X184477146Y-107749554D01*
X184492928Y-107711454D01*
X184494672Y-107698212D01*
X184510907Y-107574888D01*
X184511985Y-107566700D01*
X184505844Y-107520054D01*
X184494006Y-107430132D01*
X184494005Y-107430130D01*
X184492928Y-107421946D01*
X184471165Y-107369407D01*
X184440215Y-107294686D01*
X184440214Y-107294684D01*
X184437055Y-107287058D01*
X184348174Y-107171226D01*
X184334873Y-107161020D01*
X184293006Y-107103684D01*
X184288784Y-107032813D01*
X184323547Y-106970910D01*
X184334873Y-106961096D01*
X184430521Y-106887703D01*
X184430524Y-106887700D01*
X184437074Y-106882674D01*
X184525955Y-106766842D01*
X184530423Y-106756057D01*
X184578669Y-106639580D01*
X184581828Y-106631954D01*
X184586432Y-106596988D01*
X184599807Y-106495388D01*
X184600885Y-106487200D01*
X184593414Y-106430450D01*
X184582906Y-106350632D01*
X184582905Y-106350630D01*
X184581828Y-106342446D01*
X184549475Y-106264339D01*
X184529115Y-106215186D01*
X184529114Y-106215184D01*
X184525955Y-106207558D01*
X184450691Y-106109472D01*
X184442097Y-106098272D01*
X184437074Y-106091726D01*
X184430528Y-106086703D01*
X184430525Y-106086700D01*
X184383496Y-106050613D01*
X184341629Y-105993275D01*
X184334200Y-105950651D01*
X184334200Y-105826845D01*
X184334378Y-105824424D01*
X184336074Y-105819484D01*
X184335471Y-105803402D01*
X184334289Y-105771934D01*
X184334200Y-105767207D01*
X184334200Y-105748789D01*
X184333334Y-105744138D01*
X184333123Y-105740890D01*
X184332421Y-105722186D01*
X184331985Y-105710559D01*
X184327391Y-105699868D01*
X184326154Y-105694377D01*
X184323462Y-105685516D01*
X184321439Y-105680274D01*
X184319310Y-105668840D01*
X184313207Y-105658939D01*
X184306842Y-105648613D01*
X184298334Y-105632234D01*
X184292467Y-105618577D01*
X184292466Y-105618575D01*
X184288957Y-105610408D01*
X184285048Y-105605649D01*
X184282854Y-105603455D01*
X184280804Y-105601194D01*
X184281006Y-105601011D01*
X184275116Y-105593561D01*
X184268220Y-105585955D01*
X184262114Y-105576050D01*
X184241086Y-105560060D01*
X184228258Y-105548859D01*
X184167905Y-105488506D01*
X184133879Y-105426194D01*
X184131000Y-105399411D01*
X184131000Y-105137765D01*
X184151002Y-105069644D01*
X184204658Y-105023151D01*
X184274932Y-105013047D01*
X184289612Y-105016058D01*
X184295612Y-105017666D01*
X184303246Y-105020828D01*
X184311436Y-105021906D01*
X184311439Y-105021907D01*
X184439812Y-105038807D01*
X184448000Y-105039885D01*
X184456188Y-105038807D01*
X184468775Y-105037150D01*
X184592754Y-105020828D01*
X184727643Y-104964955D01*
X184765497Y-104935908D01*
X184831716Y-104910308D01*
X184901264Y-104924572D01*
X184952061Y-104974173D01*
X184968200Y-105035871D01*
X184968200Y-105743639D01*
X184968022Y-105746064D01*
X184966325Y-105751006D01*
X184966761Y-105762628D01*
X184966761Y-105762631D01*
X184968111Y-105798571D01*
X184968200Y-105803299D01*
X184968200Y-105821701D01*
X184969066Y-105826350D01*
X184969275Y-105829582D01*
X184970415Y-105859931D01*
X184975008Y-105870621D01*
X184976247Y-105876118D01*
X184978938Y-105884974D01*
X184980961Y-105890216D01*
X184983090Y-105901650D01*
X184989193Y-105911551D01*
X184995558Y-105921877D01*
X185004066Y-105938256D01*
X185008065Y-105947563D01*
X185013443Y-105960082D01*
X185017352Y-105964841D01*
X185019546Y-105967035D01*
X185021596Y-105969296D01*
X185021394Y-105969479D01*
X185027284Y-105976929D01*
X185034180Y-105984535D01*
X185040286Y-105994440D01*
X185055750Y-106006199D01*
X185061314Y-106010430D01*
X185074142Y-106021631D01*
X185337695Y-106285184D01*
X185371721Y-106347496D01*
X185374600Y-106374279D01*
X185374600Y-106636451D01*
X185354598Y-106704572D01*
X185325304Y-106736413D01*
X185278276Y-106772499D01*
X185278272Y-106772503D01*
X185271726Y-106777526D01*
X185182845Y-106893358D01*
X185179686Y-106900984D01*
X185179685Y-106900986D01*
X185154044Y-106962889D01*
X185126972Y-107028246D01*
X185125895Y-107036430D01*
X185125894Y-107036432D01*
X185116371Y-107108768D01*
X185107915Y-107173000D01*
X185108993Y-107181188D01*
X185120248Y-107266677D01*
X185126972Y-107317754D01*
X185138644Y-107345933D01*
X185171239Y-107424622D01*
X185182845Y-107452642D01*
X185194808Y-107468232D01*
X185261642Y-107555333D01*
X185287242Y-107621554D01*
X185272977Y-107691103D01*
X185238383Y-107731999D01*
X185167867Y-107786108D01*
X185167863Y-107786112D01*
X185161317Y-107791135D01*
X185156294Y-107797681D01*
X185146539Y-107810394D01*
X185072436Y-107906967D01*
X185069277Y-107914593D01*
X185069276Y-107914595D01*
X185059118Y-107939119D01*
X185016563Y-108041855D01*
X185015486Y-108050039D01*
X185015485Y-108050041D01*
X185005629Y-108124907D01*
X184997506Y-108186609D01*
X184998584Y-108194797D01*
X185007775Y-108264607D01*
X185016563Y-108331363D01*
X185072436Y-108466251D01*
X185161317Y-108582083D01*
X185167867Y-108587109D01*
X185167870Y-108587112D01*
X185270595Y-108665936D01*
X185277148Y-108670964D01*
X185412037Y-108726837D01*
X185556791Y-108745894D01*
X185564979Y-108744816D01*
X185693357Y-108727915D01*
X185701545Y-108726837D01*
X185836434Y-108670964D01*
X185842987Y-108665936D01*
X185945712Y-108587112D01*
X185945715Y-108587109D01*
X185952265Y-108582083D01*
X186041146Y-108466251D01*
X186097019Y-108331363D01*
X186105808Y-108264607D01*
X186114998Y-108194797D01*
X186116076Y-108186609D01*
X186107953Y-108124907D01*
X186098097Y-108050041D01*
X186098096Y-108050039D01*
X186097019Y-108041855D01*
X186054464Y-107939119D01*
X186044306Y-107914595D01*
X186044305Y-107914593D01*
X186041146Y-107906967D01*
X186036118Y-107900414D01*
X186036116Y-107900411D01*
X185962349Y-107804276D01*
X185936748Y-107738056D01*
X185951013Y-107668507D01*
X185985607Y-107627610D01*
X185992903Y-107622012D01*
X186004663Y-107612988D01*
X186056121Y-107573503D01*
X186056124Y-107573500D01*
X186062674Y-107568474D01*
X186067914Y-107561646D01*
X186123837Y-107488765D01*
X186151555Y-107452642D01*
X186163162Y-107424622D01*
X186195756Y-107345933D01*
X186207428Y-107317754D01*
X186214153Y-107266677D01*
X186225407Y-107181188D01*
X186226485Y-107173000D01*
X186218029Y-107108768D01*
X186208506Y-107036432D01*
X186208505Y-107036430D01*
X186207428Y-107028246D01*
X186180356Y-106962889D01*
X186154715Y-106900986D01*
X186154714Y-106900984D01*
X186151555Y-106893358D01*
X186062674Y-106777526D01*
X186056128Y-106772503D01*
X186056125Y-106772500D01*
X186009096Y-106736413D01*
X185967229Y-106679075D01*
X185959800Y-106636451D01*
X185959800Y-106480939D01*
X185979802Y-106412818D01*
X186033458Y-106366325D01*
X186069355Y-106356017D01*
X186070826Y-106355823D01*
X186083954Y-106354095D01*
X186218843Y-106298222D01*
X186225396Y-106293194D01*
X186328121Y-106214370D01*
X186328124Y-106214367D01*
X186334674Y-106209341D01*
X186423555Y-106093509D01*
X186441290Y-106050695D01*
X186471788Y-105977065D01*
X186479428Y-105958621D01*
X186482449Y-105935679D01*
X186497407Y-105822055D01*
X186498485Y-105813867D01*
X186493983Y-105779668D01*
X186480506Y-105677299D01*
X186480505Y-105677297D01*
X186479428Y-105669113D01*
X186443424Y-105582192D01*
X186426715Y-105541853D01*
X186426714Y-105541851D01*
X186423555Y-105534225D01*
X186365773Y-105458922D01*
X186339701Y-105424944D01*
X186339700Y-105424943D01*
X186334674Y-105418393D01*
X186328124Y-105413367D01*
X186328121Y-105413364D01*
X186225396Y-105334540D01*
X186225394Y-105334539D01*
X186218843Y-105329512D01*
X186088382Y-105275473D01*
X186033101Y-105230924D01*
X186010600Y-105159064D01*
X186010600Y-104349514D01*
X187695615Y-104349514D01*
X187696693Y-104357702D01*
X187710424Y-104461998D01*
X187714672Y-104494268D01*
X187717831Y-104501894D01*
X187752032Y-104584461D01*
X187770545Y-104629156D01*
X187775572Y-104635707D01*
X187829150Y-104705531D01*
X187859426Y-104744988D01*
X187865976Y-104750014D01*
X187865979Y-104750017D01*
X187968704Y-104828841D01*
X187975257Y-104833869D01*
X188110146Y-104889742D01*
X188118334Y-104890820D01*
X188156024Y-104895782D01*
X188220951Y-104924505D01*
X188260042Y-104983770D01*
X188264499Y-105037150D01*
X188257515Y-105090200D01*
X188258593Y-105098388D01*
X188275070Y-105223542D01*
X188276572Y-105234954D01*
X188279731Y-105242580D01*
X188328741Y-105360899D01*
X188332445Y-105369842D01*
X188421326Y-105485674D01*
X188427876Y-105490700D01*
X188427879Y-105490703D01*
X188525540Y-105565641D01*
X188537157Y-105574555D01*
X188672046Y-105630428D01*
X188680234Y-105631506D01*
X188680363Y-105631523D01*
X188816800Y-105649485D01*
X188824988Y-105648407D01*
X188953366Y-105631506D01*
X188961554Y-105630428D01*
X189096443Y-105574555D01*
X189108060Y-105565641D01*
X189205721Y-105490703D01*
X189205724Y-105490700D01*
X189212274Y-105485674D01*
X189301155Y-105369842D01*
X189304860Y-105360899D01*
X189353869Y-105242580D01*
X189357028Y-105234954D01*
X189358531Y-105223542D01*
X189375007Y-105098388D01*
X189376085Y-105090200D01*
X189364199Y-104999917D01*
X189358106Y-104953632D01*
X189358105Y-104953630D01*
X189357028Y-104945446D01*
X189333954Y-104889742D01*
X189304315Y-104818186D01*
X189304314Y-104818184D01*
X189301155Y-104810558D01*
X189212274Y-104694726D01*
X189205724Y-104689700D01*
X189205721Y-104689697D01*
X189102996Y-104610873D01*
X189102994Y-104610872D01*
X189096443Y-104605845D01*
X188961554Y-104549972D01*
X188953366Y-104548894D01*
X188915676Y-104543932D01*
X188850749Y-104515209D01*
X188811658Y-104455944D01*
X188807201Y-104402564D01*
X188813107Y-104357702D01*
X188814185Y-104349514D01*
X188797722Y-104224465D01*
X188796206Y-104212946D01*
X188796205Y-104212944D01*
X188795128Y-104204760D01*
X188772052Y-104149050D01*
X188742415Y-104077500D01*
X188742414Y-104077498D01*
X188739255Y-104069872D01*
X188650374Y-103954040D01*
X188643824Y-103949014D01*
X188643821Y-103949011D01*
X188541096Y-103870187D01*
X188541094Y-103870186D01*
X188534543Y-103865159D01*
X188399654Y-103809286D01*
X188254900Y-103790229D01*
X188246712Y-103791307D01*
X188118332Y-103808208D01*
X188118330Y-103808209D01*
X188110146Y-103809286D01*
X188075990Y-103823434D01*
X187982886Y-103861999D01*
X187982884Y-103862000D01*
X187975258Y-103865159D01*
X187859426Y-103954040D01*
X187770545Y-104069872D01*
X187767386Y-104077498D01*
X187767385Y-104077500D01*
X187737748Y-104149050D01*
X187714672Y-104204760D01*
X187713595Y-104212944D01*
X187713594Y-104212946D01*
X187712078Y-104224465D01*
X187695615Y-104349514D01*
X186010600Y-104349514D01*
X186010600Y-103148479D01*
X186030602Y-103080358D01*
X186047505Y-103059384D01*
X187260540Y-101846349D01*
X187262384Y-101844757D01*
X187267077Y-101842463D01*
X187299457Y-101807557D01*
X187302737Y-101804152D01*
X187315740Y-101791149D01*
X187318415Y-101787249D01*
X187320537Y-101784832D01*
X187341207Y-101762550D01*
X187345517Y-101751748D01*
X187348514Y-101747007D01*
X187352886Y-101738818D01*
X187355161Y-101733683D01*
X187361744Y-101724087D01*
X187367229Y-101700972D01*
X187372794Y-101683375D01*
X187372855Y-101683223D01*
X187381599Y-101661307D01*
X187382200Y-101655178D01*
X187382200Y-101652099D01*
X187382350Y-101649027D01*
X187382621Y-101649040D01*
X187383724Y-101639615D01*
X187384226Y-101629353D01*
X187386913Y-101618031D01*
X187383351Y-101591859D01*
X187382200Y-101574868D01*
X187382200Y-81322762D01*
X187382378Y-81320336D01*
X187384075Y-81315394D01*
X187383259Y-81293637D01*
X187382289Y-81267818D01*
X187382200Y-81263091D01*
X187382200Y-81244699D01*
X187381334Y-81240054D01*
X187381125Y-81236823D01*
X187380422Y-81218097D01*
X187379986Y-81206470D01*
X187375394Y-81195781D01*
X187374161Y-81190310D01*
X187371461Y-81181423D01*
X187369440Y-81176184D01*
X187367310Y-81164750D01*
X187361207Y-81154850D01*
X187361206Y-81154846D01*
X187354844Y-81144525D01*
X187346336Y-81128148D01*
X187336958Y-81106319D01*
X187333049Y-81101560D01*
X187330855Y-81099366D01*
X187328805Y-81097105D01*
X187329006Y-81096922D01*
X187323116Y-81089471D01*
X187316220Y-81081865D01*
X187310114Y-81071960D01*
X187289086Y-81055970D01*
X187276258Y-81044769D01*
X186893749Y-80662260D01*
X186892157Y-80660416D01*
X186889863Y-80655723D01*
X186854957Y-80623343D01*
X186851552Y-80620063D01*
X186838548Y-80607059D01*
X186834648Y-80604384D01*
X186832223Y-80602254D01*
X186818481Y-80589506D01*
X186818478Y-80589504D01*
X186809950Y-80581593D01*
X186799145Y-80577282D01*
X186794401Y-80574283D01*
X186786218Y-80569914D01*
X186781083Y-80567639D01*
X186771487Y-80561056D01*
X186748372Y-80555571D01*
X186730780Y-80550008D01*
X186708707Y-80541201D01*
X186702578Y-80540600D01*
X186699499Y-80540600D01*
X186696427Y-80540450D01*
X186696440Y-80540179D01*
X186687015Y-80539076D01*
X186676753Y-80538574D01*
X186665431Y-80535887D01*
X186653902Y-80537456D01*
X186653901Y-80537456D01*
X186639258Y-80539449D01*
X186622267Y-80540600D01*
X173736163Y-80540600D01*
X173733737Y-80540422D01*
X173728795Y-80538725D01*
X173717172Y-80539161D01*
X173717170Y-80539161D01*
X173681219Y-80540511D01*
X173676492Y-80540600D01*
X173658099Y-80540600D01*
X173653454Y-80541466D01*
X173650223Y-80541675D01*
X173619870Y-80542814D01*
X173609181Y-80547406D01*
X173603710Y-80548639D01*
X173594823Y-80551339D01*
X173589584Y-80553360D01*
X173578150Y-80555490D01*
X173568250Y-80561593D01*
X173568246Y-80561594D01*
X173557925Y-80567956D01*
X173541552Y-80576462D01*
X173519719Y-80585842D01*
X173514960Y-80589751D01*
X173512766Y-80591945D01*
X173510505Y-80593995D01*
X173510322Y-80593794D01*
X173502871Y-80599684D01*
X173495265Y-80606580D01*
X173485360Y-80612686D01*
X173478318Y-80621947D01*
X173469370Y-80633714D01*
X173458169Y-80646542D01*
X172511479Y-81593232D01*
X172449167Y-81627258D01*
X172378352Y-81622193D01*
X172321516Y-81579646D01*
X172297462Y-81520584D01*
X172289306Y-81458631D01*
X172289305Y-81458628D01*
X172288228Y-81450446D01*
X172250627Y-81359670D01*
X172235515Y-81323186D01*
X172235514Y-81323184D01*
X172232355Y-81315558D01*
X172143474Y-81199726D01*
X172136924Y-81194700D01*
X172136921Y-81194697D01*
X172034196Y-81115873D01*
X172034194Y-81115872D01*
X172027643Y-81110845D01*
X171892754Y-81054972D01*
X171748000Y-81035915D01*
X171739812Y-81036993D01*
X171611432Y-81053894D01*
X171611430Y-81053895D01*
X171603246Y-81054972D01*
X171571340Y-81068188D01*
X171475986Y-81107685D01*
X171475984Y-81107686D01*
X171468358Y-81110845D01*
X171352526Y-81199726D01*
X171263645Y-81315558D01*
X171260486Y-81323184D01*
X171260485Y-81323186D01*
X171245373Y-81359670D01*
X171207772Y-81450446D01*
X171206695Y-81458630D01*
X171206694Y-81458632D01*
X171201356Y-81499179D01*
X171188715Y-81595200D01*
X171207772Y-81739954D01*
X171215282Y-81758085D01*
X171245670Y-81831446D01*
X171263645Y-81874842D01*
X171352526Y-81990674D01*
X171359076Y-81995700D01*
X171359079Y-81995703D01*
X171461804Y-82074527D01*
X171468357Y-82079555D01*
X171548540Y-82112768D01*
X171586714Y-82128580D01*
X171603246Y-82135428D01*
X171611434Y-82136506D01*
X171673384Y-82144662D01*
X171738311Y-82173385D01*
X171777402Y-82232650D01*
X171778247Y-82303642D01*
X171746032Y-82358679D01*
X170908616Y-83196095D01*
X170846304Y-83230121D01*
X170819521Y-83233000D01*
X162634573Y-83233000D01*
X162566452Y-83212998D01*
X162545478Y-83196095D01*
X162092218Y-82742835D01*
X162058192Y-82680523D01*
X162063257Y-82609708D01*
X162105804Y-82552872D01*
X162172324Y-82528061D01*
X162197758Y-82528818D01*
X162248400Y-82535485D01*
X162256588Y-82534407D01*
X162304792Y-82528061D01*
X162393154Y-82516428D01*
X162528043Y-82460555D01*
X162534596Y-82455527D01*
X162637321Y-82376703D01*
X162637324Y-82376700D01*
X162643874Y-82371674D01*
X162653846Y-82358679D01*
X162727728Y-82262393D01*
X162732755Y-82255842D01*
X162788628Y-82120954D01*
X162800442Y-82031221D01*
X162806607Y-81984388D01*
X162807685Y-81976200D01*
X162794002Y-81872265D01*
X162789706Y-81839632D01*
X162789705Y-81839630D01*
X162788628Y-81831446D01*
X162751691Y-81742273D01*
X162735915Y-81704186D01*
X162735914Y-81704184D01*
X162732755Y-81696558D01*
X162659636Y-81601267D01*
X162648901Y-81587277D01*
X162648900Y-81587276D01*
X162643874Y-81580726D01*
X162637324Y-81575700D01*
X162637321Y-81575697D01*
X162534596Y-81496873D01*
X162534594Y-81496872D01*
X162528043Y-81491845D01*
X162411179Y-81443438D01*
X162400783Y-81439132D01*
X162393154Y-81435972D01*
X162248400Y-81416915D01*
X162240212Y-81417993D01*
X162111832Y-81434894D01*
X162111830Y-81434895D01*
X162103646Y-81435972D01*
X162068703Y-81450446D01*
X161976386Y-81488685D01*
X161976384Y-81488686D01*
X161968758Y-81491845D01*
X161852926Y-81580726D01*
X161764045Y-81696558D01*
X161760886Y-81704184D01*
X161760885Y-81704186D01*
X161745109Y-81742273D01*
X161708172Y-81831446D01*
X161707095Y-81839630D01*
X161707094Y-81839632D01*
X161702798Y-81872265D01*
X161689115Y-81976200D01*
X161690193Y-81984388D01*
X161695782Y-82026841D01*
X161684843Y-82096989D01*
X161637715Y-82150088D01*
X161569361Y-82169278D01*
X161501483Y-82148467D01*
X161481765Y-82132382D01*
X160911899Y-81562516D01*
X160877873Y-81500204D01*
X160882938Y-81429389D01*
X160904034Y-81396564D01*
X160902421Y-81395327D01*
X160927837Y-81362204D01*
X160991302Y-81279495D01*
X161008978Y-81236823D01*
X161044016Y-81152233D01*
X161047175Y-81144607D01*
X161048518Y-81134411D01*
X161058314Y-81060000D01*
X163420715Y-81060000D01*
X163421793Y-81068188D01*
X163438449Y-81194703D01*
X163439772Y-81204754D01*
X163442931Y-81212380D01*
X163490336Y-81326824D01*
X163495645Y-81339642D01*
X163538374Y-81395327D01*
X163571986Y-81439131D01*
X163584526Y-81455474D01*
X163591076Y-81460500D01*
X163591079Y-81460503D01*
X163669378Y-81520584D01*
X163700357Y-81544355D01*
X163835246Y-81600228D01*
X163843434Y-81601306D01*
X163897775Y-81608460D01*
X163980000Y-81619285D01*
X163988188Y-81618207D01*
X164012465Y-81615011D01*
X164062225Y-81608460D01*
X164116566Y-81601306D01*
X164124754Y-81600228D01*
X164259643Y-81544355D01*
X164290622Y-81520584D01*
X164368921Y-81460503D01*
X164368924Y-81460500D01*
X164375474Y-81455474D01*
X164388015Y-81439131D01*
X164421626Y-81395327D01*
X164464355Y-81339642D01*
X164469665Y-81326824D01*
X164517069Y-81212380D01*
X164520228Y-81204754D01*
X164521552Y-81194703D01*
X164538207Y-81068188D01*
X164539285Y-81060000D01*
X164532834Y-81011000D01*
X164883215Y-81011000D01*
X164884293Y-81019188D01*
X164900794Y-81144525D01*
X164902272Y-81155754D01*
X164905431Y-81163380D01*
X164953528Y-81279495D01*
X164958145Y-81290642D01*
X164993292Y-81336446D01*
X165038473Y-81395327D01*
X165047026Y-81406474D01*
X165053576Y-81411500D01*
X165053579Y-81411503D01*
X165156304Y-81490327D01*
X165162857Y-81495355D01*
X165297746Y-81551228D01*
X165442500Y-81570285D01*
X165450688Y-81569207D01*
X165579066Y-81552306D01*
X165587254Y-81551228D01*
X165722143Y-81495355D01*
X165728696Y-81490327D01*
X165831421Y-81411503D01*
X165831424Y-81411500D01*
X165837974Y-81406474D01*
X165845578Y-81396564D01*
X165921831Y-81297190D01*
X165921832Y-81297188D01*
X165926855Y-81290642D01*
X165926948Y-81290713D01*
X165975266Y-81244644D01*
X166044980Y-81231210D01*
X166110890Y-81257598D01*
X166138799Y-81289807D01*
X166139145Y-81290642D01*
X166144168Y-81297188D01*
X166144169Y-81297190D01*
X166220422Y-81396564D01*
X166228026Y-81406474D01*
X166234576Y-81411500D01*
X166234579Y-81411503D01*
X166337304Y-81490327D01*
X166343857Y-81495355D01*
X166478746Y-81551228D01*
X166623500Y-81570285D01*
X166631688Y-81569207D01*
X166760066Y-81552306D01*
X166768254Y-81551228D01*
X166903143Y-81495355D01*
X166909696Y-81490327D01*
X167012421Y-81411503D01*
X167012424Y-81411500D01*
X167018974Y-81406474D01*
X167027528Y-81395327D01*
X167072708Y-81336446D01*
X167107855Y-81290642D01*
X167112473Y-81279495D01*
X167160569Y-81163380D01*
X167163728Y-81155754D01*
X167165207Y-81144525D01*
X167181707Y-81019188D01*
X167182785Y-81011000D01*
X167931215Y-81011000D01*
X167932293Y-81019188D01*
X167948794Y-81144525D01*
X167950272Y-81155754D01*
X167953431Y-81163380D01*
X168001528Y-81279495D01*
X168006145Y-81290642D01*
X168041292Y-81336446D01*
X168086473Y-81395327D01*
X168095026Y-81406474D01*
X168101576Y-81411500D01*
X168101579Y-81411503D01*
X168204304Y-81490327D01*
X168210857Y-81495355D01*
X168345746Y-81551228D01*
X168490500Y-81570285D01*
X168498688Y-81569207D01*
X168627066Y-81552306D01*
X168635254Y-81551228D01*
X168770143Y-81495355D01*
X168776696Y-81490327D01*
X168879421Y-81411503D01*
X168879424Y-81411500D01*
X168885974Y-81406474D01*
X168893578Y-81396564D01*
X168969831Y-81297190D01*
X168969832Y-81297188D01*
X168974855Y-81290642D01*
X168974948Y-81290713D01*
X169023266Y-81244644D01*
X169092980Y-81231210D01*
X169158890Y-81257598D01*
X169186799Y-81289807D01*
X169187145Y-81290642D01*
X169192168Y-81297188D01*
X169192169Y-81297190D01*
X169268422Y-81396564D01*
X169276026Y-81406474D01*
X169282576Y-81411500D01*
X169282579Y-81411503D01*
X169385304Y-81490327D01*
X169391857Y-81495355D01*
X169526746Y-81551228D01*
X169671500Y-81570285D01*
X169679688Y-81569207D01*
X169808066Y-81552306D01*
X169816254Y-81551228D01*
X169951143Y-81495355D01*
X169957696Y-81490327D01*
X170060421Y-81411503D01*
X170060424Y-81411500D01*
X170066974Y-81406474D01*
X170075528Y-81395327D01*
X170120708Y-81336446D01*
X170155855Y-81290642D01*
X170160473Y-81279495D01*
X170208569Y-81163380D01*
X170211728Y-81155754D01*
X170213207Y-81144525D01*
X170229707Y-81019188D01*
X170230785Y-81011000D01*
X170211728Y-80866246D01*
X170173438Y-80773807D01*
X170159015Y-80738986D01*
X170159014Y-80738984D01*
X170155855Y-80731358D01*
X170095876Y-80653192D01*
X170072001Y-80622077D01*
X170072000Y-80622076D01*
X170066974Y-80615526D01*
X170060424Y-80610500D01*
X170060421Y-80610497D01*
X169957696Y-80531673D01*
X169957694Y-80531672D01*
X169951143Y-80526645D01*
X169816254Y-80470772D01*
X169671500Y-80451715D01*
X169663312Y-80452793D01*
X169534932Y-80469694D01*
X169534930Y-80469695D01*
X169526746Y-80470772D01*
X169478930Y-80490578D01*
X169399486Y-80523485D01*
X169399484Y-80523486D01*
X169391858Y-80526645D01*
X169276026Y-80615526D01*
X169271003Y-80622072D01*
X169192172Y-80724807D01*
X169187145Y-80731358D01*
X169187052Y-80731287D01*
X169138734Y-80777356D01*
X169069020Y-80790790D01*
X169003110Y-80764402D01*
X168975201Y-80732193D01*
X168974855Y-80731358D01*
X168969829Y-80724807D01*
X168891001Y-80622077D01*
X168891000Y-80622076D01*
X168885974Y-80615526D01*
X168879424Y-80610500D01*
X168879421Y-80610497D01*
X168776696Y-80531673D01*
X168776694Y-80531672D01*
X168770143Y-80526645D01*
X168635254Y-80470772D01*
X168490500Y-80451715D01*
X168482312Y-80452793D01*
X168353932Y-80469694D01*
X168353930Y-80469695D01*
X168345746Y-80470772D01*
X168297930Y-80490578D01*
X168218486Y-80523485D01*
X168218484Y-80523486D01*
X168210858Y-80526645D01*
X168095026Y-80615526D01*
X168006145Y-80731358D01*
X168002986Y-80738984D01*
X168002985Y-80738986D01*
X167988562Y-80773807D01*
X167950272Y-80866246D01*
X167931215Y-81011000D01*
X167182785Y-81011000D01*
X167163728Y-80866246D01*
X167125438Y-80773807D01*
X167111015Y-80738986D01*
X167111014Y-80738984D01*
X167107855Y-80731358D01*
X167047876Y-80653192D01*
X167024001Y-80622077D01*
X167024000Y-80622076D01*
X167018974Y-80615526D01*
X167012424Y-80610500D01*
X167012421Y-80610497D01*
X166909696Y-80531673D01*
X166909694Y-80531672D01*
X166903143Y-80526645D01*
X166768254Y-80470772D01*
X166623500Y-80451715D01*
X166615312Y-80452793D01*
X166486932Y-80469694D01*
X166486930Y-80469695D01*
X166478746Y-80470772D01*
X166430930Y-80490578D01*
X166351486Y-80523485D01*
X166351484Y-80523486D01*
X166343858Y-80526645D01*
X166228026Y-80615526D01*
X166223003Y-80622072D01*
X166144172Y-80724807D01*
X166139145Y-80731358D01*
X166139052Y-80731287D01*
X166090734Y-80777356D01*
X166021020Y-80790790D01*
X165955110Y-80764402D01*
X165927201Y-80732193D01*
X165926855Y-80731358D01*
X165921829Y-80724807D01*
X165843001Y-80622077D01*
X165843000Y-80622076D01*
X165837974Y-80615526D01*
X165831424Y-80610500D01*
X165831421Y-80610497D01*
X165728696Y-80531673D01*
X165728694Y-80531672D01*
X165722143Y-80526645D01*
X165587254Y-80470772D01*
X165442500Y-80451715D01*
X165434312Y-80452793D01*
X165305932Y-80469694D01*
X165305930Y-80469695D01*
X165297746Y-80470772D01*
X165249930Y-80490578D01*
X165170486Y-80523485D01*
X165170484Y-80523486D01*
X165162858Y-80526645D01*
X165047026Y-80615526D01*
X164958145Y-80731358D01*
X164954986Y-80738984D01*
X164954985Y-80738986D01*
X164940562Y-80773807D01*
X164902272Y-80866246D01*
X164883215Y-81011000D01*
X164532834Y-81011000D01*
X164526049Y-80959463D01*
X164521306Y-80923432D01*
X164521305Y-80923430D01*
X164520228Y-80915246D01*
X164492155Y-80847473D01*
X164467515Y-80787986D01*
X164467514Y-80787984D01*
X164464355Y-80780358D01*
X164375474Y-80664526D01*
X164368924Y-80659500D01*
X164368921Y-80659497D01*
X164266196Y-80580673D01*
X164266194Y-80580672D01*
X164259643Y-80575645D01*
X164124754Y-80519772D01*
X164092290Y-80515498D01*
X163988188Y-80501793D01*
X163980000Y-80500715D01*
X163971812Y-80501793D01*
X163843432Y-80518694D01*
X163843430Y-80518695D01*
X163835246Y-80519772D01*
X163788437Y-80539161D01*
X163707986Y-80572485D01*
X163707984Y-80572486D01*
X163700358Y-80575645D01*
X163584526Y-80664526D01*
X163495645Y-80780358D01*
X163492486Y-80787984D01*
X163492485Y-80787986D01*
X163467845Y-80847473D01*
X163439772Y-80915246D01*
X163438695Y-80923430D01*
X163438694Y-80923432D01*
X163433951Y-80959463D01*
X163420715Y-81060000D01*
X161058314Y-81060000D01*
X161065154Y-81008041D01*
X161066232Y-80999853D01*
X161056171Y-80923432D01*
X161048253Y-80863285D01*
X161048252Y-80863283D01*
X161047175Y-80855099D01*
X161016216Y-80780358D01*
X160994462Y-80727839D01*
X160994461Y-80727837D01*
X160991302Y-80720211D01*
X160934774Y-80646542D01*
X160907448Y-80610930D01*
X160907447Y-80610929D01*
X160902421Y-80604379D01*
X160895871Y-80599353D01*
X160895868Y-80599350D01*
X160793143Y-80520526D01*
X160793141Y-80520525D01*
X160786590Y-80515498D01*
X160651701Y-80459625D01*
X160506947Y-80440568D01*
X160498759Y-80441646D01*
X160370379Y-80458547D01*
X160370377Y-80458548D01*
X160362193Y-80459625D01*
X160337885Y-80469694D01*
X160234933Y-80512338D01*
X160234931Y-80512339D01*
X160227305Y-80515498D01*
X160175081Y-80555571D01*
X160129299Y-80590701D01*
X160111473Y-80604379D01*
X160022592Y-80720211D01*
X160019433Y-80727837D01*
X160019432Y-80727839D01*
X159997678Y-80780358D01*
X159966719Y-80855099D01*
X159965642Y-80863283D01*
X159965641Y-80863285D01*
X159957723Y-80923432D01*
X159947662Y-80999853D01*
X159948740Y-81008041D01*
X159965377Y-81134411D01*
X159966719Y-81144607D01*
X159969878Y-81152233D01*
X159969879Y-81152236D01*
X159986308Y-81191900D01*
X159993897Y-81262490D01*
X159962118Y-81325977D01*
X159901060Y-81362204D01*
X159830108Y-81359670D01*
X159825236Y-81357853D01*
X159824236Y-81357585D01*
X159816607Y-81354425D01*
X159671853Y-81335368D01*
X159663665Y-81336446D01*
X159535285Y-81353347D01*
X159535283Y-81353348D01*
X159527099Y-81354425D01*
X159514437Y-81359670D01*
X159399839Y-81407138D01*
X159399837Y-81407139D01*
X159392211Y-81410298D01*
X159276379Y-81499179D01*
X159187498Y-81615011D01*
X159184339Y-81622637D01*
X159184338Y-81622639D01*
X159182425Y-81627258D01*
X159131625Y-81749899D01*
X159130548Y-81758083D01*
X159130547Y-81758085D01*
X159116180Y-81867214D01*
X159112568Y-81894653D01*
X159113646Y-81902841D01*
X159129971Y-82026841D01*
X159131625Y-82039407D01*
X159134784Y-82047033D01*
X159176800Y-82148467D01*
X159187498Y-82174295D01*
X159276379Y-82290127D01*
X159282929Y-82295153D01*
X159282932Y-82295156D01*
X159382652Y-82371674D01*
X159392210Y-82379008D01*
X159527099Y-82434881D01*
X159671853Y-82453938D01*
X159680041Y-82452860D01*
X159808419Y-82435959D01*
X159816607Y-82434881D01*
X159951496Y-82379008D01*
X160035119Y-82314842D01*
X160101335Y-82289242D01*
X160170884Y-82303506D01*
X160200915Y-82325710D01*
X162028945Y-84153740D01*
X162030537Y-84155584D01*
X162032831Y-84160277D01*
X162041360Y-84168189D01*
X162041361Y-84168190D01*
X162067737Y-84192657D01*
X162071142Y-84195937D01*
X162084146Y-84208941D01*
X162088046Y-84211616D01*
X162090471Y-84213746D01*
X162104213Y-84226494D01*
X162104216Y-84226496D01*
X162112744Y-84234407D01*
X162123549Y-84238718D01*
X162128293Y-84241717D01*
X162136476Y-84246086D01*
X162141611Y-84248361D01*
X162151207Y-84254944D01*
X162174321Y-84260429D01*
X162191914Y-84265992D01*
X162213987Y-84274799D01*
X162220116Y-84275400D01*
X162223195Y-84275400D01*
X162226267Y-84275550D01*
X162226254Y-84275821D01*
X162235679Y-84276924D01*
X162245941Y-84277426D01*
X162257263Y-84280113D01*
X162268792Y-84278544D01*
X162268793Y-84278544D01*
X162278764Y-84277187D01*
X162283437Y-84276551D01*
X162300427Y-84275400D01*
X171131439Y-84275400D01*
X171133864Y-84275578D01*
X171138806Y-84277275D01*
X171150428Y-84276839D01*
X171150431Y-84276839D01*
X171186371Y-84275489D01*
X171191099Y-84275400D01*
X171209501Y-84275400D01*
X171214150Y-84274534D01*
X171217382Y-84274325D01*
X171236102Y-84273622D01*
X171236103Y-84273622D01*
X171247731Y-84273185D01*
X171258421Y-84268592D01*
X171263918Y-84267353D01*
X171272774Y-84264662D01*
X171278016Y-84262639D01*
X171289450Y-84260510D01*
X171309677Y-84248042D01*
X171326056Y-84239534D01*
X171339713Y-84233667D01*
X171339715Y-84233666D01*
X171347882Y-84230157D01*
X171352641Y-84226248D01*
X171354835Y-84224054D01*
X171357096Y-84222004D01*
X171357279Y-84222206D01*
X171364729Y-84216316D01*
X171372335Y-84209420D01*
X171382240Y-84203314D01*
X171398230Y-84182286D01*
X171409431Y-84169458D01*
X173958984Y-81619905D01*
X174021296Y-81585879D01*
X174048079Y-81583000D01*
X186213800Y-81583000D01*
X186281921Y-81603002D01*
X186328414Y-81656658D01*
X186339800Y-81709000D01*
X186339800Y-90024000D01*
X186319798Y-90092121D01*
X186266142Y-90138614D01*
X186213800Y-90150000D01*
X186093734Y-90150000D01*
X186071854Y-90148086D01*
X186067964Y-90147400D01*
X186067962Y-90147400D01*
X186057108Y-90145486D01*
X186046251Y-90147400D01*
X186045667Y-90147400D01*
X186041158Y-90148051D01*
X185997052Y-90153020D01*
X185931433Y-90160412D01*
X185931429Y-90160413D01*
X185924407Y-90161204D01*
X185917733Y-90163539D01*
X185917734Y-90163539D01*
X185805035Y-90202972D01*
X185805032Y-90202973D01*
X185798360Y-90205308D01*
X185685288Y-90276355D01*
X185680291Y-90281352D01*
X185680286Y-90281356D01*
X185590860Y-90370782D01*
X185519812Y-90483853D01*
X185475706Y-90609899D01*
X185474915Y-90616922D01*
X185474914Y-90616925D01*
X185462545Y-90726702D01*
X185461905Y-90731146D01*
X185461905Y-90731738D01*
X185461295Y-90735200D01*
X185459990Y-90742600D01*
X185461904Y-90753457D01*
X185461904Y-90754076D01*
X185462533Y-90758430D01*
X185468031Y-90807219D01*
X185475702Y-90875301D01*
X185478039Y-90881979D01*
X185478039Y-90881980D01*
X185489311Y-90914193D01*
X185519808Y-91001349D01*
X185590857Y-91114421D01*
X185680283Y-91203847D01*
X185680288Y-91203851D01*
X185685285Y-91208848D01*
X185691271Y-91212609D01*
X185691277Y-91212614D01*
X185728361Y-91235914D01*
X185775400Y-91289091D01*
X185786221Y-91359258D01*
X185757390Y-91424137D01*
X185728363Y-91449289D01*
X185691280Y-91472590D01*
X185685288Y-91476355D01*
X185680291Y-91481352D01*
X185680286Y-91481356D01*
X185590860Y-91570782D01*
X185519812Y-91683853D01*
X185475706Y-91809899D01*
X185474915Y-91816922D01*
X185474914Y-91816925D01*
X185462545Y-91926702D01*
X185461905Y-91931146D01*
X185461905Y-91931738D01*
X185461295Y-91935200D01*
X185459990Y-91942600D01*
X185461904Y-91953457D01*
X185461904Y-91954076D01*
X185462533Y-91958430D01*
X185462910Y-91961772D01*
X185475702Y-92075301D01*
X185519808Y-92201349D01*
X185523570Y-92207337D01*
X185523571Y-92207338D01*
X185542887Y-92238078D01*
X185590857Y-92314421D01*
X185680283Y-92403847D01*
X185680288Y-92403851D01*
X185685285Y-92408848D01*
X185691274Y-92412611D01*
X185792371Y-92476133D01*
X185792374Y-92476134D01*
X185798359Y-92479895D01*
X185805028Y-92482229D01*
X185805031Y-92482230D01*
X185917729Y-92521664D01*
X185917732Y-92521665D01*
X185924406Y-92524000D01*
X185984646Y-92530787D01*
X185993797Y-92532409D01*
X185999287Y-92534599D01*
X186005416Y-92535200D01*
X186016745Y-92535200D01*
X186030849Y-92535992D01*
X186041212Y-92537159D01*
X186045651Y-92537800D01*
X186046252Y-92537800D01*
X186057108Y-92539714D01*
X186067962Y-92537800D01*
X186067964Y-92537800D01*
X186071854Y-92537114D01*
X186093734Y-92535200D01*
X186213800Y-92535200D01*
X186281921Y-92555202D01*
X186328414Y-92608858D01*
X186339800Y-92661200D01*
X186339800Y-101240721D01*
X186319798Y-101308842D01*
X186302895Y-101329816D01*
X185089860Y-102542851D01*
X185088016Y-102544443D01*
X185083323Y-102546737D01*
X185075411Y-102555266D01*
X185075410Y-102555267D01*
X185050943Y-102581643D01*
X185047663Y-102585048D01*
X185034659Y-102598052D01*
X185031984Y-102601952D01*
X185029854Y-102604377D01*
X185017106Y-102618119D01*
X185017104Y-102618122D01*
X185009193Y-102626650D01*
X185004882Y-102637455D01*
X185001883Y-102642199D01*
X184997514Y-102650382D01*
X184995239Y-102655517D01*
X184988656Y-102665113D01*
X184983171Y-102688227D01*
X184977608Y-102705820D01*
X184968801Y-102727893D01*
X184968200Y-102734022D01*
X184968200Y-102737101D01*
X184968050Y-102740173D01*
X184967779Y-102740160D01*
X184966676Y-102749585D01*
X184966174Y-102759847D01*
X184963487Y-102771169D01*
X184965056Y-102782698D01*
X184965056Y-102782699D01*
X184967049Y-102797342D01*
X184968200Y-102814333D01*
X184968200Y-103925329D01*
X184948198Y-103993450D01*
X184894542Y-104039943D01*
X184824268Y-104050047D01*
X184765498Y-104025292D01*
X184727643Y-103996245D01*
X184592754Y-103940372D01*
X184448000Y-103921315D01*
X184303246Y-103940372D01*
X184295616Y-103943532D01*
X184289608Y-103945142D01*
X184218631Y-103943450D01*
X184159837Y-103903654D01*
X184131891Y-103838389D01*
X184131000Y-103823434D01*
X184131000Y-84821045D01*
X184131178Y-84818624D01*
X184132874Y-84813684D01*
X184131089Y-84766134D01*
X184131000Y-84761407D01*
X184131000Y-84742989D01*
X184130134Y-84738338D01*
X184129923Y-84735090D01*
X184129221Y-84716386D01*
X184128785Y-84704759D01*
X184124191Y-84694068D01*
X184122954Y-84688577D01*
X184120262Y-84679716D01*
X184118239Y-84674474D01*
X184116110Y-84663040D01*
X184103642Y-84642813D01*
X184095134Y-84626434D01*
X184089267Y-84612777D01*
X184089266Y-84612775D01*
X184085757Y-84604608D01*
X184081848Y-84599849D01*
X184079654Y-84597655D01*
X184077604Y-84595394D01*
X184077806Y-84595211D01*
X184071916Y-84587761D01*
X184065020Y-84580155D01*
X184058914Y-84570250D01*
X184037886Y-84554260D01*
X184025058Y-84543059D01*
X182557259Y-83075260D01*
X182555667Y-83073416D01*
X182553373Y-83068723D01*
X182518467Y-83036343D01*
X182515062Y-83033063D01*
X182502058Y-83020059D01*
X182498158Y-83017384D01*
X182495733Y-83015254D01*
X182481991Y-83002506D01*
X182481988Y-83002504D01*
X182473460Y-82994593D01*
X182462655Y-82990282D01*
X182457911Y-82987283D01*
X182449728Y-82982914D01*
X182444593Y-82980639D01*
X182434997Y-82974056D01*
X182411882Y-82968571D01*
X182394290Y-82963008D01*
X182372217Y-82954201D01*
X182366088Y-82953600D01*
X182363009Y-82953600D01*
X182359937Y-82953450D01*
X182359950Y-82953179D01*
X182350525Y-82952076D01*
X182340263Y-82951574D01*
X182328941Y-82948887D01*
X182317412Y-82950456D01*
X182317411Y-82950456D01*
X182302768Y-82952449D01*
X182285777Y-82953600D01*
X174008645Y-82953600D01*
X174006224Y-82953422D01*
X174001284Y-82951726D01*
X173989661Y-82952162D01*
X173989659Y-82952162D01*
X173953734Y-82953511D01*
X173949007Y-82953600D01*
X173930589Y-82953600D01*
X173925938Y-82954466D01*
X173922703Y-82954676D01*
X173892359Y-82955815D01*
X173881668Y-82960409D01*
X173876177Y-82961646D01*
X173867316Y-82964338D01*
X173862074Y-82966361D01*
X173850640Y-82968490D01*
X173840739Y-82974593D01*
X173830413Y-82980958D01*
X173814034Y-82989466D01*
X173800377Y-82995333D01*
X173800375Y-82995334D01*
X173792208Y-82998843D01*
X173787449Y-83002752D01*
X173785255Y-83004946D01*
X173782994Y-83006996D01*
X173782811Y-83006794D01*
X173775361Y-83012684D01*
X173767755Y-83019580D01*
X173757850Y-83025686D01*
X173750808Y-83034947D01*
X173741860Y-83046714D01*
X173730659Y-83059542D01*
X171435106Y-85355095D01*
X171372794Y-85389121D01*
X171346011Y-85392000D01*
X157722789Y-85392000D01*
X157654668Y-85371998D01*
X157633694Y-85355095D01*
X156685105Y-84406506D01*
X156651079Y-84344194D01*
X156648200Y-84317411D01*
X156648200Y-81127399D01*
X156968000Y-81127399D01*
X156984518Y-81295862D01*
X157037948Y-81456479D01*
X157041597Y-81462504D01*
X157121961Y-81595200D01*
X157125635Y-81601267D01*
X157130526Y-81606332D01*
X157130527Y-81606333D01*
X157150734Y-81627258D01*
X157243221Y-81723031D01*
X157384860Y-81815717D01*
X157543515Y-81874720D01*
X157550496Y-81875651D01*
X157550498Y-81875652D01*
X157704318Y-81896176D01*
X157704322Y-81896176D01*
X157711299Y-81897107D01*
X157718310Y-81896469D01*
X157718314Y-81896469D01*
X157872852Y-81882405D01*
X157879873Y-81881766D01*
X158040859Y-81829458D01*
X158130399Y-81776082D01*
X158180204Y-81746392D01*
X158180206Y-81746391D01*
X158186256Y-81742784D01*
X158308838Y-81626052D01*
X158313334Y-81619285D01*
X158398610Y-81490935D01*
X158398611Y-81490933D01*
X158402511Y-81485063D01*
X158462620Y-81326824D01*
X158479562Y-81206277D01*
X158485627Y-81163123D01*
X158485627Y-81163118D01*
X158486178Y-81159200D01*
X158486474Y-81138000D01*
X158477516Y-81058132D01*
X158468391Y-80976780D01*
X158468390Y-80976777D01*
X158467606Y-80969784D01*
X158411938Y-80809929D01*
X158322238Y-80666379D01*
X158202964Y-80546269D01*
X158194979Y-80541201D01*
X158132881Y-80501793D01*
X158060044Y-80455569D01*
X158017916Y-80440568D01*
X157907216Y-80401149D01*
X157907211Y-80401148D01*
X157900581Y-80398787D01*
X157893595Y-80397954D01*
X157893591Y-80397953D01*
X157774487Y-80383751D01*
X157732501Y-80378745D01*
X157725498Y-80379481D01*
X157725497Y-80379481D01*
X157571165Y-80395701D01*
X157571161Y-80395702D01*
X157564157Y-80396438D01*
X157557486Y-80398709D01*
X157410587Y-80448717D01*
X157410584Y-80448718D01*
X157403917Y-80450988D01*
X157397919Y-80454678D01*
X157397917Y-80454679D01*
X157265743Y-80535993D01*
X157265741Y-80535995D01*
X157259744Y-80539684D01*
X157138805Y-80658117D01*
X157134994Y-80664031D01*
X157134992Y-80664033D01*
X157098788Y-80720211D01*
X157047109Y-80800400D01*
X157044698Y-80807025D01*
X156991625Y-80952840D01*
X156991624Y-80952845D01*
X156989215Y-80959463D01*
X156968000Y-81127399D01*
X156648200Y-81127399D01*
X156648200Y-76536189D01*
X156668202Y-76468068D01*
X156685105Y-76447094D01*
X157684494Y-75447705D01*
X157746806Y-75413679D01*
X157773589Y-75410800D01*
X160703411Y-75410800D01*
X160771532Y-75430802D01*
X160792506Y-75447705D01*
X161182295Y-75837494D01*
X161216321Y-75899806D01*
X161219200Y-75926589D01*
X161219200Y-76334251D01*
X161199198Y-76402372D01*
X161169904Y-76434213D01*
X161122876Y-76470299D01*
X161122872Y-76470303D01*
X161116326Y-76475326D01*
X161111303Y-76481872D01*
X161095102Y-76502986D01*
X161027445Y-76591158D01*
X161024286Y-76598784D01*
X161024285Y-76598786D01*
X161014413Y-76622620D01*
X160971572Y-76726046D01*
X160970495Y-76734230D01*
X160970494Y-76734232D01*
X160963257Y-76789203D01*
X160952515Y-76870800D01*
X160953593Y-76878988D01*
X160969299Y-76998285D01*
X160971572Y-77015554D01*
X160977553Y-77029993D01*
X161024284Y-77142810D01*
X161027445Y-77150442D01*
X161042816Y-77170474D01*
X161109580Y-77257482D01*
X161116326Y-77266274D01*
X161122879Y-77271302D01*
X161128716Y-77277139D01*
X161126266Y-77279589D01*
X161158684Y-77324021D01*
X161162878Y-77394893D01*
X161128091Y-77456783D01*
X161065365Y-77490040D01*
X161040096Y-77492600D01*
X160967079Y-77492600D01*
X160898958Y-77472598D01*
X160877984Y-77455695D01*
X160723705Y-77301416D01*
X160689679Y-77239104D01*
X160686800Y-77212321D01*
X160686800Y-76699962D01*
X160686978Y-76697536D01*
X160688675Y-76692594D01*
X160688200Y-76679922D01*
X160686889Y-76645018D01*
X160686800Y-76640291D01*
X160686800Y-76621899D01*
X160685934Y-76617254D01*
X160685725Y-76614023D01*
X160685341Y-76603793D01*
X160684586Y-76583670D01*
X160679992Y-76572978D01*
X160678757Y-76567496D01*
X160676061Y-76558623D01*
X160674039Y-76553384D01*
X160671910Y-76541950D01*
X160659438Y-76521716D01*
X160650941Y-76505359D01*
X160641557Y-76483518D01*
X160637649Y-76478760D01*
X160635455Y-76476566D01*
X160633406Y-76474306D01*
X160633607Y-76474123D01*
X160627716Y-76466671D01*
X160620820Y-76459065D01*
X160614714Y-76449160D01*
X160593686Y-76433170D01*
X160580858Y-76421969D01*
X159995149Y-75836260D01*
X159993557Y-75834416D01*
X159991263Y-75829723D01*
X159975517Y-75815116D01*
X159956357Y-75797343D01*
X159952952Y-75794063D01*
X159939948Y-75781059D01*
X159936048Y-75778384D01*
X159933623Y-75776254D01*
X159919881Y-75763506D01*
X159919878Y-75763504D01*
X159911350Y-75755593D01*
X159900545Y-75751282D01*
X159895801Y-75748283D01*
X159887618Y-75743914D01*
X159882483Y-75741639D01*
X159872887Y-75735056D01*
X159849772Y-75729571D01*
X159832180Y-75724008D01*
X159810107Y-75715201D01*
X159803978Y-75714600D01*
X159800899Y-75714600D01*
X159797827Y-75714450D01*
X159797840Y-75714179D01*
X159788415Y-75713076D01*
X159778153Y-75712574D01*
X159766831Y-75709887D01*
X159755302Y-75711456D01*
X159755301Y-75711456D01*
X159740658Y-75713449D01*
X159723667Y-75714600D01*
X159046082Y-75714600D01*
X159043656Y-75714422D01*
X159038714Y-75712725D01*
X159027091Y-75713161D01*
X159027089Y-75713161D01*
X158991138Y-75714511D01*
X158986411Y-75714600D01*
X158968019Y-75714600D01*
X158963374Y-75715466D01*
X158960143Y-75715675D01*
X158929790Y-75716814D01*
X158919098Y-75721408D01*
X158913616Y-75722643D01*
X158904755Y-75725336D01*
X158899512Y-75727359D01*
X158888070Y-75729490D01*
X158867845Y-75741957D01*
X158851468Y-75750464D01*
X158829639Y-75759843D01*
X158824880Y-75763751D01*
X158822694Y-75765937D01*
X158820420Y-75767999D01*
X158820237Y-75767798D01*
X158812791Y-75773684D01*
X158805185Y-75780580D01*
X158795280Y-75786686D01*
X158788238Y-75795947D01*
X158779290Y-75807714D01*
X158768089Y-75820542D01*
X158102689Y-76485942D01*
X158040377Y-76519968D01*
X157969562Y-76514903D01*
X157936894Y-76496812D01*
X157860423Y-76438133D01*
X157725534Y-76382260D01*
X157684631Y-76376875D01*
X157628178Y-76369443D01*
X157580780Y-76363203D01*
X157572592Y-76364281D01*
X157444212Y-76381182D01*
X157444210Y-76381183D01*
X157436026Y-76382260D01*
X157405822Y-76394771D01*
X157308766Y-76434973D01*
X157308764Y-76434974D01*
X157301138Y-76438133D01*
X157248192Y-76478760D01*
X157194489Y-76519968D01*
X157185306Y-76527014D01*
X157096425Y-76642846D01*
X157093266Y-76650472D01*
X157093265Y-76650474D01*
X157072259Y-76701188D01*
X157040552Y-76777734D01*
X157039475Y-76785918D01*
X157039474Y-76785920D01*
X157037175Y-76803382D01*
X157021495Y-76922488D01*
X157022573Y-76930676D01*
X157037664Y-77045302D01*
X157040552Y-77067242D01*
X157043711Y-77074868D01*
X157087472Y-77180515D01*
X157096425Y-77202130D01*
X157134910Y-77252285D01*
X157178326Y-77308865D01*
X157185306Y-77317962D01*
X157191856Y-77322988D01*
X157191859Y-77322991D01*
X157294584Y-77401815D01*
X157301137Y-77406843D01*
X157379599Y-77439343D01*
X157421703Y-77456783D01*
X157436026Y-77462716D01*
X157444214Y-77463794D01*
X157508403Y-77472244D01*
X157580780Y-77481773D01*
X157714922Y-77464113D01*
X157785069Y-77475052D01*
X157838168Y-77522180D01*
X157857358Y-77590534D01*
X157856289Y-77605481D01*
X157849676Y-77655716D01*
X157843947Y-77699232D01*
X157863004Y-77843986D01*
X157918877Y-77978874D01*
X158007758Y-78094706D01*
X158014308Y-78099732D01*
X158014311Y-78099735D01*
X158117036Y-78178559D01*
X158123589Y-78183587D01*
X158258478Y-78239460D01*
X158403232Y-78258517D01*
X158411420Y-78257439D01*
X158539798Y-78240538D01*
X158547986Y-78239460D01*
X158682875Y-78183587D01*
X158689428Y-78178559D01*
X158792153Y-78099735D01*
X158792156Y-78099732D01*
X158798706Y-78094706D01*
X158887587Y-77978874D01*
X158943460Y-77843986D01*
X158962517Y-77699232D01*
X158953258Y-77628902D01*
X158944538Y-77562664D01*
X158944537Y-77562662D01*
X158943460Y-77554478D01*
X158902993Y-77456783D01*
X158890747Y-77427218D01*
X158890746Y-77427216D01*
X158887587Y-77419590D01*
X158864092Y-77388971D01*
X158848756Y-77368984D01*
X158823156Y-77302763D01*
X158837421Y-77233214D01*
X158859624Y-77203185D01*
X159268904Y-76793905D01*
X159331216Y-76759879D01*
X159357999Y-76757000D01*
X159389520Y-76757000D01*
X159457641Y-76777002D01*
X159478615Y-76793904D01*
X159607495Y-76922783D01*
X159641520Y-76985095D01*
X159644400Y-77011879D01*
X159644400Y-77524239D01*
X159644222Y-77526664D01*
X159642525Y-77531606D01*
X159642961Y-77543228D01*
X159642961Y-77543231D01*
X159644311Y-77579171D01*
X159644400Y-77583887D01*
X159644400Y-77602301D01*
X159645266Y-77606950D01*
X159645475Y-77610182D01*
X159645616Y-77613923D01*
X159646615Y-77640531D01*
X159651208Y-77651221D01*
X159652447Y-77656718D01*
X159655138Y-77665574D01*
X159657161Y-77670816D01*
X159659290Y-77682250D01*
X159665393Y-77692151D01*
X159671758Y-77702477D01*
X159680266Y-77718856D01*
X159689643Y-77740682D01*
X159693552Y-77745441D01*
X159695746Y-77747635D01*
X159697796Y-77749896D01*
X159697594Y-77750079D01*
X159703484Y-77757529D01*
X159710380Y-77765135D01*
X159716486Y-77775040D01*
X159725747Y-77782082D01*
X159737514Y-77791030D01*
X159750342Y-77802231D01*
X160361451Y-78413340D01*
X160363043Y-78415184D01*
X160365337Y-78419877D01*
X160373866Y-78427789D01*
X160373867Y-78427790D01*
X160400243Y-78452257D01*
X160403648Y-78455537D01*
X160416652Y-78468541D01*
X160420552Y-78471216D01*
X160422977Y-78473346D01*
X160436719Y-78486094D01*
X160436722Y-78486096D01*
X160445250Y-78494007D01*
X160456055Y-78498318D01*
X160460799Y-78501317D01*
X160468982Y-78505686D01*
X160474117Y-78507961D01*
X160483713Y-78514544D01*
X160506827Y-78520029D01*
X160524420Y-78525592D01*
X160546493Y-78534399D01*
X160552622Y-78535000D01*
X160555701Y-78535000D01*
X160558773Y-78535150D01*
X160558760Y-78535421D01*
X160568185Y-78536524D01*
X160578447Y-78537026D01*
X160589769Y-78539713D01*
X160601298Y-78538144D01*
X160601299Y-78538144D01*
X160615942Y-78536151D01*
X160632933Y-78535000D01*
X168337439Y-78535000D01*
X168339864Y-78535178D01*
X168344806Y-78536875D01*
X168356428Y-78536439D01*
X168356431Y-78536439D01*
X168392371Y-78535089D01*
X168397099Y-78535000D01*
X168415501Y-78535000D01*
X168420150Y-78534134D01*
X168423382Y-78533925D01*
X168442102Y-78533222D01*
X168442103Y-78533222D01*
X168453731Y-78532785D01*
X168464421Y-78528192D01*
X168469918Y-78526953D01*
X168478774Y-78524262D01*
X168484016Y-78522239D01*
X168495450Y-78520110D01*
X168515677Y-78507642D01*
X168532056Y-78499134D01*
X168545713Y-78493267D01*
X168545715Y-78493266D01*
X168553882Y-78489757D01*
X168558641Y-78485848D01*
X168560835Y-78483654D01*
X168563096Y-78481604D01*
X168563279Y-78481806D01*
X168570729Y-78475916D01*
X168578335Y-78469020D01*
X168588240Y-78462914D01*
X168604230Y-78441886D01*
X168615431Y-78429058D01*
X169640983Y-77403505D01*
X169703295Y-77369480D01*
X169730078Y-77366600D01*
X189259921Y-77366600D01*
X189328042Y-77386602D01*
X189349016Y-77403505D01*
X189960495Y-78014984D01*
X189994521Y-78077296D01*
X189997400Y-78104079D01*
X189997400Y-91782800D01*
X189977398Y-91850921D01*
X189923742Y-91897414D01*
X189871400Y-91908800D01*
X189626625Y-91908800D01*
X189604745Y-91906886D01*
X189590000Y-91904286D01*
X189579148Y-91906199D01*
X189578547Y-91906199D01*
X189574105Y-91906841D01*
X189526734Y-91912178D01*
X189464325Y-91919210D01*
X189464321Y-91919211D01*
X189457300Y-91920002D01*
X189331253Y-91964107D01*
X189218182Y-92035155D01*
X189123755Y-92129582D01*
X189052707Y-92242653D01*
X189008602Y-92368700D01*
X189007811Y-92375721D01*
X189007810Y-92375725D01*
X188995441Y-92485502D01*
X188994801Y-92489948D01*
X188994801Y-92490538D01*
X188994191Y-92494000D01*
X188992886Y-92501400D01*
X188994799Y-92512252D01*
X188994799Y-92512854D01*
X188995441Y-92517295D01*
X188997674Y-92537114D01*
X189005758Y-92608858D01*
X189008602Y-92634100D01*
X189052707Y-92760147D01*
X189123755Y-92873218D01*
X189218182Y-92967645D01*
X189331253Y-93038693D01*
X189457300Y-93082798D01*
X189464323Y-93083589D01*
X189464326Y-93083590D01*
X189502295Y-93087868D01*
X189517539Y-93089585D01*
X189526692Y-93091208D01*
X189532183Y-93093399D01*
X189538312Y-93094000D01*
X189549636Y-93094000D01*
X189563740Y-93094792D01*
X189574091Y-93095958D01*
X189578546Y-93096601D01*
X189579148Y-93096601D01*
X189590000Y-93098514D01*
X189604745Y-93095914D01*
X189626625Y-93094000D01*
X189871400Y-93094000D01*
X189939521Y-93114002D01*
X189986014Y-93167658D01*
X189997400Y-93220000D01*
X189997400Y-101139121D01*
X189977398Y-101207242D01*
X189960495Y-101228216D01*
X189458660Y-101730051D01*
X189456816Y-101731643D01*
X189452123Y-101733937D01*
X189444211Y-101742466D01*
X189444210Y-101742467D01*
X189419743Y-101768843D01*
X189416463Y-101772248D01*
X189403459Y-101785252D01*
X189400784Y-101789152D01*
X189398654Y-101791577D01*
X189385906Y-101805319D01*
X189385904Y-101805322D01*
X189377993Y-101813850D01*
X189373682Y-101824655D01*
X189370683Y-101829399D01*
X189366314Y-101837582D01*
X189364039Y-101842717D01*
X189357456Y-101852313D01*
X189351971Y-101875427D01*
X189346408Y-101893020D01*
X189337601Y-101915093D01*
X189337000Y-101921222D01*
X189337000Y-101924301D01*
X189336850Y-101927373D01*
X189336579Y-101927360D01*
X189335476Y-101936785D01*
X189334974Y-101947047D01*
X189332287Y-101958369D01*
X189333856Y-101969898D01*
X189333856Y-101969899D01*
X189335849Y-101984542D01*
X189337000Y-102001533D01*
X189337000Y-103991039D01*
X189336822Y-103993464D01*
X189335125Y-103998406D01*
X189335561Y-104010028D01*
X189335561Y-104010031D01*
X189336911Y-104045971D01*
X189337000Y-104050699D01*
X189337000Y-104069101D01*
X189337866Y-104073750D01*
X189338075Y-104076982D01*
X189338095Y-104077500D01*
X189339215Y-104107331D01*
X189343808Y-104118021D01*
X189345047Y-104123518D01*
X189347738Y-104132374D01*
X189349761Y-104137616D01*
X189351890Y-104149050D01*
X189357993Y-104158951D01*
X189364358Y-104169277D01*
X189372866Y-104185656D01*
X189382243Y-104207482D01*
X189386152Y-104212241D01*
X189388346Y-104214435D01*
X189390396Y-104216696D01*
X189390194Y-104216879D01*
X189396084Y-104224329D01*
X189402980Y-104231935D01*
X189409086Y-104241840D01*
X189418347Y-104248882D01*
X189430114Y-104257830D01*
X189442942Y-104269031D01*
X190111516Y-104937605D01*
X190145542Y-104999917D01*
X190140477Y-105070732D01*
X190111516Y-105115795D01*
X189484060Y-105743251D01*
X189482216Y-105744843D01*
X189477523Y-105747137D01*
X189469611Y-105755666D01*
X189469610Y-105755667D01*
X189445143Y-105782043D01*
X189441863Y-105785448D01*
X189428859Y-105798452D01*
X189426184Y-105802352D01*
X189424054Y-105804777D01*
X189411306Y-105818519D01*
X189411304Y-105818522D01*
X189403393Y-105827050D01*
X189399082Y-105837855D01*
X189396083Y-105842599D01*
X189391714Y-105850782D01*
X189389439Y-105855917D01*
X189382856Y-105865513D01*
X189378238Y-105884974D01*
X189377371Y-105888627D01*
X189371808Y-105906220D01*
X189363001Y-105928293D01*
X189362400Y-105934422D01*
X189362400Y-105937501D01*
X189362250Y-105940573D01*
X189361979Y-105940560D01*
X189360876Y-105949985D01*
X189360374Y-105960247D01*
X189357687Y-105971569D01*
X189359256Y-105983098D01*
X189359256Y-105983099D01*
X189361249Y-105997742D01*
X189362400Y-106014733D01*
X189362400Y-107068251D01*
X189342398Y-107136372D01*
X189313104Y-107168213D01*
X189266076Y-107204299D01*
X189266072Y-107204303D01*
X189259526Y-107209326D01*
X189170645Y-107325158D01*
X189167486Y-107332784D01*
X189167485Y-107332786D01*
X189160124Y-107350558D01*
X189114772Y-107460046D01*
X189113695Y-107468230D01*
X189113694Y-107468232D01*
X189108546Y-107507334D01*
X189095715Y-107604800D01*
X189096793Y-107612988D01*
X189113204Y-107737640D01*
X189114772Y-107749554D01*
X189117931Y-107757180D01*
X189160708Y-107860451D01*
X189170645Y-107884442D01*
X189259526Y-108000274D01*
X189266076Y-108005300D01*
X189266079Y-108005303D01*
X189332283Y-108056103D01*
X189375357Y-108089155D01*
X189510246Y-108145028D01*
X189655000Y-108164085D01*
X189663188Y-108163007D01*
X189791566Y-108146106D01*
X189799754Y-108145028D01*
X189934643Y-108089155D01*
X189977717Y-108056103D01*
X190043921Y-108005303D01*
X190043924Y-108005300D01*
X190050474Y-108000274D01*
X190139355Y-107884442D01*
X190149293Y-107860451D01*
X190192069Y-107757180D01*
X190195228Y-107749554D01*
X190196797Y-107737640D01*
X190200909Y-107706400D01*
X190202251Y-107696212D01*
X190230972Y-107631286D01*
X190290236Y-107592193D01*
X190343617Y-107587736D01*
X190398671Y-107594984D01*
X190406859Y-107593906D01*
X190535237Y-107577005D01*
X190543425Y-107575927D01*
X190678314Y-107520054D01*
X190694891Y-107507334D01*
X190787592Y-107436202D01*
X190787595Y-107436199D01*
X190794145Y-107431173D01*
X190883026Y-107315341D01*
X190886936Y-107305903D01*
X190926939Y-107209326D01*
X190938899Y-107180453D01*
X190940112Y-107171245D01*
X190956878Y-107043887D01*
X190957956Y-107035699D01*
X190949511Y-106971555D01*
X190939977Y-106899131D01*
X190939976Y-106899129D01*
X190938899Y-106890945D01*
X190908865Y-106818437D01*
X190886186Y-106763685D01*
X190886185Y-106763683D01*
X190883026Y-106756057D01*
X190794145Y-106640225D01*
X190787595Y-106635199D01*
X190787592Y-106635196D01*
X190684867Y-106556372D01*
X190684865Y-106556371D01*
X190678314Y-106551344D01*
X190543425Y-106495471D01*
X190514355Y-106491644D01*
X190449427Y-106462922D01*
X190410335Y-106403658D01*
X190404800Y-106366722D01*
X190404800Y-106348879D01*
X190424802Y-106280758D01*
X190441705Y-106259784D01*
X191119297Y-105582192D01*
X191181609Y-105548166D01*
X191252424Y-105553231D01*
X191308355Y-105594584D01*
X191336696Y-105631520D01*
X191336699Y-105631523D01*
X191341726Y-105638074D01*
X191348276Y-105643100D01*
X191348279Y-105643103D01*
X191451004Y-105721927D01*
X191457557Y-105726955D01*
X191592446Y-105782828D01*
X191737200Y-105801885D01*
X191745388Y-105800807D01*
X191762373Y-105798571D01*
X191881954Y-105782828D01*
X192016843Y-105726955D01*
X192023396Y-105721927D01*
X192126121Y-105643103D01*
X192126124Y-105643100D01*
X192132674Y-105638074D01*
X192161114Y-105601011D01*
X192197776Y-105553231D01*
X192221555Y-105522242D01*
X192225384Y-105513000D01*
X192257622Y-105435170D01*
X192277428Y-105387354D01*
X192279734Y-105369842D01*
X192295407Y-105250788D01*
X192296485Y-105242600D01*
X192293359Y-105218855D01*
X192278506Y-105106032D01*
X192278505Y-105106030D01*
X192277428Y-105097846D01*
X192230176Y-104983770D01*
X192224715Y-104970586D01*
X192224714Y-104970584D01*
X192221555Y-104962958D01*
X192216527Y-104956405D01*
X192216525Y-104956402D01*
X192195238Y-104928660D01*
X192169637Y-104862440D01*
X192183901Y-104792891D01*
X192233503Y-104742095D01*
X192302692Y-104726179D01*
X192311645Y-104727034D01*
X192372800Y-104735085D01*
X192380988Y-104734007D01*
X192509366Y-104717106D01*
X192517554Y-104716028D01*
X192652443Y-104660155D01*
X192658996Y-104655127D01*
X192761721Y-104576303D01*
X192761724Y-104576300D01*
X192768274Y-104571274D01*
X192857155Y-104455442D01*
X192913028Y-104320554D01*
X192932085Y-104175800D01*
X192918174Y-104070131D01*
X192914106Y-104039232D01*
X192914105Y-104039230D01*
X192913028Y-104031046D01*
X192868022Y-103922393D01*
X192860315Y-103903786D01*
X192860314Y-103903784D01*
X192857155Y-103896158D01*
X192768274Y-103780326D01*
X192761724Y-103775300D01*
X192761721Y-103775297D01*
X192658996Y-103696473D01*
X192658994Y-103696472D01*
X192652443Y-103691445D01*
X192517554Y-103635572D01*
X192372800Y-103616515D01*
X192364612Y-103617593D01*
X192236232Y-103634494D01*
X192236230Y-103634495D01*
X192228046Y-103635572D01*
X192180230Y-103655378D01*
X192100786Y-103688285D01*
X192100784Y-103688286D01*
X192093158Y-103691445D01*
X191977326Y-103780326D01*
X191888445Y-103896158D01*
X191885286Y-103903784D01*
X191885285Y-103903786D01*
X191877578Y-103922393D01*
X191832572Y-104031046D01*
X191831495Y-104039230D01*
X191831494Y-104039232D01*
X191827426Y-104070131D01*
X191813515Y-104175800D01*
X191832572Y-104320554D01*
X191888445Y-104455442D01*
X191893472Y-104461993D01*
X191893475Y-104461998D01*
X191914762Y-104489740D01*
X191940363Y-104555960D01*
X191926099Y-104625509D01*
X191876497Y-104676305D01*
X191807308Y-104692221D01*
X191798354Y-104691366D01*
X191737200Y-104683315D01*
X191729012Y-104684393D01*
X191600632Y-104701294D01*
X191600630Y-104701295D01*
X191592446Y-104702372D01*
X191457558Y-104758245D01*
X191456793Y-104756399D01*
X191398346Y-104770578D01*
X191331255Y-104747357D01*
X191288575Y-104694461D01*
X191288462Y-104694198D01*
X191283063Y-104676429D01*
X191281040Y-104671187D01*
X191278910Y-104659750D01*
X191266443Y-104639525D01*
X191257936Y-104623149D01*
X191252067Y-104609488D01*
X191248557Y-104601318D01*
X191244648Y-104596560D01*
X191242466Y-104594378D01*
X191240410Y-104592111D01*
X191240611Y-104591929D01*
X191234708Y-104584461D01*
X191227818Y-104576863D01*
X191221714Y-104566960D01*
X191200686Y-104550970D01*
X191187857Y-104539769D01*
X190416304Y-103768215D01*
X190382279Y-103705903D01*
X190379400Y-103679120D01*
X190379400Y-102335679D01*
X190399402Y-102267558D01*
X190416305Y-102246584D01*
X190918140Y-101744749D01*
X190919984Y-101743157D01*
X190924677Y-101740863D01*
X190933454Y-101731402D01*
X190957057Y-101705957D01*
X190960337Y-101702552D01*
X190973341Y-101689548D01*
X190976016Y-101685648D01*
X190978146Y-101683223D01*
X190990894Y-101669481D01*
X190990896Y-101669478D01*
X190998807Y-101660950D01*
X191003118Y-101650145D01*
X191006117Y-101645401D01*
X191010486Y-101637218D01*
X191012761Y-101632083D01*
X191019344Y-101622487D01*
X191024829Y-101599372D01*
X191030394Y-101581775D01*
X191033150Y-101574868D01*
X191039199Y-101559707D01*
X191039800Y-101553578D01*
X191039800Y-101550499D01*
X191039950Y-101547427D01*
X191040221Y-101547440D01*
X191041324Y-101538015D01*
X191041826Y-101527753D01*
X191044513Y-101516431D01*
X191040951Y-101490257D01*
X191039800Y-101473267D01*
X191039800Y-77792155D01*
X191039978Y-77789734D01*
X191041674Y-77784794D01*
X191040651Y-77757529D01*
X191039889Y-77737244D01*
X191039800Y-77732517D01*
X191039800Y-77714099D01*
X191038934Y-77709448D01*
X191038723Y-77706200D01*
X191037585Y-77675869D01*
X191032991Y-77665178D01*
X191031754Y-77659687D01*
X191029062Y-77650826D01*
X191027039Y-77645584D01*
X191024910Y-77634150D01*
X191012442Y-77613923D01*
X191003934Y-77597544D01*
X190998067Y-77583887D01*
X190998066Y-77583885D01*
X190994557Y-77575718D01*
X190990648Y-77570959D01*
X190988454Y-77568765D01*
X190986404Y-77566504D01*
X190986606Y-77566321D01*
X190980716Y-77558871D01*
X190973820Y-77551265D01*
X190967714Y-77541360D01*
X190946686Y-77525370D01*
X190933858Y-77514169D01*
X189865549Y-76445860D01*
X189863957Y-76444016D01*
X189861663Y-76439323D01*
X189850626Y-76429084D01*
X189826757Y-76406943D01*
X189823352Y-76403663D01*
X189810348Y-76390659D01*
X189806448Y-76387984D01*
X189804023Y-76385854D01*
X189790281Y-76373106D01*
X189790278Y-76373104D01*
X189781750Y-76365193D01*
X189770945Y-76360882D01*
X189766201Y-76357883D01*
X189758018Y-76353514D01*
X189752883Y-76351239D01*
X189743287Y-76344656D01*
X189720172Y-76339171D01*
X189702580Y-76333608D01*
X189680507Y-76324801D01*
X189674378Y-76324200D01*
X189671299Y-76324200D01*
X189668227Y-76324050D01*
X189668240Y-76323779D01*
X189658815Y-76322676D01*
X189648553Y-76322174D01*
X189637231Y-76319487D01*
X189625702Y-76321056D01*
X189625701Y-76321056D01*
X189611058Y-76323049D01*
X189594067Y-76324200D01*
X169418161Y-76324200D01*
X169415736Y-76324022D01*
X169410794Y-76322325D01*
X169399172Y-76322761D01*
X169399169Y-76322761D01*
X169363229Y-76324111D01*
X169358501Y-76324200D01*
X169340099Y-76324200D01*
X169335450Y-76325066D01*
X169332218Y-76325275D01*
X169313498Y-76325978D01*
X169313497Y-76325978D01*
X169301869Y-76326415D01*
X169291179Y-76331008D01*
X169285682Y-76332247D01*
X169276826Y-76334938D01*
X169271584Y-76336961D01*
X169260150Y-76339090D01*
X169250249Y-76345193D01*
X169243120Y-76347944D01*
X169172366Y-76353806D01*
X169109675Y-76320485D01*
X169081352Y-76278611D01*
X169035115Y-76166986D01*
X169035114Y-76166984D01*
X169031955Y-76159358D01*
X168969219Y-76077599D01*
X168948101Y-76050077D01*
X168948100Y-76050076D01*
X168943074Y-76043526D01*
X168936524Y-76038500D01*
X168936521Y-76038497D01*
X168833796Y-75959673D01*
X168833794Y-75959672D01*
X168827243Y-75954645D01*
X168692354Y-75898772D01*
X168547600Y-75879715D01*
X168539412Y-75880793D01*
X168411032Y-75897694D01*
X168411030Y-75897695D01*
X168402846Y-75898772D01*
X168373656Y-75910863D01*
X168275586Y-75951485D01*
X168275584Y-75951486D01*
X168267958Y-75954645D01*
X168152126Y-76043526D01*
X168063245Y-76159358D01*
X168060086Y-76166984D01*
X168060085Y-76166986D01*
X168032518Y-76233538D01*
X168007372Y-76294246D01*
X168006295Y-76302430D01*
X168006294Y-76302432D01*
X167990522Y-76422234D01*
X167961800Y-76487162D01*
X167902534Y-76526253D01*
X167849154Y-76530710D01*
X167746448Y-76517189D01*
X167746447Y-76517189D01*
X167738259Y-76516111D01*
X167730071Y-76517189D01*
X167601691Y-76534090D01*
X167601689Y-76534091D01*
X167593505Y-76535168D01*
X167561932Y-76548246D01*
X167466245Y-76587881D01*
X167466243Y-76587882D01*
X167458617Y-76591041D01*
X167342785Y-76679922D01*
X167253904Y-76795754D01*
X167250745Y-76803380D01*
X167250744Y-76803382D01*
X167236507Y-76837754D01*
X167198031Y-76930642D01*
X167196954Y-76938826D01*
X167196953Y-76938828D01*
X167185848Y-77023180D01*
X167178974Y-77075396D01*
X167180052Y-77083584D01*
X167195798Y-77203185D01*
X167198031Y-77220150D01*
X167231693Y-77301416D01*
X167238720Y-77318381D01*
X167246309Y-77388971D01*
X167214530Y-77452458D01*
X167153472Y-77488686D01*
X167122311Y-77492600D01*
X165317215Y-77492600D01*
X165249094Y-77472598D01*
X165220279Y-77439343D01*
X165206825Y-77460836D01*
X165142600Y-77491095D01*
X165123185Y-77492600D01*
X164401333Y-77492600D01*
X164333212Y-77472598D01*
X164286719Y-77418942D01*
X164276615Y-77348668D01*
X164306109Y-77284088D01*
X164334874Y-77260336D01*
X164337243Y-77259355D01*
X164349186Y-77250191D01*
X164446521Y-77175503D01*
X164446524Y-77175500D01*
X164453074Y-77170474D01*
X164463419Y-77156993D01*
X164519747Y-77083584D01*
X164541955Y-77054642D01*
X164548469Y-77038916D01*
X164593018Y-76983636D01*
X164660381Y-76961215D01*
X164729172Y-76978773D01*
X164764840Y-77010431D01*
X164819695Y-77081918D01*
X164824726Y-77088474D01*
X164831276Y-77093500D01*
X164831279Y-77093503D01*
X164934004Y-77172327D01*
X164940557Y-77177355D01*
X165075446Y-77233228D01*
X165083634Y-77234306D01*
X165139631Y-77241678D01*
X165204558Y-77270400D01*
X165218553Y-77291617D01*
X165221991Y-77284088D01*
X165281717Y-77245704D01*
X165300769Y-77241678D01*
X165356766Y-77234306D01*
X165364954Y-77233228D01*
X165499843Y-77177355D01*
X165506396Y-77172327D01*
X165609121Y-77093503D01*
X165609124Y-77093500D01*
X165615674Y-77088474D01*
X165636608Y-77061193D01*
X165665776Y-77023180D01*
X165704555Y-76972642D01*
X165709289Y-76961215D01*
X165757269Y-76845380D01*
X165760428Y-76837754D01*
X165765958Y-76795754D01*
X165778407Y-76701188D01*
X165779485Y-76693000D01*
X165770889Y-76627708D01*
X165761506Y-76556432D01*
X165761505Y-76556430D01*
X165760428Y-76548246D01*
X165728757Y-76471786D01*
X165707715Y-76420986D01*
X165707714Y-76420984D01*
X165704555Y-76413358D01*
X165636142Y-76324200D01*
X165620701Y-76304077D01*
X165620700Y-76304076D01*
X165615674Y-76297526D01*
X165609124Y-76292500D01*
X165609121Y-76292497D01*
X165506396Y-76213673D01*
X165506394Y-76213672D01*
X165499843Y-76208645D01*
X165364954Y-76152772D01*
X165220200Y-76133715D01*
X165212012Y-76134793D01*
X165083632Y-76151694D01*
X165083630Y-76151695D01*
X165075446Y-76152772D01*
X165059546Y-76159358D01*
X164948186Y-76205485D01*
X164948184Y-76205486D01*
X164940558Y-76208645D01*
X164886826Y-76249875D01*
X164849377Y-76278611D01*
X164824726Y-76297526D01*
X164819703Y-76304072D01*
X164804581Y-76323779D01*
X164735845Y-76413358D01*
X164732686Y-76420984D01*
X164732685Y-76420986D01*
X164729331Y-76429084D01*
X164684782Y-76484364D01*
X164617419Y-76506785D01*
X164548628Y-76489227D01*
X164512960Y-76457569D01*
X164458105Y-76386082D01*
X164458103Y-76386080D01*
X164453074Y-76379526D01*
X164446524Y-76374500D01*
X164446521Y-76374497D01*
X164343796Y-76295673D01*
X164343794Y-76295672D01*
X164337243Y-76290645D01*
X164202354Y-76234772D01*
X164057600Y-76215715D01*
X164049412Y-76216793D01*
X163921032Y-76233694D01*
X163921030Y-76233695D01*
X163912846Y-76234772D01*
X163865030Y-76254578D01*
X163785586Y-76287485D01*
X163785584Y-76287486D01*
X163777958Y-76290645D01*
X163662126Y-76379526D01*
X163573245Y-76495358D01*
X163570086Y-76502984D01*
X163570085Y-76502986D01*
X163543364Y-76567496D01*
X163517372Y-76630246D01*
X163516295Y-76638430D01*
X163516294Y-76638432D01*
X163501441Y-76751255D01*
X163498315Y-76775000D01*
X163499393Y-76783188D01*
X163507581Y-76845380D01*
X163517372Y-76919754D01*
X163537178Y-76967570D01*
X163567363Y-77040441D01*
X163573245Y-77054642D01*
X163595453Y-77083584D01*
X163651782Y-77156993D01*
X163662126Y-77170474D01*
X163668676Y-77175500D01*
X163668679Y-77175503D01*
X163766014Y-77250191D01*
X163777957Y-77259355D01*
X163779110Y-77259833D01*
X163825861Y-77308865D01*
X163839296Y-77378579D01*
X163812908Y-77444490D01*
X163755075Y-77485671D01*
X163713867Y-77492600D01*
X162954862Y-77492600D01*
X162886741Y-77472598D01*
X162840248Y-77418942D01*
X162830144Y-77348668D01*
X162859638Y-77284088D01*
X162906642Y-77250192D01*
X162959843Y-77228155D01*
X162966396Y-77223127D01*
X163069121Y-77144303D01*
X163069124Y-77144300D01*
X163075674Y-77139274D01*
X163164555Y-77023442D01*
X163167823Y-77015554D01*
X163207504Y-76919754D01*
X163220428Y-76888554D01*
X163221688Y-76878988D01*
X163238407Y-76751988D01*
X163239485Y-76743800D01*
X163231213Y-76680969D01*
X163221506Y-76607232D01*
X163221505Y-76607230D01*
X163220428Y-76599046D01*
X163199386Y-76548246D01*
X163167715Y-76471786D01*
X163167714Y-76471784D01*
X163164555Y-76464158D01*
X163075674Y-76348326D01*
X163069128Y-76343303D01*
X163069125Y-76343300D01*
X163022096Y-76307213D01*
X162980229Y-76249875D01*
X162972800Y-76207251D01*
X162972800Y-75956445D01*
X162972978Y-75954024D01*
X162974674Y-75949084D01*
X162973658Y-75922000D01*
X162972889Y-75901534D01*
X162972800Y-75896807D01*
X162972800Y-75878389D01*
X162971934Y-75873738D01*
X162971723Y-75870490D01*
X162971588Y-75866884D01*
X162970585Y-75840159D01*
X162965991Y-75829468D01*
X162964754Y-75823977D01*
X162962062Y-75815116D01*
X162960039Y-75809874D01*
X162957910Y-75798440D01*
X162949731Y-75785171D01*
X162945442Y-75778213D01*
X162936934Y-75761834D01*
X162931067Y-75748177D01*
X162931066Y-75748175D01*
X162927557Y-75740008D01*
X162923648Y-75735249D01*
X162921454Y-75733055D01*
X162919404Y-75730794D01*
X162919606Y-75730611D01*
X162913716Y-75723161D01*
X162906820Y-75715555D01*
X162900714Y-75705650D01*
X162879686Y-75689660D01*
X162866858Y-75678459D01*
X162245198Y-75056799D01*
X191435800Y-75056799D01*
X191452318Y-75225262D01*
X191505748Y-75385879D01*
X191593435Y-75530667D01*
X191598326Y-75535732D01*
X191598327Y-75535733D01*
X191622062Y-75560311D01*
X191711021Y-75652431D01*
X191852660Y-75745117D01*
X192011315Y-75804120D01*
X192018296Y-75805051D01*
X192018298Y-75805052D01*
X192172118Y-75825576D01*
X192172122Y-75825576D01*
X192179099Y-75826507D01*
X192186110Y-75825869D01*
X192186114Y-75825869D01*
X192340652Y-75811805D01*
X192347673Y-75811166D01*
X192508659Y-75758858D01*
X192627927Y-75687760D01*
X192648004Y-75675792D01*
X192648006Y-75675791D01*
X192654056Y-75672184D01*
X192776638Y-75555452D01*
X192780539Y-75549581D01*
X192866410Y-75420335D01*
X192866411Y-75420333D01*
X192870311Y-75414463D01*
X192930420Y-75256224D01*
X192953978Y-75088600D01*
X192954274Y-75067400D01*
X192940065Y-74940723D01*
X192936191Y-74906180D01*
X192936190Y-74906177D01*
X192935406Y-74899184D01*
X192879738Y-74739329D01*
X192790038Y-74595779D01*
X192670764Y-74475669D01*
X192527844Y-74384969D01*
X192500442Y-74375212D01*
X192375016Y-74330549D01*
X192375011Y-74330548D01*
X192368381Y-74328187D01*
X192361395Y-74327354D01*
X192361391Y-74327353D01*
X192242287Y-74313151D01*
X192200301Y-74308145D01*
X192193298Y-74308881D01*
X192193297Y-74308881D01*
X192038965Y-74325101D01*
X192038961Y-74325102D01*
X192031957Y-74325838D01*
X192025286Y-74328109D01*
X191878387Y-74378117D01*
X191878384Y-74378118D01*
X191871717Y-74380388D01*
X191865719Y-74384078D01*
X191865717Y-74384079D01*
X191733543Y-74465393D01*
X191733541Y-74465395D01*
X191727544Y-74469084D01*
X191606605Y-74587517D01*
X191514909Y-74729800D01*
X191512498Y-74736425D01*
X191459425Y-74882240D01*
X191459424Y-74882245D01*
X191457015Y-74888863D01*
X191435800Y-75056799D01*
X162245198Y-75056799D01*
X161526059Y-74337660D01*
X161524467Y-74335816D01*
X161522173Y-74331123D01*
X161497403Y-74308145D01*
X161487267Y-74298743D01*
X161483862Y-74295463D01*
X161470858Y-74282459D01*
X161466958Y-74279784D01*
X161464533Y-74277654D01*
X161450791Y-74264906D01*
X161450788Y-74264904D01*
X161442260Y-74256993D01*
X161431455Y-74252682D01*
X161426711Y-74249683D01*
X161418528Y-74245314D01*
X161413393Y-74243039D01*
X161403797Y-74236456D01*
X161380682Y-74230971D01*
X161363090Y-74225408D01*
X161341017Y-74216601D01*
X161334888Y-74216000D01*
X161331809Y-74216000D01*
X161328737Y-74215850D01*
X161328750Y-74215579D01*
X161319325Y-74214476D01*
X161309063Y-74213974D01*
X161297741Y-74211287D01*
X161286212Y-74212856D01*
X161286211Y-74212856D01*
X161271568Y-74214849D01*
X161254577Y-74216000D01*
X157295445Y-74216000D01*
X157293024Y-74215822D01*
X157288084Y-74214126D01*
X157276461Y-74214562D01*
X157276459Y-74214562D01*
X157240534Y-74215911D01*
X157235807Y-74216000D01*
X157217389Y-74216000D01*
X157212738Y-74216866D01*
X157209503Y-74217076D01*
X157179159Y-74218215D01*
X157168468Y-74222809D01*
X157162977Y-74224046D01*
X157154116Y-74226738D01*
X157148874Y-74228761D01*
X157137440Y-74230890D01*
X157127539Y-74236993D01*
X157117213Y-74243358D01*
X157100834Y-74251866D01*
X157087177Y-74257733D01*
X157087175Y-74257734D01*
X157079008Y-74261243D01*
X157074249Y-74265152D01*
X157072055Y-74267346D01*
X157069794Y-74269396D01*
X157069611Y-74269194D01*
X157062161Y-74275084D01*
X157054555Y-74281980D01*
X157044650Y-74288086D01*
X157037608Y-74297347D01*
X157028660Y-74309114D01*
X157017459Y-74321942D01*
X155625860Y-75713541D01*
X155624016Y-75715133D01*
X155619323Y-75717427D01*
X155611411Y-75725956D01*
X155611410Y-75725957D01*
X155586943Y-75752333D01*
X155583663Y-75755738D01*
X155570659Y-75768742D01*
X155567984Y-75772642D01*
X155565854Y-75775067D01*
X155553106Y-75788809D01*
X155553104Y-75788812D01*
X155545193Y-75797340D01*
X155540882Y-75808145D01*
X155537883Y-75812889D01*
X155533514Y-75821072D01*
X155531239Y-75826207D01*
X155524656Y-75835803D01*
X155519171Y-75858917D01*
X155513608Y-75876510D01*
X155504801Y-75898583D01*
X155504200Y-75904712D01*
X155504200Y-75907791D01*
X155504050Y-75910863D01*
X155503779Y-75910850D01*
X155502676Y-75920275D01*
X155502174Y-75930537D01*
X155499487Y-75941859D01*
X152787261Y-75941859D01*
X152829567Y-75896807D01*
X152857667Y-75866884D01*
X152857667Y-75866883D01*
X152860378Y-75863997D01*
X152900345Y-75808988D01*
X152949554Y-75741257D01*
X153047166Y-75606906D01*
X153200259Y-75328432D01*
X153317242Y-75032965D01*
X153318225Y-75029135D01*
X153318228Y-75029127D01*
X153367950Y-74835470D01*
X153396271Y-74725167D01*
X153436100Y-74409891D01*
X153436100Y-74092109D01*
X153409420Y-73880916D01*
X153396768Y-73780765D01*
X153396767Y-73780761D01*
X153396271Y-73776833D01*
X153341450Y-73563319D01*
X153318228Y-73472873D01*
X153318225Y-73472865D01*
X153317242Y-73469035D01*
X153233330Y-73257096D01*
X174898729Y-73257096D01*
X174916113Y-73414553D01*
X174918723Y-73421684D01*
X174918723Y-73421686D01*
X174924121Y-73436435D01*
X174970553Y-73563319D01*
X174974789Y-73569622D01*
X174974789Y-73569623D01*
X175049242Y-73680420D01*
X175058908Y-73694805D01*
X175064527Y-73699918D01*
X175064528Y-73699919D01*
X175081326Y-73715204D01*
X175176076Y-73801419D01*
X175315293Y-73877008D01*
X175468522Y-73917207D01*
X175552477Y-73918526D01*
X175619319Y-73919576D01*
X175619322Y-73919576D01*
X175626916Y-73919695D01*
X175781332Y-73884329D01*
X175851742Y-73848917D01*
X175916072Y-73816563D01*
X175916075Y-73816561D01*
X175922855Y-73813151D01*
X175928626Y-73808222D01*
X175928629Y-73808220D01*
X176037536Y-73715204D01*
X176037536Y-73715203D01*
X176043314Y-73710269D01*
X176044068Y-73711152D01*
X176098617Y-73678327D01*
X176169583Y-73680420D01*
X176215335Y-73707023D01*
X176224326Y-73715204D01*
X176319076Y-73801419D01*
X176458293Y-73877008D01*
X176611522Y-73917207D01*
X176695477Y-73918526D01*
X176762319Y-73919576D01*
X176762322Y-73919576D01*
X176769916Y-73919695D01*
X176924332Y-73884329D01*
X176994742Y-73848917D01*
X177059072Y-73816563D01*
X177059075Y-73816561D01*
X177065855Y-73813151D01*
X177071626Y-73808222D01*
X177071629Y-73808220D01*
X177180536Y-73715204D01*
X177180536Y-73715203D01*
X177186314Y-73710269D01*
X177187068Y-73711152D01*
X177241617Y-73678327D01*
X177312583Y-73680420D01*
X177358335Y-73707023D01*
X177367326Y-73715204D01*
X177462076Y-73801419D01*
X177601293Y-73877008D01*
X177754522Y-73917207D01*
X177838477Y-73918526D01*
X177905319Y-73919576D01*
X177905322Y-73919576D01*
X177912916Y-73919695D01*
X178067332Y-73884329D01*
X178137742Y-73848917D01*
X178202072Y-73816563D01*
X178202075Y-73816561D01*
X178208855Y-73813151D01*
X178214626Y-73808222D01*
X178214629Y-73808220D01*
X178323536Y-73715204D01*
X178323536Y-73715203D01*
X178329314Y-73710269D01*
X178376478Y-73644634D01*
X178432470Y-73600988D01*
X178503173Y-73594542D01*
X178566138Y-73627345D01*
X178583380Y-73647887D01*
X178610668Y-73688497D01*
X178610671Y-73688500D01*
X178614908Y-73694805D01*
X178620527Y-73699918D01*
X178620528Y-73699919D01*
X178637326Y-73715204D01*
X178732076Y-73801419D01*
X178871293Y-73877008D01*
X179024522Y-73917207D01*
X179108477Y-73918526D01*
X179175319Y-73919576D01*
X179175322Y-73919576D01*
X179182916Y-73919695D01*
X179337332Y-73884329D01*
X179407742Y-73848917D01*
X179472072Y-73816563D01*
X179472075Y-73816561D01*
X179478855Y-73813151D01*
X179484626Y-73808222D01*
X179484629Y-73808220D01*
X179593536Y-73715204D01*
X179593536Y-73715203D01*
X179599314Y-73710269D01*
X179691755Y-73581624D01*
X179750842Y-73434641D01*
X179773162Y-73277807D01*
X179773307Y-73264000D01*
X179754276Y-73106733D01*
X179698280Y-72958546D01*
X179645226Y-72881352D01*
X179612855Y-72834251D01*
X179612854Y-72834249D01*
X179608553Y-72827992D01*
X179490275Y-72722611D01*
X179482889Y-72718700D01*
X179356988Y-72652039D01*
X179356989Y-72652039D01*
X179350274Y-72648484D01*
X179196633Y-72609892D01*
X179189034Y-72609852D01*
X179189033Y-72609852D01*
X179123181Y-72609507D01*
X179038221Y-72609062D01*
X179030841Y-72610834D01*
X179030839Y-72610834D01*
X178891563Y-72644271D01*
X178891560Y-72644272D01*
X178884184Y-72646043D01*
X178743414Y-72718700D01*
X178624039Y-72822838D01*
X178619672Y-72829052D01*
X178619669Y-72829055D01*
X178582153Y-72882435D01*
X178526619Y-72926667D01*
X178455987Y-72933853D01*
X178392682Y-72901712D01*
X178375226Y-72881352D01*
X178342855Y-72834251D01*
X178342854Y-72834249D01*
X178338553Y-72827992D01*
X178220275Y-72722611D01*
X178212889Y-72718700D01*
X178086988Y-72652039D01*
X178086989Y-72652039D01*
X178080274Y-72648484D01*
X177926633Y-72609892D01*
X177919034Y-72609852D01*
X177919033Y-72609852D01*
X177853181Y-72609507D01*
X177768221Y-72609062D01*
X177760841Y-72610834D01*
X177760839Y-72610834D01*
X177621563Y-72644271D01*
X177621560Y-72644272D01*
X177614184Y-72646043D01*
X177473414Y-72718700D01*
X177467697Y-72723687D01*
X177467690Y-72723692D01*
X177354745Y-72822221D01*
X177290263Y-72851929D01*
X177219956Y-72842059D01*
X177188097Y-72821349D01*
X177082946Y-72727664D01*
X177077275Y-72722611D01*
X177069889Y-72718700D01*
X176943988Y-72652039D01*
X176943989Y-72652039D01*
X176937274Y-72648484D01*
X176783633Y-72609892D01*
X176776034Y-72609852D01*
X176776033Y-72609852D01*
X176710181Y-72609507D01*
X176625221Y-72609062D01*
X176617841Y-72610834D01*
X176617839Y-72610834D01*
X176478563Y-72644271D01*
X176478560Y-72644272D01*
X176471184Y-72646043D01*
X176330414Y-72718700D01*
X176324697Y-72723687D01*
X176324690Y-72723692D01*
X176211745Y-72822221D01*
X176147263Y-72851929D01*
X176076956Y-72842059D01*
X176045097Y-72821349D01*
X175939946Y-72727664D01*
X175934275Y-72722611D01*
X175926889Y-72718700D01*
X175800988Y-72652039D01*
X175800989Y-72652039D01*
X175794274Y-72648484D01*
X175640633Y-72609892D01*
X175633034Y-72609852D01*
X175633033Y-72609852D01*
X175567181Y-72609507D01*
X175482221Y-72609062D01*
X175474841Y-72610834D01*
X175474839Y-72610834D01*
X175335563Y-72644271D01*
X175335560Y-72644272D01*
X175328184Y-72646043D01*
X175187414Y-72718700D01*
X175068039Y-72822838D01*
X174976950Y-72952444D01*
X174974190Y-72959524D01*
X174922626Y-73091779D01*
X174919406Y-73100037D01*
X174918414Y-73107570D01*
X174918414Y-73107571D01*
X174909726Y-73173568D01*
X174898729Y-73257096D01*
X153233330Y-73257096D01*
X153200259Y-73173568D01*
X153047166Y-72895094D01*
X152866649Y-72646634D01*
X152862706Y-72641207D01*
X152862705Y-72641205D01*
X152860378Y-72638003D01*
X152736540Y-72506128D01*
X152704489Y-72442777D01*
X152711776Y-72372156D01*
X152756087Y-72316685D01*
X152828390Y-72293875D01*
X194264500Y-72293875D01*
X194332621Y-72313877D01*
X194379114Y-72367533D01*
X194390500Y-72419875D01*
X194390500Y-116390174D01*
X194370498Y-116458295D01*
X194316842Y-116504788D01*
X194264500Y-116516174D01*
X174325500Y-116516174D01*
X174257379Y-116496172D01*
X174210886Y-116442516D01*
X174199500Y-116390174D01*
X174199500Y-110326845D01*
X174201919Y-110302274D01*
X174204486Y-110289369D01*
X174202695Y-110280368D01*
X174187907Y-110092514D01*
X174141806Y-109900508D01*
X174066236Y-109718077D01*
X173963059Y-109549713D01*
X173959498Y-109545543D01*
X173924278Y-109504308D01*
X173834815Y-109399563D01*
X173775558Y-109348954D01*
X173688427Y-109274538D01*
X173688424Y-109274536D01*
X173684661Y-109271322D01*
X173645588Y-109247379D01*
X173520521Y-109170739D01*
X173520515Y-109170736D01*
X173516295Y-109168150D01*
X173511720Y-109166255D01*
X173511716Y-109166253D01*
X173410384Y-109124281D01*
X173333862Y-109092585D01*
X173234231Y-109068666D01*
X173146668Y-109047644D01*
X173146662Y-109047643D01*
X173141855Y-109046489D01*
X172954209Y-109031721D01*
X172945000Y-109029889D01*
X172932103Y-109032454D01*
X172907524Y-109034875D01*
X171017476Y-109034875D01*
X170992897Y-109032454D01*
X170980000Y-109029889D01*
X170970583Y-109031762D01*
X170963620Y-109032310D01*
X170963430Y-109032310D01*
X170963184Y-109032344D01*
X170876393Y-109039175D01*
X170783149Y-109046513D01*
X170778342Y-109047667D01*
X170778336Y-109047668D01*
X170595954Y-109091454D01*
X170595949Y-109091456D01*
X170591145Y-109092609D01*
X170586574Y-109094502D01*
X170586572Y-109094503D01*
X170413295Y-109166275D01*
X170413291Y-109166277D01*
X170408716Y-109168172D01*
X170240354Y-109271343D01*
X170090203Y-109399581D01*
X169961961Y-109549728D01*
X169959382Y-109553937D01*
X169959378Y-109553942D01*
X169956769Y-109558200D01*
X169858786Y-109718088D01*
X169783218Y-109900516D01*
X169737118Y-110092518D01*
X169736729Y-110097460D01*
X169722947Y-110272532D01*
X169722346Y-110280160D01*
X169720514Y-110289369D01*
X169723081Y-110302274D01*
X169725500Y-110326845D01*
X169725500Y-116252442D01*
X169705498Y-116320563D01*
X169688595Y-116341538D01*
X169550862Y-116479270D01*
X169488550Y-116513295D01*
X169461767Y-116516174D01*
X160768232Y-116516174D01*
X160700111Y-116496172D01*
X160679136Y-116479269D01*
X160541404Y-116341536D01*
X160507379Y-116279224D01*
X160504500Y-116252441D01*
X160504500Y-110326845D01*
X160506919Y-110302274D01*
X160509486Y-110289369D01*
X160507695Y-110280368D01*
X160492907Y-110092514D01*
X160446806Y-109900508D01*
X160371236Y-109718077D01*
X160268059Y-109549713D01*
X160264498Y-109545543D01*
X160229278Y-109504308D01*
X160139815Y-109399563D01*
X160080558Y-109348954D01*
X159993427Y-109274538D01*
X159993424Y-109274536D01*
X159989661Y-109271322D01*
X159950588Y-109247379D01*
X159825521Y-109170739D01*
X159825515Y-109170736D01*
X159821295Y-109168150D01*
X159816720Y-109166255D01*
X159816716Y-109166253D01*
X159715384Y-109124281D01*
X159638862Y-109092585D01*
X159539231Y-109068666D01*
X159451668Y-109047644D01*
X159451662Y-109047643D01*
X159446855Y-109046489D01*
X159259209Y-109031721D01*
X159250000Y-109029889D01*
X159237103Y-109032454D01*
X159212524Y-109034875D01*
X159027476Y-109034875D01*
X159002897Y-109032454D01*
X158990000Y-109029889D01*
X158980583Y-109031762D01*
X158973620Y-109032310D01*
X158973430Y-109032310D01*
X158973184Y-109032344D01*
X158886393Y-109039175D01*
X158793149Y-109046513D01*
X158788342Y-109047667D01*
X158788336Y-109047668D01*
X158605954Y-109091454D01*
X158605949Y-109091456D01*
X158601145Y-109092609D01*
X158596574Y-109094502D01*
X158596572Y-109094503D01*
X158423295Y-109166275D01*
X158423291Y-109166277D01*
X158418716Y-109168172D01*
X158250354Y-109271343D01*
X158100203Y-109399581D01*
X157971961Y-109549728D01*
X157969382Y-109553937D01*
X157969378Y-109553942D01*
X157966769Y-109558200D01*
X157868786Y-109718088D01*
X157793218Y-109900516D01*
X157747118Y-110092518D01*
X157746729Y-110097460D01*
X157732947Y-110272532D01*
X157732346Y-110280160D01*
X157730514Y-110289369D01*
X157733081Y-110302274D01*
X157735500Y-110326845D01*
X157735500Y-116252442D01*
X157715498Y-116320563D01*
X157698595Y-116341538D01*
X157560862Y-116479270D01*
X157498550Y-116513295D01*
X157471767Y-116516174D01*
X148778232Y-116516174D01*
X148710111Y-116496172D01*
X148689136Y-116479269D01*
X148551404Y-116341536D01*
X148517379Y-116279224D01*
X148514500Y-116252441D01*
X148514500Y-110326845D01*
X148516919Y-110302274D01*
X148519486Y-110289369D01*
X148517695Y-110280368D01*
X148502907Y-110092514D01*
X148456806Y-109900508D01*
X148381236Y-109718077D01*
X148278059Y-109549713D01*
X148274498Y-109545543D01*
X148239278Y-109504308D01*
X148149815Y-109399563D01*
X148090558Y-109348954D01*
X148003427Y-109274538D01*
X148003424Y-109274536D01*
X147999661Y-109271322D01*
X147960588Y-109247379D01*
X147835521Y-109170739D01*
X147835515Y-109170736D01*
X147831295Y-109168150D01*
X147826720Y-109166255D01*
X147826716Y-109166253D01*
X147725384Y-109124281D01*
X147648862Y-109092585D01*
X147549231Y-109068666D01*
X147461668Y-109047644D01*
X147461662Y-109047643D01*
X147456855Y-109046489D01*
X147269209Y-109031721D01*
X147260000Y-109029889D01*
X147247103Y-109032454D01*
X147222524Y-109034875D01*
X147037476Y-109034875D01*
X147012897Y-109032454D01*
X147000000Y-109029889D01*
X146990583Y-109031762D01*
X146983620Y-109032310D01*
X146983430Y-109032310D01*
X146983184Y-109032344D01*
X146896393Y-109039175D01*
X146803149Y-109046513D01*
X146798342Y-109047667D01*
X146798336Y-109047668D01*
X146615954Y-109091454D01*
X146615949Y-109091456D01*
X146611145Y-109092609D01*
X146606574Y-109094502D01*
X146606572Y-109094503D01*
X146433295Y-109166275D01*
X146433291Y-109166277D01*
X146428716Y-109168172D01*
X146260354Y-109271343D01*
X146110203Y-109399581D01*
X145981961Y-109549728D01*
X145979382Y-109553937D01*
X145979378Y-109553942D01*
X145976769Y-109558200D01*
X145878786Y-109718088D01*
X145803218Y-109900516D01*
X145757118Y-110092518D01*
X145756729Y-110097460D01*
X145742947Y-110272532D01*
X145742346Y-110280160D01*
X145740514Y-110289369D01*
X145743081Y-110302274D01*
X145745500Y-110326845D01*
X145745500Y-116252442D01*
X145725498Y-116320563D01*
X145708595Y-116341538D01*
X145570862Y-116479270D01*
X145508550Y-116513295D01*
X145481767Y-116516174D01*
X136788232Y-116516174D01*
X136720111Y-116496172D01*
X136699136Y-116479269D01*
X136561404Y-116341536D01*
X136527379Y-116279224D01*
X136524500Y-116252441D01*
X136524500Y-110326845D01*
X136526919Y-110302274D01*
X136529486Y-110289369D01*
X136527695Y-110280368D01*
X136512907Y-110092514D01*
X136466806Y-109900508D01*
X136391236Y-109718077D01*
X136288059Y-109549713D01*
X136284498Y-109545543D01*
X136249278Y-109504308D01*
X136159815Y-109399563D01*
X136100558Y-109348954D01*
X136013427Y-109274538D01*
X136013424Y-109274536D01*
X136009661Y-109271322D01*
X135970588Y-109247379D01*
X135845521Y-109170739D01*
X135845515Y-109170736D01*
X135841295Y-109168150D01*
X135836720Y-109166255D01*
X135836716Y-109166253D01*
X135735384Y-109124281D01*
X135658862Y-109092585D01*
X135559231Y-109068666D01*
X135471668Y-109047644D01*
X135471662Y-109047643D01*
X135466855Y-109046489D01*
X135279209Y-109031721D01*
X135270000Y-109029889D01*
X135257103Y-109032454D01*
X135232524Y-109034875D01*
X135047476Y-109034875D01*
X135022897Y-109032454D01*
X135010000Y-109029889D01*
X135000583Y-109031762D01*
X134993620Y-109032310D01*
X134993430Y-109032310D01*
X134993184Y-109032344D01*
X134906393Y-109039175D01*
X134813149Y-109046513D01*
X134808342Y-109047667D01*
X134808336Y-109047668D01*
X134625954Y-109091454D01*
X134625949Y-109091456D01*
X134621145Y-109092609D01*
X134616574Y-109094502D01*
X134616572Y-109094503D01*
X134443295Y-109166275D01*
X134443291Y-109166277D01*
X134438716Y-109168172D01*
X134270354Y-109271343D01*
X134120203Y-109399581D01*
X133991961Y-109549728D01*
X133989382Y-109553937D01*
X133989378Y-109553942D01*
X133986769Y-109558200D01*
X133888786Y-109718088D01*
X133813218Y-109900516D01*
X133767118Y-110092518D01*
X133766729Y-110097460D01*
X133752947Y-110272532D01*
X133752346Y-110280160D01*
X133750514Y-110289369D01*
X133753081Y-110302274D01*
X133755500Y-110326845D01*
X133755500Y-116252442D01*
X133735498Y-116320563D01*
X133718595Y-116341538D01*
X133580862Y-116479270D01*
X133518550Y-116513295D01*
X133491767Y-116516174D01*
X124798232Y-116516174D01*
X124730111Y-116496172D01*
X124709136Y-116479269D01*
X124571404Y-116341536D01*
X124537379Y-116279224D01*
X124534500Y-116252441D01*
X124534500Y-110326845D01*
X124536919Y-110302274D01*
X124539486Y-110289369D01*
X124537695Y-110280368D01*
X124522907Y-110092514D01*
X124476806Y-109900508D01*
X124401236Y-109718077D01*
X124298059Y-109549713D01*
X124294498Y-109545543D01*
X124259278Y-109504308D01*
X124169815Y-109399563D01*
X124110558Y-109348954D01*
X124023427Y-109274538D01*
X124023424Y-109274536D01*
X124019661Y-109271322D01*
X123980588Y-109247379D01*
X123855521Y-109170739D01*
X123855515Y-109170736D01*
X123851295Y-109168150D01*
X123846720Y-109166255D01*
X123846716Y-109166253D01*
X123745384Y-109124281D01*
X123668862Y-109092585D01*
X123569231Y-109068666D01*
X123481668Y-109047644D01*
X123481662Y-109047643D01*
X123476855Y-109046489D01*
X123289209Y-109031721D01*
X123280000Y-109029889D01*
X123267103Y-109032454D01*
X123242524Y-109034875D01*
X121352476Y-109034875D01*
X121327897Y-109032454D01*
X121315000Y-109029889D01*
X121305583Y-109031762D01*
X121298620Y-109032310D01*
X121298430Y-109032310D01*
X121298184Y-109032344D01*
X121211393Y-109039175D01*
X121118149Y-109046513D01*
X121113342Y-109047667D01*
X121113336Y-109047668D01*
X120930954Y-109091454D01*
X120930949Y-109091456D01*
X120926145Y-109092609D01*
X120921574Y-109094502D01*
X120921572Y-109094503D01*
X120748295Y-109166275D01*
X120748291Y-109166277D01*
X120743716Y-109168172D01*
X120575354Y-109271343D01*
X120425203Y-109399581D01*
X120296961Y-109549728D01*
X120294382Y-109553937D01*
X120294378Y-109553942D01*
X120291769Y-109558200D01*
X120193786Y-109718088D01*
X120118218Y-109900516D01*
X120072118Y-110092518D01*
X120071729Y-110097460D01*
X120057947Y-110272532D01*
X120057346Y-110280160D01*
X120055514Y-110289369D01*
X120058081Y-110302274D01*
X120060500Y-110326845D01*
X120060500Y-116390174D01*
X120040498Y-116458295D01*
X119986842Y-116504788D01*
X119934500Y-116516174D01*
X107615500Y-116516174D01*
X107547379Y-116496172D01*
X107500886Y-116442516D01*
X107489500Y-116390174D01*
X107489500Y-107496296D01*
X109036529Y-107496296D01*
X109039501Y-107523214D01*
X109052217Y-107638388D01*
X109053913Y-107653753D01*
X109056523Y-107660884D01*
X109056523Y-107660886D01*
X109104909Y-107793107D01*
X109108353Y-107802519D01*
X109112589Y-107808822D01*
X109112589Y-107808823D01*
X109176566Y-107904030D01*
X109196708Y-107934005D01*
X109202327Y-107939118D01*
X109202328Y-107939119D01*
X109302978Y-108030703D01*
X109313876Y-108040619D01*
X109453093Y-108116208D01*
X109606322Y-108156407D01*
X109690277Y-108157726D01*
X109757119Y-108158776D01*
X109757122Y-108158776D01*
X109764716Y-108158895D01*
X109919132Y-108123529D01*
X109997475Y-108084127D01*
X110053872Y-108055763D01*
X110053875Y-108055761D01*
X110060655Y-108052351D01*
X110066426Y-108047422D01*
X110066429Y-108047420D01*
X110175336Y-107954404D01*
X110175336Y-107954403D01*
X110181114Y-107949469D01*
X110273555Y-107820824D01*
X110319553Y-107706400D01*
X115080115Y-107706400D01*
X115081193Y-107714588D01*
X115094848Y-107818307D01*
X115099172Y-107851154D01*
X115113801Y-107886471D01*
X115147242Y-107967203D01*
X115155045Y-107986042D01*
X115243926Y-108101874D01*
X115250476Y-108106900D01*
X115250479Y-108106903D01*
X115334671Y-108171506D01*
X115359757Y-108190755D01*
X115494646Y-108246628D01*
X115639400Y-108265685D01*
X115647588Y-108264607D01*
X115775966Y-108247706D01*
X115784154Y-108246628D01*
X115919043Y-108190755D01*
X115944129Y-108171506D01*
X116028321Y-108106903D01*
X116028324Y-108106900D01*
X116034874Y-108101874D01*
X116123755Y-107986042D01*
X116132814Y-107964172D01*
X116177363Y-107908892D01*
X116244727Y-107886471D01*
X116313518Y-107904030D01*
X116349185Y-107935687D01*
X116432695Y-108044519D01*
X116432699Y-108044523D01*
X116437726Y-108051074D01*
X116444276Y-108056100D01*
X116444279Y-108056103D01*
X116532150Y-108123529D01*
X116553557Y-108139955D01*
X116688446Y-108195828D01*
X116833200Y-108214885D01*
X116841388Y-108213807D01*
X116969766Y-108196906D01*
X116977954Y-108195828D01*
X117112843Y-108139955D01*
X117134250Y-108123529D01*
X117222121Y-108056103D01*
X117222124Y-108056100D01*
X117228674Y-108051074D01*
X117233917Y-108044242D01*
X117306638Y-107949469D01*
X117317555Y-107935242D01*
X117326108Y-107914595D01*
X117361154Y-107829986D01*
X117373428Y-107800354D01*
X117374959Y-107788729D01*
X117391407Y-107663788D01*
X117392485Y-107655600D01*
X117384363Y-107593906D01*
X117374506Y-107519032D01*
X117374505Y-107519030D01*
X117373428Y-107510846D01*
X117338413Y-107426313D01*
X117320715Y-107383586D01*
X117320714Y-107383584D01*
X117317555Y-107375958D01*
X117228674Y-107260126D01*
X117222124Y-107255100D01*
X117222121Y-107255097D01*
X117119396Y-107176273D01*
X117119394Y-107176272D01*
X117112843Y-107171245D01*
X116977954Y-107115372D01*
X116833200Y-107096315D01*
X116825012Y-107097393D01*
X116696632Y-107114294D01*
X116696630Y-107114295D01*
X116688446Y-107115372D01*
X116669521Y-107123211D01*
X116561186Y-107168085D01*
X116561184Y-107168086D01*
X116553558Y-107171245D01*
X116519021Y-107197746D01*
X116461324Y-107242019D01*
X116437726Y-107260126D01*
X116348845Y-107375958D01*
X116345685Y-107383587D01*
X116339786Y-107397828D01*
X116295237Y-107453108D01*
X116227873Y-107475529D01*
X116159082Y-107457970D01*
X116123415Y-107426313D01*
X116039905Y-107317481D01*
X116039900Y-107317476D01*
X116034874Y-107310926D01*
X116028324Y-107305900D01*
X116028321Y-107305897D01*
X115925596Y-107227073D01*
X115925594Y-107227072D01*
X115919043Y-107222045D01*
X115784154Y-107166172D01*
X115639400Y-107147115D01*
X115631212Y-107148193D01*
X115502832Y-107165094D01*
X115502830Y-107165095D01*
X115494646Y-107166172D01*
X115460169Y-107180453D01*
X115367386Y-107218885D01*
X115367384Y-107218886D01*
X115359758Y-107222045D01*
X115243926Y-107310926D01*
X115155045Y-107426758D01*
X115151886Y-107434384D01*
X115151885Y-107434386D01*
X115127345Y-107493632D01*
X115099172Y-107561646D01*
X115098095Y-107569830D01*
X115098094Y-107569832D01*
X115093491Y-107604800D01*
X115080115Y-107706400D01*
X110319553Y-107706400D01*
X110332642Y-107673841D01*
X110346922Y-107573503D01*
X110354381Y-107521091D01*
X110354381Y-107521088D01*
X110354962Y-107517007D01*
X110355107Y-107503200D01*
X110336076Y-107345933D01*
X110296809Y-107242017D01*
X110291441Y-107171225D01*
X110325198Y-107108768D01*
X110387364Y-107074476D01*
X110429968Y-107072719D01*
X110434754Y-107073975D01*
X110521544Y-107075338D01*
X110585551Y-107076344D01*
X110585554Y-107076344D01*
X110593148Y-107076463D01*
X110747564Y-107041097D01*
X110850546Y-106989303D01*
X110882304Y-106973331D01*
X110882307Y-106973329D01*
X110889087Y-106969919D01*
X110894858Y-106964990D01*
X110894861Y-106964988D01*
X111003768Y-106871972D01*
X111003768Y-106871971D01*
X111009546Y-106867037D01*
X111101987Y-106738392D01*
X111161074Y-106591409D01*
X111183394Y-106434575D01*
X111183539Y-106420768D01*
X111164508Y-106263501D01*
X111108512Y-106115314D01*
X111093526Y-106093509D01*
X111023087Y-105991019D01*
X111023086Y-105991017D01*
X111018785Y-105984760D01*
X111001429Y-105969296D01*
X110948206Y-105921877D01*
X110900507Y-105879379D01*
X110893121Y-105875468D01*
X110792241Y-105822055D01*
X110760506Y-105805252D01*
X110606865Y-105766660D01*
X110599266Y-105766620D01*
X110599265Y-105766620D01*
X110533413Y-105766275D01*
X110448453Y-105765830D01*
X110441073Y-105767602D01*
X110441071Y-105767602D01*
X110301795Y-105801039D01*
X110301792Y-105801040D01*
X110294416Y-105802811D01*
X110153646Y-105875468D01*
X110034271Y-105979606D01*
X109943182Y-106109212D01*
X109940422Y-106116292D01*
X109901865Y-106215186D01*
X109885638Y-106256805D01*
X109884646Y-106264338D01*
X109884646Y-106264339D01*
X109866305Y-106403658D01*
X109864961Y-106413864D01*
X109872154Y-106479012D01*
X109880695Y-106556372D01*
X109882345Y-106571321D01*
X109884955Y-106578452D01*
X109884955Y-106578454D01*
X109923233Y-106683054D01*
X109927859Y-106753900D01*
X109893449Y-106816000D01*
X109830927Y-106849639D01*
X109789115Y-106851361D01*
X109785798Y-106850942D01*
X109778433Y-106849092D01*
X109770841Y-106849052D01*
X109770839Y-106849052D01*
X109699227Y-106848677D01*
X109620021Y-106848262D01*
X109612641Y-106850034D01*
X109612639Y-106850034D01*
X109473363Y-106883471D01*
X109473360Y-106883472D01*
X109465984Y-106885243D01*
X109325214Y-106957900D01*
X109205839Y-107062038D01*
X109114750Y-107191644D01*
X109095401Y-107241272D01*
X109062609Y-107325380D01*
X109057206Y-107339237D01*
X109056214Y-107346770D01*
X109056214Y-107346771D01*
X109040224Y-107468232D01*
X109036529Y-107496296D01*
X107489500Y-107496296D01*
X107489500Y-105388096D01*
X117113729Y-105388096D01*
X117120554Y-105449917D01*
X117129712Y-105532859D01*
X117131113Y-105545553D01*
X117133723Y-105552684D01*
X117133723Y-105552686D01*
X117182332Y-105685516D01*
X117185553Y-105694319D01*
X117189789Y-105700622D01*
X117189789Y-105700623D01*
X117262239Y-105808439D01*
X117273908Y-105825805D01*
X117279527Y-105830918D01*
X117279528Y-105830919D01*
X117338934Y-105884974D01*
X117391076Y-105932419D01*
X117530293Y-106008008D01*
X117683522Y-106048207D01*
X117767477Y-106049526D01*
X117834319Y-106050576D01*
X117834322Y-106050576D01*
X117841916Y-106050695D01*
X117996332Y-106015329D01*
X118083340Y-105971569D01*
X118131072Y-105947563D01*
X118131075Y-105947561D01*
X118137855Y-105944151D01*
X118143626Y-105939222D01*
X118143629Y-105939220D01*
X118252536Y-105846204D01*
X118252536Y-105846203D01*
X118258314Y-105841269D01*
X118350755Y-105712624D01*
X118409842Y-105565641D01*
X118418919Y-105501863D01*
X118431581Y-105412891D01*
X118431581Y-105412888D01*
X118432162Y-105408807D01*
X118432307Y-105395000D01*
X118428573Y-105364139D01*
X118415854Y-105259040D01*
X118413276Y-105237733D01*
X118357280Y-105089546D01*
X118310793Y-105021907D01*
X118271855Y-104965251D01*
X118271854Y-104965249D01*
X118267553Y-104958992D01*
X118149275Y-104853611D01*
X118141889Y-104849700D01*
X118015988Y-104783039D01*
X118015989Y-104783039D01*
X118009274Y-104779484D01*
X117855633Y-104740892D01*
X117848034Y-104740852D01*
X117848033Y-104740852D01*
X117782181Y-104740507D01*
X117697221Y-104740062D01*
X117689841Y-104741834D01*
X117689839Y-104741834D01*
X117550563Y-104775271D01*
X117550560Y-104775272D01*
X117543184Y-104777043D01*
X117402414Y-104849700D01*
X117283039Y-104953838D01*
X117191950Y-105083444D01*
X117134406Y-105231037D01*
X117133414Y-105238570D01*
X117133414Y-105238571D01*
X117115270Y-105376393D01*
X117113729Y-105388096D01*
X107489500Y-105388096D01*
X107489500Y-97658623D01*
X122188072Y-97658623D01*
X122188244Y-97662018D01*
X122188244Y-97662019D01*
X122196918Y-97833251D01*
X122205907Y-98010688D01*
X122206444Y-98014043D01*
X122206445Y-98014049D01*
X122211877Y-98047959D01*
X122261660Y-98358767D01*
X122354679Y-98698789D01*
X122483877Y-99026776D01*
X122485460Y-99029791D01*
X122646157Y-99335875D01*
X122646162Y-99335883D01*
X122647741Y-99338891D01*
X122649635Y-99341709D01*
X122649640Y-99341718D01*
X122836313Y-99619516D01*
X122844355Y-99631484D01*
X123071419Y-99901131D01*
X123073879Y-99903482D01*
X123073882Y-99903485D01*
X123323814Y-100142325D01*
X123323821Y-100142331D01*
X123326277Y-100144678D01*
X123605946Y-100359276D01*
X123608864Y-100361050D01*
X123904242Y-100540643D01*
X123904247Y-100540646D01*
X123907157Y-100542415D01*
X123910245Y-100543861D01*
X123910244Y-100543861D01*
X124223300Y-100690508D01*
X124223310Y-100690512D01*
X124226384Y-100691952D01*
X124229602Y-100693054D01*
X124229605Y-100693055D01*
X124556663Y-100805032D01*
X124556667Y-100805033D01*
X124559894Y-100806138D01*
X124563224Y-100806888D01*
X124563233Y-100806891D01*
X124806482Y-100861709D01*
X124903786Y-100883637D01*
X124907171Y-100884023D01*
X124907179Y-100884024D01*
X125250653Y-100923158D01*
X125250661Y-100923158D01*
X125254036Y-100923543D01*
X125257440Y-100923561D01*
X125257443Y-100923561D01*
X125449304Y-100924566D01*
X125606547Y-100925389D01*
X125609933Y-100925039D01*
X125609935Y-100925039D01*
X125953804Y-100889504D01*
X125953813Y-100889503D01*
X125957196Y-100889153D01*
X125960529Y-100888439D01*
X125960532Y-100888438D01*
X126130187Y-100852067D01*
X126301880Y-100815259D01*
X126636568Y-100704572D01*
X126957344Y-100558386D01*
X126960281Y-100556642D01*
X126960287Y-100556639D01*
X127257521Y-100380153D01*
X127260455Y-100378411D01*
X127542357Y-100166753D01*
X127799751Y-99925888D01*
X127821046Y-99901131D01*
X127871053Y-99842992D01*
X128029626Y-99658634D01*
X128031558Y-99655823D01*
X128227363Y-99370925D01*
X128227368Y-99370918D01*
X128229293Y-99368116D01*
X128230905Y-99365122D01*
X128230910Y-99365114D01*
X128394795Y-99060746D01*
X128396417Y-99057734D01*
X128529042Y-98731118D01*
X128539383Y-98694818D01*
X128624683Y-98395367D01*
X128625617Y-98392089D01*
X128685012Y-98044612D01*
X128686882Y-98014049D01*
X128697765Y-97836107D01*
X151427986Y-97836107D01*
X151428215Y-97838952D01*
X151428215Y-97838955D01*
X151457309Y-98200545D01*
X151462618Y-98266533D01*
X151536117Y-98692050D01*
X151647880Y-99109153D01*
X151648865Y-99111830D01*
X151731298Y-99335875D01*
X151796986Y-99514411D01*
X151798211Y-99516991D01*
X151798214Y-99516998D01*
X151979377Y-99898526D01*
X151982207Y-99904487D01*
X151993332Y-99923298D01*
X152170367Y-100222647D01*
X152202020Y-100276170D01*
X152277015Y-100380153D01*
X152406585Y-100559806D01*
X152454615Y-100626402D01*
X152737913Y-100952299D01*
X153049581Y-101251178D01*
X153051799Y-101252948D01*
X153051804Y-101252953D01*
X153349072Y-101490258D01*
X153387056Y-101520580D01*
X153389419Y-101522138D01*
X153389423Y-101522141D01*
X153695350Y-101723862D01*
X153747558Y-101758287D01*
X154128120Y-101962343D01*
X154525610Y-102131068D01*
X154936756Y-102263072D01*
X155358174Y-102357270D01*
X155786395Y-102412886D01*
X156217894Y-102429463D01*
X156220756Y-102429313D01*
X156220757Y-102429313D01*
X156646264Y-102407013D01*
X156646271Y-102407012D01*
X156649120Y-102406863D01*
X156651943Y-102406456D01*
X156651945Y-102406456D01*
X157073700Y-102345681D01*
X157073707Y-102345680D01*
X157076522Y-102345274D01*
X157496584Y-102245201D01*
X157499282Y-102244293D01*
X157499289Y-102244291D01*
X157903135Y-102108382D01*
X157903141Y-102108380D01*
X157905847Y-102107469D01*
X158300942Y-101933211D01*
X158311474Y-101927373D01*
X158676116Y-101725249D01*
X158676118Y-101725248D01*
X158678618Y-101723862D01*
X159035766Y-101481144D01*
X159369446Y-101207057D01*
X159676911Y-100903855D01*
X159857203Y-100690508D01*
X159953785Y-100576219D01*
X159953790Y-100576213D01*
X159955631Y-100574034D01*
X160203311Y-100220310D01*
X160204731Y-100217831D01*
X160416487Y-99848085D01*
X160416492Y-99848075D01*
X160417913Y-99845594D01*
X160569541Y-99514411D01*
X160596482Y-99455568D01*
X160596485Y-99455559D01*
X160597671Y-99452970D01*
X160741104Y-99045670D01*
X160829883Y-98694818D01*
X160846329Y-98629825D01*
X160846330Y-98629821D01*
X160847032Y-98627046D01*
X160914583Y-98200545D01*
X160938789Y-97836107D01*
X160943085Y-97771428D01*
X160943085Y-97771417D01*
X160943201Y-97769677D01*
X160944245Y-97670000D01*
X160943728Y-97658623D01*
X165562740Y-97658623D01*
X165562912Y-97662018D01*
X165562912Y-97662019D01*
X165571586Y-97833251D01*
X165580575Y-98010688D01*
X165581112Y-98014043D01*
X165581113Y-98014049D01*
X165586545Y-98047959D01*
X165636328Y-98358767D01*
X165729347Y-98698789D01*
X165858545Y-99026776D01*
X165860128Y-99029791D01*
X166020825Y-99335875D01*
X166020830Y-99335883D01*
X166022409Y-99338891D01*
X166024303Y-99341709D01*
X166024308Y-99341718D01*
X166210981Y-99619516D01*
X166219023Y-99631484D01*
X166446087Y-99901131D01*
X166448547Y-99903482D01*
X166448550Y-99903485D01*
X166698482Y-100142325D01*
X166698489Y-100142331D01*
X166700945Y-100144678D01*
X166980614Y-100359276D01*
X166983532Y-100361050D01*
X167278910Y-100540643D01*
X167278915Y-100540646D01*
X167281825Y-100542415D01*
X167284913Y-100543861D01*
X167284912Y-100543861D01*
X167597968Y-100690508D01*
X167597978Y-100690512D01*
X167601052Y-100691952D01*
X167604270Y-100693054D01*
X167604273Y-100693055D01*
X167931331Y-100805032D01*
X167931335Y-100805033D01*
X167934562Y-100806138D01*
X167937892Y-100806888D01*
X167937901Y-100806891D01*
X168181150Y-100861709D01*
X168278454Y-100883637D01*
X168281839Y-100884023D01*
X168281847Y-100884024D01*
X168625321Y-100923158D01*
X168625329Y-100923158D01*
X168628704Y-100923543D01*
X168632108Y-100923561D01*
X168632111Y-100923561D01*
X168823972Y-100924566D01*
X168981215Y-100925389D01*
X168984601Y-100925039D01*
X168984603Y-100925039D01*
X169328472Y-100889504D01*
X169328481Y-100889503D01*
X169331864Y-100889153D01*
X169335197Y-100888439D01*
X169335200Y-100888438D01*
X169504855Y-100852067D01*
X169676548Y-100815259D01*
X170011236Y-100704572D01*
X170332012Y-100558386D01*
X170334949Y-100556642D01*
X170334955Y-100556639D01*
X170632189Y-100380153D01*
X170635123Y-100378411D01*
X170917025Y-100166753D01*
X171174419Y-99925888D01*
X171195714Y-99901131D01*
X171245721Y-99842992D01*
X171404294Y-99658634D01*
X171406226Y-99655823D01*
X171602031Y-99370925D01*
X171602036Y-99370918D01*
X171603961Y-99368116D01*
X171605573Y-99365122D01*
X171605578Y-99365114D01*
X171769463Y-99060746D01*
X171771085Y-99057734D01*
X171903710Y-98731118D01*
X171914051Y-98694818D01*
X171999351Y-98395367D01*
X172000285Y-98392089D01*
X172059680Y-98044612D01*
X172061550Y-98014049D01*
X172081089Y-97694584D01*
X172081201Y-97692754D01*
X172081280Y-97670000D01*
X172062216Y-97318000D01*
X172043275Y-97202332D01*
X172005797Y-96973468D01*
X172005796Y-96973463D01*
X172005248Y-96970117D01*
X171911043Y-96630422D01*
X171780701Y-96302888D01*
X171751770Y-96248246D01*
X171617347Y-95994366D01*
X171617343Y-95994359D01*
X171615748Y-95991347D01*
X171418114Y-95699442D01*
X171190110Y-95430589D01*
X170934404Y-95187933D01*
X170931697Y-95185871D01*
X170931689Y-95185864D01*
X170773468Y-95065333D01*
X170653987Y-94974313D01*
X170626116Y-94957500D01*
X170355054Y-94793985D01*
X170355048Y-94793982D01*
X170352139Y-94792227D01*
X170032392Y-94643805D01*
X169865438Y-94587294D01*
X169701712Y-94531876D01*
X169701707Y-94531875D01*
X169698485Y-94530784D01*
X169474378Y-94481100D01*
X169357655Y-94455223D01*
X169357651Y-94455222D01*
X169354325Y-94454485D01*
X169210771Y-94438637D01*
X169007320Y-94416175D01*
X169007313Y-94416175D01*
X169003938Y-94415802D01*
X169000539Y-94415796D01*
X169000538Y-94415796D01*
X168834052Y-94415506D01*
X168651422Y-94415187D01*
X168520668Y-94429161D01*
X168304286Y-94452285D01*
X168304280Y-94452286D01*
X168300902Y-94452647D01*
X168297579Y-94453371D01*
X168297576Y-94453372D01*
X168289087Y-94455223D01*
X167956478Y-94527743D01*
X167622179Y-94639598D01*
X167619086Y-94641020D01*
X167619085Y-94641021D01*
X167613032Y-94643805D01*
X167301915Y-94786903D01*
X167298981Y-94788659D01*
X167298979Y-94788660D01*
X167199908Y-94847953D01*
X166999434Y-94967934D01*
X166718273Y-95180575D01*
X166715788Y-95182917D01*
X166715783Y-95182921D01*
X166707972Y-95190282D01*
X166461721Y-95422337D01*
X166459509Y-95424927D01*
X166459507Y-95424929D01*
X166401957Y-95492311D01*
X166232780Y-95690392D01*
X166230861Y-95693204D01*
X166230858Y-95693209D01*
X166204713Y-95731537D01*
X166034128Y-95981605D01*
X166032521Y-95984615D01*
X166032519Y-95984618D01*
X165869696Y-96289559D01*
X165868089Y-96292569D01*
X165866816Y-96295737D01*
X165866815Y-96295738D01*
X165763144Y-96553629D01*
X165736605Y-96619646D01*
X165735687Y-96622914D01*
X165735684Y-96622921D01*
X165682078Y-96813632D01*
X165641214Y-96959010D01*
X165640652Y-96962367D01*
X165640652Y-96962368D01*
X165638795Y-96973468D01*
X165583032Y-97306692D01*
X165562740Y-97658623D01*
X160943728Y-97658623D01*
X160924656Y-97238627D01*
X160866052Y-96810805D01*
X160768914Y-96390055D01*
X160737904Y-96295738D01*
X160634936Y-95982555D01*
X160634933Y-95982548D01*
X160634043Y-95979840D01*
X160462547Y-95583538D01*
X160255840Y-95204410D01*
X160170926Y-95077566D01*
X160017214Y-94847953D01*
X160017206Y-94847942D01*
X160015622Y-94845576D01*
X159743870Y-94509991D01*
X159688106Y-94452647D01*
X159557518Y-94318361D01*
X159442822Y-94200416D01*
X159114955Y-93919401D01*
X158893014Y-93761675D01*
X158765295Y-93670910D01*
X158762969Y-93669257D01*
X158561668Y-93552097D01*
X158392216Y-93453473D01*
X158392209Y-93453469D01*
X158389760Y-93452044D01*
X158142677Y-93336827D01*
X158000997Y-93270760D01*
X158000987Y-93270756D01*
X157998401Y-93269550D01*
X157860771Y-93220000D01*
X157594802Y-93124245D01*
X157594793Y-93124242D01*
X157592112Y-93123277D01*
X157267389Y-93038693D01*
X157177007Y-93015150D01*
X157177001Y-93015149D01*
X157174238Y-93014429D01*
X156748219Y-92943902D01*
X156745376Y-92943693D01*
X156745374Y-92943693D01*
X156320407Y-92912486D01*
X156317561Y-92912277D01*
X156138443Y-92915403D01*
X155888661Y-92919763D01*
X155888656Y-92919763D01*
X155885810Y-92919813D01*
X155882977Y-92920121D01*
X155882973Y-92920121D01*
X155535951Y-92957820D01*
X155456518Y-92966449D01*
X155033220Y-93051801D01*
X155030492Y-93052614D01*
X155030481Y-93052617D01*
X154780969Y-93127000D01*
X154619399Y-93175166D01*
X154218463Y-93335529D01*
X154215916Y-93336827D01*
X153836254Y-93530274D01*
X153836249Y-93530277D01*
X153833711Y-93531570D01*
X153468310Y-93761675D01*
X153125268Y-94023951D01*
X152807408Y-94316238D01*
X152517347Y-94636130D01*
X152515623Y-94638417D01*
X152515622Y-94638419D01*
X152514734Y-94639598D01*
X152257473Y-94980995D01*
X152029924Y-95347993D01*
X152028641Y-95350555D01*
X152028636Y-95350564D01*
X151992695Y-95422337D01*
X151836574Y-95734105D01*
X151679014Y-96136151D01*
X151678216Y-96138898D01*
X151633571Y-96292569D01*
X151558541Y-96550823D01*
X151476146Y-96974706D01*
X151432508Y-97404313D01*
X151427986Y-97836107D01*
X128697765Y-97836107D01*
X128706421Y-97694584D01*
X128706533Y-97692754D01*
X128706612Y-97670000D01*
X128687548Y-97318000D01*
X128668607Y-97202332D01*
X128631129Y-96973468D01*
X128631128Y-96973463D01*
X128630580Y-96970117D01*
X128536375Y-96630422D01*
X128406033Y-96302888D01*
X128377102Y-96248246D01*
X128242679Y-95994366D01*
X128242675Y-95994359D01*
X128241080Y-95991347D01*
X128043446Y-95699442D01*
X127815442Y-95430589D01*
X127559736Y-95187933D01*
X127557029Y-95185871D01*
X127557021Y-95185864D01*
X127398800Y-95065333D01*
X127279319Y-94974313D01*
X127251448Y-94957500D01*
X126980386Y-94793985D01*
X126980380Y-94793982D01*
X126977471Y-94792227D01*
X126657724Y-94643805D01*
X126490770Y-94587294D01*
X126327044Y-94531876D01*
X126327039Y-94531875D01*
X126323817Y-94530784D01*
X126099710Y-94481100D01*
X125982987Y-94455223D01*
X125982983Y-94455222D01*
X125979657Y-94454485D01*
X125836103Y-94438637D01*
X125632652Y-94416175D01*
X125632645Y-94416175D01*
X125629270Y-94415802D01*
X125625871Y-94415796D01*
X125625870Y-94415796D01*
X125459384Y-94415506D01*
X125276754Y-94415187D01*
X125146000Y-94429161D01*
X124929618Y-94452285D01*
X124929612Y-94452286D01*
X124926234Y-94452647D01*
X124922911Y-94453371D01*
X124922908Y-94453372D01*
X124914419Y-94455223D01*
X124581810Y-94527743D01*
X124247511Y-94639598D01*
X124244418Y-94641020D01*
X124244417Y-94641021D01*
X124238364Y-94643805D01*
X123927247Y-94786903D01*
X123924313Y-94788659D01*
X123924311Y-94788660D01*
X123825240Y-94847953D01*
X123624766Y-94967934D01*
X123343605Y-95180575D01*
X123341120Y-95182917D01*
X123341115Y-95182921D01*
X123333304Y-95190282D01*
X123087053Y-95422337D01*
X123084841Y-95424927D01*
X123084839Y-95424929D01*
X123027289Y-95492311D01*
X122858112Y-95690392D01*
X122856193Y-95693204D01*
X122856190Y-95693209D01*
X122830045Y-95731537D01*
X122659460Y-95981605D01*
X122657853Y-95984615D01*
X122657851Y-95984618D01*
X122495028Y-96289559D01*
X122493421Y-96292569D01*
X122492148Y-96295737D01*
X122492147Y-96295738D01*
X122388476Y-96553629D01*
X122361937Y-96619646D01*
X122361019Y-96622914D01*
X122361016Y-96622921D01*
X122307410Y-96813632D01*
X122266546Y-96959010D01*
X122265984Y-96962367D01*
X122265984Y-96962368D01*
X122264127Y-96973468D01*
X122208364Y-97306692D01*
X122188072Y-97658623D01*
X107489500Y-97658623D01*
X107489500Y-88612091D01*
X123375900Y-88612091D01*
X123415729Y-88927367D01*
X123444050Y-89037670D01*
X123493772Y-89231327D01*
X123493775Y-89231335D01*
X123494758Y-89235165D01*
X123611741Y-89530632D01*
X123764834Y-89809106D01*
X123951622Y-90066197D01*
X123954333Y-90069083D01*
X123954333Y-90069084D01*
X124040839Y-90161204D01*
X124169158Y-90297850D01*
X124414014Y-90500412D01*
X124682326Y-90670688D01*
X124685905Y-90672372D01*
X124685912Y-90672376D01*
X124966273Y-90804304D01*
X124966277Y-90804306D01*
X124969863Y-90805993D01*
X124973635Y-90807219D01*
X124973636Y-90807219D01*
X125000640Y-90815993D01*
X125272092Y-90904193D01*
X125584245Y-90963739D01*
X125679298Y-90969719D01*
X125820045Y-90978575D01*
X125820061Y-90978576D01*
X125822040Y-90978700D01*
X125980760Y-90978700D01*
X125982739Y-90978576D01*
X125982755Y-90978575D01*
X126123502Y-90969719D01*
X126218555Y-90963739D01*
X126530708Y-90904193D01*
X126802160Y-90815993D01*
X126829164Y-90807219D01*
X126829165Y-90807219D01*
X126832937Y-90805993D01*
X126836523Y-90804306D01*
X126836527Y-90804304D01*
X127116888Y-90672376D01*
X127116895Y-90672372D01*
X127120474Y-90670688D01*
X127388786Y-90500412D01*
X127633642Y-90297850D01*
X127761961Y-90161204D01*
X127848467Y-90069084D01*
X127848467Y-90069083D01*
X127851178Y-90066197D01*
X128037966Y-89809106D01*
X128191059Y-89530632D01*
X128308042Y-89235165D01*
X128309025Y-89231335D01*
X128309028Y-89231327D01*
X128358750Y-89037670D01*
X128387071Y-88927367D01*
X128425637Y-88622091D01*
X173388300Y-88622091D01*
X173388797Y-88626022D01*
X173427351Y-88931206D01*
X173428129Y-88937367D01*
X173429115Y-88941206D01*
X173506172Y-89241327D01*
X173506175Y-89241335D01*
X173507158Y-89245165D01*
X173624141Y-89540632D01*
X173777234Y-89819106D01*
X173779565Y-89822314D01*
X173956757Y-90066197D01*
X173964022Y-90076197D01*
X173966733Y-90079083D01*
X173966733Y-90079084D01*
X174029669Y-90146104D01*
X174181558Y-90307850D01*
X174426414Y-90510412D01*
X174429758Y-90512534D01*
X174678969Y-90670688D01*
X174694726Y-90680688D01*
X174698305Y-90682372D01*
X174698312Y-90682376D01*
X174978673Y-90814304D01*
X174978677Y-90814306D01*
X174982263Y-90815993D01*
X175284492Y-90914193D01*
X175596645Y-90973739D01*
X175691698Y-90979719D01*
X175832445Y-90988575D01*
X175832461Y-90988576D01*
X175834440Y-90988700D01*
X175993160Y-90988700D01*
X175995139Y-90988576D01*
X175995155Y-90988575D01*
X176135902Y-90979719D01*
X176230955Y-90973739D01*
X176543108Y-90914193D01*
X176845337Y-90815993D01*
X176848923Y-90814306D01*
X176848927Y-90814304D01*
X177129288Y-90682376D01*
X177129295Y-90682372D01*
X177132874Y-90680688D01*
X177148632Y-90670688D01*
X177397842Y-90512534D01*
X177401186Y-90510412D01*
X177646042Y-90307850D01*
X177797931Y-90146104D01*
X177860867Y-90079084D01*
X177860867Y-90079083D01*
X177863578Y-90076197D01*
X177870844Y-90066197D01*
X178048035Y-89822314D01*
X178050366Y-89819106D01*
X178203459Y-89540632D01*
X178320442Y-89245165D01*
X178321425Y-89241335D01*
X178321428Y-89241327D01*
X178398485Y-88941206D01*
X178399471Y-88937367D01*
X178400250Y-88931206D01*
X178438803Y-88626022D01*
X178439300Y-88622091D01*
X178439300Y-88304309D01*
X178399471Y-87989033D01*
X178371150Y-87878730D01*
X178321428Y-87685073D01*
X178321425Y-87685065D01*
X178320442Y-87681235D01*
X178203459Y-87385768D01*
X178050366Y-87107294D01*
X177863578Y-86850203D01*
X177646042Y-86618550D01*
X177401186Y-86415988D01*
X177132874Y-86245712D01*
X177129295Y-86244028D01*
X177129288Y-86244024D01*
X176848927Y-86112096D01*
X176848923Y-86112094D01*
X176845337Y-86110407D01*
X176819759Y-86102096D01*
X176546884Y-86013434D01*
X176546886Y-86013434D01*
X176543108Y-86012207D01*
X176230955Y-85952661D01*
X176135902Y-85946681D01*
X175995155Y-85937825D01*
X175995139Y-85937824D01*
X175993160Y-85937700D01*
X175834440Y-85937700D01*
X175832461Y-85937824D01*
X175832445Y-85937825D01*
X175691698Y-85946681D01*
X175596645Y-85952661D01*
X175284492Y-86012207D01*
X175280714Y-86013434D01*
X175280716Y-86013434D01*
X175007842Y-86102096D01*
X174982263Y-86110407D01*
X174978677Y-86112094D01*
X174978673Y-86112096D01*
X174698312Y-86244024D01*
X174698305Y-86244028D01*
X174694726Y-86245712D01*
X174426414Y-86415988D01*
X174181558Y-86618550D01*
X173964022Y-86850203D01*
X173777234Y-87107294D01*
X173624141Y-87385768D01*
X173507158Y-87681235D01*
X173506175Y-87685065D01*
X173506172Y-87685073D01*
X173456450Y-87878730D01*
X173428129Y-87989033D01*
X173388300Y-88304309D01*
X173388300Y-88622091D01*
X128425637Y-88622091D01*
X128426900Y-88612091D01*
X128426900Y-88294309D01*
X128388831Y-87992965D01*
X128387568Y-87982965D01*
X128387567Y-87982961D01*
X128387071Y-87979033D01*
X128358750Y-87868730D01*
X128309028Y-87675073D01*
X128309025Y-87675065D01*
X128308042Y-87671235D01*
X128191059Y-87375768D01*
X128037966Y-87097294D01*
X127860771Y-86853407D01*
X127853506Y-86843407D01*
X127853505Y-86843405D01*
X127851178Y-86840203D01*
X127633642Y-86608550D01*
X127388786Y-86405988D01*
X127139578Y-86247836D01*
X127123821Y-86237836D01*
X127123820Y-86237836D01*
X127120474Y-86235712D01*
X127116895Y-86234028D01*
X127116888Y-86234024D01*
X126836527Y-86102096D01*
X126836523Y-86102094D01*
X126832937Y-86100407D01*
X126530708Y-86002207D01*
X126218555Y-85942661D01*
X126115973Y-85936207D01*
X125982755Y-85927825D01*
X125982739Y-85927824D01*
X125980760Y-85927700D01*
X125822040Y-85927700D01*
X125820061Y-85927824D01*
X125820045Y-85927825D01*
X125686827Y-85936207D01*
X125584245Y-85942661D01*
X125272092Y-86002207D01*
X124969863Y-86100407D01*
X124966277Y-86102094D01*
X124966273Y-86102096D01*
X124685912Y-86234024D01*
X124685905Y-86234028D01*
X124682326Y-86235712D01*
X124678980Y-86237836D01*
X124678979Y-86237836D01*
X124663222Y-86247836D01*
X124414014Y-86405988D01*
X124169158Y-86608550D01*
X123951622Y-86840203D01*
X123949295Y-86843405D01*
X123949294Y-86843407D01*
X123942029Y-86853407D01*
X123764834Y-87097294D01*
X123611741Y-87375768D01*
X123494758Y-87671235D01*
X123493775Y-87675065D01*
X123493772Y-87675073D01*
X123444050Y-87868730D01*
X123415729Y-87979033D01*
X123415233Y-87982961D01*
X123415232Y-87982965D01*
X123413969Y-87992965D01*
X123375900Y-88294309D01*
X123375900Y-88612091D01*
X107489500Y-88612091D01*
X107489500Y-72419875D01*
X107509502Y-72351754D01*
X107563158Y-72305261D01*
X107615500Y-72293875D01*
X148992810Y-72293875D01*
X149060931Y-72313877D01*
G37*
%TD.AperFunction*%
%TD*%
M02*
