M48
; DRILL file {KiCad (6.0.10)} date Mon Feb 27 01:31:48 2023
; FORMAT={-:-/ absolute / inch / decimal}
; #@! TF.CreationDate,2023-02-27T01:31:48-05:00
; #@! TF.GenerationSoftware,Kicad,Pcbnew,(6.0.10)
; #@! TF.FileFunction,Plated,1,4,PTH
FMAT,2
INCH
; #@! TA.AperFunction,Plated,PTH,ViaDrill
T1C0.0118
; #@! TA.AperFunction,Plated,PTH,ViaDrill
T2C0.0157
; #@! TA.AperFunction,Plated,PTH,ViaDrill
T3C0.0197
; #@! TA.AperFunction,Plated,PTH,ComponentDrill
T4C0.1772
; #@! TA.AperFunction,Plated,PTH,ComponentDrill
T5C0.2244
%
G90
G05
T1
X4.3347Y-3.9734
X4.3897Y-3.1074
X4.3907Y-3.8654
X4.4377Y-2.9494
X4.4557Y-3.1204
X4.4557Y-3.9594
X4.5527Y-4.2404
X4.5997Y-4.2384
X5.9747Y-3.0914
X6.0017Y-3.1944
X6.204Y-3.0284
X6.2363Y-3.059
X6.2863Y-3.2242
X6.3192Y-3.189
X6.3587Y-3.0264
X6.3877Y-3.2274
X6.4047Y-3.0214
X6.4559Y-3.1913
X6.459Y-3.0226
X6.5047Y-3.0194
X6.5135Y-3.1894
X6.56Y-3.1894
X6.5917Y-3.1344
X6.6039Y-3.0345
X6.6335Y-3.1894
X6.6357Y-3.0094
X6.68Y-3.1894
X6.7417Y-3.0744
X6.7617Y-3.2124
X6.7717Y-3.1544
X6.8527Y-3.3664
X6.8827Y-3.2264
X6.8867Y-3.3314
X7.1257Y-4.2374
X7.1387Y-4.1964
X7.1737Y-4.1654
X7.2107Y-4.1644
X7.2422Y-4.2349
X7.2457Y-4.1924
X7.2617Y-4.1134
X7.2987Y-3.9124
X7.3054Y-4.2593
X7.3097Y-4.2194
X7.3204Y-4.1659
X7.3887Y-3.8464
X7.4116Y-4.1082
X7.4337Y-4.1374
X7.4657Y-3.7734
X7.4667Y-4.2364
X7.496Y-4.214
X7.5017Y-4.2644
X7.5287Y-3.7174
X7.5487Y-4.1434
X7.5737Y-4.1014
X7.6317Y-2.8714
T2
X4.3187Y-4.2324
X4.3513Y-4.1898
X4.6367Y-4.1494
X5.5617Y-3.847
X5.5694Y-3.7983
X5.5694Y-3.8956
X5.5917Y-3.7544
X5.5917Y-3.9395
X5.6266Y-3.7196
X5.6266Y-3.9744
X5.6705Y-3.6972
X5.6705Y-3.9967
X5.7191Y-3.6895
X5.7191Y-4.0045
X5.7678Y-3.6972
X5.7678Y-3.9967
X5.8117Y-3.7196
X5.8117Y-3.9744
X5.8465Y-3.7544
X5.8465Y-3.9395
X5.8689Y-3.7983
X5.8689Y-3.8956
X5.8766Y-3.847
X5.9925Y-3.845
X6.0002Y-3.7963
X6.0002Y-3.8937
X6.0226Y-3.7524
X6.0226Y-3.9376
X6.0574Y-3.7176
X6.0574Y-3.9724
X6.1013Y-3.6952
X6.1013Y-3.9948
X6.15Y-3.6875
X6.15Y-4.0025
X6.1987Y-3.6952
X6.1987Y-3.9948
X6.2426Y-3.7176
X6.2426Y-3.9724
X6.2774Y-3.7524
X6.2774Y-3.9376
X6.2998Y-3.7963
X6.2998Y-3.8937
X6.3075Y-3.845
X6.9117Y-2.8844
X6.9567Y-2.8844
X7.0017Y-2.8844
X7.0517Y-2.8844
T3
X4.4947Y-4.0254
X6.2097Y-3.1944
X7.0647Y-4.2094
X7.3687Y-4.0774
X7.5667Y-2.9554
T4
X4.9389Y-3.8453
X5.2223Y-3.8453
X6.6465Y-3.8453
X6.93Y-3.8453
T5
X5.7199Y-3.8453
X6.149Y-3.8453
T0
M30
