%TF.GenerationSoftware,KiCad,Pcbnew,(6.0.10)*%
%TF.CreationDate,2023-02-27T01:31:51-05:00*%
%TF.ProjectId,vehicle side connector,76656869-636c-4652-9073-69646520636f,rev?*%
%TF.SameCoordinates,Original*%
%TF.FileFunction,Copper,L4,Bot*%
%TF.FilePolarity,Positive*%
%FSLAX46Y46*%
G04 Gerber Fmt 4.6, Leading zero omitted, Abs format (unit mm)*
G04 Created by KiCad (PCBNEW (6.0.10)) date 2023-02-27 01:31:51*
%MOMM*%
%LPD*%
G01*
G04 APERTURE LIST*
G04 Aperture macros list*
%AMRoundRect*
0 Rectangle with rounded corners*
0 $1 Rounding radius*
0 $2 $3 $4 $5 $6 $7 $8 $9 X,Y pos of 4 corners*
0 Add a 4 corners polygon primitive as box body*
4,1,4,$2,$3,$4,$5,$6,$7,$8,$9,$2,$3,0*
0 Add four circle primitives for the rounded corners*
1,1,$1+$1,$2,$3*
1,1,$1+$1,$4,$5*
1,1,$1+$1,$6,$7*
1,1,$1+$1,$8,$9*
0 Add four rect primitives between the rounded corners*
20,1,$1+$1,$2,$3,$4,$5,0*
20,1,$1+$1,$4,$5,$6,$7,0*
20,1,$1+$1,$6,$7,$8,$9,0*
20,1,$1+$1,$8,$9,$2,$3,0*%
%AMOutline5P*
0 Free polygon, 5 corners , with rotation*
0 The origin of the aperture is its center*
0 number of corners: always 5*
0 $1 to $10 corner X, Y*
0 $11 Rotation angle, in degrees counterclockwise*
0 create outline with 5 corners*
4,1,5,$1,$2,$3,$4,$5,$6,$7,$8,$9,$10,$1,$2,$11*%
%AMOutline6P*
0 Free polygon, 6 corners , with rotation*
0 The origin of the aperture is its center*
0 number of corners: always 6*
0 $1 to $12 corner X, Y*
0 $13 Rotation angle, in degrees counterclockwise*
0 create outline with 6 corners*
4,1,6,$1,$2,$3,$4,$5,$6,$7,$8,$9,$10,$11,$12,$1,$2,$13*%
%AMOutline7P*
0 Free polygon, 7 corners , with rotation*
0 The origin of the aperture is its center*
0 number of corners: always 7*
0 $1 to $14 corner X, Y*
0 $15 Rotation angle, in degrees counterclockwise*
0 create outline with 7 corners*
4,1,7,$1,$2,$3,$4,$5,$6,$7,$8,$9,$10,$11,$12,$13,$14,$1,$2,$15*%
%AMOutline8P*
0 Free polygon, 8 corners , with rotation*
0 The origin of the aperture is its center*
0 number of corners: always 8*
0 $1 to $16 corner X, Y*
0 $17 Rotation angle, in degrees counterclockwise*
0 create outline with 8 corners*
4,1,8,$1,$2,$3,$4,$5,$6,$7,$8,$9,$10,$11,$12,$13,$14,$15,$16,$1,$2,$17*%
G04 Aperture macros list end*
%TA.AperFunction,SMDPad,CuDef*%
%ADD10Outline6P,-0.380000X3.350000X0.380000X3.350000X0.380000X-3.198000X0.228000X-3.350000X-0.228000X-3.350000X-0.380000X-3.198000X0.000000*%
%TD*%
%TA.AperFunction,SMDPad,CuDef*%
%ADD11Outline8P,-4.365000X3.182500X-4.197500X3.350000X4.197500X3.350000X4.365000X3.182500X4.365000X-3.182500X4.197500X-3.350000X-4.197500X-3.350000X-4.365000X-3.182500X0.000000*%
%TD*%
%TA.AperFunction,ComponentPad*%
%ADD12RoundRect,2.250000X2.250000X2.250000X-2.250000X2.250000X-2.250000X-2.250000X2.250000X-2.250000X0*%
%TD*%
%TA.AperFunction,ComponentPad*%
%ADD13C,9.000000*%
%TD*%
%TA.AperFunction,ComponentPad*%
%ADD14RoundRect,1.500000X1.500000X1.500000X-1.500000X1.500000X-1.500000X-1.500000X1.500000X-1.500000X0*%
%TD*%
%TA.AperFunction,ComponentPad*%
%ADD15C,6.000000*%
%TD*%
%TA.AperFunction,SMDPad,CuDef*%
%ADD16R,0.800000X2.450000*%
%TD*%
%TA.AperFunction,SMDPad,CuDef*%
%ADD17R,1.800000X5.050000*%
%TD*%
%TA.AperFunction,ViaPad*%
%ADD18C,0.600000*%
%TD*%
%TA.AperFunction,ViaPad*%
%ADD19C,0.800000*%
%TD*%
%TA.AperFunction,ViaPad*%
%ADD20C,1.000000*%
%TD*%
%TA.AperFunction,Conductor*%
%ADD21C,0.330200*%
%TD*%
%TA.AperFunction,Conductor*%
%ADD22C,0.700000*%
%TD*%
%TA.AperFunction,Conductor*%
%ADD23C,0.500000*%
%TD*%
G04 APERTURE END LIST*
D10*
%TO.P,J1,17,Pin_17*%
%TO.N,GND*%
X174752000Y-112447000D03*
%TO.P,J1,18,Pin_18*%
X176022000Y-112447000D03*
%TO.P,J1,19,Pin_19*%
X177292000Y-112447000D03*
%TO.P,J1,20,Pin_20*%
X178562000Y-112447000D03*
%TO.P,J1,21,Pin_21*%
X179832000Y-112447000D03*
%TO.P,J1,22,Pin_22*%
%TO.N,/I2C_SDA*%
X181102000Y-112447000D03*
%TO.P,J1,23,Pin_23*%
%TO.N,/I2C_SCL*%
X182372000Y-112447000D03*
%TO.P,J1,24,Pin_24*%
%TO.N,/GPS_PPS*%
X183642000Y-112447000D03*
%TO.P,J1,25,Pin_25*%
%TO.N,/TRIG*%
X184912000Y-112447000D03*
%TO.P,J1,26,Pin_26*%
%TO.N,GND*%
X186182000Y-112447000D03*
%TO.P,J1,27,Pin_27*%
%TO.N,/ETH_TX+*%
X187452000Y-112447000D03*
%TO.P,J1,28,Pin_28*%
%TO.N,/ETH_TX-*%
X188722000Y-112447000D03*
%TO.P,J1,29,Pin_29*%
%TO.N,GND*%
X189992000Y-112447000D03*
%TO.P,J1,30,Pin_30*%
%TO.N,/ETH_RX+*%
X191262000Y-112447000D03*
%TO.P,J1,31,Pin_31*%
%TO.N,/ETH_RX-*%
X192532000Y-112447000D03*
%TO.P,J1,32,Pin_32*%
%TO.N,/USB_VBUS*%
X193802000Y-112447000D03*
%TD*%
%TO.P,J4,11,Pin_11*%
%TO.N,/C_2*%
X108077000Y-112447000D03*
%TO.P,J4,12,Pin_12*%
%TO.N,/C_4*%
X109347000Y-112447000D03*
%TO.P,J4,13,Pin_13*%
%TO.N,/C_6*%
X110617000Y-112447000D03*
%TO.P,J4,14,Pin_14*%
%TO.N,/C_8*%
X111887000Y-112447000D03*
%TO.P,J4,15,Pin_15*%
%TO.N,/C_10*%
X113157000Y-112447000D03*
%TO.P,J4,16,Pin_16*%
%TO.N,/C_12*%
X114427000Y-112447000D03*
%TO.P,J4,17,Pin_17*%
%TO.N,/I2C_SCL*%
X115697000Y-112447000D03*
%TO.P,J4,18,Pin_18*%
%TO.N,/I2C_SDA*%
X116967000Y-112447000D03*
%TO.P,J4,19,Pin_19*%
%TO.N,GND*%
X118237000Y-112447000D03*
%TO.P,J4,20,Pin_20*%
%TO.N,/Detect_IN*%
X119507000Y-112447000D03*
%TD*%
D11*
%TO.P,J2,2,Pin_2*%
%TO.N,GND*%
X129159000Y-112447000D03*
%TO.P,J2,4,Pin_4*%
X141159000Y-112447000D03*
%TO.P,J2,6,Pin_6*%
X153159000Y-112447000D03*
%TO.P,J2,8,Pin_8*%
X165159000Y-112447000D03*
%TD*%
D12*
%TO.P,J6,1,Pin_1*%
%TO.N,GND*%
X145284666Y-97670000D03*
D13*
%TO.P,J6,2,Pin_2*%
%TO.N,/V_BATT+*%
X156184666Y-97670000D03*
%TD*%
D14*
%TO.P,J5,1,Pin_1*%
%TO.N,GND*%
X132647332Y-97670000D03*
D15*
%TO.P,J5,2,Pin_2*%
%TO.N,/V_BATT+*%
X125447332Y-97670000D03*
%TD*%
D14*
%TO.P,J7,1,Pin_1*%
%TO.N,GND*%
X176022000Y-97670000D03*
D15*
%TO.P,J7,2,Pin_2*%
%TO.N,/V_BATT+*%
X168822000Y-97670000D03*
%TD*%
D16*
%TO.P,J3,1,Pin_1*%
%TO.N,/USB_VBUS*%
X157727000Y-83948000D03*
%TO.P,J3,2,Pin_2*%
%TO.N,/CAN-*%
X157727000Y-74548000D03*
%TO.P,J3,3,Pin_3*%
%TO.N,/USB D+*%
X159227000Y-83948000D03*
%TO.P,J3,4,Pin_4*%
%TO.N,/CAN+*%
X159227000Y-74548000D03*
%TO.P,J3,5,Pin_5*%
%TO.N,/USB D-*%
X160727000Y-83948000D03*
%TO.P,J3,6,Pin_6*%
%TO.N,/I2C_SCL*%
X160727000Y-74548000D03*
%TO.P,J3,7,Pin_7*%
%TO.N,/TRIG*%
X162227000Y-83948000D03*
%TO.P,J3,8,Pin_8*%
%TO.N,/I2C_SDA*%
X162227000Y-74548000D03*
%TO.P,J3,9,Pin_9*%
%TO.N,/CAPTURE*%
X163727000Y-83948000D03*
%TO.P,J3,10,Pin_10*%
%TO.N,/UART_TX*%
X163727000Y-74548000D03*
%TO.P,J3,11,Pin_11*%
%TO.N,/ETH_RX-*%
X165227000Y-83948000D03*
%TO.P,J3,12,Pin_12*%
%TO.N,/UART_RX*%
X165227000Y-74548000D03*
%TO.P,J3,13,Pin_13*%
%TO.N,/ETH_RX+*%
X166727000Y-83948000D03*
%TO.P,J3,14,Pin_14*%
%TO.N,/S_BUS*%
X166727000Y-74548000D03*
%TO.P,J3,15,Pin_15*%
%TO.N,/ETH_TX-*%
X168227000Y-83948000D03*
%TO.P,J3,16,Pin_16*%
%TO.N,/GPS_PPS*%
X168227000Y-74548000D03*
%TO.P,J3,17,Pin_17*%
%TO.N,/ETH_TX+*%
X169727000Y-83948000D03*
%TO.P,J3,18,Pin_18*%
%TO.N,unconnected-(J3-Pad18)*%
X169727000Y-74548000D03*
%TO.P,J3,19,Pin_19*%
%TO.N,unconnected-(J3-Pad19)*%
X171227000Y-83948000D03*
%TO.P,J3,20,Pin_20*%
%TO.N,/5V*%
X171227000Y-74548000D03*
%TO.P,J3,21,Pin_21*%
%TO.N,GND*%
X172727000Y-83948000D03*
%TO.P,J3,22,Pin_22*%
%TO.N,/5V*%
X172727000Y-74548000D03*
D17*
%TO.P,J3,S1*%
%TO.N,N/C*%
X175257000Y-78148000D03*
%TO.P,J3,S2*%
X155197000Y-78148000D03*
%TD*%
D18*
%TO.N,/CAPTURE*%
X163980000Y-81060000D03*
D19*
%TO.N,/V_BATT+*%
X152973932Y-100014141D03*
X160014226Y-96426932D03*
X152405774Y-98899068D03*
X158561141Y-94426932D03*
X158561141Y-100899068D03*
X160014226Y-98899068D03*
X156210000Y-93663000D03*
X156210000Y-101663000D03*
X160210000Y-97663000D03*
X159446068Y-100014141D03*
X152405774Y-96426932D03*
X154973932Y-101467226D03*
X157446068Y-101467226D03*
X159446068Y-95311859D03*
X153858859Y-94426932D03*
X157446068Y-93858774D03*
X152973932Y-95311859D03*
X152210000Y-97663000D03*
X153858859Y-100899068D03*
X154973932Y-93858774D03*
D18*
%TO.N,GND*%
X113175600Y-100569000D03*
D20*
X114166200Y-102245400D03*
D18*
X112718400Y-74915000D03*
D19*
X149266068Y-97713141D03*
X141461842Y-98949209D03*
X141266068Y-97713141D03*
X145266068Y-101713141D03*
D18*
X191229800Y-94422200D03*
X193846000Y-72933800D03*
X167430000Y-79614000D03*
D20*
X187165800Y-103566200D03*
D18*
X187673800Y-97698800D03*
D19*
X141461842Y-96477073D03*
D20*
X179444200Y-106919000D03*
D18*
X171240000Y-78090000D03*
D19*
X147617209Y-100949209D03*
D18*
X190544000Y-108316000D03*
D19*
X144030000Y-93908915D03*
D18*
X152444000Y-81138000D03*
D19*
X146502136Y-93908915D03*
D18*
X111524600Y-98181400D03*
X113175600Y-79258400D03*
X174821400Y-81950800D03*
X185387800Y-99375200D03*
D19*
X142914927Y-94477073D03*
X142030000Y-95362000D03*
D18*
X172002000Y-80122000D03*
D19*
X144030000Y-101517367D03*
X142914927Y-100949209D03*
X148502136Y-100064282D03*
D18*
X110102200Y-100924600D03*
D19*
X149070294Y-96477073D03*
D18*
X151758200Y-78521800D03*
D19*
X142030000Y-100064282D03*
X146502136Y-101517367D03*
D18*
X111499200Y-78928200D03*
D19*
X149070294Y-98949209D03*
X147617209Y-94477073D03*
X148502136Y-95362000D03*
X145266068Y-93713141D03*
D18*
X189629600Y-95844600D03*
%TO.N,/GPS_PPS*%
X168547600Y-76439000D03*
X183952700Y-107566700D03*
X174923000Y-84617800D03*
%TO.N,/CAPTURE*%
X184448000Y-104480600D03*
%TO.N,/I2C_SCL*%
X115639400Y-107706400D03*
X184041600Y-106487200D03*
X161511800Y-76870800D03*
%TO.N,/I2C_SDA*%
X162680200Y-76743800D03*
X182212800Y-105801400D03*
X116833200Y-107655600D03*
D19*
%TO.N,/5V*%
X179114000Y-73264000D03*
X175558000Y-73264000D03*
X176701000Y-73264000D03*
X177844000Y-73264000D03*
D20*
%TO.N,/USB_VBUS*%
X192195000Y-75067400D03*
X157727200Y-81138000D03*
D18*
%TO.N,/TRIG*%
X185556791Y-108186609D03*
X162248400Y-81976200D03*
X171748000Y-81595200D03*
%TO.N,/UART_TX*%
X164057600Y-76775000D03*
X183152600Y-105776000D03*
%TO.N,/UART_RX*%
X165220200Y-76693000D03*
X181323800Y-106588800D03*
%TO.N,/S_BUS*%
X174059400Y-85506800D03*
X180993600Y-107630200D03*
X167738259Y-77075396D03*
D19*
%TO.N,/Detect_IN*%
X117773000Y-105395000D03*
D18*
%TO.N,/ETH_TX+*%
X169671500Y-81011000D03*
X188254900Y-104349514D03*
%TO.N,/ETH_TX-*%
X168490500Y-81011000D03*
X188816800Y-105090200D03*
%TO.N,/ETH_RX+*%
X166623500Y-81011000D03*
X191737200Y-105242600D03*
%TO.N,/ETH_RX-*%
X192372800Y-104175800D03*
X165442500Y-81011000D03*
%TO.N,/USB D+*%
X160506947Y-80999853D03*
X185939200Y-105813867D03*
%TO.N,/USB D-*%
X185667200Y-107173000D03*
X159671853Y-81894653D03*
D19*
%TO.N,/CAN+*%
X110524232Y-106420768D03*
D18*
X189655000Y-107604800D03*
X158403232Y-77699232D03*
%TO.N,/CAN-*%
X157580780Y-76922488D03*
D19*
X109695800Y-107503200D03*
D18*
X190398671Y-107035699D03*
%TD*%
D21*
%TO.N,/CAPTURE*%
X163727000Y-82293000D02*
X163727000Y-83948000D01*
X163980000Y-82040000D02*
X163727000Y-82293000D01*
X163980000Y-81060000D02*
X163980000Y-82040000D01*
D22*
%TO.N,GND*%
X177292000Y-108106000D02*
X178485800Y-108106000D01*
X174752000Y-112447000D02*
X174752000Y-108258400D01*
X118204800Y-107782600D02*
X118204800Y-107554000D01*
X179832000Y-112447000D02*
X179850600Y-112428400D01*
X178562000Y-112447000D02*
X178562000Y-108182200D01*
X179444200Y-107300000D02*
X179444200Y-106919000D01*
D21*
X186734000Y-103998000D02*
X187165800Y-103566200D01*
D22*
X176022000Y-112447000D02*
X176022000Y-108334600D01*
D21*
X186182000Y-108868000D02*
X186734000Y-108316000D01*
X189992000Y-108868000D02*
X190544000Y-108316000D01*
X186182000Y-112447000D02*
X186182000Y-108868000D01*
D22*
X118204800Y-107554000D02*
X115436200Y-104785400D01*
X177222600Y-108036600D02*
X177292000Y-108106000D01*
X115436200Y-103515400D02*
X114166200Y-102245400D01*
X179850600Y-107325400D02*
X179444200Y-106919000D01*
X178562000Y-108182200D02*
X179444200Y-107300000D01*
D21*
X186734000Y-108316000D02*
X186734000Y-103998000D01*
X189992000Y-112447000D02*
X189992000Y-108868000D01*
D22*
X176022000Y-108334600D02*
X176320000Y-108036600D01*
X174973800Y-108036600D02*
X176320000Y-108036600D01*
X177292000Y-112447000D02*
X177292000Y-108106000D01*
X178485800Y-108106000D02*
X178562000Y-108182200D01*
X115436200Y-104785400D02*
X115436200Y-103515400D01*
X174752000Y-108258400D02*
X174973800Y-108036600D01*
X176320000Y-108036600D02*
X177222600Y-108036600D01*
X118237000Y-107814800D02*
X118204800Y-107782600D01*
X118237000Y-112447000D02*
X118237000Y-107814800D01*
X179850600Y-112428400D02*
X179850600Y-107325400D01*
D21*
%TO.N,/GPS_PPS*%
X168547600Y-76439000D02*
X168227000Y-76118400D01*
X183952700Y-107922300D02*
X183952700Y-107566700D01*
X168227000Y-76118400D02*
X168227000Y-74548000D01*
X183642000Y-112447000D02*
X183642000Y-108233000D01*
X183642000Y-108233000D02*
X183952700Y-107922300D01*
%TO.N,/CAPTURE*%
X163727000Y-83948000D02*
X163690981Y-83911981D01*
%TO.N,/I2C_SCL*%
X161511800Y-76870800D02*
X160727000Y-76086000D01*
X183908183Y-106487200D02*
X184041600Y-106487200D01*
X182372000Y-108341160D02*
X182982099Y-107731061D01*
X115697000Y-112447000D02*
X115697000Y-107764000D01*
X182982099Y-107731061D02*
X182982099Y-107413284D01*
X115697000Y-107764000D02*
X115639400Y-107706400D01*
X182982099Y-107413284D02*
X183908183Y-106487200D01*
X160727000Y-76086000D02*
X160727000Y-74548000D01*
X182372000Y-112447000D02*
X182372000Y-108341160D01*
%TO.N,/I2C_SDA*%
X116967000Y-112447000D02*
X116967000Y-107789400D01*
X181102000Y-108664800D02*
X182212800Y-107554000D01*
X162227000Y-74548000D02*
X162227000Y-76290600D01*
X162227000Y-76290600D02*
X162680200Y-76743800D01*
X116967000Y-107789400D02*
X116833200Y-107655600D01*
X181102000Y-112447000D02*
X181102000Y-108664800D01*
X182212800Y-107554000D02*
X182212800Y-105801400D01*
D23*
%TO.N,/USB_VBUS*%
X192195000Y-75778600D02*
X192550600Y-76134200D01*
X157727200Y-83947800D02*
X157727000Y-83948000D01*
X192195000Y-75067400D02*
X192195000Y-75778600D01*
X193802000Y-112447000D02*
X193802000Y-77385600D01*
X157727200Y-81138000D02*
X157727200Y-83947800D01*
X193802000Y-77385600D02*
X192550600Y-76134200D01*
D21*
%TO.N,/TRIG*%
X184912000Y-112447000D02*
X184912000Y-108831400D01*
X162227000Y-83948000D02*
X162248400Y-83926600D01*
X184912000Y-108831400D02*
X185556791Y-108186609D01*
X162248400Y-83926600D02*
X162248400Y-81976200D01*
%TO.N,/UART_TX*%
X163727000Y-74548000D02*
X163727000Y-76444400D01*
X163727000Y-76444400D02*
X164057600Y-76775000D01*
%TO.N,/UART_RX*%
X165227000Y-76686200D02*
X165220200Y-76693000D01*
X165227000Y-74548000D02*
X165227000Y-76686200D01*
%TO.N,/S_BUS*%
X166727000Y-76371000D02*
X167431396Y-77075396D01*
X167431396Y-77075396D02*
X167738259Y-77075396D01*
X166727000Y-74548000D02*
X166727000Y-76371000D01*
%TO.N,/Detect_IN*%
X119507000Y-112447000D02*
X119507000Y-107129000D01*
X119507000Y-107129000D02*
X117773000Y-105395000D01*
%TO.N,/ETH_TX+*%
X169671500Y-81011000D02*
X169671500Y-81982500D01*
X169671500Y-81982500D02*
X169727000Y-82038000D01*
X187452000Y-112447000D02*
X187452000Y-105152414D01*
X187452000Y-105152414D02*
X188254900Y-104349514D01*
X169727000Y-82038000D02*
X169727000Y-83948000D01*
%TO.N,/ETH_TX-*%
X188722000Y-105185000D02*
X188816800Y-105090200D01*
X168227000Y-81633841D02*
X168227000Y-83948000D01*
X168490500Y-81011000D02*
X168490500Y-81370341D01*
X168490500Y-81370341D02*
X168227000Y-81633841D01*
X188722000Y-112447000D02*
X188722000Y-105185000D01*
%TO.N,/ETH_RX+*%
X166623500Y-81011000D02*
X166623500Y-81982500D01*
X191262000Y-108722017D02*
X191737200Y-108246817D01*
X191262000Y-112447000D02*
X191262000Y-108722017D01*
X166727000Y-82086000D02*
X166727000Y-83948000D01*
X166623500Y-81982500D02*
X166727000Y-82086000D01*
X191737200Y-108246817D02*
X191737200Y-105242600D01*
%TO.N,/ETH_RX-*%
X192532000Y-104335000D02*
X192372800Y-104175800D01*
X165442500Y-81370341D02*
X165227000Y-81585841D01*
X165227000Y-81585841D02*
X165227000Y-83948000D01*
X192532000Y-112447000D02*
X192532000Y-104335000D01*
X165442500Y-81011000D02*
X165442500Y-81370341D01*
%TO.N,/USB D+*%
X158717800Y-81366600D02*
X158717800Y-82382600D01*
X158717800Y-82382600D02*
X159227000Y-82891800D01*
X159227000Y-82891800D02*
X159227000Y-83948000D01*
X160506947Y-80999853D02*
X160340294Y-80833200D01*
X160340294Y-80833200D02*
X159251200Y-80833200D01*
X159251200Y-80833200D02*
X158717800Y-81366600D01*
%TO.N,/USB D-*%
X160727000Y-83948000D02*
X160727000Y-82949800D01*
X160727000Y-82949800D02*
X159671853Y-81894653D01*
%TO.N,/CAN+*%
X159227000Y-74548000D02*
X159227000Y-76875464D01*
X159227000Y-76875464D02*
X158403232Y-77699232D01*
%TO.N,/CAN-*%
X157580780Y-74694220D02*
X157580780Y-76922488D01*
X157727000Y-74548000D02*
X157580780Y-74694220D01*
%TD*%
%TA.AperFunction,Conductor*%
%TO.N,/5V*%
G36*
X179691121Y-72390077D02*
G01*
X179737614Y-72443733D01*
X179749000Y-72496075D01*
X179749000Y-73900000D01*
X179728998Y-73968121D01*
X179675342Y-74014614D01*
X179623000Y-74026000D01*
X173907000Y-74026000D01*
X173528031Y-74341807D01*
X173158917Y-74649402D01*
X173158916Y-74649403D01*
X173145000Y-74661000D01*
X173145000Y-75805000D01*
X173124998Y-75873121D01*
X173071342Y-75919614D01*
X173019000Y-75931000D01*
X170858000Y-75931000D01*
X170789879Y-75910998D01*
X170743386Y-75857342D01*
X170732000Y-75805000D01*
X170732000Y-72496075D01*
X170752002Y-72427954D01*
X170805658Y-72381461D01*
X170858000Y-72370075D01*
X179623000Y-72370075D01*
X179691121Y-72390077D01*
G37*
%TD.AperFunction*%
%TD*%
%TA.AperFunction,Conductor*%
%TO.N,GND*%
G36*
X173493315Y-85795235D02*
G01*
X173497552Y-85801541D01*
X173497554Y-85801544D01*
X173536515Y-85859523D01*
X173578457Y-85921939D01*
X173691364Y-86024677D01*
X173698037Y-86028300D01*
X173698041Y-86028303D01*
X173818842Y-86093892D01*
X173818844Y-86093893D01*
X173825519Y-86097517D01*
X173832868Y-86099445D01*
X173965826Y-86134326D01*
X173965828Y-86134326D01*
X173973176Y-86136254D01*
X174055085Y-86137541D01*
X174118213Y-86138533D01*
X174118216Y-86138533D01*
X174125810Y-86138652D01*
X174274611Y-86104572D01*
X174410987Y-86035982D01*
X174416759Y-86031053D01*
X174416761Y-86031051D01*
X174521290Y-85941775D01*
X174521294Y-85941771D01*
X174527066Y-85936841D01*
X174616146Y-85812874D01*
X174667712Y-85684600D01*
X183178000Y-85684600D01*
X183178000Y-103464600D01*
X180460200Y-105903000D01*
X180460200Y-107292238D01*
X180438049Y-107323756D01*
X180433680Y-107329973D01*
X180430920Y-107337053D01*
X180382394Y-107461515D01*
X180378228Y-107472199D01*
X180358303Y-107623547D01*
X180375054Y-107775279D01*
X180427515Y-107918635D01*
X180431752Y-107924941D01*
X180431754Y-107924944D01*
X180460200Y-107967275D01*
X180460200Y-108545600D01*
X180440198Y-108613721D01*
X180386542Y-108660214D01*
X180334200Y-108671600D01*
X169462000Y-108671600D01*
X169462000Y-109688600D01*
X169441998Y-109756721D01*
X169388342Y-109803214D01*
X169336000Y-109814600D01*
X160952000Y-109814600D01*
X160883879Y-109794598D01*
X160837386Y-109740942D01*
X160826000Y-109688600D01*
X160826000Y-108798600D01*
X157524000Y-108798600D01*
X157524000Y-109688600D01*
X157503998Y-109756721D01*
X157450342Y-109803214D01*
X157398000Y-109814600D01*
X149014000Y-109814600D01*
X148945879Y-109794598D01*
X148899386Y-109740942D01*
X148888000Y-109688600D01*
X148888000Y-108798600D01*
X145459000Y-108798600D01*
X145459000Y-109688600D01*
X145438998Y-109756721D01*
X145385342Y-109803214D01*
X145333000Y-109814600D01*
X136949000Y-109814600D01*
X136880879Y-109794598D01*
X136834386Y-109740942D01*
X136823000Y-109688600D01*
X136823000Y-108798600D01*
X133521000Y-108798600D01*
X133521000Y-109688600D01*
X133500998Y-109756721D01*
X133447342Y-109803214D01*
X133395000Y-109814600D01*
X124909400Y-109814600D01*
X124841279Y-109794598D01*
X124794786Y-109740942D01*
X124783400Y-109688600D01*
X124783400Y-108773200D01*
X124750491Y-108743425D01*
X124745607Y-108739006D01*
X124310943Y-108345738D01*
X124310941Y-108345737D01*
X124306641Y-108341846D01*
X124306639Y-108341845D01*
X118916000Y-103464600D01*
X118916000Y-97658357D01*
X122111760Y-97658357D01*
X122111932Y-97661752D01*
X122111932Y-97661753D01*
X122125058Y-97920854D01*
X122130013Y-98018664D01*
X122130550Y-98022019D01*
X122130551Y-98022025D01*
X122135574Y-98053383D01*
X122187071Y-98374893D01*
X122282269Y-98722876D01*
X122414491Y-99058543D01*
X122582192Y-99377966D01*
X122584093Y-99380795D01*
X122584099Y-99380805D01*
X122604178Y-99410685D01*
X122783410Y-99677409D01*
X123015790Y-99953370D01*
X123087302Y-100021708D01*
X123274152Y-100200266D01*
X123274159Y-100200272D01*
X123276615Y-100202619D01*
X123460295Y-100343562D01*
X123521129Y-100390241D01*
X123562833Y-100422242D01*
X123565744Y-100424012D01*
X123565750Y-100424016D01*
X123595041Y-100441825D01*
X123871095Y-100609669D01*
X124197797Y-100762707D01*
X124201015Y-100763809D01*
X124201018Y-100763810D01*
X124535885Y-100878461D01*
X124535889Y-100878462D01*
X124539116Y-100879567D01*
X124542446Y-100880317D01*
X124542455Y-100880320D01*
X124790368Y-100936188D01*
X124891060Y-100958880D01*
X124894446Y-100959266D01*
X124894453Y-100959267D01*
X125246127Y-100999336D01*
X125246135Y-100999336D01*
X125249510Y-100999721D01*
X125252914Y-100999739D01*
X125252917Y-100999739D01*
X125449073Y-101000766D01*
X125610275Y-101001610D01*
X125613661Y-101001260D01*
X125613663Y-101001260D01*
X125965742Y-100964876D01*
X125965750Y-100964875D01*
X125969134Y-100964525D01*
X125972467Y-100963811D01*
X125972470Y-100963810D01*
X126146176Y-100926570D01*
X126321888Y-100888901D01*
X126664412Y-100775622D01*
X126992699Y-100626014D01*
X126995636Y-100624270D01*
X126995642Y-100624267D01*
X127299973Y-100443567D01*
X127302907Y-100441825D01*
X127591409Y-100225212D01*
X127763845Y-100063849D01*
X127852333Y-99981044D01*
X127852336Y-99981041D01*
X127854830Y-99978707D01*
X127858186Y-99974806D01*
X128087861Y-99707783D01*
X128090087Y-99705195D01*
X128197373Y-99549093D01*
X128292499Y-99410685D01*
X128292504Y-99410678D01*
X128294429Y-99407876D01*
X128296041Y-99404882D01*
X128296046Y-99404874D01*
X128463844Y-99093238D01*
X128465466Y-99090226D01*
X128601196Y-98755963D01*
X128700032Y-98408995D01*
X128760818Y-98053383D01*
X128763150Y-98015269D01*
X128782733Y-97695083D01*
X128782843Y-97693287D01*
X128782880Y-97682669D01*
X128782918Y-97671821D01*
X128782918Y-97671809D01*
X128782924Y-97670000D01*
X128776069Y-97543420D01*
X151350754Y-97543420D01*
X151358639Y-97973628D01*
X151404736Y-98401432D01*
X151405282Y-98404175D01*
X151405283Y-98404184D01*
X151479420Y-98776899D01*
X151488679Y-98823445D01*
X151609805Y-99236325D01*
X151610825Y-99238921D01*
X151610826Y-99238924D01*
X151678312Y-99410685D01*
X151767154Y-99636803D01*
X151801328Y-99705195D01*
X151937994Y-99978707D01*
X151959480Y-100021708D01*
X152185261Y-100387993D01*
X152442708Y-100732757D01*
X152444569Y-100734835D01*
X152444570Y-100734836D01*
X152727916Y-101051185D01*
X152727922Y-101051191D01*
X152729784Y-101053270D01*
X153044215Y-101346996D01*
X153383512Y-101611607D01*
X153744988Y-101845009D01*
X153747467Y-101846313D01*
X153747470Y-101846315D01*
X154123281Y-102044039D01*
X154123287Y-102044042D01*
X154125781Y-102045354D01*
X154128379Y-102046438D01*
X154128383Y-102046440D01*
X154520292Y-102209977D01*
X154520297Y-102209979D01*
X154522876Y-102211055D01*
X154525541Y-102211898D01*
X154525547Y-102211900D01*
X154748919Y-102282543D01*
X154933129Y-102340801D01*
X154935859Y-102341404D01*
X154935860Y-102341404D01*
X155312676Y-102424597D01*
X155353291Y-102433564D01*
X155356065Y-102433922D01*
X155356066Y-102433922D01*
X155777266Y-102488253D01*
X155777273Y-102488254D01*
X155780036Y-102488610D01*
X155782823Y-102488720D01*
X155782829Y-102488720D01*
X156032602Y-102498533D01*
X156209985Y-102505503D01*
X156212777Y-102505364D01*
X156212782Y-102505364D01*
X156636929Y-102484249D01*
X156636938Y-102484248D01*
X156639733Y-102484109D01*
X156642510Y-102483721D01*
X156642512Y-102483721D01*
X156719130Y-102473021D01*
X157065878Y-102424597D01*
X157485046Y-102327439D01*
X157699944Y-102256992D01*
X157891265Y-102194274D01*
X157891271Y-102194272D01*
X157893918Y-102193404D01*
X158289256Y-102023554D01*
X158667930Y-101819232D01*
X159026942Y-101582057D01*
X159363449Y-101313908D01*
X159674787Y-101016906D01*
X159676624Y-101014812D01*
X159676632Y-101014803D01*
X159956644Y-100695510D01*
X159958491Y-100693404D01*
X160006686Y-100627434D01*
X160181609Y-100387993D01*
X160212314Y-100345963D01*
X160283775Y-100227267D01*
X160432796Y-99979745D01*
X160432801Y-99979736D01*
X160434247Y-99977334D01*
X160580206Y-99677409D01*
X160621299Y-99592970D01*
X160621300Y-99592967D01*
X160622532Y-99590436D01*
X160708409Y-99364955D01*
X160774682Y-99190948D01*
X160774684Y-99190941D01*
X160775678Y-99188332D01*
X160892474Y-98774206D01*
X160896521Y-98752685D01*
X160971478Y-98354084D01*
X160971479Y-98354076D01*
X160971994Y-98351338D01*
X161013608Y-97923074D01*
X161015094Y-97866336D01*
X161020177Y-97672233D01*
X161020177Y-97672220D01*
X161020235Y-97670000D01*
X161019716Y-97658357D01*
X165486428Y-97658357D01*
X165486600Y-97661752D01*
X165486600Y-97661753D01*
X165499726Y-97920854D01*
X165504681Y-98018664D01*
X165505218Y-98022019D01*
X165505219Y-98022025D01*
X165510242Y-98053383D01*
X165561739Y-98374893D01*
X165656937Y-98722876D01*
X165789159Y-99058543D01*
X165956860Y-99377966D01*
X165958761Y-99380795D01*
X165958767Y-99380805D01*
X165978846Y-99410685D01*
X166158078Y-99677409D01*
X166390458Y-99953370D01*
X166461970Y-100021708D01*
X166648820Y-100200266D01*
X166648827Y-100200272D01*
X166651283Y-100202619D01*
X166834963Y-100343562D01*
X166895797Y-100390241D01*
X166937501Y-100422242D01*
X166940412Y-100424012D01*
X166940418Y-100424016D01*
X166969709Y-100441825D01*
X167245763Y-100609669D01*
X167572465Y-100762707D01*
X167575683Y-100763809D01*
X167575686Y-100763810D01*
X167910553Y-100878461D01*
X167910557Y-100878462D01*
X167913784Y-100879567D01*
X167917114Y-100880317D01*
X167917123Y-100880320D01*
X168165036Y-100936188D01*
X168265728Y-100958880D01*
X168269114Y-100959266D01*
X168269121Y-100959267D01*
X168620795Y-100999336D01*
X168620803Y-100999336D01*
X168624178Y-100999721D01*
X168627582Y-100999739D01*
X168627585Y-100999739D01*
X168823741Y-101000766D01*
X168984943Y-101001610D01*
X168988329Y-101001260D01*
X168988331Y-101001260D01*
X169340410Y-100964876D01*
X169340418Y-100964875D01*
X169343802Y-100964525D01*
X169347135Y-100963811D01*
X169347138Y-100963810D01*
X169520844Y-100926570D01*
X169696556Y-100888901D01*
X170039080Y-100775622D01*
X170367367Y-100626014D01*
X170370304Y-100624270D01*
X170370310Y-100624267D01*
X170674641Y-100443567D01*
X170677575Y-100441825D01*
X170966077Y-100225212D01*
X171138513Y-100063849D01*
X171227001Y-99981044D01*
X171227004Y-99981041D01*
X171229498Y-99978707D01*
X171232854Y-99974806D01*
X171462529Y-99707783D01*
X171464755Y-99705195D01*
X171572041Y-99549093D01*
X171667167Y-99410685D01*
X171667172Y-99410678D01*
X171669097Y-99407876D01*
X171670709Y-99404882D01*
X171670714Y-99404874D01*
X171838512Y-99093238D01*
X171840134Y-99090226D01*
X171975864Y-98755963D01*
X172074700Y-98408995D01*
X172135486Y-98053383D01*
X172137818Y-98015269D01*
X172157401Y-97695083D01*
X172157511Y-97693287D01*
X172157548Y-97682669D01*
X172157586Y-97671821D01*
X172157586Y-97671809D01*
X172157592Y-97670000D01*
X172138082Y-97309758D01*
X172079780Y-96953731D01*
X171983369Y-96606082D01*
X171982111Y-96602920D01*
X171982108Y-96602912D01*
X171875396Y-96334760D01*
X171849975Y-96270879D01*
X171696951Y-95981867D01*
X171682759Y-95955062D01*
X171682755Y-95955055D01*
X171681160Y-95952043D01*
X171478899Y-95653304D01*
X171245557Y-95378156D01*
X170983864Y-95129819D01*
X170981157Y-95127757D01*
X170981149Y-95127750D01*
X170819131Y-95004326D01*
X170696881Y-94911197D01*
X170387966Y-94724847D01*
X170380015Y-94721156D01*
X170063813Y-94574380D01*
X170063811Y-94574379D01*
X170060732Y-94572950D01*
X170057520Y-94571863D01*
X170057513Y-94571860D01*
X169722243Y-94458378D01*
X169722238Y-94458376D01*
X169719007Y-94457283D01*
X169709860Y-94455255D01*
X169663831Y-94445051D01*
X169366789Y-94379198D01*
X169240066Y-94365208D01*
X169011579Y-94339982D01*
X169011574Y-94339982D01*
X169008198Y-94339609D01*
X169004799Y-94339603D01*
X169004798Y-94339603D01*
X168834911Y-94339306D01*
X168647429Y-94338979D01*
X168513511Y-94353291D01*
X168292086Y-94376954D01*
X168292080Y-94376955D01*
X168288702Y-94377316D01*
X167936213Y-94454171D01*
X167594087Y-94568645D01*
X167266324Y-94719399D01*
X166956761Y-94904669D01*
X166669017Y-95122288D01*
X166406458Y-95369711D01*
X166172157Y-95644042D01*
X165968854Y-95942073D01*
X165967247Y-95945083D01*
X165967245Y-95945086D01*
X165944798Y-95987125D01*
X165798927Y-96260318D01*
X165664364Y-96595053D01*
X165663444Y-96598327D01*
X165663442Y-96598332D01*
X165602907Y-96813695D01*
X165566740Y-96942363D01*
X165566178Y-96945720D01*
X165566178Y-96945721D01*
X165516909Y-97240145D01*
X165507196Y-97298185D01*
X165486428Y-97658357D01*
X161019716Y-97658357D01*
X161001091Y-97240145D01*
X160943812Y-96813695D01*
X160848850Y-96394024D01*
X160716958Y-95984456D01*
X160715862Y-95981867D01*
X160550277Y-95590826D01*
X160550273Y-95590818D01*
X160549179Y-95588234D01*
X160346843Y-95208495D01*
X160290538Y-95122288D01*
X160113076Y-94850579D01*
X160113073Y-94850575D01*
X160111552Y-94848246D01*
X159845168Y-94510340D01*
X159549800Y-94197451D01*
X159227788Y-93912057D01*
X158881681Y-93656418D01*
X158514219Y-93432559D01*
X158511705Y-93431319D01*
X158511701Y-93431317D01*
X158130822Y-93243488D01*
X158128312Y-93242250D01*
X157727016Y-93087000D01*
X157724312Y-93086222D01*
X157316188Y-92968809D01*
X157316182Y-92968808D01*
X157313507Y-92968038D01*
X157310770Y-92967509D01*
X157310764Y-92967507D01*
X156893808Y-92886836D01*
X156893798Y-92886834D01*
X156891061Y-92886305D01*
X156463021Y-92842449D01*
X156460229Y-92842412D01*
X156460221Y-92842412D01*
X156198601Y-92838988D01*
X156032777Y-92836817D01*
X156029977Y-92837030D01*
X156029976Y-92837030D01*
X155606523Y-92869241D01*
X155603736Y-92869453D01*
X155179295Y-92940100D01*
X155091536Y-92962878D01*
X154765532Y-93047491D01*
X154765521Y-93047494D01*
X154762814Y-93048197D01*
X154503374Y-93140835D01*
X154360234Y-93191945D01*
X154360229Y-93191947D01*
X154357591Y-93192889D01*
X154355051Y-93194060D01*
X154355046Y-93194062D01*
X154252716Y-93241237D01*
X153966834Y-93373030D01*
X153593639Y-93587194D01*
X153591336Y-93588803D01*
X153591329Y-93588808D01*
X153243267Y-93832071D01*
X153240958Y-93833685D01*
X152911586Y-94110552D01*
X152608129Y-94415602D01*
X152332991Y-94746419D01*
X152331397Y-94748726D01*
X152331395Y-94748728D01*
X152217679Y-94913262D01*
X152088349Y-95100386D01*
X151876142Y-95474698D01*
X151698050Y-95866392D01*
X151697125Y-95869026D01*
X151697121Y-95869036D01*
X151626766Y-96069379D01*
X151555482Y-96272367D01*
X151449567Y-96689408D01*
X151381143Y-97114213D01*
X151350754Y-97543420D01*
X128776069Y-97543420D01*
X128763414Y-97309758D01*
X128705112Y-96953731D01*
X128608701Y-96606082D01*
X128607443Y-96602920D01*
X128607440Y-96602912D01*
X128500728Y-96334760D01*
X128475307Y-96270879D01*
X128322283Y-95981867D01*
X128308091Y-95955062D01*
X128308087Y-95955055D01*
X128306492Y-95952043D01*
X128104231Y-95653304D01*
X127870889Y-95378156D01*
X127609196Y-95129819D01*
X127606489Y-95127757D01*
X127606481Y-95127750D01*
X127444463Y-95004326D01*
X127322213Y-94911197D01*
X127013298Y-94724847D01*
X127005347Y-94721156D01*
X126689145Y-94574380D01*
X126689143Y-94574379D01*
X126686064Y-94572950D01*
X126682852Y-94571863D01*
X126682845Y-94571860D01*
X126347575Y-94458378D01*
X126347570Y-94458376D01*
X126344339Y-94457283D01*
X126335192Y-94455255D01*
X126289163Y-94445051D01*
X125992121Y-94379198D01*
X125865398Y-94365208D01*
X125636911Y-94339982D01*
X125636906Y-94339982D01*
X125633530Y-94339609D01*
X125630131Y-94339603D01*
X125630130Y-94339603D01*
X125460243Y-94339306D01*
X125272761Y-94338979D01*
X125138843Y-94353291D01*
X124917418Y-94376954D01*
X124917412Y-94376955D01*
X124914034Y-94377316D01*
X124561545Y-94454171D01*
X124219419Y-94568645D01*
X123891656Y-94719399D01*
X123582093Y-94904669D01*
X123294349Y-95122288D01*
X123031790Y-95369711D01*
X122797489Y-95644042D01*
X122594186Y-95942073D01*
X122592579Y-95945083D01*
X122592577Y-95945086D01*
X122570130Y-95987125D01*
X122424259Y-96260318D01*
X122289696Y-96595053D01*
X122288776Y-96598327D01*
X122288774Y-96598332D01*
X122228239Y-96813695D01*
X122192072Y-96942363D01*
X122191510Y-96945720D01*
X122191510Y-96945721D01*
X122142241Y-97240145D01*
X122132528Y-97298185D01*
X122111760Y-97658357D01*
X118916000Y-97658357D01*
X118916000Y-88612091D01*
X123375900Y-88612091D01*
X123415729Y-88927367D01*
X123444050Y-89037670D01*
X123493772Y-89231327D01*
X123493775Y-89231335D01*
X123494758Y-89235165D01*
X123611741Y-89530632D01*
X123764834Y-89809106D01*
X123951622Y-90066197D01*
X124169158Y-90297850D01*
X124414014Y-90500412D01*
X124682326Y-90670688D01*
X124685905Y-90672372D01*
X124685912Y-90672376D01*
X124966273Y-90804304D01*
X124966277Y-90804306D01*
X124969863Y-90805993D01*
X124973635Y-90807219D01*
X124973636Y-90807219D01*
X125000640Y-90815993D01*
X125272092Y-90904193D01*
X125584245Y-90963739D01*
X125679298Y-90969719D01*
X125820045Y-90978575D01*
X125820061Y-90978576D01*
X125822040Y-90978700D01*
X125980760Y-90978700D01*
X125982739Y-90978576D01*
X125982755Y-90978575D01*
X126123502Y-90969719D01*
X126218555Y-90963739D01*
X126530708Y-90904193D01*
X126802160Y-90815993D01*
X126829164Y-90807219D01*
X126829165Y-90807219D01*
X126832937Y-90805993D01*
X126836523Y-90804306D01*
X126836527Y-90804304D01*
X127116888Y-90672376D01*
X127116895Y-90672372D01*
X127120474Y-90670688D01*
X127388786Y-90500412D01*
X127633642Y-90297850D01*
X127851178Y-90066197D01*
X128037966Y-89809106D01*
X128191059Y-89530632D01*
X128308042Y-89235165D01*
X128309025Y-89231335D01*
X128309028Y-89231327D01*
X128358750Y-89037670D01*
X128387071Y-88927367D01*
X128425637Y-88622091D01*
X173388300Y-88622091D01*
X173388797Y-88626022D01*
X173427351Y-88931206D01*
X173428129Y-88937367D01*
X173429115Y-88941206D01*
X173506172Y-89241327D01*
X173506175Y-89241335D01*
X173507158Y-89245165D01*
X173624141Y-89540632D01*
X173777234Y-89819106D01*
X173779565Y-89822314D01*
X173956757Y-90066197D01*
X173964022Y-90076197D01*
X174181558Y-90307850D01*
X174426414Y-90510412D01*
X174429758Y-90512534D01*
X174678969Y-90670688D01*
X174694726Y-90680688D01*
X174698305Y-90682372D01*
X174698312Y-90682376D01*
X174978673Y-90814304D01*
X174978677Y-90814306D01*
X174982263Y-90815993D01*
X175284492Y-90914193D01*
X175596645Y-90973739D01*
X175691698Y-90979719D01*
X175832445Y-90988575D01*
X175832461Y-90988576D01*
X175834440Y-90988700D01*
X175993160Y-90988700D01*
X175995139Y-90988576D01*
X175995155Y-90988575D01*
X176135902Y-90979719D01*
X176230955Y-90973739D01*
X176543108Y-90914193D01*
X176845337Y-90815993D01*
X176848923Y-90814306D01*
X176848927Y-90814304D01*
X177129288Y-90682376D01*
X177129295Y-90682372D01*
X177132874Y-90680688D01*
X177148632Y-90670688D01*
X177397842Y-90512534D01*
X177401186Y-90510412D01*
X177646042Y-90307850D01*
X177863578Y-90076197D01*
X177870844Y-90066197D01*
X178048035Y-89822314D01*
X178050366Y-89819106D01*
X178203459Y-89540632D01*
X178320442Y-89245165D01*
X178321425Y-89241335D01*
X178321428Y-89241327D01*
X178398485Y-88941206D01*
X178399471Y-88937367D01*
X178400250Y-88931206D01*
X178438803Y-88626022D01*
X178439300Y-88622091D01*
X178439300Y-88304309D01*
X178399471Y-87989033D01*
X178371150Y-87878730D01*
X178321428Y-87685073D01*
X178321425Y-87685065D01*
X178320442Y-87681235D01*
X178203459Y-87385768D01*
X178050366Y-87107294D01*
X177863578Y-86850203D01*
X177646042Y-86618550D01*
X177401186Y-86415988D01*
X177132874Y-86245712D01*
X177129295Y-86244028D01*
X177129288Y-86244024D01*
X176848927Y-86112096D01*
X176848923Y-86112094D01*
X176845337Y-86110407D01*
X176832596Y-86106267D01*
X176546884Y-86013434D01*
X176546886Y-86013434D01*
X176543108Y-86012207D01*
X176230955Y-85952661D01*
X176135902Y-85946681D01*
X175995155Y-85937825D01*
X175995139Y-85937824D01*
X175993160Y-85937700D01*
X175834440Y-85937700D01*
X175832461Y-85937824D01*
X175832445Y-85937825D01*
X175691698Y-85946681D01*
X175596645Y-85952661D01*
X175284492Y-86012207D01*
X175280714Y-86013434D01*
X175280716Y-86013434D01*
X174995005Y-86106267D01*
X174982263Y-86110407D01*
X174978677Y-86112094D01*
X174978673Y-86112096D01*
X174698312Y-86244024D01*
X174698305Y-86244028D01*
X174694726Y-86245712D01*
X174426414Y-86415988D01*
X174181558Y-86618550D01*
X173964022Y-86850203D01*
X173777234Y-87107294D01*
X173624141Y-87385768D01*
X173507158Y-87681235D01*
X173506175Y-87685065D01*
X173506172Y-87685073D01*
X173456450Y-87878730D01*
X173428129Y-87989033D01*
X173388300Y-88304309D01*
X173388300Y-88622091D01*
X128425637Y-88622091D01*
X128426900Y-88612091D01*
X128426900Y-88294309D01*
X128388831Y-87992965D01*
X128387568Y-87982965D01*
X128387567Y-87982961D01*
X128387071Y-87979033D01*
X128358750Y-87868730D01*
X128309028Y-87675073D01*
X128309025Y-87675065D01*
X128308042Y-87671235D01*
X128191059Y-87375768D01*
X128037966Y-87097294D01*
X127860771Y-86853407D01*
X127853506Y-86843407D01*
X127853505Y-86843405D01*
X127851178Y-86840203D01*
X127633642Y-86608550D01*
X127388786Y-86405988D01*
X127139578Y-86247836D01*
X127123821Y-86237836D01*
X127123820Y-86237836D01*
X127120474Y-86235712D01*
X127116895Y-86234028D01*
X127116888Y-86234024D01*
X126836527Y-86102096D01*
X126836523Y-86102094D01*
X126832937Y-86100407D01*
X126824043Y-86097517D01*
X126611023Y-86028303D01*
X126530708Y-86002207D01*
X126218555Y-85942661D01*
X126123502Y-85936681D01*
X125982755Y-85927825D01*
X125982739Y-85927824D01*
X125980760Y-85927700D01*
X125822040Y-85927700D01*
X125820061Y-85927824D01*
X125820045Y-85927825D01*
X125679298Y-85936681D01*
X125584245Y-85942661D01*
X125272092Y-86002207D01*
X125191777Y-86028303D01*
X124978758Y-86097517D01*
X124969863Y-86100407D01*
X124966277Y-86102094D01*
X124966273Y-86102096D01*
X124685912Y-86234024D01*
X124685905Y-86234028D01*
X124682326Y-86235712D01*
X124678980Y-86237836D01*
X124678979Y-86237836D01*
X124663222Y-86247836D01*
X124414014Y-86405988D01*
X124169158Y-86608550D01*
X123951622Y-86840203D01*
X123949295Y-86843405D01*
X123949294Y-86843407D01*
X123942029Y-86853407D01*
X123764834Y-87097294D01*
X123611741Y-87375768D01*
X123494758Y-87671235D01*
X123493775Y-87675065D01*
X123493772Y-87675073D01*
X123444050Y-87868730D01*
X123415729Y-87979033D01*
X123415233Y-87982961D01*
X123415232Y-87982965D01*
X123413969Y-87992965D01*
X123375900Y-88294309D01*
X123375900Y-88612091D01*
X118916000Y-88612091D01*
X118916000Y-85684600D01*
X173452828Y-85684600D01*
X173493315Y-85795235D01*
G37*
%TD.AperFunction*%
%TD*%
%TA.AperFunction,Conductor*%
%TO.N,GND*%
G36*
X191178556Y-107172585D02*
G01*
X191227476Y-107224037D01*
X191241400Y-107281614D01*
X191241400Y-107989260D01*
X191221398Y-108057381D01*
X191204495Y-108078355D01*
X191003755Y-108279095D01*
X190941443Y-108313121D01*
X190914660Y-108316000D01*
X190135010Y-108316000D01*
X190066889Y-108295998D01*
X190020396Y-108242342D01*
X190010292Y-108172068D01*
X190039786Y-108107488D01*
X190053179Y-108094189D01*
X190116889Y-108039775D01*
X190122666Y-108034841D01*
X190211746Y-107910874D01*
X190268684Y-107769236D01*
X190269755Y-107761710D01*
X190270265Y-107759807D01*
X190307216Y-107699184D01*
X190371076Y-107668162D01*
X190393946Y-107666433D01*
X190431343Y-107667021D01*
X190457484Y-107667432D01*
X190457487Y-107667432D01*
X190465081Y-107667551D01*
X190613882Y-107633471D01*
X190750258Y-107564881D01*
X190756030Y-107559952D01*
X190756032Y-107559950D01*
X190860561Y-107470674D01*
X190860565Y-107470670D01*
X190866337Y-107465740D01*
X190955417Y-107341773D01*
X190998493Y-107234618D01*
X191042459Y-107178873D01*
X191109584Y-107155748D01*
X191178556Y-107172585D01*
G37*
%TD.AperFunction*%
%TA.AperFunction,Conductor*%
G36*
X148989375Y-72390077D02*
G01*
X149035868Y-72443733D01*
X149045972Y-72514007D01*
X149013104Y-72582328D01*
X148960822Y-72638003D01*
X148774034Y-72895094D01*
X148620941Y-73173568D01*
X148503958Y-73469035D01*
X148502975Y-73472865D01*
X148502972Y-73472873D01*
X148453250Y-73666530D01*
X148424929Y-73776833D01*
X148385100Y-74092109D01*
X148385100Y-74409891D01*
X148424929Y-74725167D01*
X148448825Y-74818234D01*
X148502972Y-75029127D01*
X148502975Y-75029135D01*
X148503958Y-75032965D01*
X148620941Y-75328432D01*
X148774034Y-75606906D01*
X148822869Y-75674121D01*
X148925835Y-75815841D01*
X148960822Y-75863997D01*
X148963533Y-75866883D01*
X148963533Y-75866884D01*
X148994234Y-75899577D01*
X149178358Y-76095650D01*
X149423214Y-76298212D01*
X149691526Y-76468488D01*
X149695105Y-76470172D01*
X149695112Y-76470176D01*
X149975473Y-76602104D01*
X149975477Y-76602106D01*
X149979063Y-76603793D01*
X149982835Y-76605019D01*
X149982836Y-76605019D01*
X150056938Y-76629096D01*
X150281292Y-76701993D01*
X150593445Y-76761539D01*
X150688498Y-76767519D01*
X150829245Y-76776375D01*
X150829261Y-76776376D01*
X150831240Y-76776500D01*
X150989960Y-76776500D01*
X150991939Y-76776376D01*
X150991955Y-76776375D01*
X151132702Y-76767519D01*
X151227755Y-76761539D01*
X151539908Y-76701993D01*
X151764262Y-76629096D01*
X151838364Y-76605019D01*
X151838365Y-76605019D01*
X151842137Y-76603793D01*
X151845723Y-76602106D01*
X151845727Y-76602104D01*
X152126088Y-76470176D01*
X152126095Y-76470172D01*
X152129674Y-76468488D01*
X152397986Y-76298212D01*
X152642842Y-76095650D01*
X152826966Y-75899577D01*
X152857667Y-75866884D01*
X152857667Y-75866883D01*
X152860378Y-75863997D01*
X152895366Y-75815841D01*
X152998331Y-75674121D01*
X153047166Y-75606906D01*
X153200259Y-75328432D01*
X153317242Y-75032965D01*
X153318225Y-75029135D01*
X153318228Y-75029127D01*
X153372375Y-74818234D01*
X153396271Y-74725167D01*
X153436100Y-74409891D01*
X153436100Y-74092109D01*
X153396271Y-73776833D01*
X153367950Y-73666530D01*
X153318228Y-73472873D01*
X153318225Y-73472865D01*
X153317242Y-73469035D01*
X153200259Y-73173568D01*
X153047166Y-72895094D01*
X152860378Y-72638003D01*
X152808096Y-72582328D01*
X152776045Y-72518977D01*
X152783332Y-72448356D01*
X152827643Y-72392885D01*
X152899946Y-72370075D01*
X170270300Y-72370075D01*
X170338421Y-72390077D01*
X170384914Y-72443733D01*
X170396300Y-72496075D01*
X170396300Y-72885908D01*
X170376298Y-72954029D01*
X170322642Y-73000522D01*
X170252368Y-73010626D01*
X170232142Y-73004600D01*
X170231905Y-73005412D01*
X170222650Y-73002715D01*
X170213912Y-72998640D01*
X170165754Y-72992300D01*
X169288246Y-72992300D01*
X169240088Y-72998640D01*
X169231352Y-73002714D01*
X169231351Y-73002714D01*
X169227307Y-73004600D01*
X169134392Y-73047927D01*
X169066095Y-73116224D01*
X169003783Y-73150250D01*
X168932968Y-73145185D01*
X168887905Y-73116224D01*
X168819608Y-73047927D01*
X168726694Y-73004600D01*
X168722649Y-73002714D01*
X168722648Y-73002714D01*
X168713912Y-72998640D01*
X168665754Y-72992300D01*
X167788246Y-72992300D01*
X167740088Y-72998640D01*
X167731352Y-73002714D01*
X167731351Y-73002714D01*
X167727307Y-73004600D01*
X167634392Y-73047927D01*
X167566095Y-73116224D01*
X167503783Y-73150250D01*
X167432968Y-73145185D01*
X167387905Y-73116224D01*
X167319608Y-73047927D01*
X167226694Y-73004600D01*
X167222649Y-73002714D01*
X167222648Y-73002714D01*
X167213912Y-72998640D01*
X167165754Y-72992300D01*
X166288246Y-72992300D01*
X166240088Y-72998640D01*
X166231352Y-73002714D01*
X166231351Y-73002714D01*
X166227307Y-73004600D01*
X166134392Y-73047927D01*
X166066095Y-73116224D01*
X166003783Y-73150250D01*
X165932968Y-73145185D01*
X165887905Y-73116224D01*
X165819608Y-73047927D01*
X165726694Y-73004600D01*
X165722649Y-73002714D01*
X165722648Y-73002714D01*
X165713912Y-72998640D01*
X165665754Y-72992300D01*
X164788246Y-72992300D01*
X164740088Y-72998640D01*
X164731352Y-73002714D01*
X164731351Y-73002714D01*
X164727307Y-73004600D01*
X164634392Y-73047927D01*
X164566095Y-73116224D01*
X164503783Y-73150250D01*
X164432968Y-73145185D01*
X164387905Y-73116224D01*
X164319608Y-73047927D01*
X164226694Y-73004600D01*
X164222649Y-73002714D01*
X164222648Y-73002714D01*
X164213912Y-72998640D01*
X164165754Y-72992300D01*
X163288246Y-72992300D01*
X163240088Y-72998640D01*
X163231352Y-73002714D01*
X163231351Y-73002714D01*
X163227307Y-73004600D01*
X163134392Y-73047927D01*
X163066095Y-73116224D01*
X163003783Y-73150250D01*
X162932968Y-73145185D01*
X162887905Y-73116224D01*
X162819608Y-73047927D01*
X162726694Y-73004600D01*
X162722649Y-73002714D01*
X162722648Y-73002714D01*
X162713912Y-72998640D01*
X162665754Y-72992300D01*
X161788246Y-72992300D01*
X161740088Y-72998640D01*
X161731352Y-73002714D01*
X161731351Y-73002714D01*
X161727307Y-73004600D01*
X161634392Y-73047927D01*
X161566095Y-73116224D01*
X161503783Y-73150250D01*
X161432968Y-73145185D01*
X161387905Y-73116224D01*
X161319608Y-73047927D01*
X161226694Y-73004600D01*
X161222649Y-73002714D01*
X161222648Y-73002714D01*
X161213912Y-72998640D01*
X161165754Y-72992300D01*
X160288246Y-72992300D01*
X160240088Y-72998640D01*
X160231352Y-73002714D01*
X160231351Y-73002714D01*
X160227307Y-73004600D01*
X160134392Y-73047927D01*
X160066095Y-73116224D01*
X160003783Y-73150250D01*
X159932968Y-73145185D01*
X159887905Y-73116224D01*
X159819608Y-73047927D01*
X159726694Y-73004600D01*
X159722649Y-73002714D01*
X159722648Y-73002714D01*
X159713912Y-72998640D01*
X159665754Y-72992300D01*
X158788246Y-72992300D01*
X158740088Y-72998640D01*
X158731352Y-73002714D01*
X158731351Y-73002714D01*
X158727307Y-73004600D01*
X158634392Y-73047927D01*
X158566095Y-73116224D01*
X158503783Y-73150250D01*
X158432968Y-73145185D01*
X158387905Y-73116224D01*
X158319608Y-73047927D01*
X158226694Y-73004600D01*
X158222649Y-73002714D01*
X158222648Y-73002714D01*
X158213912Y-72998640D01*
X158165754Y-72992300D01*
X157288246Y-72992300D01*
X157240088Y-72998640D01*
X157231352Y-73002714D01*
X157231351Y-73002714D01*
X157227307Y-73004600D01*
X157134392Y-73047927D01*
X157051927Y-73130392D01*
X157047268Y-73140384D01*
X157047267Y-73140385D01*
X157030075Y-73177254D01*
X157002640Y-73236088D01*
X156996300Y-73284246D01*
X156996300Y-75811754D01*
X157002640Y-75859912D01*
X157006714Y-75868648D01*
X157006714Y-75868649D01*
X157038971Y-75937823D01*
X157051927Y-75965608D01*
X157059725Y-75973406D01*
X157062192Y-75976929D01*
X157084980Y-76049202D01*
X157084980Y-76491179D01*
X157062067Y-76563629D01*
X157020860Y-76622261D01*
X157018101Y-76629336D01*
X157018100Y-76629339D01*
X156970571Y-76751245D01*
X156965408Y-76764487D01*
X156964416Y-76772020D01*
X156964416Y-76772021D01*
X156948307Y-76894387D01*
X156945483Y-76915835D01*
X156962234Y-77067567D01*
X157014695Y-77210923D01*
X157018932Y-77217229D01*
X157018934Y-77217232D01*
X157041080Y-77250188D01*
X157099837Y-77337627D01*
X157212744Y-77440365D01*
X157219417Y-77443988D01*
X157219421Y-77443991D01*
X157340222Y-77509580D01*
X157340224Y-77509581D01*
X157346899Y-77513205D01*
X157354248Y-77515133D01*
X157487206Y-77550014D01*
X157487208Y-77550014D01*
X157494556Y-77551942D01*
X157597499Y-77553559D01*
X157644949Y-77554305D01*
X157712747Y-77575374D01*
X157758391Y-77629754D01*
X157768962Y-77681606D01*
X157768926Y-77685052D01*
X157767935Y-77692579D01*
X157768768Y-77700125D01*
X157768768Y-77700128D01*
X157769367Y-77705552D01*
X157784686Y-77844311D01*
X157837147Y-77987667D01*
X157841384Y-77993973D01*
X157841386Y-77993976D01*
X157880347Y-78051955D01*
X157922289Y-78114371D01*
X158035196Y-78217109D01*
X158041869Y-78220732D01*
X158041873Y-78220735D01*
X158162674Y-78286324D01*
X158162676Y-78286325D01*
X158169351Y-78289949D01*
X158176700Y-78291877D01*
X158309658Y-78326758D01*
X158309660Y-78326758D01*
X158317008Y-78328686D01*
X158398917Y-78329973D01*
X158462045Y-78330965D01*
X158462048Y-78330965D01*
X158469642Y-78331084D01*
X158618443Y-78297004D01*
X158754819Y-78228414D01*
X158760591Y-78223485D01*
X158760593Y-78223483D01*
X158865122Y-78134207D01*
X158865126Y-78134203D01*
X158870898Y-78129273D01*
X158959978Y-78005306D01*
X159016916Y-77863668D01*
X159023762Y-77815562D01*
X159053162Y-77750940D01*
X159059410Y-77744221D01*
X159528332Y-77275299D01*
X159537557Y-77267928D01*
X159537214Y-77267525D01*
X159544050Y-77261707D01*
X159551642Y-77256917D01*
X159586316Y-77217656D01*
X159591662Y-77211969D01*
X159602755Y-77200876D01*
X159608802Y-77192807D01*
X159615183Y-77184970D01*
X159637911Y-77159235D01*
X159645654Y-77150468D01*
X159649470Y-77142340D01*
X159651816Y-77138769D01*
X159658938Y-77126915D01*
X159660977Y-77123191D01*
X159666361Y-77116007D01*
X159672396Y-77099911D01*
X159682525Y-77072890D01*
X159686452Y-77063572D01*
X159696192Y-77042826D01*
X159706011Y-77021912D01*
X159707392Y-77013045D01*
X159708635Y-77008979D01*
X159712147Y-76995592D01*
X159713062Y-76991432D01*
X159716213Y-76983025D01*
X159719625Y-76937106D01*
X159720775Y-76927088D01*
X159722800Y-76914087D01*
X159722800Y-76899069D01*
X159723146Y-76889731D01*
X159726073Y-76850344D01*
X159726738Y-76841396D01*
X159724865Y-76832620D01*
X159724254Y-76823663D01*
X159724279Y-76823661D01*
X159722800Y-76809648D01*
X159722800Y-76173486D01*
X159742802Y-76105365D01*
X159795551Y-76059291D01*
X159819608Y-76048073D01*
X159887905Y-75979776D01*
X159950217Y-75945750D01*
X160021032Y-75950815D01*
X160066095Y-75979776D01*
X160134392Y-76048073D01*
X160144383Y-76052732D01*
X160144386Y-76052734D01*
X160162768Y-76061305D01*
X160216053Y-76108221D01*
X160235277Y-76167699D01*
X160236510Y-76187576D01*
X160239560Y-76196025D01*
X160240432Y-76200234D01*
X160243764Y-76213600D01*
X160244962Y-76217698D01*
X160246235Y-76226585D01*
X160249951Y-76234758D01*
X160249952Y-76234761D01*
X160265294Y-76268506D01*
X160269106Y-76277871D01*
X160281683Y-76312709D01*
X160281686Y-76312714D01*
X160284734Y-76321158D01*
X160290030Y-76328408D01*
X160292035Y-76332178D01*
X160298999Y-76344096D01*
X160301300Y-76347695D01*
X160305017Y-76355869D01*
X160312015Y-76363990D01*
X160335063Y-76390739D01*
X160341352Y-76398660D01*
X160343874Y-76402112D01*
X160349106Y-76409273D01*
X160359723Y-76419890D01*
X160366081Y-76426737D01*
X160397722Y-76463458D01*
X160405257Y-76468342D01*
X160412019Y-76474241D01*
X160412002Y-76474260D01*
X160422957Y-76483124D01*
X160854214Y-76914381D01*
X160888240Y-76976693D01*
X160890358Y-76989648D01*
X160893254Y-77015879D01*
X160945715Y-77159235D01*
X160949952Y-77165541D01*
X160949954Y-77165544D01*
X160976981Y-77205763D01*
X161030857Y-77285939D01*
X161143764Y-77388677D01*
X161150437Y-77392300D01*
X161150441Y-77392303D01*
X161271242Y-77457892D01*
X161271244Y-77457893D01*
X161277919Y-77461517D01*
X161285268Y-77463445D01*
X161418226Y-77498326D01*
X161418228Y-77498326D01*
X161425576Y-77500254D01*
X161507485Y-77501541D01*
X161570613Y-77502533D01*
X161570616Y-77502533D01*
X161578210Y-77502652D01*
X161727011Y-77468572D01*
X161863387Y-77399982D01*
X161869159Y-77395053D01*
X161869161Y-77395051D01*
X161973690Y-77305775D01*
X161973694Y-77305771D01*
X161979466Y-77300841D01*
X162041507Y-77214503D01*
X162045492Y-77208957D01*
X162101487Y-77165310D01*
X162172190Y-77158864D01*
X162232612Y-77189290D01*
X162312164Y-77261677D01*
X162318837Y-77265300D01*
X162318841Y-77265303D01*
X162439642Y-77330892D01*
X162439644Y-77330893D01*
X162446319Y-77334517D01*
X162453668Y-77336445D01*
X162586626Y-77371326D01*
X162586628Y-77371326D01*
X162593976Y-77373254D01*
X162675885Y-77374541D01*
X162739013Y-77375533D01*
X162739016Y-77375533D01*
X162746610Y-77375652D01*
X162895411Y-77341572D01*
X163031787Y-77272982D01*
X163037559Y-77268053D01*
X163037561Y-77268051D01*
X163142090Y-77178775D01*
X163142094Y-77178771D01*
X163147866Y-77173841D01*
X163236946Y-77049874D01*
X163245179Y-77029394D01*
X163289146Y-76973651D01*
X163356271Y-76950527D01*
X163425242Y-76967365D01*
X163474161Y-77018818D01*
X163480411Y-77033092D01*
X163491515Y-77063435D01*
X163495752Y-77069741D01*
X163495754Y-77069744D01*
X163511695Y-77093466D01*
X163576657Y-77190139D01*
X163689564Y-77292877D01*
X163696237Y-77296500D01*
X163696241Y-77296503D01*
X163817042Y-77362092D01*
X163817044Y-77362093D01*
X163823719Y-77365717D01*
X163831068Y-77367645D01*
X163964026Y-77402526D01*
X163964028Y-77402526D01*
X163971376Y-77404454D01*
X164053285Y-77405741D01*
X164116413Y-77406733D01*
X164116416Y-77406733D01*
X164124010Y-77406852D01*
X164272811Y-77372772D01*
X164409187Y-77304182D01*
X164414959Y-77299253D01*
X164414961Y-77299251D01*
X164519490Y-77209975D01*
X164519494Y-77209971D01*
X164525266Y-77205041D01*
X164529700Y-77198871D01*
X164569447Y-77143558D01*
X164625442Y-77099911D01*
X164696146Y-77093466D01*
X164756569Y-77123892D01*
X164846543Y-77205763D01*
X164846547Y-77205766D01*
X164852164Y-77210877D01*
X164858837Y-77214500D01*
X164858841Y-77214503D01*
X164979642Y-77280092D01*
X164979644Y-77280093D01*
X164986319Y-77283717D01*
X164993668Y-77285645D01*
X165126626Y-77320526D01*
X165126628Y-77320526D01*
X165133976Y-77322454D01*
X165215885Y-77323741D01*
X165279013Y-77324733D01*
X165279016Y-77324733D01*
X165286610Y-77324852D01*
X165435411Y-77290772D01*
X165571787Y-77222182D01*
X165577559Y-77217253D01*
X165577561Y-77217251D01*
X165682090Y-77127975D01*
X165682094Y-77127971D01*
X165687866Y-77123041D01*
X165776946Y-76999074D01*
X165833884Y-76857436D01*
X165855393Y-76706305D01*
X165855532Y-76693000D01*
X165854689Y-76686028D01*
X165844694Y-76603436D01*
X165837193Y-76541452D01*
X165783233Y-76398653D01*
X165744959Y-76342963D01*
X165722800Y-76271599D01*
X165722800Y-76173486D01*
X165742802Y-76105365D01*
X165795551Y-76059291D01*
X165819608Y-76048073D01*
X165887905Y-75979776D01*
X165950217Y-75945750D01*
X166021032Y-75950815D01*
X166066095Y-75979776D01*
X166134392Y-76048073D01*
X166158449Y-76059291D01*
X166211734Y-76106207D01*
X166231200Y-76173486D01*
X166231200Y-76301350D01*
X166229889Y-76313082D01*
X166230416Y-76313124D01*
X166229696Y-76322075D01*
X166227715Y-76330829D01*
X166228271Y-76339788D01*
X166230958Y-76383096D01*
X166231200Y-76390899D01*
X166231200Y-76406598D01*
X166231836Y-76411039D01*
X166231836Y-76411040D01*
X166232629Y-76416578D01*
X166233659Y-76426636D01*
X166236510Y-76472576D01*
X166239560Y-76481025D01*
X166240432Y-76485234D01*
X166243764Y-76498600D01*
X166244962Y-76502698D01*
X166246235Y-76511585D01*
X166249951Y-76519758D01*
X166249952Y-76519761D01*
X166265294Y-76553506D01*
X166269106Y-76562871D01*
X166281683Y-76597709D01*
X166281686Y-76597714D01*
X166284734Y-76606158D01*
X166290030Y-76613408D01*
X166292035Y-76617178D01*
X166298999Y-76629096D01*
X166301300Y-76632695D01*
X166305017Y-76640869D01*
X166330202Y-76670097D01*
X166335063Y-76675739D01*
X166341352Y-76683660D01*
X166345185Y-76688906D01*
X166349106Y-76694273D01*
X166359723Y-76704890D01*
X166366081Y-76711737D01*
X166397722Y-76748458D01*
X166405257Y-76753342D01*
X166412019Y-76759241D01*
X166412002Y-76759260D01*
X166422957Y-76768124D01*
X167031561Y-77376728D01*
X167038932Y-77385953D01*
X167039335Y-77385610D01*
X167045153Y-77392446D01*
X167049943Y-77400038D01*
X167056671Y-77405980D01*
X167056672Y-77405981D01*
X167089203Y-77434711D01*
X167094891Y-77440058D01*
X167105984Y-77451151D01*
X167114058Y-77457202D01*
X167121890Y-77463579D01*
X167156392Y-77494050D01*
X167164519Y-77497866D01*
X167168103Y-77500220D01*
X167179951Y-77507338D01*
X167183669Y-77509373D01*
X167190852Y-77514757D01*
X167233983Y-77530926D01*
X167243275Y-77534842D01*
X167284948Y-77554407D01*
X167293819Y-77555788D01*
X167297896Y-77557035D01*
X167317001Y-77562047D01*
X167323835Y-77564609D01*
X167323838Y-77564610D01*
X167322837Y-77567280D01*
X167357413Y-77585168D01*
X167358413Y-77583760D01*
X167364604Y-77588160D01*
X167370223Y-77593273D01*
X167376896Y-77596896D01*
X167376900Y-77596899D01*
X167497701Y-77662488D01*
X167497703Y-77662489D01*
X167504378Y-77666113D01*
X167511727Y-77668041D01*
X167644685Y-77702922D01*
X167644687Y-77702922D01*
X167652035Y-77704850D01*
X167733944Y-77706137D01*
X167797072Y-77707129D01*
X167797075Y-77707129D01*
X167804669Y-77707248D01*
X167953470Y-77673168D01*
X168089846Y-77604578D01*
X168095618Y-77599649D01*
X168095620Y-77599647D01*
X168200149Y-77510371D01*
X168200153Y-77510367D01*
X168205925Y-77505437D01*
X168295005Y-77381470D01*
X168351943Y-77239832D01*
X168360872Y-77177096D01*
X168390271Y-77112474D01*
X168449942Y-77074005D01*
X168487593Y-77068866D01*
X168606413Y-77070733D01*
X168606416Y-77070733D01*
X168614010Y-77070852D01*
X168762811Y-77036772D01*
X168899187Y-76968182D01*
X168904959Y-76963253D01*
X168904961Y-76963251D01*
X169009490Y-76873975D01*
X169009494Y-76873971D01*
X169015266Y-76869041D01*
X169104346Y-76745074D01*
X169161284Y-76603436D01*
X169182793Y-76452305D01*
X169182932Y-76439000D01*
X169181437Y-76426641D01*
X169172872Y-76355869D01*
X169164593Y-76287452D01*
X169160973Y-76277871D01*
X169159326Y-76273512D01*
X169153958Y-76202719D01*
X169187716Y-76140261D01*
X169249882Y-76105970D01*
X169285028Y-76103276D01*
X169288246Y-76103700D01*
X170165754Y-76103700D01*
X170213912Y-76097360D01*
X170223361Y-76092954D01*
X170309615Y-76052733D01*
X170309616Y-76052732D01*
X170319608Y-76048073D01*
X170321243Y-76046438D01*
X170383428Y-76025465D01*
X170452288Y-76042749D01*
X170489103Y-76076214D01*
X170489680Y-76077178D01*
X170493273Y-76081325D01*
X170493277Y-76081330D01*
X170533878Y-76128186D01*
X170533883Y-76128191D01*
X170536173Y-76130834D01*
X170590840Y-76181328D01*
X170598911Y-76185328D01*
X170690374Y-76230658D01*
X170690377Y-76230659D01*
X170695302Y-76233100D01*
X170700579Y-76234650D01*
X170700583Y-76234651D01*
X170759111Y-76251836D01*
X170763423Y-76253102D01*
X170767863Y-76253740D01*
X170767866Y-76253741D01*
X170853554Y-76266061D01*
X170853557Y-76266061D01*
X170858000Y-76266700D01*
X173019000Y-76266700D01*
X173022346Y-76266340D01*
X173022351Y-76266340D01*
X173086992Y-76259391D01*
X173086999Y-76259390D01*
X173090356Y-76259029D01*
X173093657Y-76258311D01*
X173140387Y-76248146D01*
X173140394Y-76248144D01*
X173142698Y-76247643D01*
X173191148Y-76233208D01*
X173291178Y-76173320D01*
X173297664Y-76167700D01*
X173342186Y-76129122D01*
X173342191Y-76129117D01*
X173344834Y-76126827D01*
X173395328Y-76072160D01*
X173421750Y-76018847D01*
X173444658Y-75972626D01*
X173444659Y-75972623D01*
X173447100Y-75967698D01*
X173452058Y-75950815D01*
X173465836Y-75903889D01*
X173465836Y-75903888D01*
X173467102Y-75899577D01*
X173474179Y-75850353D01*
X173480061Y-75809446D01*
X173480061Y-75809443D01*
X173480700Y-75805000D01*
X173480700Y-74877249D01*
X173500702Y-74809128D01*
X173526037Y-74780453D01*
X173592380Y-74725167D01*
X173993496Y-74390904D01*
X174058631Y-74362660D01*
X174074158Y-74361700D01*
X179623000Y-74361700D01*
X179626346Y-74361340D01*
X179626351Y-74361340D01*
X179690992Y-74354391D01*
X179690999Y-74354390D01*
X179694356Y-74354029D01*
X179697657Y-74353311D01*
X179744387Y-74343146D01*
X179744394Y-74343144D01*
X179746698Y-74342643D01*
X179795148Y-74328208D01*
X179895178Y-74268320D01*
X179899340Y-74264714D01*
X179946186Y-74224122D01*
X179946191Y-74224117D01*
X179948834Y-74221827D01*
X179999328Y-74167160D01*
X180051100Y-74062698D01*
X180071102Y-73994577D01*
X180084700Y-73900000D01*
X180084700Y-72496075D01*
X180104702Y-72427954D01*
X180158358Y-72381461D01*
X180210700Y-72370075D01*
X194188300Y-72370075D01*
X194256421Y-72390077D01*
X194302914Y-72443733D01*
X194314300Y-72496075D01*
X194314300Y-76772476D01*
X194294298Y-76840597D01*
X194240642Y-76887090D01*
X194170368Y-76897194D01*
X194105788Y-76867700D01*
X194099205Y-76861571D01*
X192911755Y-75674121D01*
X192877729Y-75611809D01*
X192882794Y-75540994D01*
X192891727Y-75522034D01*
X192958063Y-75407137D01*
X193012023Y-75241064D01*
X193030276Y-75067400D01*
X193012023Y-74893736D01*
X192958063Y-74727663D01*
X192954352Y-74721235D01*
X192874054Y-74582155D01*
X192874051Y-74582150D01*
X192870752Y-74576437D01*
X192753909Y-74446669D01*
X192748567Y-74442788D01*
X192748565Y-74442786D01*
X192617980Y-74347911D01*
X192617979Y-74347910D01*
X192612638Y-74344030D01*
X192606610Y-74341346D01*
X192606608Y-74341345D01*
X192459145Y-74275690D01*
X192459143Y-74275689D01*
X192453114Y-74273005D01*
X192367712Y-74254852D01*
X192288767Y-74238072D01*
X192288763Y-74238072D01*
X192282310Y-74236700D01*
X192107690Y-74236700D01*
X192101237Y-74238072D01*
X192101233Y-74238072D01*
X192022288Y-74254852D01*
X191936886Y-74273005D01*
X191930857Y-74275689D01*
X191930855Y-74275690D01*
X191783392Y-74341345D01*
X191783390Y-74341346D01*
X191777362Y-74344030D01*
X191772021Y-74347910D01*
X191772020Y-74347911D01*
X191641435Y-74442786D01*
X191641433Y-74442788D01*
X191636091Y-74446669D01*
X191519248Y-74576437D01*
X191515949Y-74582150D01*
X191515946Y-74582155D01*
X191435648Y-74721235D01*
X191431937Y-74727663D01*
X191377977Y-74893736D01*
X191359724Y-75067400D01*
X191377977Y-75241064D01*
X191431937Y-75407137D01*
X191519248Y-75558363D01*
X191523668Y-75563272D01*
X191581937Y-75627987D01*
X191612654Y-75691995D01*
X191614300Y-75712297D01*
X191614300Y-75732280D01*
X191613222Y-75748726D01*
X191609289Y-75778600D01*
X191614300Y-75816662D01*
X191629247Y-75930193D01*
X191632406Y-75937820D01*
X191632407Y-75937823D01*
X191637789Y-75950815D01*
X191687759Y-76071455D01*
X191692785Y-76078005D01*
X191730248Y-76126827D01*
X191730249Y-76126829D01*
X191751097Y-76153999D01*
X191775814Y-76186211D01*
X191775817Y-76186214D01*
X191780840Y-76192760D01*
X191787386Y-76197783D01*
X191787389Y-76197786D01*
X191804749Y-76211107D01*
X191817140Y-76221974D01*
X193184395Y-77589229D01*
X193218421Y-77651541D01*
X193221300Y-77678324D01*
X193221300Y-103947007D01*
X193201298Y-104015128D01*
X193147642Y-104061621D01*
X193077368Y-104071725D01*
X193012788Y-104042231D01*
X192977434Y-103991545D01*
X192938517Y-103888556D01*
X192935833Y-103881453D01*
X192931534Y-103875198D01*
X192931532Y-103875194D01*
X192853672Y-103761906D01*
X192853670Y-103761904D01*
X192849370Y-103755647D01*
X192735393Y-103654098D01*
X192728681Y-103650544D01*
X192728678Y-103650542D01*
X192607198Y-103586221D01*
X192607195Y-103586220D01*
X192600483Y-103582666D01*
X192593117Y-103580816D01*
X192593115Y-103580815D01*
X192459799Y-103547329D01*
X192459796Y-103547329D01*
X192452428Y-103545478D01*
X192444828Y-103545438D01*
X192444827Y-103545438D01*
X192377174Y-103545084D01*
X192299777Y-103544678D01*
X192292390Y-103546452D01*
X192292386Y-103546452D01*
X192158730Y-103578541D01*
X192151341Y-103580315D01*
X192015690Y-103650329D01*
X192009970Y-103655319D01*
X192009967Y-103655321D01*
X191906381Y-103745685D01*
X191906378Y-103745688D01*
X191900656Y-103750680D01*
X191892766Y-103761906D01*
X191829357Y-103852129D01*
X191812880Y-103875573D01*
X191757428Y-104017799D01*
X191756436Y-104025332D01*
X191756436Y-104025333D01*
X191750329Y-104071725D01*
X191737503Y-104169147D01*
X191754254Y-104320879D01*
X191760004Y-104336592D01*
X191798673Y-104442260D01*
X191803299Y-104513106D01*
X191768889Y-104575206D01*
X191706368Y-104608845D01*
X191679689Y-104611559D01*
X191674626Y-104611533D01*
X191664177Y-104611478D01*
X191656790Y-104613252D01*
X191656786Y-104613252D01*
X191575320Y-104632811D01*
X191515741Y-104647115D01*
X191380090Y-104717129D01*
X191374370Y-104722119D01*
X191374367Y-104722121D01*
X191270781Y-104812485D01*
X191270778Y-104812488D01*
X191265056Y-104817480D01*
X191249850Y-104839116D01*
X191183687Y-104933257D01*
X191177280Y-104942373D01*
X191168731Y-104964301D01*
X191124683Y-105077277D01*
X191121828Y-105084599D01*
X191120836Y-105092132D01*
X191120836Y-105092133D01*
X191103287Y-105225436D01*
X191101903Y-105235947D01*
X191118654Y-105387679D01*
X191121264Y-105394811D01*
X191164611Y-105513261D01*
X191171115Y-105531035D01*
X191175351Y-105537338D01*
X191175351Y-105537339D01*
X191219982Y-105603757D01*
X191241400Y-105674033D01*
X191241400Y-106791634D01*
X191221398Y-106859755D01*
X191167742Y-106906248D01*
X191097468Y-106916352D01*
X191032888Y-106886858D01*
X190997534Y-106836172D01*
X190972012Y-106768630D01*
X190961704Y-106741352D01*
X190957405Y-106735097D01*
X190957403Y-106735093D01*
X190879543Y-106621805D01*
X190879541Y-106621803D01*
X190875241Y-106615546D01*
X190869266Y-106610222D01*
X190829302Y-106574616D01*
X190761264Y-106513997D01*
X190754552Y-106510443D01*
X190754549Y-106510441D01*
X190633069Y-106446120D01*
X190633066Y-106446119D01*
X190626354Y-106442565D01*
X190618988Y-106440715D01*
X190618986Y-106440714D01*
X190485670Y-106407228D01*
X190485667Y-106407228D01*
X190478299Y-106405377D01*
X190470699Y-106405337D01*
X190470698Y-106405337D01*
X190403045Y-106404983D01*
X190325648Y-106404577D01*
X190318261Y-106406351D01*
X190318257Y-106406351D01*
X190189195Y-106437337D01*
X190177212Y-106440214D01*
X190041561Y-106510228D01*
X190035841Y-106515218D01*
X190035838Y-106515220D01*
X189932252Y-106605584D01*
X189932249Y-106605587D01*
X189926527Y-106610579D01*
X189838751Y-106735472D01*
X189783299Y-106877698D01*
X189782865Y-106880994D01*
X189747482Y-106940436D01*
X189683949Y-106972125D01*
X189661098Y-106974093D01*
X189581977Y-106973678D01*
X189574590Y-106975452D01*
X189574586Y-106975452D01*
X189465584Y-107001622D01*
X189433541Y-107009315D01*
X189402690Y-107025238D01*
X189401588Y-107025807D01*
X189331881Y-107039275D01*
X189265958Y-107012918D01*
X189224749Y-106955105D01*
X189217800Y-106913840D01*
X189217800Y-105635265D01*
X189237802Y-105567144D01*
X189261969Y-105539455D01*
X189284466Y-105520241D01*
X189289210Y-105513640D01*
X189324395Y-105464674D01*
X189373546Y-105396274D01*
X189430484Y-105254636D01*
X189451993Y-105103505D01*
X189452132Y-105090200D01*
X189451455Y-105084599D01*
X189442813Y-105013194D01*
X189433793Y-104938652D01*
X189379833Y-104795853D01*
X189375534Y-104789598D01*
X189375532Y-104789594D01*
X189297672Y-104676306D01*
X189297670Y-104676304D01*
X189293370Y-104670047D01*
X189267632Y-104647115D01*
X189204580Y-104590939D01*
X189179393Y-104568498D01*
X189172681Y-104564944D01*
X189172678Y-104564942D01*
X189051198Y-104500621D01*
X189051195Y-104500620D01*
X189044483Y-104497066D01*
X189037114Y-104495215D01*
X188985434Y-104482234D01*
X188924238Y-104446239D01*
X188892217Y-104382874D01*
X188890136Y-104358715D01*
X188890189Y-104353636D01*
X188890189Y-104353635D01*
X188890232Y-104349514D01*
X188888669Y-104336592D01*
X188872805Y-104205506D01*
X188871893Y-104197966D01*
X188817933Y-104055167D01*
X188813634Y-104048912D01*
X188813632Y-104048908D01*
X188735772Y-103935620D01*
X188735770Y-103935618D01*
X188731470Y-103929361D01*
X188617493Y-103827812D01*
X188610781Y-103824258D01*
X188610778Y-103824256D01*
X188489298Y-103759935D01*
X188489295Y-103759934D01*
X188482583Y-103756380D01*
X188475217Y-103754530D01*
X188475215Y-103754529D01*
X188341899Y-103721043D01*
X188341896Y-103721043D01*
X188334528Y-103719192D01*
X188326928Y-103719152D01*
X188326927Y-103719152D01*
X188259274Y-103718798D01*
X188181877Y-103718392D01*
X188174490Y-103720166D01*
X188174486Y-103720166D01*
X188047740Y-103750596D01*
X188033441Y-103754029D01*
X187897790Y-103824043D01*
X187892070Y-103829033D01*
X187892067Y-103829035D01*
X187788481Y-103919399D01*
X187788478Y-103919402D01*
X187782756Y-103924394D01*
X187694980Y-104049287D01*
X187690143Y-104061694D01*
X187645305Y-104176697D01*
X187639528Y-104191513D01*
X187638536Y-104199046D01*
X187638536Y-104199047D01*
X187634164Y-104232260D01*
X187605443Y-104297187D01*
X187598337Y-104304910D01*
X187150668Y-104752579D01*
X187141443Y-104759950D01*
X187141786Y-104760353D01*
X187134950Y-104766171D01*
X187127358Y-104770961D01*
X187121416Y-104777689D01*
X187121415Y-104777690D01*
X187092685Y-104810221D01*
X187087338Y-104815909D01*
X187076245Y-104827002D01*
X187070194Y-104835076D01*
X187063817Y-104842908D01*
X187033346Y-104877410D01*
X187029530Y-104885537D01*
X187027176Y-104889121D01*
X187020058Y-104900969D01*
X187018023Y-104904687D01*
X187012639Y-104911870D01*
X186996470Y-104955001D01*
X186992554Y-104964293D01*
X186972989Y-105005966D01*
X186971608Y-105014837D01*
X186970361Y-105018914D01*
X186966853Y-105032286D01*
X186965938Y-105036446D01*
X186962787Y-105044853D01*
X186959418Y-105090200D01*
X186959376Y-105090763D01*
X186958225Y-105100790D01*
X186956200Y-105113791D01*
X186956200Y-105128809D01*
X186955854Y-105138147D01*
X186952262Y-105186482D01*
X186954135Y-105195258D01*
X186954746Y-105204215D01*
X186954721Y-105204217D01*
X186956200Y-105218230D01*
X186956200Y-108190000D01*
X186936198Y-108258121D01*
X186882542Y-108304614D01*
X186830200Y-108316000D01*
X186318094Y-108316000D01*
X186249973Y-108295998D01*
X186203480Y-108242342D01*
X186193400Y-108194793D01*
X186192307Y-108194853D01*
X186192080Y-108190728D01*
X186192123Y-108186609D01*
X186191205Y-108179017D01*
X186180939Y-108094189D01*
X186173784Y-108035061D01*
X186119824Y-107892262D01*
X186064394Y-107811610D01*
X186042294Y-107744140D01*
X186060180Y-107675433D01*
X186086404Y-107644432D01*
X186129086Y-107607978D01*
X186129088Y-107607976D01*
X186134866Y-107603041D01*
X186223946Y-107479074D01*
X186280884Y-107337436D01*
X186302393Y-107186305D01*
X186302532Y-107173000D01*
X186300985Y-107160211D01*
X186292102Y-107086810D01*
X186284193Y-107021452D01*
X186230233Y-106878653D01*
X186225934Y-106872398D01*
X186225932Y-106872394D01*
X186148072Y-106759106D01*
X186148070Y-106759104D01*
X186143770Y-106752847D01*
X186130486Y-106741011D01*
X186063608Y-106681426D01*
X186029793Y-106651298D01*
X186030333Y-106650692D01*
X185989634Y-106600145D01*
X185982074Y-106529552D01*
X186013880Y-106466078D01*
X186077933Y-106429155D01*
X186147008Y-106413335D01*
X186147012Y-106413334D01*
X186154411Y-106411639D01*
X186290787Y-106343049D01*
X186296559Y-106338120D01*
X186296561Y-106338118D01*
X186401090Y-106248842D01*
X186401094Y-106248838D01*
X186406866Y-106243908D01*
X186495946Y-106119941D01*
X186552884Y-105978303D01*
X186574393Y-105827172D01*
X186574532Y-105813867D01*
X186572219Y-105794747D01*
X186559094Y-105686296D01*
X186556193Y-105662319D01*
X186502233Y-105519520D01*
X186497934Y-105513265D01*
X186497932Y-105513261D01*
X186420072Y-105399973D01*
X186420070Y-105399971D01*
X186415770Y-105393714D01*
X186408997Y-105387679D01*
X186367694Y-105350880D01*
X186301793Y-105292165D01*
X186295081Y-105288611D01*
X186295078Y-105288609D01*
X186173598Y-105224288D01*
X186173595Y-105224287D01*
X186166883Y-105220733D01*
X186159517Y-105218883D01*
X186159515Y-105218882D01*
X186026199Y-105185396D01*
X186026196Y-105185396D01*
X186018828Y-105183545D01*
X186011228Y-105183505D01*
X186011227Y-105183505D01*
X185943574Y-105183151D01*
X185866177Y-105182745D01*
X185858790Y-105184519D01*
X185858786Y-105184519D01*
X185767586Y-105206415D01*
X185717741Y-105218382D01*
X185582090Y-105288396D01*
X185576370Y-105293386D01*
X185576367Y-105293388D01*
X185472781Y-105383752D01*
X185472778Y-105383755D01*
X185467056Y-105388747D01*
X185461766Y-105396274D01*
X185396769Y-105488756D01*
X185379280Y-105513640D01*
X185374218Y-105526623D01*
X185328689Y-105643399D01*
X185323828Y-105655866D01*
X185322836Y-105663399D01*
X185322836Y-105663400D01*
X185306261Y-105789305D01*
X185303903Y-105807214D01*
X185320654Y-105958946D01*
X185373115Y-106102302D01*
X185377352Y-106108608D01*
X185377354Y-106108611D01*
X185416076Y-106166234D01*
X185458257Y-106229006D01*
X185571164Y-106331744D01*
X185574336Y-106333466D01*
X185617224Y-106387895D01*
X185624041Y-106458563D01*
X185591569Y-106521699D01*
X185529710Y-106557355D01*
X185457816Y-106574616D01*
X185445741Y-106577515D01*
X185310090Y-106647529D01*
X185304370Y-106652519D01*
X185304367Y-106652521D01*
X185200781Y-106742885D01*
X185200778Y-106742888D01*
X185195056Y-106747880D01*
X185164305Y-106791634D01*
X185116868Y-106859131D01*
X185107280Y-106872773D01*
X185080899Y-106940436D01*
X185054736Y-107007541D01*
X185051828Y-107014999D01*
X185050836Y-107022532D01*
X185050836Y-107022533D01*
X185033882Y-107151317D01*
X185031903Y-107166347D01*
X185048654Y-107318079D01*
X185101115Y-107461435D01*
X185160188Y-107549344D01*
X185181579Y-107617039D01*
X185162975Y-107685555D01*
X185138435Y-107714566D01*
X185110637Y-107738816D01*
X185084647Y-107761489D01*
X185069943Y-107782411D01*
X185016389Y-107858611D01*
X184996871Y-107886382D01*
X184984916Y-107917045D01*
X184954587Y-107994835D01*
X184941419Y-108028608D01*
X184940427Y-108036141D01*
X184940427Y-108036142D01*
X184939949Y-108039775D01*
X184936667Y-108064709D01*
X184936055Y-108069355D01*
X184907334Y-108134282D01*
X184900228Y-108142005D01*
X184763138Y-108279095D01*
X184700826Y-108313121D01*
X184674043Y-108316000D01*
X184516443Y-108316000D01*
X184448322Y-108295998D01*
X184401829Y-108242342D01*
X184391725Y-108172068D01*
X184398461Y-108145771D01*
X184399873Y-108142005D01*
X184408226Y-108119724D01*
X184412149Y-108110413D01*
X184413523Y-108107488D01*
X184431711Y-108068748D01*
X184433092Y-108059877D01*
X184434339Y-108055800D01*
X184437847Y-108042428D01*
X184438762Y-108038268D01*
X184441913Y-108029861D01*
X184444514Y-107994856D01*
X184467845Y-107930668D01*
X184509446Y-107872774D01*
X184551684Y-107767703D01*
X184563550Y-107738186D01*
X184563550Y-107738185D01*
X184566384Y-107731136D01*
X184587893Y-107580005D01*
X184588032Y-107566700D01*
X184587216Y-107559950D01*
X184575815Y-107465740D01*
X184569693Y-107415152D01*
X184515733Y-107272353D01*
X184511434Y-107266098D01*
X184511432Y-107266094D01*
X184433575Y-107152811D01*
X184429270Y-107146547D01*
X184429845Y-107146152D01*
X184402213Y-107086991D01*
X184411714Y-107016633D01*
X184444941Y-106972180D01*
X184503489Y-106922175D01*
X184509266Y-106917241D01*
X184598346Y-106793274D01*
X184655284Y-106651636D01*
X184676793Y-106500505D01*
X184676932Y-106487200D01*
X184674176Y-106464419D01*
X184667040Y-106405454D01*
X184658593Y-106335652D01*
X184604633Y-106192853D01*
X184600334Y-106186598D01*
X184600332Y-106186594D01*
X184522472Y-106073306D01*
X184522470Y-106073304D01*
X184518170Y-106067047D01*
X184404193Y-105965498D01*
X184397481Y-105961944D01*
X184397478Y-105961942D01*
X184275998Y-105897621D01*
X184275995Y-105897620D01*
X184269283Y-105894066D01*
X184261917Y-105892216D01*
X184261915Y-105892215D01*
X184128599Y-105858729D01*
X184128596Y-105858729D01*
X184121228Y-105856878D01*
X184113628Y-105856838D01*
X184113627Y-105856838D01*
X184045974Y-105856484D01*
X183968577Y-105856078D01*
X183939958Y-105862949D01*
X183869052Y-105859402D01*
X183811318Y-105818082D01*
X183785459Y-105755567D01*
X183785442Y-105755427D01*
X183769593Y-105624452D01*
X183715633Y-105481653D01*
X183711334Y-105475398D01*
X183711332Y-105475394D01*
X183633472Y-105362106D01*
X183633470Y-105362104D01*
X183629170Y-105355847D01*
X183515193Y-105254298D01*
X183508481Y-105250744D01*
X183508478Y-105250742D01*
X183386998Y-105186421D01*
X183386995Y-105186420D01*
X183380283Y-105182866D01*
X183372917Y-105181016D01*
X183372915Y-105181015D01*
X183239599Y-105147529D01*
X183239596Y-105147529D01*
X183232228Y-105145678D01*
X183224628Y-105145638D01*
X183224627Y-105145638D01*
X183156974Y-105145284D01*
X183079577Y-105144878D01*
X183072190Y-105146652D01*
X183072186Y-105146652D01*
X182938530Y-105178741D01*
X182931141Y-105180515D01*
X182795490Y-105250529D01*
X182789770Y-105255519D01*
X182789767Y-105255521D01*
X182751447Y-105288950D01*
X182686965Y-105318658D01*
X182616658Y-105308788D01*
X182584801Y-105288080D01*
X182581246Y-105284913D01*
X182575393Y-105279698D01*
X182568681Y-105276144D01*
X182568678Y-105276142D01*
X182447198Y-105211821D01*
X182447195Y-105211820D01*
X182440483Y-105208266D01*
X182433117Y-105206416D01*
X182433115Y-105206415D01*
X182299799Y-105172929D01*
X182299796Y-105172929D01*
X182292428Y-105171078D01*
X182284828Y-105171038D01*
X182284827Y-105171038D01*
X182217174Y-105170684D01*
X182139777Y-105170278D01*
X182132390Y-105172052D01*
X182132386Y-105172052D01*
X181998730Y-105204141D01*
X181991341Y-105205915D01*
X181855690Y-105275929D01*
X181849970Y-105280919D01*
X181849967Y-105280921D01*
X181746381Y-105371285D01*
X181746378Y-105371288D01*
X181740656Y-105376280D01*
X181726604Y-105396274D01*
X181661607Y-105488756D01*
X181652880Y-105501173D01*
X181597428Y-105643399D01*
X181596436Y-105650932D01*
X181596436Y-105650933D01*
X181582194Y-105759118D01*
X181577503Y-105794747D01*
X181580628Y-105823049D01*
X181581166Y-105827924D01*
X181568760Y-105897828D01*
X181520531Y-105949929D01*
X181451790Y-105967683D01*
X181425238Y-105963956D01*
X181403428Y-105958478D01*
X181395828Y-105958438D01*
X181395827Y-105958438D01*
X181328174Y-105958084D01*
X181250777Y-105957678D01*
X181243390Y-105959452D01*
X181243386Y-105959452D01*
X181135504Y-105985353D01*
X181102341Y-105993315D01*
X180966690Y-106063329D01*
X180960970Y-106068319D01*
X180960967Y-106068321D01*
X180857381Y-106158685D01*
X180857378Y-106158688D01*
X180851656Y-106163680D01*
X180763880Y-106288573D01*
X180738493Y-106353687D01*
X180713608Y-106417514D01*
X180708428Y-106430799D01*
X180707436Y-106438332D01*
X180707436Y-106438333D01*
X180689622Y-106573650D01*
X180688503Y-106582147D01*
X180705254Y-106733879D01*
X180757715Y-106877235D01*
X180761955Y-106883545D01*
X180765400Y-106890306D01*
X180763895Y-106891073D01*
X180782518Y-106950012D01*
X180763912Y-107018527D01*
X180714334Y-107064551D01*
X180636490Y-107104729D01*
X180630770Y-107109719D01*
X180630767Y-107109721D01*
X180527181Y-107200085D01*
X180527178Y-107200088D01*
X180521456Y-107205080D01*
X180500114Y-107235447D01*
X180460200Y-107292239D01*
X180460200Y-105903000D01*
X182052999Y-104473947D01*
X183812703Y-104473947D01*
X183829454Y-104625679D01*
X183881915Y-104769035D01*
X183886152Y-104775341D01*
X183886154Y-104775344D01*
X183918737Y-104823832D01*
X183967057Y-104895739D01*
X184079964Y-104998477D01*
X184086637Y-105002100D01*
X184086641Y-105002103D01*
X184207442Y-105067692D01*
X184207444Y-105067693D01*
X184214119Y-105071317D01*
X184221468Y-105073245D01*
X184354426Y-105108126D01*
X184354428Y-105108126D01*
X184361776Y-105110054D01*
X184443685Y-105111341D01*
X184506813Y-105112333D01*
X184506816Y-105112333D01*
X184514410Y-105112452D01*
X184663211Y-105078372D01*
X184799587Y-105009782D01*
X184805359Y-105004853D01*
X184805361Y-105004851D01*
X184909890Y-104915575D01*
X184909894Y-104915571D01*
X184915666Y-104910641D01*
X185004746Y-104786674D01*
X185061684Y-104645036D01*
X185083193Y-104493905D01*
X185083332Y-104480600D01*
X185080825Y-104459878D01*
X185069079Y-104362819D01*
X185064993Y-104329052D01*
X185011033Y-104186253D01*
X185006734Y-104179998D01*
X185006732Y-104179994D01*
X184928872Y-104066706D01*
X184928870Y-104066704D01*
X184924570Y-104060447D01*
X184810593Y-103958898D01*
X184803881Y-103955344D01*
X184803878Y-103955342D01*
X184682398Y-103891021D01*
X184682395Y-103891020D01*
X184675683Y-103887466D01*
X184668317Y-103885616D01*
X184668315Y-103885615D01*
X184534999Y-103852129D01*
X184534996Y-103852129D01*
X184527628Y-103850278D01*
X184520028Y-103850238D01*
X184520027Y-103850238D01*
X184452374Y-103849884D01*
X184374977Y-103849478D01*
X184367590Y-103851252D01*
X184367586Y-103851252D01*
X184241794Y-103881453D01*
X184226541Y-103885115D01*
X184090890Y-103955129D01*
X184085170Y-103960119D01*
X184085167Y-103960121D01*
X183981581Y-104050485D01*
X183981578Y-104050488D01*
X183975856Y-104055480D01*
X183971489Y-104061694D01*
X183895970Y-104169147D01*
X183888080Y-104180373D01*
X183878281Y-104205506D01*
X183836242Y-104313330D01*
X183832628Y-104322599D01*
X183831636Y-104330132D01*
X183831636Y-104330133D01*
X183813982Y-104464235D01*
X183812703Y-104473947D01*
X182052999Y-104473947D01*
X183178000Y-103464600D01*
X183178000Y-85684600D01*
X174667712Y-85684600D01*
X174673084Y-85671236D01*
X174694593Y-85520105D01*
X174694732Y-85506800D01*
X174679907Y-85384292D01*
X174691580Y-85314263D01*
X174739261Y-85261661D01*
X174807813Y-85243188D01*
X174822092Y-85244321D01*
X174829423Y-85245325D01*
X174836776Y-85247254D01*
X174919944Y-85248561D01*
X174981813Y-85249533D01*
X174981816Y-85249533D01*
X174989410Y-85249652D01*
X175138211Y-85215572D01*
X175274587Y-85146982D01*
X175280359Y-85142053D01*
X175280361Y-85142051D01*
X175384890Y-85052775D01*
X175384894Y-85052771D01*
X175390666Y-85047841D01*
X175479746Y-84923874D01*
X175536684Y-84782236D01*
X175558193Y-84631105D01*
X175558332Y-84617800D01*
X175539993Y-84466252D01*
X175486033Y-84323453D01*
X175481734Y-84317198D01*
X175481732Y-84317194D01*
X175403872Y-84203906D01*
X175403870Y-84203904D01*
X175399570Y-84197647D01*
X175285593Y-84096098D01*
X175278881Y-84092544D01*
X175278878Y-84092542D01*
X175157398Y-84028221D01*
X175157395Y-84028220D01*
X175150683Y-84024666D01*
X175143317Y-84022816D01*
X175143315Y-84022815D01*
X175009999Y-83989329D01*
X175009996Y-83989329D01*
X175002628Y-83987478D01*
X174995028Y-83987438D01*
X174995027Y-83987438D01*
X174927374Y-83987084D01*
X174849977Y-83986678D01*
X174842590Y-83988452D01*
X174842586Y-83988452D01*
X174708930Y-84020541D01*
X174701541Y-84022315D01*
X174565890Y-84092329D01*
X174560170Y-84097319D01*
X174560167Y-84097321D01*
X174456581Y-84187685D01*
X174456578Y-84187688D01*
X174450856Y-84192680D01*
X174363080Y-84317573D01*
X174307628Y-84459799D01*
X174287703Y-84611147D01*
X174290357Y-84635186D01*
X174302178Y-84742259D01*
X174289772Y-84812164D01*
X174241542Y-84864264D01*
X174172801Y-84882018D01*
X174147597Y-84878481D01*
X174146401Y-84878330D01*
X174139028Y-84876478D01*
X174131428Y-84876438D01*
X174131427Y-84876438D01*
X174063774Y-84876084D01*
X173986377Y-84875678D01*
X173978990Y-84877452D01*
X173978986Y-84877452D01*
X173859100Y-84906235D01*
X173837941Y-84911315D01*
X173702290Y-84981329D01*
X173696570Y-84986319D01*
X173696567Y-84986321D01*
X173592981Y-85076685D01*
X173592978Y-85076688D01*
X173587256Y-85081680D01*
X173499480Y-85206573D01*
X173444028Y-85348799D01*
X173443036Y-85356332D01*
X173443036Y-85356333D01*
X173430959Y-85448073D01*
X173424103Y-85500147D01*
X173440854Y-85651879D01*
X173452828Y-85684600D01*
X118916000Y-85684600D01*
X118916000Y-103464600D01*
X124278074Y-108316000D01*
X120128800Y-108316000D01*
X120060679Y-108295998D01*
X120014186Y-108242342D01*
X120002800Y-108190000D01*
X120002800Y-107198645D01*
X120004110Y-107186916D01*
X120003583Y-107186874D01*
X120004303Y-107177927D01*
X120006284Y-107169171D01*
X120003042Y-107116914D01*
X120002800Y-107109113D01*
X120002800Y-107093402D01*
X120001371Y-107083422D01*
X120000339Y-107073356D01*
X119998046Y-107036387D01*
X119997490Y-107027424D01*
X119994440Y-107018977D01*
X119993569Y-107014769D01*
X119990236Y-107001400D01*
X119989038Y-106997302D01*
X119987765Y-106988415D01*
X119984048Y-106980239D01*
X119968706Y-106946494D01*
X119964894Y-106937129D01*
X119952317Y-106902291D01*
X119952314Y-106902286D01*
X119949266Y-106893842D01*
X119943970Y-106886592D01*
X119941965Y-106882822D01*
X119935001Y-106870904D01*
X119932700Y-106867305D01*
X119928983Y-106859131D01*
X119898935Y-106824259D01*
X119892648Y-106816340D01*
X119887772Y-106809666D01*
X119887770Y-106809663D01*
X119884894Y-106805727D01*
X119874277Y-106795110D01*
X119867919Y-106788263D01*
X119866160Y-106786221D01*
X119836278Y-106751542D01*
X119828743Y-106746658D01*
X119821981Y-106740759D01*
X119821998Y-106740740D01*
X119811043Y-106731876D01*
X118543841Y-105464674D01*
X118509815Y-105402362D01*
X118507721Y-105389624D01*
X118496429Y-105288950D01*
X118490051Y-105232090D01*
X118485452Y-105218882D01*
X118472265Y-105181015D01*
X118436139Y-105077277D01*
X118349269Y-104938255D01*
X118282164Y-104870680D01*
X118238720Y-104826931D01*
X118238716Y-104826928D01*
X118233757Y-104821934D01*
X118224264Y-104815909D01*
X118153436Y-104770961D01*
X118095345Y-104734095D01*
X118047699Y-104717129D01*
X117947547Y-104681466D01*
X117947542Y-104681465D01*
X117940912Y-104679104D01*
X117933926Y-104678271D01*
X117933922Y-104678270D01*
X117818399Y-104664495D01*
X117778133Y-104659694D01*
X117771130Y-104660430D01*
X117771129Y-104660430D01*
X117729878Y-104664766D01*
X117615100Y-104676829D01*
X117608432Y-104679099D01*
X117466581Y-104727389D01*
X117466578Y-104727390D01*
X117459914Y-104729659D01*
X117446561Y-104737874D01*
X117326288Y-104811866D01*
X117326286Y-104811868D01*
X117320289Y-104815557D01*
X117292359Y-104842908D01*
X117218155Y-104915575D01*
X117203165Y-104930254D01*
X117114362Y-105068049D01*
X117111953Y-105074669D01*
X117111951Y-105074672D01*
X117072616Y-105182745D01*
X117058294Y-105222094D01*
X117037748Y-105384733D01*
X117053745Y-105547882D01*
X117105489Y-105703433D01*
X117109136Y-105709455D01*
X117182900Y-105831253D01*
X117190410Y-105843654D01*
X117304287Y-105961577D01*
X117310179Y-105965432D01*
X117310183Y-105965436D01*
X117356380Y-105995666D01*
X117441459Y-106051340D01*
X117595109Y-106108482D01*
X117602090Y-106109413D01*
X117602092Y-106109414D01*
X117750620Y-106129232D01*
X117750624Y-106129232D01*
X117757601Y-106130163D01*
X117758809Y-106130053D01*
X117824297Y-106150781D01*
X117843067Y-106166234D01*
X118974295Y-107297462D01*
X119008321Y-107359774D01*
X119011200Y-107386557D01*
X119011200Y-108190000D01*
X118991198Y-108258121D01*
X118937542Y-108304614D01*
X118885200Y-108316000D01*
X117588800Y-108316000D01*
X117520679Y-108295998D01*
X117474186Y-108242342D01*
X117462800Y-108190000D01*
X117462800Y-107859050D01*
X117464111Y-107847316D01*
X117463584Y-107847274D01*
X117464304Y-107838328D01*
X117466285Y-107829572D01*
X117463042Y-107777305D01*
X117462800Y-107769502D01*
X117462800Y-107753802D01*
X117462165Y-107749368D01*
X117462164Y-107749353D01*
X117462094Y-107748866D01*
X117462094Y-107748372D01*
X117461846Y-107744892D01*
X117462092Y-107744874D01*
X117462080Y-107713261D01*
X117463657Y-107702182D01*
X117468393Y-107668905D01*
X117468532Y-107655600D01*
X117466060Y-107635166D01*
X117456471Y-107555933D01*
X117450193Y-107504052D01*
X117396233Y-107361253D01*
X117391934Y-107354998D01*
X117391932Y-107354994D01*
X117314072Y-107241706D01*
X117314070Y-107241704D01*
X117309770Y-107235447D01*
X117195793Y-107133898D01*
X117189081Y-107130344D01*
X117189078Y-107130342D01*
X117067598Y-107066021D01*
X117067595Y-107066020D01*
X117060883Y-107062466D01*
X117053517Y-107060616D01*
X117053515Y-107060615D01*
X116920199Y-107027129D01*
X116920196Y-107027129D01*
X116912828Y-107025278D01*
X116905228Y-107025238D01*
X116905227Y-107025238D01*
X116837574Y-107024884D01*
X116760177Y-107024478D01*
X116752790Y-107026252D01*
X116752786Y-107026252D01*
X116646591Y-107051748D01*
X116611741Y-107060115D01*
X116476090Y-107130129D01*
X116470370Y-107135119D01*
X116470367Y-107135121D01*
X116366781Y-107225485D01*
X116366778Y-107225488D01*
X116361056Y-107230480D01*
X116356690Y-107236693D01*
X116356684Y-107236699D01*
X116321896Y-107286197D01*
X116266362Y-107330429D01*
X116195730Y-107337614D01*
X116132426Y-107305472D01*
X116124294Y-107297069D01*
X116120272Y-107292507D01*
X116115970Y-107286247D01*
X116001993Y-107184698D01*
X115995281Y-107181144D01*
X115995278Y-107181142D01*
X115873798Y-107116821D01*
X115873795Y-107116820D01*
X115867083Y-107113266D01*
X115859717Y-107111416D01*
X115859715Y-107111415D01*
X115726399Y-107077929D01*
X115726396Y-107077929D01*
X115719028Y-107076078D01*
X115711428Y-107076038D01*
X115711427Y-107076038D01*
X115643774Y-107075684D01*
X115566377Y-107075278D01*
X115558990Y-107077052D01*
X115558986Y-107077052D01*
X115443707Y-107104729D01*
X115417941Y-107110915D01*
X115282290Y-107180929D01*
X115276570Y-107185919D01*
X115276567Y-107185921D01*
X115172981Y-107276285D01*
X115172978Y-107276288D01*
X115167256Y-107281280D01*
X115079480Y-107406173D01*
X115060716Y-107454299D01*
X115032116Y-107527655D01*
X115024028Y-107548399D01*
X115023036Y-107555932D01*
X115023036Y-107555933D01*
X115005904Y-107686068D01*
X115004103Y-107699747D01*
X115020854Y-107851479D01*
X115073315Y-107994835D01*
X115157239Y-108119726D01*
X115178630Y-108187421D01*
X115160026Y-108255937D01*
X115107333Y-108303518D01*
X115052656Y-108316000D01*
X110214297Y-108316000D01*
X110146176Y-108295998D01*
X110099683Y-108242342D01*
X110089579Y-108172068D01*
X110119073Y-108107488D01*
X110136307Y-108091333D01*
X110140376Y-108088908D01*
X110259091Y-107975857D01*
X110336989Y-107858611D01*
X110345908Y-107845187D01*
X110345909Y-107845185D01*
X110349809Y-107839315D01*
X110408022Y-107686068D01*
X110425054Y-107564881D01*
X110430286Y-107527655D01*
X110430287Y-107527647D01*
X110430837Y-107523731D01*
X110431124Y-107503200D01*
X110412851Y-107340290D01*
X110406607Y-107322360D01*
X110403095Y-107251451D01*
X110438476Y-107189899D01*
X110501519Y-107157247D01*
X110514170Y-107155445D01*
X110672089Y-107141073D01*
X110678789Y-107138896D01*
X110678794Y-107138895D01*
X110821299Y-107092593D01*
X110821302Y-107092592D01*
X110827998Y-107090416D01*
X110968808Y-107006476D01*
X110973902Y-107001625D01*
X110973906Y-107001622D01*
X111055671Y-106923757D01*
X111087523Y-106893425D01*
X111157392Y-106788263D01*
X111174340Y-106762755D01*
X111174341Y-106762753D01*
X111178241Y-106756883D01*
X111236454Y-106603636D01*
X111252818Y-106487200D01*
X111258718Y-106445223D01*
X111258719Y-106445215D01*
X111259269Y-106441299D01*
X111259556Y-106420768D01*
X111241283Y-106257858D01*
X111234277Y-106237738D01*
X111209376Y-106166234D01*
X111187371Y-106103045D01*
X111109424Y-105978303D01*
X111104234Y-105969997D01*
X111100501Y-105964023D01*
X111031031Y-105894066D01*
X110989952Y-105852699D01*
X110989948Y-105852696D01*
X110984989Y-105847702D01*
X110978611Y-105843654D01*
X110931674Y-105813867D01*
X110846577Y-105759863D01*
X110819310Y-105750154D01*
X110698779Y-105707234D01*
X110698774Y-105707233D01*
X110692144Y-105704872D01*
X110685158Y-105704039D01*
X110685154Y-105704038D01*
X110569631Y-105690263D01*
X110529365Y-105685462D01*
X110522362Y-105686198D01*
X110522361Y-105686198D01*
X110481110Y-105690534D01*
X110366332Y-105702597D01*
X110359664Y-105704867D01*
X110217813Y-105753157D01*
X110217810Y-105753158D01*
X110211146Y-105755427D01*
X110197793Y-105763642D01*
X110077520Y-105837634D01*
X110077518Y-105837636D01*
X110071521Y-105841325D01*
X109954397Y-105956022D01*
X109865594Y-106093817D01*
X109863185Y-106100437D01*
X109863183Y-106100440D01*
X109826962Y-106199956D01*
X109809526Y-106247862D01*
X109788980Y-106410501D01*
X109804977Y-106573650D01*
X109807804Y-106582147D01*
X109814695Y-106602864D01*
X109817217Y-106673816D01*
X109780979Y-106734868D01*
X109717487Y-106766637D01*
X109701738Y-106767990D01*
X109700933Y-106767894D01*
X109537900Y-106785029D01*
X109531232Y-106787299D01*
X109389381Y-106835589D01*
X109389378Y-106835590D01*
X109382714Y-106837859D01*
X109348137Y-106859131D01*
X109249088Y-106920066D01*
X109249086Y-106920068D01*
X109243089Y-106923757D01*
X109211078Y-106955105D01*
X109137530Y-107027129D01*
X109125965Y-107038454D01*
X109037162Y-107176249D01*
X109034753Y-107182869D01*
X109034751Y-107182872D01*
X108985540Y-107318079D01*
X108981094Y-107330294D01*
X108960548Y-107492933D01*
X108976545Y-107656082D01*
X109028289Y-107811633D01*
X109031936Y-107817655D01*
X109108475Y-107944035D01*
X109113210Y-107951854D01*
X109227087Y-108069777D01*
X109232983Y-108073635D01*
X109249690Y-108084568D01*
X109295739Y-108138605D01*
X109305262Y-108208960D01*
X109275237Y-108273295D01*
X109215197Y-108311185D01*
X109180697Y-108316000D01*
X107691700Y-108316000D01*
X107623579Y-108295998D01*
X107577086Y-108242342D01*
X107565700Y-108190000D01*
X107565700Y-81138000D01*
X156891924Y-81138000D01*
X156892614Y-81144565D01*
X156903954Y-81252452D01*
X156910177Y-81311664D01*
X156912217Y-81317942D01*
X156912217Y-81317943D01*
X156923318Y-81352107D01*
X156964137Y-81477737D01*
X156967440Y-81483458D01*
X156967441Y-81483460D01*
X157046221Y-81619909D01*
X157051448Y-81628963D01*
X157055868Y-81633872D01*
X157114137Y-81698587D01*
X157144854Y-81762595D01*
X157146500Y-81782897D01*
X157146500Y-82383629D01*
X157126498Y-82451750D01*
X157109595Y-82472724D01*
X157051927Y-82530392D01*
X157002640Y-82636088D01*
X156996300Y-82684246D01*
X156996300Y-85211754D01*
X157002640Y-85259912D01*
X157051927Y-85365608D01*
X157134392Y-85448073D01*
X157240088Y-85497360D01*
X157288246Y-85503700D01*
X158165754Y-85503700D01*
X158213912Y-85497360D01*
X158319608Y-85448073D01*
X158387905Y-85379776D01*
X158450217Y-85345750D01*
X158521032Y-85350815D01*
X158566095Y-85379776D01*
X158634392Y-85448073D01*
X158740088Y-85497360D01*
X158788246Y-85503700D01*
X159665754Y-85503700D01*
X159713912Y-85497360D01*
X159819608Y-85448073D01*
X159887905Y-85379776D01*
X159950217Y-85345750D01*
X160021032Y-85350815D01*
X160066095Y-85379776D01*
X160134392Y-85448073D01*
X160240088Y-85497360D01*
X160288246Y-85503700D01*
X161165754Y-85503700D01*
X161213912Y-85497360D01*
X161319608Y-85448073D01*
X161387905Y-85379776D01*
X161450217Y-85345750D01*
X161521032Y-85350815D01*
X161566095Y-85379776D01*
X161634392Y-85448073D01*
X161740088Y-85497360D01*
X161788246Y-85503700D01*
X162665754Y-85503700D01*
X162713912Y-85497360D01*
X162819608Y-85448073D01*
X162887905Y-85379776D01*
X162950217Y-85345750D01*
X163021032Y-85350815D01*
X163066095Y-85379776D01*
X163134392Y-85448073D01*
X163240088Y-85497360D01*
X163288246Y-85503700D01*
X164165754Y-85503700D01*
X164213912Y-85497360D01*
X164319608Y-85448073D01*
X164387905Y-85379776D01*
X164450217Y-85345750D01*
X164521032Y-85350815D01*
X164566095Y-85379776D01*
X164634392Y-85448073D01*
X164740088Y-85497360D01*
X164788246Y-85503700D01*
X165665754Y-85503700D01*
X165713912Y-85497360D01*
X165819608Y-85448073D01*
X165887905Y-85379776D01*
X165950217Y-85345750D01*
X166021032Y-85350815D01*
X166066095Y-85379776D01*
X166134392Y-85448073D01*
X166240088Y-85497360D01*
X166288246Y-85503700D01*
X167165754Y-85503700D01*
X167213912Y-85497360D01*
X167319608Y-85448073D01*
X167387905Y-85379776D01*
X167450217Y-85345750D01*
X167521032Y-85350815D01*
X167566095Y-85379776D01*
X167634392Y-85448073D01*
X167740088Y-85497360D01*
X167788246Y-85503700D01*
X168665754Y-85503700D01*
X168713912Y-85497360D01*
X168819608Y-85448073D01*
X168887905Y-85379776D01*
X168950217Y-85345750D01*
X169021032Y-85350815D01*
X169066095Y-85379776D01*
X169134392Y-85448073D01*
X169240088Y-85497360D01*
X169288246Y-85503700D01*
X170165754Y-85503700D01*
X170213912Y-85497360D01*
X170319608Y-85448073D01*
X170387905Y-85379776D01*
X170450217Y-85345750D01*
X170521032Y-85350815D01*
X170566095Y-85379776D01*
X170634392Y-85448073D01*
X170740088Y-85497360D01*
X170788246Y-85503700D01*
X171665754Y-85503700D01*
X171713912Y-85497360D01*
X171819608Y-85448073D01*
X171902073Y-85365608D01*
X171951360Y-85259912D01*
X171957700Y-85211754D01*
X171957700Y-82684246D01*
X171951360Y-82636088D01*
X171902073Y-82530392D01*
X171819608Y-82447927D01*
X171810224Y-82443551D01*
X171766154Y-82388417D01*
X171758846Y-82317798D01*
X171790877Y-82254437D01*
X171854624Y-82217842D01*
X171955808Y-82194668D01*
X171955812Y-82194667D01*
X171963211Y-82192972D01*
X172099587Y-82124382D01*
X172105359Y-82119453D01*
X172105361Y-82119451D01*
X172209890Y-82030175D01*
X172209894Y-82030171D01*
X172215666Y-82025241D01*
X172304746Y-81901274D01*
X172361684Y-81759636D01*
X172383193Y-81608505D01*
X172383332Y-81595200D01*
X172382754Y-81590418D01*
X172369183Y-81478280D01*
X172364993Y-81443652D01*
X172311033Y-81300853D01*
X172306734Y-81294598D01*
X172306732Y-81294594D01*
X172228872Y-81181306D01*
X172228870Y-81181304D01*
X172224570Y-81175047D01*
X172212496Y-81164289D01*
X172182989Y-81138000D01*
X172110593Y-81073498D01*
X172103881Y-81069944D01*
X172103878Y-81069942D01*
X171982398Y-81005621D01*
X171982395Y-81005620D01*
X171975683Y-81002066D01*
X171968317Y-81000216D01*
X171968315Y-81000215D01*
X171834999Y-80966729D01*
X171834996Y-80966729D01*
X171827628Y-80964878D01*
X171820028Y-80964838D01*
X171820027Y-80964838D01*
X171752374Y-80964484D01*
X171674977Y-80964078D01*
X171667590Y-80965852D01*
X171667586Y-80965852D01*
X171538616Y-80996816D01*
X171526541Y-80999715D01*
X171390890Y-81069729D01*
X171385170Y-81074719D01*
X171385167Y-81074721D01*
X171281581Y-81165085D01*
X171281578Y-81165088D01*
X171275856Y-81170080D01*
X171188080Y-81294973D01*
X171168233Y-81345878D01*
X171137882Y-81423724D01*
X171132628Y-81437199D01*
X171131636Y-81444732D01*
X171131636Y-81444733D01*
X171114193Y-81577232D01*
X171112703Y-81588547D01*
X171129454Y-81740279D01*
X171181915Y-81883635D01*
X171186152Y-81889941D01*
X171186154Y-81889944D01*
X171221356Y-81942329D01*
X171267057Y-82010339D01*
X171379964Y-82113077D01*
X171386637Y-82116700D01*
X171386641Y-82116703D01*
X171458225Y-82155569D01*
X171508546Y-82205651D01*
X171523803Y-82274989D01*
X171499151Y-82341568D01*
X171442417Y-82384250D01*
X171398103Y-82392300D01*
X170788246Y-82392300D01*
X170740088Y-82398640D01*
X170731352Y-82402714D01*
X170731351Y-82402714D01*
X170644390Y-82443265D01*
X170634392Y-82447927D01*
X170566095Y-82516224D01*
X170503783Y-82550250D01*
X170432968Y-82545185D01*
X170387905Y-82516224D01*
X170319608Y-82447927D01*
X170295551Y-82436709D01*
X170242266Y-82389793D01*
X170222800Y-82322514D01*
X170222800Y-82107651D01*
X170224111Y-82095919D01*
X170223584Y-82095877D01*
X170224304Y-82086926D01*
X170226285Y-82078172D01*
X170223632Y-82035412D01*
X170223042Y-82025900D01*
X170222800Y-82018098D01*
X170222800Y-82002402D01*
X170221371Y-81992422D01*
X170220340Y-81982359D01*
X170218854Y-81958400D01*
X170217490Y-81936424D01*
X170214440Y-81927975D01*
X170213568Y-81923766D01*
X170210238Y-81910408D01*
X170209038Y-81906303D01*
X170207765Y-81897415D01*
X170188703Y-81855490D01*
X170184899Y-81846147D01*
X170174785Y-81818131D01*
X170167300Y-81775351D01*
X170167300Y-81442464D01*
X170190976Y-81368940D01*
X170228246Y-81317074D01*
X170285184Y-81175436D01*
X170306693Y-81024305D01*
X170306832Y-81011000D01*
X170305982Y-81003970D01*
X170294553Y-80909533D01*
X170288493Y-80859452D01*
X170234533Y-80716653D01*
X170231166Y-80711754D01*
X174026300Y-80711754D01*
X174032640Y-80759912D01*
X174036714Y-80768648D01*
X174036714Y-80768649D01*
X174072749Y-80845925D01*
X174081927Y-80865608D01*
X174164392Y-80948073D01*
X174174384Y-80952732D01*
X174174385Y-80952733D01*
X174261351Y-80993286D01*
X174270088Y-80997360D01*
X174318246Y-81003700D01*
X176195754Y-81003700D01*
X176243912Y-80997360D01*
X176252649Y-80993286D01*
X176339615Y-80952733D01*
X176339616Y-80952732D01*
X176349608Y-80948073D01*
X176432073Y-80865608D01*
X176441252Y-80845925D01*
X176477286Y-80768649D01*
X176477286Y-80768648D01*
X176481360Y-80759912D01*
X176487700Y-80711754D01*
X176487700Y-75584246D01*
X176481360Y-75536088D01*
X176432073Y-75430392D01*
X176349608Y-75347927D01*
X176315243Y-75331902D01*
X176252649Y-75302714D01*
X176252648Y-75302714D01*
X176243912Y-75298640D01*
X176195754Y-75292300D01*
X174318246Y-75292300D01*
X174270088Y-75298640D01*
X174261352Y-75302714D01*
X174261351Y-75302714D01*
X174198758Y-75331902D01*
X174164392Y-75347927D01*
X174081927Y-75430392D01*
X174032640Y-75536088D01*
X174026300Y-75584246D01*
X174026300Y-80711754D01*
X170231166Y-80711754D01*
X170230234Y-80710398D01*
X170230232Y-80710394D01*
X170152372Y-80597106D01*
X170152370Y-80597104D01*
X170148070Y-80590847D01*
X170034093Y-80489298D01*
X170027381Y-80485744D01*
X170027378Y-80485742D01*
X169905898Y-80421421D01*
X169905895Y-80421420D01*
X169899183Y-80417866D01*
X169891817Y-80416016D01*
X169891815Y-80416015D01*
X169758499Y-80382529D01*
X169758496Y-80382529D01*
X169751128Y-80380678D01*
X169743528Y-80380638D01*
X169743527Y-80380638D01*
X169675874Y-80380284D01*
X169598477Y-80379878D01*
X169591090Y-80381652D01*
X169591086Y-80381652D01*
X169486678Y-80406719D01*
X169450041Y-80415515D01*
X169314390Y-80485529D01*
X169308670Y-80490519D01*
X169308667Y-80490521D01*
X169205081Y-80580885D01*
X169205078Y-80580888D01*
X169199356Y-80585880D01*
X169194989Y-80592094D01*
X169194987Y-80592096D01*
X169184431Y-80607115D01*
X169128896Y-80651346D01*
X169058263Y-80658531D01*
X168994960Y-80626388D01*
X168977505Y-80606030D01*
X168971372Y-80597106D01*
X168971370Y-80597104D01*
X168967070Y-80590847D01*
X168853093Y-80489298D01*
X168846381Y-80485744D01*
X168846378Y-80485742D01*
X168724898Y-80421421D01*
X168724895Y-80421420D01*
X168718183Y-80417866D01*
X168710817Y-80416016D01*
X168710815Y-80416015D01*
X168577499Y-80382529D01*
X168577496Y-80382529D01*
X168570128Y-80380678D01*
X168562528Y-80380638D01*
X168562527Y-80380638D01*
X168494874Y-80380284D01*
X168417477Y-80379878D01*
X168410090Y-80381652D01*
X168410086Y-80381652D01*
X168305678Y-80406719D01*
X168269041Y-80415515D01*
X168133390Y-80485529D01*
X168127670Y-80490519D01*
X168127667Y-80490521D01*
X168024081Y-80580885D01*
X168024078Y-80580888D01*
X168018356Y-80585880D01*
X168003432Y-80607115D01*
X167938681Y-80699247D01*
X167930580Y-80710773D01*
X167875128Y-80852999D01*
X167874136Y-80860532D01*
X167874136Y-80860533D01*
X167856334Y-80995759D01*
X167855203Y-81004347D01*
X167871954Y-81156079D01*
X167874564Y-81163211D01*
X167879618Y-81177022D01*
X167884244Y-81247868D01*
X167856493Y-81302862D01*
X167854414Y-81305260D01*
X167851245Y-81308429D01*
X167845194Y-81316503D01*
X167838817Y-81324335D01*
X167808346Y-81358837D01*
X167804530Y-81366964D01*
X167802176Y-81370548D01*
X167795058Y-81382396D01*
X167793023Y-81386114D01*
X167787639Y-81393297D01*
X167771470Y-81436428D01*
X167767554Y-81445720D01*
X167747989Y-81487393D01*
X167746608Y-81496264D01*
X167745361Y-81500341D01*
X167741853Y-81513713D01*
X167740938Y-81517873D01*
X167737787Y-81526280D01*
X167734422Y-81571574D01*
X167734376Y-81572190D01*
X167733225Y-81582217D01*
X167731200Y-81595218D01*
X167731200Y-81610236D01*
X167730854Y-81619574D01*
X167727262Y-81667909D01*
X167729135Y-81676685D01*
X167729746Y-81685642D01*
X167729721Y-81685644D01*
X167731200Y-81699657D01*
X167731200Y-82322514D01*
X167711198Y-82390635D01*
X167658449Y-82436709D01*
X167634392Y-82447927D01*
X167566095Y-82516224D01*
X167503783Y-82550250D01*
X167432968Y-82545185D01*
X167387905Y-82516224D01*
X167319608Y-82447927D01*
X167295551Y-82436709D01*
X167242266Y-82389793D01*
X167222800Y-82322514D01*
X167222800Y-82155645D01*
X167224110Y-82143916D01*
X167223583Y-82143874D01*
X167224303Y-82134927D01*
X167226284Y-82126171D01*
X167223042Y-82073914D01*
X167222800Y-82066113D01*
X167222800Y-82050402D01*
X167221371Y-82040422D01*
X167220339Y-82030356D01*
X167219573Y-82017996D01*
X167217490Y-81984424D01*
X167214440Y-81975977D01*
X167213569Y-81971769D01*
X167210236Y-81958400D01*
X167209038Y-81954302D01*
X167207765Y-81945415D01*
X167203677Y-81936424D01*
X167188706Y-81903494D01*
X167184894Y-81894129D01*
X167172317Y-81859291D01*
X167172314Y-81859286D01*
X167169266Y-81850842D01*
X167163970Y-81843592D01*
X167161965Y-81839822D01*
X167155005Y-81827911D01*
X167152701Y-81824308D01*
X167148983Y-81816131D01*
X167143119Y-81809325D01*
X167139151Y-81803121D01*
X167119300Y-81735235D01*
X167119300Y-81442464D01*
X167142976Y-81368940D01*
X167180246Y-81317074D01*
X167237184Y-81175436D01*
X167258693Y-81024305D01*
X167258832Y-81011000D01*
X167257982Y-81003970D01*
X167246553Y-80909533D01*
X167240493Y-80859452D01*
X167186533Y-80716653D01*
X167182234Y-80710398D01*
X167182232Y-80710394D01*
X167104372Y-80597106D01*
X167104370Y-80597104D01*
X167100070Y-80590847D01*
X166986093Y-80489298D01*
X166979381Y-80485744D01*
X166979378Y-80485742D01*
X166857898Y-80421421D01*
X166857895Y-80421420D01*
X166851183Y-80417866D01*
X166843817Y-80416016D01*
X166843815Y-80416015D01*
X166710499Y-80382529D01*
X166710496Y-80382529D01*
X166703128Y-80380678D01*
X166695528Y-80380638D01*
X166695527Y-80380638D01*
X166627874Y-80380284D01*
X166550477Y-80379878D01*
X166543090Y-80381652D01*
X166543086Y-80381652D01*
X166438678Y-80406719D01*
X166402041Y-80415515D01*
X166266390Y-80485529D01*
X166260670Y-80490519D01*
X166260667Y-80490521D01*
X166157081Y-80580885D01*
X166157078Y-80580888D01*
X166151356Y-80585880D01*
X166146989Y-80592094D01*
X166146987Y-80592096D01*
X166136431Y-80607115D01*
X166080896Y-80651346D01*
X166010263Y-80658531D01*
X165946960Y-80626388D01*
X165929505Y-80606030D01*
X165923372Y-80597106D01*
X165923370Y-80597104D01*
X165919070Y-80590847D01*
X165805093Y-80489298D01*
X165798381Y-80485744D01*
X165798378Y-80485742D01*
X165676898Y-80421421D01*
X165676895Y-80421420D01*
X165670183Y-80417866D01*
X165662817Y-80416016D01*
X165662815Y-80416015D01*
X165529499Y-80382529D01*
X165529496Y-80382529D01*
X165522128Y-80380678D01*
X165514528Y-80380638D01*
X165514527Y-80380638D01*
X165446874Y-80380284D01*
X165369477Y-80379878D01*
X165362090Y-80381652D01*
X165362086Y-80381652D01*
X165257678Y-80406719D01*
X165221041Y-80415515D01*
X165085390Y-80485529D01*
X165079670Y-80490519D01*
X165079667Y-80490521D01*
X164976081Y-80580885D01*
X164976078Y-80580888D01*
X164970356Y-80585880D01*
X164955432Y-80607115D01*
X164890681Y-80699247D01*
X164882580Y-80710773D01*
X164827128Y-80852999D01*
X164826137Y-80860526D01*
X164825183Y-80864242D01*
X164788869Y-80925248D01*
X164725337Y-80956937D01*
X164654758Y-80949247D01*
X164599540Y-80904620D01*
X164585276Y-80877445D01*
X164578886Y-80860533D01*
X164543033Y-80765653D01*
X164538734Y-80759398D01*
X164538732Y-80759394D01*
X164460872Y-80646106D01*
X164460870Y-80646104D01*
X164456570Y-80639847D01*
X164342593Y-80538298D01*
X164335881Y-80534744D01*
X164335878Y-80534742D01*
X164214398Y-80470421D01*
X164214395Y-80470420D01*
X164207683Y-80466866D01*
X164200317Y-80465016D01*
X164200315Y-80465015D01*
X164066999Y-80431529D01*
X164066996Y-80431529D01*
X164059628Y-80429678D01*
X164052028Y-80429638D01*
X164052027Y-80429638D01*
X163984374Y-80429284D01*
X163906977Y-80428878D01*
X163899590Y-80430652D01*
X163899586Y-80430652D01*
X163782520Y-80458758D01*
X163758541Y-80464515D01*
X163622890Y-80534529D01*
X163617170Y-80539519D01*
X163617167Y-80539521D01*
X163513581Y-80629885D01*
X163513578Y-80629888D01*
X163507856Y-80634880D01*
X163499966Y-80646106D01*
X163432435Y-80742194D01*
X163420080Y-80759773D01*
X163407305Y-80792540D01*
X163381217Y-80859452D01*
X163364628Y-80901999D01*
X163363636Y-80909532D01*
X163363636Y-80909533D01*
X163349457Y-81017239D01*
X163344703Y-81053347D01*
X163361454Y-81205079D01*
X163364064Y-81212211D01*
X163406803Y-81329000D01*
X163413915Y-81348435D01*
X163418151Y-81354738D01*
X163418151Y-81354739D01*
X163462782Y-81421157D01*
X163484200Y-81491433D01*
X163484200Y-81782443D01*
X163464198Y-81850564D01*
X163447295Y-81871538D01*
X163425668Y-81893165D01*
X163416443Y-81900536D01*
X163416786Y-81900939D01*
X163409950Y-81906757D01*
X163402358Y-81911547D01*
X163396416Y-81918275D01*
X163396415Y-81918276D01*
X163367685Y-81950807D01*
X163362338Y-81956495D01*
X163351245Y-81967588D01*
X163345194Y-81975662D01*
X163338817Y-81983494D01*
X163308346Y-82017996D01*
X163304530Y-82026123D01*
X163302176Y-82029707D01*
X163295058Y-82041555D01*
X163293023Y-82045273D01*
X163287639Y-82052456D01*
X163271470Y-82095587D01*
X163267554Y-82104879D01*
X163247989Y-82146552D01*
X163246608Y-82155423D01*
X163245361Y-82159500D01*
X163241853Y-82172872D01*
X163240938Y-82177032D01*
X163237787Y-82185439D01*
X163235380Y-82217842D01*
X163234376Y-82231349D01*
X163233225Y-82241376D01*
X163231200Y-82254377D01*
X163231200Y-82269395D01*
X163230854Y-82278733D01*
X163227262Y-82327068D01*
X163225202Y-82326915D01*
X163212423Y-82384739D01*
X163162056Y-82434776D01*
X163155282Y-82438186D01*
X163144390Y-82443265D01*
X163134392Y-82447927D01*
X163066095Y-82516224D01*
X163003783Y-82550250D01*
X162932968Y-82545185D01*
X162887905Y-82516224D01*
X162819608Y-82447927D01*
X162822131Y-82445404D01*
X162789835Y-82405004D01*
X162782523Y-82334385D01*
X162798839Y-82296081D01*
X162797053Y-82295099D01*
X162800709Y-82288449D01*
X162805146Y-82282274D01*
X162862084Y-82140636D01*
X162883593Y-81989505D01*
X162883732Y-81976200D01*
X162882307Y-81964418D01*
X162873209Y-81889241D01*
X162865393Y-81824652D01*
X162811433Y-81681853D01*
X162807134Y-81675598D01*
X162807132Y-81675594D01*
X162729272Y-81562306D01*
X162729270Y-81562304D01*
X162724970Y-81556047D01*
X162715061Y-81547218D01*
X162638794Y-81479268D01*
X162610993Y-81454498D01*
X162604281Y-81450944D01*
X162604278Y-81450942D01*
X162482798Y-81386621D01*
X162482795Y-81386620D01*
X162476083Y-81383066D01*
X162468717Y-81381216D01*
X162468715Y-81381215D01*
X162335399Y-81347729D01*
X162335396Y-81347729D01*
X162328028Y-81345878D01*
X162320428Y-81345838D01*
X162320427Y-81345838D01*
X162252774Y-81345484D01*
X162175377Y-81345078D01*
X162167990Y-81346852D01*
X162167986Y-81346852D01*
X162041898Y-81377124D01*
X162026941Y-81380715D01*
X161891290Y-81450729D01*
X161885570Y-81455719D01*
X161885567Y-81455721D01*
X161781981Y-81546085D01*
X161781978Y-81546088D01*
X161776256Y-81551080D01*
X161739212Y-81603788D01*
X161705276Y-81652075D01*
X161688480Y-81675973D01*
X161666351Y-81732730D01*
X161638907Y-81803121D01*
X161633028Y-81818199D01*
X161632036Y-81825732D01*
X161632036Y-81825733D01*
X161614571Y-81958400D01*
X161613103Y-81969547D01*
X161629854Y-82121279D01*
X161632464Y-82128411D01*
X161679556Y-82257095D01*
X161682315Y-82264635D01*
X161686551Y-82270938D01*
X161690001Y-82277710D01*
X161687197Y-82279139D01*
X161704259Y-82333192D01*
X161685635Y-82401703D01*
X161650557Y-82438945D01*
X161644385Y-82443267D01*
X161634392Y-82447927D01*
X161566095Y-82516224D01*
X161503783Y-82550250D01*
X161432968Y-82545185D01*
X161387905Y-82516224D01*
X161319608Y-82447927D01*
X161309611Y-82443265D01*
X161222649Y-82402714D01*
X161222648Y-82402714D01*
X161213912Y-82398640D01*
X161165754Y-82392300D01*
X160922857Y-82392300D01*
X160854736Y-82372298D01*
X160833762Y-82355395D01*
X160328887Y-81850520D01*
X160294861Y-81788208D01*
X160292893Y-81776551D01*
X160292126Y-81770208D01*
X160303806Y-81700179D01*
X160351492Y-81647581D01*
X160420017Y-81629122D01*
X160420723Y-81629307D01*
X160497791Y-81630518D01*
X160565760Y-81631586D01*
X160565763Y-81631586D01*
X160573357Y-81631705D01*
X160722158Y-81597625D01*
X160858534Y-81529035D01*
X160864306Y-81524106D01*
X160864308Y-81524104D01*
X160968837Y-81434828D01*
X160968841Y-81434824D01*
X160974613Y-81429894D01*
X161063693Y-81305927D01*
X161120631Y-81164289D01*
X161142140Y-81013158D01*
X161142279Y-80999853D01*
X161141485Y-80993286D01*
X161130755Y-80904620D01*
X161123940Y-80848305D01*
X161069980Y-80705506D01*
X161065681Y-80699251D01*
X161065679Y-80699247D01*
X160987819Y-80585959D01*
X160987817Y-80585957D01*
X160983517Y-80579700D01*
X160869540Y-80478151D01*
X160862828Y-80474597D01*
X160862825Y-80474595D01*
X160741345Y-80410274D01*
X160741342Y-80410273D01*
X160734630Y-80406719D01*
X160727264Y-80404869D01*
X160727262Y-80404868D01*
X160593946Y-80371382D01*
X160593943Y-80371382D01*
X160586575Y-80369531D01*
X160578975Y-80369491D01*
X160578974Y-80369491D01*
X160570905Y-80369449D01*
X160546421Y-80369321D01*
X160503740Y-80359681D01*
X160503450Y-80360628D01*
X160494868Y-80358004D01*
X160486742Y-80354189D01*
X160477872Y-80352808D01*
X160473794Y-80351561D01*
X160460422Y-80348053D01*
X160456262Y-80347138D01*
X160447855Y-80343987D01*
X160401936Y-80340575D01*
X160391918Y-80339425D01*
X160378917Y-80337400D01*
X160363899Y-80337400D01*
X160354561Y-80337054D01*
X160341576Y-80336089D01*
X160306226Y-80333462D01*
X160297450Y-80335335D01*
X160288493Y-80335946D01*
X160288491Y-80335921D01*
X160274478Y-80337400D01*
X159320850Y-80337400D01*
X159309116Y-80336089D01*
X159309074Y-80336616D01*
X159300128Y-80335896D01*
X159291372Y-80333915D01*
X159240775Y-80337054D01*
X159239099Y-80337158D01*
X159231297Y-80337400D01*
X159215602Y-80337400D01*
X159205617Y-80338830D01*
X159195577Y-80339858D01*
X159158582Y-80342153D01*
X159158580Y-80342153D01*
X159149624Y-80342709D01*
X159141183Y-80345756D01*
X159137016Y-80346619D01*
X159123587Y-80349968D01*
X159119505Y-80351162D01*
X159110615Y-80352435D01*
X159073797Y-80369175D01*
X159068701Y-80371492D01*
X159059336Y-80375304D01*
X159016043Y-80390933D01*
X159008795Y-80396228D01*
X159005046Y-80398221D01*
X158993087Y-80405209D01*
X158989503Y-80407501D01*
X158981331Y-80411217D01*
X158946463Y-80441262D01*
X158938545Y-80447550D01*
X158927927Y-80455306D01*
X158917310Y-80465923D01*
X158910463Y-80472281D01*
X158873742Y-80503922D01*
X158868858Y-80511457D01*
X158862959Y-80518219D01*
X158862940Y-80518202D01*
X158854076Y-80529157D01*
X158641039Y-80742194D01*
X158578727Y-80776220D01*
X158507912Y-80771155D01*
X158451076Y-80728608D01*
X158442825Y-80716099D01*
X158440810Y-80712609D01*
X158402952Y-80647037D01*
X158387509Y-80629885D01*
X158290531Y-80522180D01*
X158290530Y-80522179D01*
X158286109Y-80517269D01*
X158280767Y-80513388D01*
X158280765Y-80513386D01*
X158150180Y-80418511D01*
X158150179Y-80418510D01*
X158144838Y-80414630D01*
X158138810Y-80411946D01*
X158138808Y-80411945D01*
X157991345Y-80346290D01*
X157991343Y-80346289D01*
X157985314Y-80343605D01*
X157899912Y-80325453D01*
X157820967Y-80308672D01*
X157820963Y-80308672D01*
X157814510Y-80307300D01*
X157639890Y-80307300D01*
X157633437Y-80308672D01*
X157633433Y-80308672D01*
X157554488Y-80325453D01*
X157469086Y-80343605D01*
X157463057Y-80346289D01*
X157463055Y-80346290D01*
X157315592Y-80411945D01*
X157315590Y-80411946D01*
X157309562Y-80414630D01*
X157304221Y-80418510D01*
X157304220Y-80418511D01*
X157173635Y-80513386D01*
X157173633Y-80513388D01*
X157168291Y-80517269D01*
X157163870Y-80522179D01*
X157163869Y-80522180D01*
X157066892Y-80629885D01*
X157051448Y-80647037D01*
X157048149Y-80652750D01*
X157048146Y-80652755D01*
X156969327Y-80789273D01*
X156964137Y-80798263D01*
X156910177Y-80964336D01*
X156909487Y-80970899D01*
X156909487Y-80970900D01*
X156904839Y-81015121D01*
X156891924Y-81138000D01*
X107565700Y-81138000D01*
X107565700Y-80711754D01*
X153966300Y-80711754D01*
X153972640Y-80759912D01*
X153976714Y-80768648D01*
X153976714Y-80768649D01*
X154012749Y-80845925D01*
X154021927Y-80865608D01*
X154104392Y-80948073D01*
X154114384Y-80952732D01*
X154114385Y-80952733D01*
X154201351Y-80993286D01*
X154210088Y-80997360D01*
X154258246Y-81003700D01*
X156135754Y-81003700D01*
X156183912Y-80997360D01*
X156192649Y-80993286D01*
X156279615Y-80952733D01*
X156279616Y-80952732D01*
X156289608Y-80948073D01*
X156372073Y-80865608D01*
X156381252Y-80845925D01*
X156417286Y-80768649D01*
X156417286Y-80768648D01*
X156421360Y-80759912D01*
X156427700Y-80711754D01*
X156427700Y-75584246D01*
X156421360Y-75536088D01*
X156372073Y-75430392D01*
X156289608Y-75347927D01*
X156255243Y-75331902D01*
X156192649Y-75302714D01*
X156192648Y-75302714D01*
X156183912Y-75298640D01*
X156135754Y-75292300D01*
X154258246Y-75292300D01*
X154210088Y-75298640D01*
X154201352Y-75302714D01*
X154201351Y-75302714D01*
X154138758Y-75331902D01*
X154104392Y-75347927D01*
X154021927Y-75430392D01*
X153972640Y-75536088D01*
X153966300Y-75584246D01*
X153966300Y-80711754D01*
X107565700Y-80711754D01*
X107565700Y-72496075D01*
X107585702Y-72427954D01*
X107639358Y-72381461D01*
X107691700Y-72370075D01*
X148921254Y-72370075D01*
X148989375Y-72390077D01*
G37*
%TD.AperFunction*%
%TD*%
M02*
