%TF.GenerationSoftware,KiCad,Pcbnew,(6.0.10)*%
%TF.CreationDate,2023-02-27T01:31:51-05:00*%
%TF.ProjectId,vehicle side connector,76656869-636c-4652-9073-69646520636f,rev?*%
%TF.SameCoordinates,Original*%
%TF.FileFunction,Legend,Top*%
%TF.FilePolarity,Positive*%
%FSLAX46Y46*%
G04 Gerber Fmt 4.6, Leading zero omitted, Abs format (unit mm)*
G04 Created by KiCad (PCBNEW (6.0.10)) date 2023-02-27 01:31:51*
%MOMM*%
%LPD*%
G01*
G04 APERTURE LIST*
%ADD10C,0.300000*%
%ADD11C,0.150000*%
%ADD12C,0.120000*%
G04 APERTURE END LIST*
D10*
X128578095Y-106992857D02*
X130101904Y-106992857D01*
X129340000Y-107754761D02*
X129340000Y-106230952D01*
X140578095Y-106992857D02*
X142101904Y-106992857D01*
X141340000Y-107754761D02*
X141340000Y-106230952D01*
D11*
X118756190Y-107068571D02*
X118899047Y-107116190D01*
X118946666Y-107163809D01*
X118994285Y-107259047D01*
X118994285Y-107401904D01*
X118946666Y-107497142D01*
X118899047Y-107544761D01*
X118803809Y-107592380D01*
X118422857Y-107592380D01*
X118422857Y-106592380D01*
X118756190Y-106592380D01*
X118851428Y-106640000D01*
X118899047Y-106687619D01*
X118946666Y-106782857D01*
X118946666Y-106878095D01*
X118899047Y-106973333D01*
X118851428Y-107020952D01*
X118756190Y-107068571D01*
X118422857Y-107068571D01*
X119851428Y-107592380D02*
X119851428Y-107068571D01*
X119803809Y-106973333D01*
X119708571Y-106925714D01*
X119518095Y-106925714D01*
X119422857Y-106973333D01*
X119851428Y-107544761D02*
X119756190Y-107592380D01*
X119518095Y-107592380D01*
X119422857Y-107544761D01*
X119375238Y-107449523D01*
X119375238Y-107354285D01*
X119422857Y-107259047D01*
X119518095Y-107211428D01*
X119756190Y-107211428D01*
X119851428Y-107163809D01*
X120184761Y-106925714D02*
X120565714Y-106925714D01*
X120327619Y-106592380D02*
X120327619Y-107449523D01*
X120375238Y-107544761D01*
X120470476Y-107592380D01*
X120565714Y-107592380D01*
X120756190Y-106925714D02*
X121137142Y-106925714D01*
X120899047Y-106592380D02*
X120899047Y-107449523D01*
X120946666Y-107544761D01*
X121041904Y-107592380D01*
X121137142Y-107592380D01*
X122232380Y-107592380D02*
X122232380Y-106592380D01*
X122470476Y-106592380D01*
X122613333Y-106640000D01*
X122708571Y-106735238D01*
X122756190Y-106830476D01*
X122803809Y-107020952D01*
X122803809Y-107163809D01*
X122756190Y-107354285D01*
X122708571Y-107449523D01*
X122613333Y-107544761D01*
X122470476Y-107592380D01*
X122232380Y-107592380D01*
X123660952Y-107592380D02*
X123660952Y-107068571D01*
X123613333Y-106973333D01*
X123518095Y-106925714D01*
X123327619Y-106925714D01*
X123232380Y-106973333D01*
X123660952Y-107544761D02*
X123565714Y-107592380D01*
X123327619Y-107592380D01*
X123232380Y-107544761D01*
X123184761Y-107449523D01*
X123184761Y-107354285D01*
X123232380Y-107259047D01*
X123327619Y-107211428D01*
X123565714Y-107211428D01*
X123660952Y-107163809D01*
X123994285Y-106925714D02*
X124375238Y-106925714D01*
X124137142Y-106592380D02*
X124137142Y-107449523D01*
X124184761Y-107544761D01*
X124280000Y-107592380D01*
X124375238Y-107592380D01*
X125137142Y-107592380D02*
X125137142Y-107068571D01*
X125089523Y-106973333D01*
X124994285Y-106925714D01*
X124803809Y-106925714D01*
X124708571Y-106973333D01*
X125137142Y-107544761D02*
X125041904Y-107592380D01*
X124803809Y-107592380D01*
X124708571Y-107544761D01*
X124660952Y-107449523D01*
X124660952Y-107354285D01*
X124708571Y-107259047D01*
X124803809Y-107211428D01*
X125041904Y-107211428D01*
X125137142Y-107163809D01*
D10*
X164578095Y-106992857D02*
X166101904Y-106992857D01*
X165340000Y-107754761D02*
X165340000Y-106230952D01*
D11*
X172565714Y-107762380D02*
X172565714Y-106762380D01*
X172946666Y-106762380D01*
X173041904Y-106810000D01*
X173089523Y-106857619D01*
X173137142Y-106952857D01*
X173137142Y-107095714D01*
X173089523Y-107190952D01*
X173041904Y-107238571D01*
X172946666Y-107286190D01*
X172565714Y-107286190D01*
X173994285Y-107762380D02*
X173994285Y-107238571D01*
X173946666Y-107143333D01*
X173851428Y-107095714D01*
X173660952Y-107095714D01*
X173565714Y-107143333D01*
X173994285Y-107714761D02*
X173899047Y-107762380D01*
X173660952Y-107762380D01*
X173565714Y-107714761D01*
X173518095Y-107619523D01*
X173518095Y-107524285D01*
X173565714Y-107429047D01*
X173660952Y-107381428D01*
X173899047Y-107381428D01*
X173994285Y-107333809D01*
X174375238Y-107095714D02*
X174613333Y-107762380D01*
X174851428Y-107095714D02*
X174613333Y-107762380D01*
X174518095Y-108000476D01*
X174470476Y-108048095D01*
X174375238Y-108095714D01*
X175375238Y-107762380D02*
X175280000Y-107714761D01*
X175232380Y-107619523D01*
X175232380Y-106762380D01*
X175899047Y-107762380D02*
X175803809Y-107714761D01*
X175756190Y-107667142D01*
X175708571Y-107571904D01*
X175708571Y-107286190D01*
X175756190Y-107190952D01*
X175803809Y-107143333D01*
X175899047Y-107095714D01*
X176041904Y-107095714D01*
X176137142Y-107143333D01*
X176184761Y-107190952D01*
X176232380Y-107286190D01*
X176232380Y-107571904D01*
X176184761Y-107667142D01*
X176137142Y-107714761D01*
X176041904Y-107762380D01*
X175899047Y-107762380D01*
X177089523Y-107762380D02*
X177089523Y-107238571D01*
X177041904Y-107143333D01*
X176946666Y-107095714D01*
X176756190Y-107095714D01*
X176660952Y-107143333D01*
X177089523Y-107714761D02*
X176994285Y-107762380D01*
X176756190Y-107762380D01*
X176660952Y-107714761D01*
X176613333Y-107619523D01*
X176613333Y-107524285D01*
X176660952Y-107429047D01*
X176756190Y-107381428D01*
X176994285Y-107381428D01*
X177089523Y-107333809D01*
X177994285Y-107762380D02*
X177994285Y-106762380D01*
X177994285Y-107714761D02*
X177899047Y-107762380D01*
X177708571Y-107762380D01*
X177613333Y-107714761D01*
X177565714Y-107667142D01*
X177518095Y-107571904D01*
X177518095Y-107286190D01*
X177565714Y-107190952D01*
X177613333Y-107143333D01*
X177708571Y-107095714D01*
X177899047Y-107095714D01*
X177994285Y-107143333D01*
D10*
X152578095Y-106992857D02*
X154101904Y-106992857D01*
X153340000Y-107754761D02*
X153340000Y-106230952D01*
D12*
%TO.C,R1*%
X114406936Y-104291000D02*
X115861064Y-104291000D01*
X114406936Y-106111000D02*
X115861064Y-106111000D01*
%TO.C,R2*%
X118150000Y-95692936D02*
X118150000Y-100047064D01*
X114730000Y-95692936D02*
X114730000Y-100047064D01*
%TD*%
M02*
