%TF.GenerationSoftware,KiCad,Pcbnew,(6.0.10)*%
%TF.CreationDate,2023-02-27T01:31:51-05:00*%
%TF.ProjectId,vehicle side connector,76656869-636c-4652-9073-69646520636f,rev?*%
%TF.SameCoordinates,Original*%
%TF.FileFunction,Copper,L2,Inr*%
%TF.FilePolarity,Positive*%
%FSLAX46Y46*%
G04 Gerber Fmt 4.6, Leading zero omitted, Abs format (unit mm)*
G04 Created by KiCad (PCBNEW (6.0.10)) date 2023-02-27 01:31:51*
%MOMM*%
%LPD*%
G01*
G04 APERTURE LIST*
G04 Aperture macros list*
%AMRoundRect*
0 Rectangle with rounded corners*
0 $1 Rounding radius*
0 $2 $3 $4 $5 $6 $7 $8 $9 X,Y pos of 4 corners*
0 Add a 4 corners polygon primitive as box body*
4,1,4,$2,$3,$4,$5,$6,$7,$8,$9,$2,$3,0*
0 Add four circle primitives for the rounded corners*
1,1,$1+$1,$2,$3*
1,1,$1+$1,$4,$5*
1,1,$1+$1,$6,$7*
1,1,$1+$1,$8,$9*
0 Add four rect primitives between the rounded corners*
20,1,$1+$1,$2,$3,$4,$5,0*
20,1,$1+$1,$4,$5,$6,$7,0*
20,1,$1+$1,$6,$7,$8,$9,0*
20,1,$1+$1,$8,$9,$2,$3,0*%
G04 Aperture macros list end*
%TA.AperFunction,ComponentPad*%
%ADD10RoundRect,2.250000X2.250000X2.250000X-2.250000X2.250000X-2.250000X-2.250000X2.250000X-2.250000X0*%
%TD*%
%TA.AperFunction,ComponentPad*%
%ADD11C,9.000000*%
%TD*%
%TA.AperFunction,ComponentPad*%
%ADD12RoundRect,1.500000X1.500000X1.500000X-1.500000X1.500000X-1.500000X-1.500000X1.500000X-1.500000X0*%
%TD*%
%TA.AperFunction,ComponentPad*%
%ADD13C,6.000000*%
%TD*%
%TA.AperFunction,ViaPad*%
%ADD14C,0.600000*%
%TD*%
%TA.AperFunction,ViaPad*%
%ADD15C,0.800000*%
%TD*%
%TA.AperFunction,ViaPad*%
%ADD16C,1.000000*%
%TD*%
%TA.AperFunction,Conductor*%
%ADD17C,0.076200*%
%TD*%
%TA.AperFunction,Conductor*%
%ADD18C,0.200000*%
%TD*%
G04 APERTURE END LIST*
D10*
%TO.N,GND*%
%TO.C,J6*%
X145284666Y-97670000D03*
D11*
%TO.N,/V_BATT+*%
X156184666Y-97670000D03*
%TD*%
D12*
%TO.N,GND*%
%TO.C,J5*%
X132647332Y-97670000D03*
D13*
%TO.N,/V_BATT+*%
X125447332Y-97670000D03*
%TD*%
D12*
%TO.N,GND*%
%TO.C,J7*%
X176022000Y-97670000D03*
D13*
%TO.N,/V_BATT+*%
X168822000Y-97670000D03*
%TD*%
D14*
%TO.N,/CAPTURE*%
X163980000Y-81060000D03*
D15*
%TO.N,/V_BATT+*%
X152973932Y-100014141D03*
X160014226Y-96426932D03*
X152405774Y-98899068D03*
X158561141Y-94426932D03*
X158561141Y-100899068D03*
X160014226Y-98899068D03*
X156210000Y-93663000D03*
X156210000Y-101663000D03*
X160210000Y-97663000D03*
X159446068Y-100014141D03*
X152405774Y-96426932D03*
X154973932Y-101467226D03*
X157446068Y-101467226D03*
X159446068Y-95311859D03*
X153858859Y-94426932D03*
X157446068Y-93858774D03*
X152973932Y-95311859D03*
X152210000Y-97663000D03*
X153858859Y-100899068D03*
X154973932Y-93858774D03*
D14*
%TO.N,GND*%
X113175600Y-100569000D03*
D16*
X114166200Y-102245400D03*
D14*
X112718400Y-74915000D03*
D15*
X149266068Y-97713141D03*
X141461842Y-98949209D03*
X141266068Y-97713141D03*
X145266068Y-101713141D03*
D14*
X191229800Y-94422200D03*
X193846000Y-72933800D03*
X167430000Y-79614000D03*
D16*
X187165800Y-103566200D03*
D14*
X187673800Y-97698800D03*
D15*
X141461842Y-96477073D03*
D16*
X179444200Y-106919000D03*
D14*
X171240000Y-78090000D03*
D15*
X147617209Y-100949209D03*
D14*
X190544000Y-108316000D03*
D15*
X144030000Y-93908915D03*
D14*
X152444000Y-81138000D03*
D15*
X146502136Y-93908915D03*
D14*
X111524600Y-98181400D03*
X113175600Y-79258400D03*
X174821400Y-81950800D03*
X185387800Y-99375200D03*
D15*
X142914927Y-94477073D03*
X142030000Y-95362000D03*
D14*
X172002000Y-80122000D03*
D15*
X144030000Y-101517367D03*
X142914927Y-100949209D03*
X148502136Y-100064282D03*
D14*
X110102200Y-100924600D03*
D15*
X149070294Y-96477073D03*
D14*
X151758200Y-78521800D03*
D15*
X142030000Y-100064282D03*
X146502136Y-101517367D03*
D14*
X111499200Y-78928200D03*
D15*
X149070294Y-98949209D03*
X147617209Y-94477073D03*
X148502136Y-95362000D03*
X145266068Y-93713141D03*
D14*
X189629600Y-95844600D03*
%TO.N,/GPS_PPS*%
X168547600Y-76439000D03*
X183952700Y-107566700D03*
X174923000Y-84617800D03*
%TO.N,/CAPTURE*%
X184448000Y-104480600D03*
%TO.N,/I2C_SCL*%
X115639400Y-107706400D03*
X184041600Y-106487200D03*
X161511800Y-76870800D03*
%TO.N,/I2C_SDA*%
X162680200Y-76743800D03*
X182212800Y-105801400D03*
X116833200Y-107655600D03*
D15*
%TO.N,/5V*%
X179114000Y-73264000D03*
X175558000Y-73264000D03*
X176701000Y-73264000D03*
X177844000Y-73264000D03*
D16*
%TO.N,/USB_VBUS*%
X192195000Y-75067400D03*
X157727200Y-81138000D03*
D14*
%TO.N,/TRIG*%
X185556791Y-108186609D03*
X162248400Y-81976200D03*
X171748000Y-81595200D03*
%TO.N,/UART_TX*%
X164057600Y-76775000D03*
X183152600Y-105776000D03*
%TO.N,/UART_RX*%
X165220200Y-76693000D03*
X181323800Y-106588800D03*
%TO.N,/S_BUS*%
X174059400Y-85506800D03*
X180993600Y-107630200D03*
X167738259Y-77075396D03*
D15*
%TO.N,/Detect_IN*%
X117773000Y-105395000D03*
D14*
%TO.N,/ETH_TX+*%
X169671500Y-81011000D03*
X188254900Y-104349514D03*
%TO.N,/ETH_TX-*%
X168490500Y-81011000D03*
X188816800Y-105090200D03*
%TO.N,/ETH_RX+*%
X166623500Y-81011000D03*
X191737200Y-105242600D03*
%TO.N,/ETH_RX-*%
X192372800Y-104175800D03*
X165442500Y-81011000D03*
%TO.N,/USB D+*%
X160506947Y-80999853D03*
X185939200Y-105813867D03*
%TO.N,/USB D-*%
X185667200Y-107173000D03*
X159671853Y-81894653D03*
D15*
%TO.N,/CAN+*%
X110524232Y-106420768D03*
D14*
X189655000Y-107604800D03*
X158403232Y-77699232D03*
%TO.N,/CAN-*%
X157580780Y-76922488D03*
D15*
X109695800Y-107503200D03*
D14*
X190398671Y-107035699D03*
%TD*%
D17*
%TO.N,/UART_RX*%
X183330400Y-106588800D02*
X181323800Y-106588800D01*
X183660600Y-106258600D02*
X183330400Y-106588800D01*
X183660600Y-105217200D02*
X183660600Y-106258600D01*
X183076400Y-104633000D02*
X183660600Y-105217200D01*
X183076400Y-84389200D02*
X183076400Y-104633000D01*
X182187400Y-83500200D02*
X183076400Y-84389200D01*
X173195800Y-83500200D02*
X182187400Y-83500200D01*
X171900400Y-84795600D02*
X173195800Y-83500200D01*
X164737600Y-84795600D02*
X171900400Y-84795600D01*
X163239000Y-83297000D02*
X164737600Y-84795600D01*
X164580000Y-79420000D02*
X163239000Y-80761000D01*
X164580000Y-79400000D02*
X164580000Y-79420000D01*
X164737600Y-78953600D02*
X164737600Y-79242400D01*
X165220200Y-78471000D02*
X164737600Y-78953600D01*
X165220200Y-76693000D02*
X165220200Y-78471000D01*
X164737600Y-79242400D02*
X164580000Y-79400000D01*
X163239000Y-80761000D02*
X163239000Y-83297000D01*
%TO.N,/CAPTURE*%
X170605000Y-81595200D02*
X164515200Y-81595200D01*
X172103600Y-81011000D02*
X171189200Y-81011000D01*
X164515200Y-81595200D02*
X163980000Y-81060000D01*
X171189200Y-81011000D02*
X170605000Y-81595200D01*
X173576800Y-82484200D02*
X172103600Y-81011000D01*
X182670000Y-82484200D02*
X173576800Y-82484200D01*
X184067000Y-83881200D02*
X182670000Y-82484200D01*
X184448000Y-104480600D02*
X184067000Y-104099600D01*
X184067000Y-104099600D02*
X184067000Y-83881200D01*
%TO.N,/UART_TX*%
X164057600Y-79208400D02*
X164057600Y-76775000D01*
X162781800Y-80484200D02*
X164057600Y-79208400D01*
X162781800Y-83500200D02*
X162781800Y-80484200D01*
X173602200Y-84033600D02*
X172560800Y-85075000D01*
X164356600Y-85075000D02*
X162781800Y-83500200D01*
X182060400Y-84033600D02*
X173602200Y-84033600D01*
X172560800Y-85075000D02*
X164356600Y-85075000D01*
X182568400Y-84541600D02*
X182060400Y-84033600D01*
X182568400Y-104517620D02*
X182568400Y-84541600D01*
X183152600Y-105101820D02*
X182568400Y-104517620D01*
X183152600Y-105776000D02*
X183152600Y-105101820D01*
%TO.N,/I2C_SCL*%
X110991200Y-102982000D02*
X113201000Y-105191800D01*
X110991200Y-76718400D02*
X110991200Y-102982000D01*
X113201000Y-105191800D02*
X114598000Y-105191800D01*
X161511800Y-76870800D02*
X161511800Y-78775800D01*
X114775800Y-105191800D02*
X115639400Y-106055400D01*
X147491000Y-79309200D02*
X143935000Y-75753200D01*
X115639400Y-106055400D02*
X115639400Y-107706400D01*
X114598000Y-105191800D02*
X114775800Y-105191800D01*
X160978400Y-79309200D02*
X149447941Y-79309200D01*
X143935000Y-75753200D02*
X111956400Y-75753200D01*
X111956400Y-75753200D02*
X110991200Y-76718400D01*
X161511800Y-78775800D02*
X160978400Y-79309200D01*
X149447941Y-79309200D02*
X147491000Y-79309200D01*
%TO.N,/I2C_SDA*%
X146983000Y-80071200D02*
X149573800Y-80071200D01*
X112743800Y-76667600D02*
X143579400Y-76667600D01*
X161943600Y-80071200D02*
X150310400Y-80071200D01*
X112007200Y-77404200D02*
X112743800Y-76667600D01*
X162680200Y-76743800D02*
X162680200Y-79334600D01*
X116833200Y-106055400D02*
X115055200Y-104277400D01*
X150310400Y-80071200D02*
X149573800Y-80071200D01*
X115055200Y-104277400D02*
X113632800Y-104277400D01*
X143579400Y-76667600D02*
X146983000Y-80071200D01*
X162045200Y-79969600D02*
X161943600Y-80071200D01*
X116833200Y-107655600D02*
X116833200Y-106055400D01*
X162680200Y-79334600D02*
X162045200Y-79969600D01*
X113632800Y-104277400D02*
X112007200Y-102651800D01*
X112007200Y-102651800D02*
X112007200Y-77404200D01*
%TO.N,/TRIG*%
X173145000Y-82992200D02*
X171748000Y-81595200D01*
X182416000Y-82992200D02*
X173145000Y-82992200D01*
X183559000Y-84135200D02*
X182416000Y-82992200D01*
X185410809Y-108186609D02*
X185006800Y-107782600D01*
X185006800Y-106004600D02*
X183559000Y-104556800D01*
X185556791Y-108186609D02*
X185410809Y-108186609D01*
X183559000Y-104556800D02*
X183559000Y-84135200D01*
X185006800Y-107782600D02*
X185006800Y-106004600D01*
%TO.N,/S_BUS*%
X175177000Y-85405200D02*
X174161000Y-85405200D01*
X174161000Y-85405200D02*
X174059400Y-85506800D01*
X180993600Y-107630200D02*
X180993600Y-107376200D01*
X180993600Y-107376200D02*
X180688800Y-107071400D01*
X182085800Y-85506800D02*
X181400000Y-84821000D01*
X180688800Y-107071400D02*
X180688800Y-105953800D01*
X181400000Y-84821000D02*
X175761200Y-84821000D01*
X182085800Y-104556800D02*
X182085800Y-85506800D01*
X175761200Y-84821000D02*
X175177000Y-85405200D01*
X180688800Y-105953800D02*
X182085800Y-104556800D01*
%TO.N,/ETH_TX+*%
X188359600Y-95101800D02*
X188359600Y-92615130D01*
X187769819Y-95401800D02*
X188059600Y-95401800D01*
X169309601Y-80649101D02*
X169671500Y-81011000D01*
X188359600Y-104244814D02*
X188359600Y-96301800D01*
X188359600Y-79784890D02*
X187883910Y-79309200D01*
X170039290Y-79309200D02*
X169309601Y-80038889D01*
X188359600Y-92615130D02*
X188359600Y-79784890D01*
X188254900Y-104349514D02*
X188359600Y-104244814D01*
X188059600Y-96001800D02*
X187769819Y-96001800D01*
X169309601Y-80038889D02*
X169309601Y-80649101D01*
X187883910Y-79309200D02*
X170039290Y-79309200D01*
X188059600Y-96001800D02*
G75*
G02*
X188359600Y-96301800I0J-300000D01*
G01*
X187469800Y-95701800D02*
G75*
G03*
X187769819Y-96001800I300000J0D01*
G01*
X187769819Y-95401819D02*
G75*
G03*
X187469819Y-95701800I-19J-299981D01*
G01*
X188359600Y-95101800D02*
G75*
G02*
X188059600Y-95401800I-300000J0D01*
G01*
%TO.N,/ETH_TX-*%
X169849910Y-78852000D02*
X168852399Y-79849511D01*
X188073290Y-78852000D02*
X169849910Y-78852000D01*
X168852399Y-79849511D02*
X168852399Y-80649101D01*
X168852399Y-80649101D02*
X168490500Y-81011000D01*
X188816800Y-79595510D02*
X188073290Y-78852000D01*
X188816800Y-105090200D02*
X188816800Y-79595510D01*
%TO.N,/ETH_RX+*%
X191890200Y-77194090D02*
X190449310Y-75753200D01*
X191737200Y-105242600D02*
X191737200Y-104269890D01*
X191890200Y-95737600D02*
X191890200Y-77194090D01*
X166261601Y-80649101D02*
X166623500Y-81011000D01*
X191890200Y-95787600D02*
X191890200Y-95737600D01*
X191737200Y-104269890D02*
X191128200Y-103660890D01*
X190449310Y-75753200D02*
X167169090Y-75753200D01*
X191190200Y-96087600D02*
X191590200Y-96087600D01*
X166261601Y-76660689D02*
X166261601Y-80649101D01*
X191590200Y-96687600D02*
X191190200Y-96687600D01*
X167169090Y-75753200D02*
X166261601Y-76660689D01*
X191128200Y-103660890D02*
X191128200Y-102607910D01*
X191890200Y-101845910D02*
X191890200Y-96987600D01*
X191128200Y-102607910D02*
X191890200Y-101845910D01*
X191190200Y-96087600D02*
G75*
G03*
X190890200Y-96387600I0J-300000D01*
G01*
X191590200Y-96687600D02*
G75*
G02*
X191890200Y-96987600I0J-300000D01*
G01*
X190890200Y-96387600D02*
G75*
G03*
X191190200Y-96687600I300000J0D01*
G01*
X191890200Y-95787600D02*
G75*
G02*
X191590200Y-96087600I-300000J0D01*
G01*
%TO.N,/ETH_RX-*%
X166979710Y-75296000D02*
X165804399Y-76471311D01*
X192372800Y-104175800D02*
X192289690Y-104175800D01*
X165804399Y-76471311D02*
X165804399Y-80649101D01*
X191585400Y-102797290D02*
X192347400Y-102035290D01*
X192347400Y-77004710D02*
X190638690Y-75296000D01*
X191585400Y-103471510D02*
X191585400Y-102797290D01*
X190638690Y-75296000D02*
X166979710Y-75296000D01*
X192347400Y-102035290D02*
X192347400Y-77004710D01*
X192289690Y-104175800D02*
X191585400Y-103471510D01*
X165804399Y-80649101D02*
X165442500Y-81011000D01*
D18*
%TO.N,/CAN+*%
X158403232Y-77699232D02*
X149195032Y-77699232D01*
X149195032Y-77699232D02*
X145238800Y-73743000D01*
X110099967Y-106420768D02*
X110524232Y-106420768D01*
X108854000Y-75008200D02*
X108854000Y-105174801D01*
X108854000Y-105174801D02*
X110099967Y-106420768D01*
X110119200Y-73743000D02*
X108854000Y-75008200D01*
X145238800Y-73743000D02*
X110119200Y-73743000D01*
%TO.N,/CAN-*%
X149054688Y-76922488D02*
X145425200Y-73293000D01*
X109932800Y-73293000D02*
X108404000Y-74821800D01*
X145425200Y-73293000D02*
X109932800Y-73293000D01*
X108404000Y-74821800D02*
X108404000Y-106211400D01*
X108404000Y-106211400D02*
X109695800Y-107503200D01*
X157580780Y-76922488D02*
X149054688Y-76922488D01*
%TD*%
%TA.AperFunction,Conductor*%
%TO.N,/V_BATT+*%
G36*
X142053386Y-78872002D02*
G01*
X142064720Y-78880210D01*
X146079939Y-82142576D01*
X146079940Y-82142577D01*
X146094000Y-82154000D01*
X154688868Y-82154000D01*
X154756989Y-82174002D01*
X154763210Y-82178269D01*
X161334000Y-86980000D01*
X173634160Y-86980000D01*
X173702281Y-87000002D01*
X173748774Y-87053658D01*
X173758878Y-87123932D01*
X173744574Y-87166701D01*
X173626055Y-87382285D01*
X173626050Y-87382295D01*
X173624141Y-87385768D01*
X173507158Y-87681235D01*
X173506175Y-87685065D01*
X173506172Y-87685073D01*
X173456450Y-87878730D01*
X173428129Y-87989033D01*
X173388300Y-88304309D01*
X173388300Y-88622091D01*
X173388797Y-88626022D01*
X173427351Y-88931206D01*
X173428129Y-88937367D01*
X173429115Y-88941206D01*
X173506172Y-89241327D01*
X173506175Y-89241335D01*
X173507158Y-89245165D01*
X173624141Y-89540632D01*
X173777234Y-89819106D01*
X173779565Y-89822314D01*
X173956757Y-90066197D01*
X173964022Y-90076197D01*
X174181558Y-90307850D01*
X174426414Y-90510412D01*
X174429758Y-90512534D01*
X174678969Y-90670688D01*
X174694726Y-90680688D01*
X174698305Y-90682372D01*
X174698312Y-90682376D01*
X174978673Y-90814304D01*
X174978677Y-90814306D01*
X174982263Y-90815993D01*
X175284492Y-90914193D01*
X175596645Y-90973739D01*
X175691698Y-90979719D01*
X175832445Y-90988575D01*
X175832461Y-90988576D01*
X175834440Y-90988700D01*
X175993160Y-90988700D01*
X175995139Y-90988576D01*
X175995155Y-90988575D01*
X176135902Y-90979719D01*
X176230955Y-90973739D01*
X176543108Y-90914193D01*
X176845337Y-90815993D01*
X176848923Y-90814306D01*
X176848927Y-90814304D01*
X177129288Y-90682376D01*
X177129295Y-90682372D01*
X177132874Y-90680688D01*
X177148632Y-90670688D01*
X177397842Y-90512534D01*
X177401186Y-90510412D01*
X177646042Y-90307850D01*
X177863578Y-90076197D01*
X177870844Y-90066197D01*
X178048035Y-89822314D01*
X178050366Y-89819106D01*
X178203459Y-89540632D01*
X178320442Y-89245165D01*
X178321425Y-89241335D01*
X178321428Y-89241327D01*
X178398485Y-88941206D01*
X178399471Y-88937367D01*
X178400250Y-88931206D01*
X178438803Y-88626022D01*
X178439300Y-88622091D01*
X178439300Y-88304309D01*
X178399471Y-87989033D01*
X178371150Y-87878730D01*
X178321428Y-87685073D01*
X178321425Y-87685065D01*
X178320442Y-87681235D01*
X178203459Y-87385768D01*
X178201550Y-87382295D01*
X178201545Y-87382285D01*
X178083026Y-87166701D01*
X178067736Y-87097371D01*
X178092356Y-87030780D01*
X178149070Y-86988071D01*
X178193440Y-86980000D01*
X180004000Y-86980000D01*
X180072121Y-87000002D01*
X180118614Y-87053658D01*
X180130000Y-87106000D01*
X180130000Y-102928232D01*
X180109998Y-102996353D01*
X180091182Y-103019201D01*
X174070552Y-108788971D01*
X174007530Y-108821662D01*
X173983372Y-108824000D01*
X124801350Y-108824000D01*
X124733229Y-108803998D01*
X124723826Y-108797328D01*
X116558641Y-102424500D01*
X114392476Y-100733835D01*
X114351082Y-100676154D01*
X114344000Y-100634507D01*
X114344000Y-99254050D01*
X129392832Y-99254050D01*
X129400289Y-99378322D01*
X129450270Y-99634264D01*
X129537534Y-99880006D01*
X129660161Y-100110150D01*
X129696800Y-100159574D01*
X129793011Y-100289358D01*
X129815460Y-100319641D01*
X130000017Y-100503877D01*
X130209779Y-100658809D01*
X130440137Y-100781035D01*
X130444537Y-100782589D01*
X130444542Y-100782591D01*
X130563084Y-100824452D01*
X130686031Y-100867869D01*
X130942059Y-100917404D01*
X131063282Y-100924500D01*
X134231382Y-100924500D01*
X134355654Y-100917043D01*
X134359769Y-100916239D01*
X134359772Y-100916239D01*
X134607003Y-100867959D01*
X134607004Y-100867959D01*
X134611596Y-100867062D01*
X134616000Y-100865498D01*
X134616004Y-100865497D01*
X134709569Y-100832271D01*
X134857338Y-100779798D01*
X135087482Y-100657171D01*
X135214588Y-100562945D01*
X135293214Y-100504659D01*
X135293217Y-100504656D01*
X135296973Y-100501872D01*
X135481209Y-100317315D01*
X135636141Y-100107553D01*
X135758367Y-99877195D01*
X135845201Y-99631301D01*
X135894736Y-99375273D01*
X135901832Y-99254050D01*
X135901832Y-96085950D01*
X135894375Y-95961678D01*
X135844394Y-95705736D01*
X135757130Y-95459994D01*
X135679870Y-95314993D01*
X140530166Y-95314993D01*
X140530167Y-100025006D01*
X140530237Y-100026484D01*
X140530237Y-100026497D01*
X140534236Y-100111314D01*
X140536351Y-100156160D01*
X140536890Y-100159565D01*
X140536891Y-100159572D01*
X140562767Y-100322944D01*
X140585650Y-100467420D01*
X140586754Y-100471220D01*
X140646293Y-100676154D01*
X140673571Y-100770047D01*
X140675140Y-100773673D01*
X140675143Y-100773681D01*
X140740409Y-100924500D01*
X140798728Y-101059267D01*
X140800740Y-101062669D01*
X140800743Y-101062675D01*
X140839545Y-101128285D01*
X140959147Y-101330521D01*
X141152298Y-101579530D01*
X141375136Y-101802368D01*
X141624145Y-101995519D01*
X141627551Y-101997533D01*
X141627552Y-101997534D01*
X141891991Y-102153923D01*
X141891997Y-102153926D01*
X141895399Y-102155938D01*
X141899034Y-102157511D01*
X142180985Y-102279523D01*
X142180993Y-102279526D01*
X142184619Y-102281095D01*
X142188415Y-102282198D01*
X142188421Y-102282200D01*
X142482503Y-102367638D01*
X142487246Y-102369016D01*
X142491147Y-102369634D01*
X142491152Y-102369635D01*
X142661375Y-102396596D01*
X142798506Y-102418315D01*
X142819349Y-102419298D01*
X142928171Y-102424430D01*
X142928178Y-102424430D01*
X142929659Y-102424500D01*
X145283083Y-102424500D01*
X147639672Y-102424499D01*
X147641150Y-102424429D01*
X147641163Y-102424429D01*
X147767370Y-102418478D01*
X147767371Y-102418478D01*
X147770826Y-102418315D01*
X147774231Y-102417776D01*
X147774238Y-102417775D01*
X148078180Y-102369635D01*
X148078185Y-102369634D01*
X148082086Y-102369016D01*
X148086829Y-102367638D01*
X148380911Y-102282200D01*
X148380917Y-102282198D01*
X148384713Y-102281095D01*
X148388339Y-102279526D01*
X148388347Y-102279523D01*
X148670298Y-102157511D01*
X148673933Y-102155938D01*
X148677335Y-102153926D01*
X148677341Y-102153923D01*
X148941780Y-101997534D01*
X148941781Y-101997533D01*
X148945187Y-101995519D01*
X149194196Y-101802368D01*
X149417034Y-101579530D01*
X149610185Y-101330521D01*
X149729787Y-101128285D01*
X149768589Y-101062675D01*
X149768592Y-101062669D01*
X149770604Y-101059267D01*
X149828923Y-100924500D01*
X149894189Y-100773681D01*
X149894192Y-100773673D01*
X149895761Y-100770047D01*
X149923040Y-100676154D01*
X149982578Y-100471220D01*
X149983682Y-100467420D01*
X150032981Y-100156160D01*
X150036354Y-100084645D01*
X150039096Y-100026495D01*
X150039096Y-100026488D01*
X150039166Y-100025007D01*
X150039166Y-99254050D01*
X172767500Y-99254050D01*
X172774957Y-99378322D01*
X172824938Y-99634264D01*
X172912202Y-99880006D01*
X173034829Y-100110150D01*
X173071468Y-100159574D01*
X173167679Y-100289358D01*
X173190128Y-100319641D01*
X173374685Y-100503877D01*
X173584447Y-100658809D01*
X173814805Y-100781035D01*
X173819205Y-100782589D01*
X173819210Y-100782591D01*
X173937752Y-100824452D01*
X174060699Y-100867869D01*
X174316727Y-100917404D01*
X174437950Y-100924500D01*
X177606050Y-100924500D01*
X177730322Y-100917043D01*
X177734437Y-100916239D01*
X177734440Y-100916239D01*
X177981671Y-100867959D01*
X177981672Y-100867959D01*
X177986264Y-100867062D01*
X177990668Y-100865498D01*
X177990672Y-100865497D01*
X178084237Y-100832271D01*
X178232006Y-100779798D01*
X178462150Y-100657171D01*
X178589256Y-100562945D01*
X178667882Y-100504659D01*
X178667885Y-100504656D01*
X178671641Y-100501872D01*
X178855877Y-100317315D01*
X179010809Y-100107553D01*
X179133035Y-99877195D01*
X179219869Y-99631301D01*
X179269404Y-99375273D01*
X179276500Y-99254050D01*
X179276500Y-96085950D01*
X179269043Y-95961678D01*
X179219062Y-95705736D01*
X179131798Y-95459994D01*
X179009171Y-95229850D01*
X178853872Y-95020359D01*
X178669315Y-94836123D01*
X178459553Y-94681191D01*
X178229195Y-94558965D01*
X178224795Y-94557411D01*
X178224790Y-94557409D01*
X178106248Y-94515548D01*
X177983301Y-94472131D01*
X177727273Y-94422596D01*
X177606050Y-94415500D01*
X174437950Y-94415500D01*
X174313678Y-94422957D01*
X174309563Y-94423761D01*
X174309560Y-94423761D01*
X174062329Y-94472041D01*
X174057736Y-94472938D01*
X174053332Y-94474502D01*
X174053328Y-94474503D01*
X173959763Y-94507729D01*
X173811994Y-94560202D01*
X173581850Y-94682829D01*
X173454744Y-94777055D01*
X173376118Y-94835341D01*
X173376115Y-94835344D01*
X173372359Y-94838128D01*
X173188123Y-95022685D01*
X173033191Y-95232447D01*
X172910965Y-95462805D01*
X172824131Y-95708699D01*
X172774596Y-95964727D01*
X172767500Y-96085950D01*
X172767500Y-99254050D01*
X150039166Y-99254050D01*
X150039165Y-95314994D01*
X150035151Y-95229850D01*
X150033144Y-95187296D01*
X150033144Y-95187295D01*
X150032981Y-95183840D01*
X150032441Y-95180426D01*
X149984301Y-94876486D01*
X149984300Y-94876481D01*
X149983682Y-94872580D01*
X149928886Y-94683969D01*
X149896866Y-94573755D01*
X149896864Y-94573749D01*
X149895761Y-94569953D01*
X149894192Y-94566327D01*
X149894189Y-94566319D01*
X149772177Y-94284368D01*
X149770604Y-94280733D01*
X149610185Y-94009479D01*
X149417034Y-93760470D01*
X149194196Y-93537632D01*
X148945187Y-93344481D01*
X148941780Y-93342466D01*
X148677341Y-93186077D01*
X148677335Y-93186074D01*
X148673933Y-93184062D01*
X148665911Y-93180590D01*
X148388347Y-93060477D01*
X148388339Y-93060474D01*
X148384713Y-93058905D01*
X148380917Y-93057802D01*
X148380911Y-93057800D01*
X148085886Y-92972088D01*
X148082086Y-92970984D01*
X148078185Y-92970366D01*
X148078180Y-92970365D01*
X147907957Y-92943404D01*
X147770826Y-92921685D01*
X147749983Y-92920702D01*
X147641161Y-92915570D01*
X147641154Y-92915570D01*
X147639673Y-92915500D01*
X145286249Y-92915500D01*
X142929660Y-92915501D01*
X142928182Y-92915571D01*
X142928169Y-92915571D01*
X142801962Y-92921522D01*
X142801961Y-92921522D01*
X142798506Y-92921685D01*
X142795101Y-92922224D01*
X142795094Y-92922225D01*
X142491152Y-92970365D01*
X142491147Y-92970366D01*
X142487246Y-92970984D01*
X142483446Y-92972088D01*
X142188421Y-93057800D01*
X142188415Y-93057802D01*
X142184619Y-93058905D01*
X142180993Y-93060474D01*
X142180985Y-93060477D01*
X141903421Y-93180590D01*
X141895399Y-93184062D01*
X141891997Y-93186074D01*
X141891991Y-93186077D01*
X141627552Y-93342466D01*
X141624145Y-93344481D01*
X141375136Y-93537632D01*
X141152298Y-93760470D01*
X140959147Y-94009479D01*
X140798728Y-94280733D01*
X140797155Y-94284368D01*
X140675143Y-94566319D01*
X140675140Y-94566327D01*
X140673571Y-94569953D01*
X140672468Y-94573749D01*
X140672466Y-94573755D01*
X140640446Y-94683969D01*
X140585650Y-94872580D01*
X140536351Y-95183840D01*
X140530166Y-95314993D01*
X135679870Y-95314993D01*
X135634503Y-95229850D01*
X135479204Y-95020359D01*
X135294647Y-94836123D01*
X135084885Y-94681191D01*
X134854527Y-94558965D01*
X134850127Y-94557411D01*
X134850122Y-94557409D01*
X134731580Y-94515548D01*
X134608633Y-94472131D01*
X134352605Y-94422596D01*
X134231382Y-94415500D01*
X131063282Y-94415500D01*
X130939010Y-94422957D01*
X130934895Y-94423761D01*
X130934892Y-94423761D01*
X130687661Y-94472041D01*
X130683068Y-94472938D01*
X130678664Y-94474502D01*
X130678660Y-94474503D01*
X130585095Y-94507729D01*
X130437326Y-94560202D01*
X130207182Y-94682829D01*
X130080076Y-94777055D01*
X130001450Y-94835341D01*
X130001447Y-94835344D01*
X129997691Y-94838128D01*
X129813455Y-95022685D01*
X129658523Y-95232447D01*
X129536297Y-95462805D01*
X129449463Y-95708699D01*
X129399928Y-95964727D01*
X129392832Y-96085950D01*
X129392832Y-99254050D01*
X114344000Y-99254050D01*
X114344000Y-88612091D01*
X123375900Y-88612091D01*
X123415729Y-88927367D01*
X123444050Y-89037670D01*
X123493772Y-89231327D01*
X123493775Y-89231335D01*
X123494758Y-89235165D01*
X123611741Y-89530632D01*
X123764834Y-89809106D01*
X123951622Y-90066197D01*
X124169158Y-90297850D01*
X124414014Y-90500412D01*
X124682326Y-90670688D01*
X124685905Y-90672372D01*
X124685912Y-90672376D01*
X124966273Y-90804304D01*
X124966277Y-90804306D01*
X124969863Y-90805993D01*
X124973635Y-90807219D01*
X124973636Y-90807219D01*
X125000640Y-90815993D01*
X125272092Y-90904193D01*
X125584245Y-90963739D01*
X125679298Y-90969719D01*
X125820045Y-90978575D01*
X125820061Y-90978576D01*
X125822040Y-90978700D01*
X125980760Y-90978700D01*
X125982739Y-90978576D01*
X125982755Y-90978575D01*
X126123502Y-90969719D01*
X126218555Y-90963739D01*
X126530708Y-90904193D01*
X126802160Y-90815993D01*
X126829164Y-90807219D01*
X126829165Y-90807219D01*
X126832937Y-90805993D01*
X126836523Y-90804306D01*
X126836527Y-90804304D01*
X127116888Y-90672376D01*
X127116895Y-90672372D01*
X127120474Y-90670688D01*
X127388786Y-90500412D01*
X127633642Y-90297850D01*
X127851178Y-90066197D01*
X128037966Y-89809106D01*
X128191059Y-89530632D01*
X128308042Y-89235165D01*
X128309025Y-89231335D01*
X128309028Y-89231327D01*
X128358750Y-89037670D01*
X128387071Y-88927367D01*
X128426900Y-88612091D01*
X128426900Y-88294309D01*
X128388831Y-87992965D01*
X128387568Y-87982965D01*
X128387567Y-87982961D01*
X128387071Y-87979033D01*
X128358750Y-87868730D01*
X128309028Y-87675073D01*
X128309025Y-87675065D01*
X128308042Y-87671235D01*
X128191059Y-87375768D01*
X128037966Y-87097294D01*
X127923101Y-86939197D01*
X127853506Y-86843407D01*
X127853505Y-86843405D01*
X127851178Y-86840203D01*
X127633642Y-86608550D01*
X127388786Y-86405988D01*
X127201877Y-86287372D01*
X127123821Y-86237836D01*
X127123820Y-86237836D01*
X127120474Y-86235712D01*
X127116895Y-86234028D01*
X127116888Y-86234024D01*
X126836527Y-86102096D01*
X126836523Y-86102094D01*
X126832937Y-86100407D01*
X126530708Y-86002207D01*
X126218555Y-85942661D01*
X126123502Y-85936681D01*
X125982755Y-85927825D01*
X125982739Y-85927824D01*
X125980760Y-85927700D01*
X125822040Y-85927700D01*
X125820061Y-85927824D01*
X125820045Y-85927825D01*
X125679298Y-85936681D01*
X125584245Y-85942661D01*
X125272092Y-86002207D01*
X124969863Y-86100407D01*
X124966277Y-86102094D01*
X124966273Y-86102096D01*
X124685912Y-86234024D01*
X124685905Y-86234028D01*
X124682326Y-86235712D01*
X124678980Y-86237836D01*
X124678979Y-86237836D01*
X124600923Y-86287372D01*
X124414014Y-86405988D01*
X124169158Y-86608550D01*
X123951622Y-86840203D01*
X123949295Y-86843405D01*
X123949294Y-86843407D01*
X123879699Y-86939197D01*
X123764834Y-87097294D01*
X123611741Y-87375768D01*
X123494758Y-87671235D01*
X123493775Y-87675065D01*
X123493772Y-87675073D01*
X123444050Y-87868730D01*
X123415729Y-87979033D01*
X123415233Y-87982961D01*
X123415232Y-87982965D01*
X123413969Y-87992965D01*
X123375900Y-88294309D01*
X123375900Y-88612091D01*
X114344000Y-88612091D01*
X114344000Y-78978000D01*
X114364002Y-78909879D01*
X114417658Y-78863386D01*
X114470000Y-78852000D01*
X141985265Y-78852000D01*
X142053386Y-78872002D01*
G37*
%TD.AperFunction*%
%TD*%
%TA.AperFunction,Conductor*%
%TO.N,GND*%
G36*
X149060931Y-72313877D02*
G01*
X149107424Y-72367533D01*
X149117528Y-72437807D01*
X149084660Y-72506128D01*
X148960822Y-72638003D01*
X148958495Y-72641205D01*
X148958494Y-72641207D01*
X148954551Y-72646634D01*
X148774034Y-72895094D01*
X148620941Y-73173568D01*
X148503958Y-73469035D01*
X148502975Y-73472865D01*
X148502972Y-73472873D01*
X148479750Y-73563319D01*
X148424929Y-73776833D01*
X148424433Y-73780761D01*
X148424432Y-73780765D01*
X148411780Y-73880916D01*
X148385100Y-74092109D01*
X148385100Y-74409891D01*
X148385597Y-74413822D01*
X148423294Y-74712222D01*
X148424929Y-74725167D01*
X148425915Y-74729006D01*
X148502972Y-75029127D01*
X148502975Y-75029135D01*
X148503958Y-75032965D01*
X148620941Y-75328432D01*
X148774034Y-75606906D01*
X148870499Y-75739678D01*
X148920856Y-75808988D01*
X148960822Y-75863997D01*
X149178358Y-76095650D01*
X149423214Y-76298212D01*
X149426558Y-76300334D01*
X149482133Y-76335603D01*
X149528932Y-76388992D01*
X149539437Y-76459207D01*
X149510313Y-76523955D01*
X149450807Y-76562679D01*
X149414619Y-76567988D01*
X149253717Y-76567988D01*
X149185596Y-76547986D01*
X149164622Y-76531083D01*
X145712118Y-73078580D01*
X145699613Y-73063098D01*
X145696677Y-73059871D01*
X145691025Y-73051118D01*
X145666762Y-73031991D01*
X145662767Y-73028441D01*
X145662683Y-73028540D01*
X145658720Y-73025182D01*
X145655044Y-73021506D01*
X145648269Y-73016664D01*
X145640548Y-73011146D01*
X145635805Y-73007585D01*
X145606525Y-72984503D01*
X145606521Y-72984501D01*
X145598343Y-72978054D01*
X145590275Y-72975221D01*
X145583315Y-72970247D01*
X145537614Y-72956580D01*
X145531965Y-72954744D01*
X145496428Y-72942264D01*
X145486992Y-72938950D01*
X145481796Y-72938500D01*
X145479091Y-72938500D01*
X145476835Y-72938403D01*
X145476359Y-72938260D01*
X145476361Y-72938214D01*
X145476162Y-72938201D01*
X145470245Y-72936432D01*
X145420611Y-72938382D01*
X145420076Y-72938403D01*
X145415130Y-72938500D01*
X109984057Y-72938500D01*
X109964263Y-72936394D01*
X109959910Y-72936189D01*
X109949730Y-72933997D01*
X109919060Y-72937627D01*
X109913717Y-72937942D01*
X109913728Y-72938072D01*
X109908548Y-72938500D01*
X109903349Y-72938500D01*
X109898225Y-72939353D01*
X109898212Y-72939354D01*
X109885759Y-72941427D01*
X109879884Y-72942264D01*
X109842871Y-72946645D01*
X109832530Y-72947869D01*
X109824822Y-72951570D01*
X109816383Y-72952975D01*
X109777315Y-72974055D01*
X109774415Y-72975620D01*
X109769124Y-72978316D01*
X109733283Y-72995526D01*
X109733280Y-72995528D01*
X109726143Y-72998955D01*
X109722150Y-73002311D01*
X109720224Y-73004237D01*
X109718574Y-73005750D01*
X109718138Y-73005986D01*
X109718106Y-73005951D01*
X109717955Y-73006084D01*
X109712520Y-73009017D01*
X109705451Y-73016664D01*
X109678443Y-73045881D01*
X109675014Y-73049447D01*
X108189580Y-74534882D01*
X108174098Y-74547387D01*
X108170871Y-74550323D01*
X108162118Y-74555975D01*
X108142991Y-74580238D01*
X108139441Y-74584233D01*
X108139540Y-74584317D01*
X108136182Y-74588280D01*
X108132506Y-74591956D01*
X108129483Y-74596185D01*
X108129483Y-74596186D01*
X108122146Y-74606452D01*
X108118585Y-74611195D01*
X108095503Y-74640475D01*
X108095501Y-74640479D01*
X108089054Y-74648657D01*
X108086221Y-74656725D01*
X108081247Y-74663685D01*
X108078263Y-74673663D01*
X108067580Y-74709386D01*
X108065744Y-74715035D01*
X108049950Y-74760008D01*
X108049500Y-74765204D01*
X108049500Y-74767909D01*
X108049403Y-74770165D01*
X108049260Y-74770641D01*
X108049214Y-74770639D01*
X108049201Y-74770838D01*
X108047432Y-74776755D01*
X108047841Y-74787159D01*
X108049403Y-74826924D01*
X108049500Y-74831870D01*
X108049500Y-106160143D01*
X108047394Y-106179937D01*
X108047189Y-106184290D01*
X108044997Y-106194470D01*
X108048627Y-106225137D01*
X108048942Y-106230483D01*
X108049072Y-106230472D01*
X108049500Y-106235652D01*
X108049500Y-106240851D01*
X108050353Y-106245975D01*
X108050354Y-106245988D01*
X108052427Y-106258441D01*
X108053264Y-106264316D01*
X108058869Y-106311670D01*
X108062570Y-106319378D01*
X108063975Y-106327817D01*
X108086629Y-106369801D01*
X108089310Y-106375064D01*
X108109955Y-106418058D01*
X108113311Y-106422050D01*
X108115258Y-106423997D01*
X108116748Y-106425622D01*
X108116981Y-106426054D01*
X108116945Y-106426087D01*
X108117084Y-106426245D01*
X108120017Y-106431680D01*
X108127664Y-106438749D01*
X108156868Y-106465745D01*
X108160434Y-106469173D01*
X108592248Y-106900986D01*
X109010162Y-107318900D01*
X109044187Y-107381213D01*
X109045989Y-107424440D01*
X109036529Y-107496296D01*
X109039501Y-107523214D01*
X109052217Y-107638388D01*
X109053913Y-107653753D01*
X109056523Y-107660884D01*
X109056523Y-107660886D01*
X109098266Y-107774954D01*
X109108353Y-107802519D01*
X109112589Y-107808822D01*
X109112589Y-107808823D01*
X109180569Y-107909987D01*
X109196708Y-107934005D01*
X109202327Y-107939118D01*
X109202328Y-107939119D01*
X109302978Y-108030703D01*
X109313876Y-108040619D01*
X109453093Y-108116208D01*
X109606322Y-108156407D01*
X109690277Y-108157726D01*
X109757119Y-108158776D01*
X109757122Y-108158776D01*
X109764716Y-108158895D01*
X109919132Y-108123529D01*
X109997475Y-108084127D01*
X110053872Y-108055763D01*
X110053875Y-108055761D01*
X110060655Y-108052351D01*
X110066426Y-108047422D01*
X110066429Y-108047420D01*
X110175336Y-107954404D01*
X110175336Y-107954403D01*
X110181114Y-107949469D01*
X110273555Y-107820824D01*
X110332642Y-107673841D01*
X110346922Y-107573503D01*
X110354381Y-107521091D01*
X110354381Y-107521088D01*
X110354962Y-107517007D01*
X110355107Y-107503200D01*
X110336076Y-107345933D01*
X110296809Y-107242017D01*
X110291441Y-107171225D01*
X110325198Y-107108768D01*
X110387364Y-107074476D01*
X110429968Y-107072719D01*
X110434754Y-107073975D01*
X110521544Y-107075338D01*
X110585551Y-107076344D01*
X110585554Y-107076344D01*
X110593148Y-107076463D01*
X110747564Y-107041097D01*
X110850546Y-106989303D01*
X110882304Y-106973331D01*
X110882307Y-106973329D01*
X110889087Y-106969919D01*
X110894858Y-106964990D01*
X110894861Y-106964988D01*
X111003768Y-106871972D01*
X111003768Y-106871971D01*
X111009546Y-106867037D01*
X111101987Y-106738392D01*
X111161074Y-106591409D01*
X111183394Y-106434575D01*
X111183483Y-106426087D01*
X111183496Y-106424902D01*
X111183496Y-106424896D01*
X111183539Y-106420768D01*
X111164508Y-106263501D01*
X111108512Y-106115314D01*
X111093526Y-106093509D01*
X111023087Y-105991019D01*
X111023086Y-105991017D01*
X111018785Y-105984760D01*
X110991699Y-105960627D01*
X110979920Y-105950133D01*
X110900507Y-105879379D01*
X110893121Y-105875468D01*
X110792241Y-105822055D01*
X110760506Y-105805252D01*
X110606865Y-105766660D01*
X110599266Y-105766620D01*
X110599265Y-105766620D01*
X110533413Y-105766275D01*
X110448453Y-105765830D01*
X110441073Y-105767602D01*
X110441071Y-105767602D01*
X110301795Y-105801039D01*
X110301792Y-105801040D01*
X110294416Y-105802811D01*
X110173304Y-105865322D01*
X110171041Y-105866490D01*
X110101334Y-105879959D01*
X110035410Y-105853604D01*
X110024156Y-105843619D01*
X109245405Y-105064868D01*
X109211379Y-105002556D01*
X109208500Y-104975773D01*
X109208500Y-76703859D01*
X110693887Y-76703859D01*
X110695456Y-76715388D01*
X110695456Y-76715389D01*
X110697449Y-76730032D01*
X110698600Y-76747023D01*
X110698600Y-102931149D01*
X110698422Y-102933574D01*
X110696725Y-102938516D01*
X110697161Y-102950138D01*
X110697161Y-102950141D01*
X110698511Y-102986081D01*
X110698600Y-102990809D01*
X110698600Y-103009211D01*
X110699466Y-103013860D01*
X110699675Y-103017092D01*
X110700815Y-103047441D01*
X110705408Y-103058131D01*
X110706647Y-103063628D01*
X110709338Y-103072484D01*
X110711361Y-103077726D01*
X110713490Y-103089160D01*
X110719593Y-103099061D01*
X110725958Y-103109387D01*
X110734466Y-103125766D01*
X110743843Y-103147592D01*
X110747752Y-103152351D01*
X110749946Y-103154545D01*
X110751996Y-103156806D01*
X110751794Y-103156989D01*
X110757684Y-103164439D01*
X110764580Y-103172045D01*
X110770686Y-103181950D01*
X110779947Y-103188992D01*
X110791714Y-103197940D01*
X110804542Y-103209141D01*
X112958139Y-105362737D01*
X112959732Y-105364583D01*
X112962027Y-105369277D01*
X112970555Y-105377188D01*
X112970556Y-105377189D01*
X112996947Y-105401670D01*
X113000352Y-105404950D01*
X113013342Y-105417940D01*
X113017237Y-105420612D01*
X113019657Y-105422738D01*
X113033407Y-105435492D01*
X113041940Y-105443407D01*
X113052749Y-105447719D01*
X113057502Y-105450724D01*
X113065672Y-105455086D01*
X113070809Y-105457363D01*
X113080403Y-105463944D01*
X113091722Y-105466630D01*
X113103517Y-105469429D01*
X113121110Y-105474992D01*
X113143183Y-105483799D01*
X113149312Y-105484400D01*
X113152391Y-105484400D01*
X113155463Y-105484550D01*
X113155450Y-105484821D01*
X113164875Y-105485924D01*
X113175137Y-105486426D01*
X113186459Y-105489113D01*
X113197988Y-105487544D01*
X113197989Y-105487544D01*
X113212632Y-105485551D01*
X113229623Y-105484400D01*
X114602411Y-105484400D01*
X114670532Y-105504402D01*
X114691506Y-105521305D01*
X115309895Y-106139694D01*
X115343921Y-106202006D01*
X115346800Y-106228789D01*
X115346800Y-107169851D01*
X115326798Y-107237972D01*
X115297504Y-107269813D01*
X115250476Y-107305899D01*
X115250472Y-107305903D01*
X115243926Y-107310926D01*
X115155045Y-107426758D01*
X115151886Y-107434384D01*
X115151885Y-107434386D01*
X115137866Y-107468232D01*
X115099172Y-107561646D01*
X115098095Y-107569830D01*
X115098094Y-107569832D01*
X115093491Y-107604800D01*
X115080115Y-107706400D01*
X115081193Y-107714588D01*
X115094767Y-107817692D01*
X115099172Y-107851154D01*
X115113801Y-107886471D01*
X115147242Y-107967203D01*
X115155045Y-107986042D01*
X115243926Y-108101874D01*
X115250476Y-108106900D01*
X115250479Y-108106903D01*
X115334671Y-108171506D01*
X115359757Y-108190755D01*
X115494646Y-108246628D01*
X115639400Y-108265685D01*
X115647588Y-108264607D01*
X115775966Y-108247706D01*
X115784154Y-108246628D01*
X115919043Y-108190755D01*
X115944129Y-108171506D01*
X116028321Y-108106903D01*
X116028324Y-108106900D01*
X116034874Y-108101874D01*
X116123755Y-107986042D01*
X116131558Y-107967203D01*
X116132814Y-107964172D01*
X116177363Y-107908892D01*
X116244727Y-107886471D01*
X116313518Y-107904030D01*
X116349185Y-107935687D01*
X116432695Y-108044519D01*
X116432699Y-108044523D01*
X116437726Y-108051074D01*
X116444276Y-108056100D01*
X116444279Y-108056103D01*
X116532150Y-108123529D01*
X116553557Y-108139955D01*
X116688446Y-108195828D01*
X116833200Y-108214885D01*
X116841388Y-108213807D01*
X116969766Y-108196906D01*
X116977954Y-108195828D01*
X117112843Y-108139955D01*
X117134250Y-108123529D01*
X117222121Y-108056103D01*
X117222124Y-108056100D01*
X117228674Y-108051074D01*
X117233917Y-108044242D01*
X117293030Y-107967203D01*
X117317555Y-107935242D01*
X117326108Y-107914595D01*
X117358492Y-107836412D01*
X117373428Y-107800354D01*
X117386210Y-107703268D01*
X117391407Y-107663788D01*
X117392485Y-107655600D01*
X117384363Y-107593906D01*
X117374506Y-107519032D01*
X117374505Y-107519030D01*
X117373428Y-107510846D01*
X117338413Y-107426313D01*
X117320715Y-107383586D01*
X117320714Y-107383584D01*
X117317555Y-107375958D01*
X117244313Y-107280507D01*
X117233697Y-107266672D01*
X117228674Y-107260126D01*
X117222128Y-107255103D01*
X117222125Y-107255100D01*
X117175096Y-107219013D01*
X117133229Y-107161675D01*
X117125800Y-107119051D01*
X117125800Y-106106252D01*
X117125978Y-106103826D01*
X117127675Y-106098884D01*
X117127006Y-106081042D01*
X117125889Y-106051308D01*
X117125800Y-106046581D01*
X117125800Y-106028189D01*
X117124934Y-106023544D01*
X117124725Y-106020313D01*
X117124360Y-106010591D01*
X117123586Y-105989960D01*
X117123943Y-105989947D01*
X117127916Y-105927886D01*
X117170037Y-105870734D01*
X117236370Y-105845428D01*
X117305855Y-105860001D01*
X117331096Y-105877842D01*
X117385460Y-105927309D01*
X117391076Y-105932419D01*
X117530293Y-106008008D01*
X117683522Y-106048207D01*
X117767477Y-106049526D01*
X117834319Y-106050576D01*
X117834322Y-106050576D01*
X117841916Y-106050695D01*
X117996332Y-106015329D01*
X118082195Y-105972145D01*
X118131072Y-105947563D01*
X118131075Y-105947561D01*
X118137855Y-105944151D01*
X118143626Y-105939222D01*
X118143629Y-105939220D01*
X118252536Y-105846204D01*
X118252536Y-105846203D01*
X118258314Y-105841269D01*
X118350755Y-105712624D01*
X118409842Y-105565641D01*
X118420733Y-105489113D01*
X118431581Y-105412891D01*
X118431581Y-105412888D01*
X118432162Y-105408807D01*
X118432307Y-105395000D01*
X118430556Y-105380526D01*
X118424991Y-105334540D01*
X118413276Y-105237733D01*
X118357280Y-105089546D01*
X118305581Y-105014323D01*
X118271855Y-104965251D01*
X118271854Y-104965249D01*
X118267553Y-104958992D01*
X118149275Y-104853611D01*
X118141889Y-104849700D01*
X118015988Y-104783039D01*
X118015989Y-104783039D01*
X118009274Y-104779484D01*
X117855633Y-104740892D01*
X117848034Y-104740852D01*
X117848033Y-104740852D01*
X117782181Y-104740507D01*
X117697221Y-104740062D01*
X117689841Y-104741834D01*
X117689839Y-104741834D01*
X117550563Y-104775271D01*
X117550560Y-104775272D01*
X117543184Y-104777043D01*
X117402414Y-104849700D01*
X117283039Y-104953838D01*
X117191950Y-105083444D01*
X117174709Y-105127665D01*
X117146570Y-105199839D01*
X117134406Y-105231037D01*
X117133414Y-105238570D01*
X117133414Y-105238571D01*
X117114726Y-105380526D01*
X117113729Y-105388096D01*
X117120733Y-105451536D01*
X117129263Y-105528793D01*
X117131113Y-105545553D01*
X117133723Y-105552684D01*
X117133723Y-105552686D01*
X117162362Y-105630946D01*
X117166988Y-105701792D01*
X117132578Y-105763892D01*
X117070056Y-105797531D01*
X116999273Y-105792028D01*
X116954941Y-105763342D01*
X115298059Y-104106460D01*
X115296467Y-104104616D01*
X115294173Y-104099923D01*
X115272801Y-104080097D01*
X115259267Y-104067543D01*
X115255862Y-104064263D01*
X115242858Y-104051259D01*
X115238958Y-104048584D01*
X115236533Y-104046454D01*
X115222791Y-104033706D01*
X115222788Y-104033704D01*
X115214260Y-104025793D01*
X115203455Y-104021482D01*
X115198711Y-104018483D01*
X115190528Y-104014114D01*
X115185393Y-104011839D01*
X115175797Y-104005256D01*
X115152682Y-103999771D01*
X115135090Y-103994208D01*
X115113017Y-103985401D01*
X115106888Y-103984800D01*
X115103809Y-103984800D01*
X115100737Y-103984650D01*
X115100750Y-103984379D01*
X115091325Y-103983276D01*
X115081063Y-103982774D01*
X115069741Y-103980087D01*
X115058212Y-103981656D01*
X115058211Y-103981656D01*
X115043568Y-103983649D01*
X115026577Y-103984800D01*
X113806189Y-103984800D01*
X113738068Y-103964798D01*
X113717094Y-103947895D01*
X112336705Y-102567506D01*
X112302679Y-102505194D01*
X112299800Y-102478411D01*
X112299800Y-77577589D01*
X112319802Y-77509468D01*
X112336705Y-77488494D01*
X112828094Y-76997105D01*
X112890406Y-76963079D01*
X112917189Y-76960200D01*
X143406011Y-76960200D01*
X143474132Y-76980202D01*
X143495106Y-76997105D01*
X146740141Y-80242140D01*
X146741733Y-80243984D01*
X146744027Y-80248677D01*
X146752556Y-80256589D01*
X146752557Y-80256590D01*
X146778933Y-80281057D01*
X146782338Y-80284337D01*
X146795341Y-80297340D01*
X146799241Y-80300015D01*
X146801658Y-80302137D01*
X146823940Y-80322807D01*
X146834742Y-80327117D01*
X146839483Y-80330114D01*
X146847672Y-80334486D01*
X146852807Y-80336761D01*
X146862403Y-80343344D01*
X146885517Y-80348829D01*
X146903110Y-80354392D01*
X146925183Y-80363199D01*
X146931312Y-80363800D01*
X146934391Y-80363800D01*
X146937463Y-80363950D01*
X146937450Y-80364221D01*
X146946875Y-80365324D01*
X146957137Y-80365826D01*
X146968459Y-80368513D01*
X146979987Y-80366944D01*
X146979988Y-80366944D01*
X146986698Y-80366031D01*
X146994631Y-80364951D01*
X147011622Y-80363800D01*
X157130598Y-80363800D01*
X157198719Y-80383802D01*
X157245212Y-80437458D01*
X157255316Y-80507732D01*
X157225822Y-80572312D01*
X157218760Y-80579819D01*
X157138805Y-80658117D01*
X157134994Y-80664031D01*
X157134992Y-80664033D01*
X157099549Y-80719030D01*
X157047109Y-80800400D01*
X157037758Y-80826091D01*
X156991625Y-80952840D01*
X156991624Y-80952845D01*
X156989215Y-80959463D01*
X156968000Y-81127399D01*
X156984518Y-81295862D01*
X157037948Y-81456479D01*
X157041597Y-81462504D01*
X157121961Y-81595200D01*
X157125635Y-81601267D01*
X157130526Y-81606332D01*
X157130527Y-81606333D01*
X157154262Y-81630911D01*
X157243221Y-81723031D01*
X157384860Y-81815717D01*
X157543515Y-81874720D01*
X157550496Y-81875651D01*
X157550498Y-81875652D01*
X157704318Y-81896176D01*
X157704322Y-81896176D01*
X157711299Y-81897107D01*
X157718310Y-81896469D01*
X157718314Y-81896469D01*
X157872852Y-81882405D01*
X157879873Y-81881766D01*
X158040859Y-81829458D01*
X158147076Y-81766140D01*
X158180204Y-81746392D01*
X158180206Y-81746391D01*
X158186256Y-81742784D01*
X158308838Y-81626052D01*
X158313334Y-81619285D01*
X158398610Y-81490935D01*
X158398611Y-81490933D01*
X158402511Y-81485063D01*
X158462620Y-81326824D01*
X158478341Y-81214965D01*
X158485627Y-81163123D01*
X158485627Y-81163118D01*
X158486178Y-81159200D01*
X158486474Y-81138000D01*
X158476807Y-81051812D01*
X158468391Y-80976780D01*
X158468390Y-80976777D01*
X158467606Y-80969784D01*
X158411938Y-80809929D01*
X158322238Y-80666379D01*
X158235054Y-80578584D01*
X158201247Y-80516153D01*
X158206559Y-80445356D01*
X158249304Y-80388669D01*
X158315910Y-80364090D01*
X158324460Y-80363800D01*
X160053817Y-80363800D01*
X160121938Y-80383802D01*
X160168431Y-80437458D01*
X160178535Y-80507732D01*
X160149041Y-80572312D01*
X160130522Y-80589762D01*
X160111473Y-80604379D01*
X160022592Y-80720211D01*
X160019433Y-80727837D01*
X160019432Y-80727839D01*
X159997919Y-80779776D01*
X159966719Y-80855099D01*
X159965642Y-80863283D01*
X159965641Y-80863285D01*
X159957723Y-80923432D01*
X159947662Y-80999853D01*
X159948740Y-81008041D01*
X159965377Y-81134411D01*
X159966719Y-81144607D01*
X159969878Y-81152233D01*
X159969879Y-81152236D01*
X159986308Y-81191900D01*
X159993897Y-81262490D01*
X159962118Y-81325977D01*
X159901060Y-81362204D01*
X159830108Y-81359670D01*
X159825236Y-81357853D01*
X159824236Y-81357585D01*
X159816607Y-81354425D01*
X159671853Y-81335368D01*
X159663665Y-81336446D01*
X159535285Y-81353347D01*
X159535283Y-81353348D01*
X159527099Y-81354425D01*
X159514437Y-81359670D01*
X159399839Y-81407138D01*
X159399837Y-81407139D01*
X159392211Y-81410298D01*
X159276379Y-81499179D01*
X159187498Y-81615011D01*
X159184339Y-81622637D01*
X159184338Y-81622639D01*
X159180912Y-81630911D01*
X159131625Y-81749899D01*
X159130548Y-81758083D01*
X159130547Y-81758085D01*
X159119426Y-81842557D01*
X159112568Y-81894653D01*
X159113646Y-81902841D01*
X159121542Y-81962815D01*
X159131625Y-82039407D01*
X159134784Y-82047033D01*
X159172282Y-82137560D01*
X159187498Y-82174295D01*
X159212264Y-82206571D01*
X159264268Y-82274343D01*
X159276379Y-82290127D01*
X159282929Y-82295153D01*
X159282932Y-82295156D01*
X159382652Y-82371674D01*
X159392210Y-82379008D01*
X159527099Y-82434881D01*
X159671853Y-82453938D01*
X159680041Y-82452860D01*
X159808419Y-82435959D01*
X159816607Y-82434881D01*
X159951496Y-82379008D01*
X159961054Y-82371674D01*
X160060774Y-82295156D01*
X160060777Y-82295153D01*
X160067327Y-82290127D01*
X160079439Y-82274343D01*
X160131442Y-82206571D01*
X160156208Y-82174295D01*
X160171425Y-82137560D01*
X160208922Y-82047033D01*
X160212081Y-82039407D01*
X160220403Y-81976200D01*
X161689115Y-81976200D01*
X161690193Y-81984388D01*
X161696359Y-82031221D01*
X161708172Y-82120954D01*
X161718410Y-82145670D01*
X161757693Y-82240506D01*
X161764045Y-82255842D01*
X161852926Y-82371674D01*
X161859476Y-82376700D01*
X161859479Y-82376703D01*
X161962204Y-82455527D01*
X161968757Y-82460555D01*
X162103646Y-82516428D01*
X162248400Y-82535485D01*
X162256588Y-82534407D01*
X162256589Y-82534407D01*
X162346754Y-82522537D01*
X162416903Y-82533477D01*
X162470001Y-82580605D01*
X162489200Y-82647459D01*
X162489200Y-83449349D01*
X162489022Y-83451774D01*
X162487325Y-83456716D01*
X162487761Y-83468338D01*
X162487761Y-83468341D01*
X162489111Y-83504281D01*
X162489200Y-83509009D01*
X162489200Y-83527411D01*
X162490066Y-83532060D01*
X162490275Y-83535292D01*
X162491415Y-83565641D01*
X162496008Y-83576331D01*
X162497247Y-83581828D01*
X162499938Y-83590684D01*
X162501961Y-83595926D01*
X162504090Y-83607360D01*
X162510193Y-83617261D01*
X162516558Y-83627587D01*
X162525066Y-83643966D01*
X162534443Y-83665792D01*
X162538352Y-83670551D01*
X162540546Y-83672745D01*
X162542596Y-83675006D01*
X162542394Y-83675189D01*
X162548284Y-83682639D01*
X162555180Y-83690245D01*
X162561286Y-83700150D01*
X162570547Y-83707192D01*
X162582314Y-83716140D01*
X162595142Y-83727341D01*
X164113741Y-85245940D01*
X164115333Y-85247784D01*
X164117627Y-85252477D01*
X164126156Y-85260389D01*
X164126157Y-85260390D01*
X164152533Y-85284857D01*
X164155938Y-85288137D01*
X164168942Y-85301141D01*
X164172842Y-85303816D01*
X164175267Y-85305946D01*
X164189010Y-85318695D01*
X164189013Y-85318697D01*
X164197540Y-85326607D01*
X164208343Y-85330917D01*
X164213093Y-85333920D01*
X164221283Y-85338293D01*
X164226411Y-85340565D01*
X164236003Y-85347145D01*
X164259121Y-85352631D01*
X164276717Y-85358196D01*
X164290521Y-85363703D01*
X164290522Y-85363703D01*
X164298783Y-85366999D01*
X164304912Y-85367600D01*
X164307991Y-85367600D01*
X164311063Y-85367750D01*
X164311050Y-85368021D01*
X164320485Y-85369125D01*
X164330738Y-85369626D01*
X164342059Y-85372313D01*
X164353588Y-85370744D01*
X164353589Y-85370744D01*
X164366116Y-85369039D01*
X164368233Y-85368751D01*
X164385223Y-85367600D01*
X172509949Y-85367600D01*
X172512374Y-85367778D01*
X172517316Y-85369475D01*
X172528938Y-85369039D01*
X172528941Y-85369039D01*
X172564881Y-85367689D01*
X172569609Y-85367600D01*
X172588011Y-85367600D01*
X172592660Y-85366734D01*
X172595892Y-85366525D01*
X172614612Y-85365822D01*
X172614613Y-85365822D01*
X172626241Y-85365385D01*
X172636931Y-85360792D01*
X172642428Y-85359553D01*
X172651284Y-85356862D01*
X172656526Y-85354839D01*
X172667960Y-85352710D01*
X172688187Y-85340242D01*
X172704566Y-85331734D01*
X172718223Y-85325867D01*
X172718225Y-85325866D01*
X172726392Y-85322357D01*
X172731151Y-85318448D01*
X172733345Y-85316254D01*
X172735606Y-85314204D01*
X172735789Y-85314406D01*
X172743239Y-85308516D01*
X172750845Y-85301620D01*
X172760750Y-85295514D01*
X172776740Y-85274486D01*
X172787941Y-85261658D01*
X173686494Y-84363105D01*
X173748806Y-84329079D01*
X173775589Y-84326200D01*
X174259029Y-84326200D01*
X174327150Y-84346202D01*
X174373643Y-84399858D01*
X174383747Y-84470132D01*
X174383519Y-84471242D01*
X174382772Y-84473046D01*
X174363715Y-84617800D01*
X174382772Y-84762554D01*
X174385932Y-84770183D01*
X174405365Y-84817099D01*
X174412954Y-84887688D01*
X174381175Y-84951175D01*
X174320117Y-84987403D01*
X174249166Y-84984869D01*
X174240737Y-84981725D01*
X174211787Y-84969733D01*
X174211780Y-84969731D01*
X174204154Y-84966572D01*
X174059400Y-84947515D01*
X174051212Y-84948593D01*
X173922832Y-84965494D01*
X173922830Y-84965495D01*
X173914646Y-84966572D01*
X173907019Y-84969731D01*
X173907020Y-84969731D01*
X173787386Y-85019285D01*
X173787384Y-85019286D01*
X173779758Y-85022445D01*
X173663926Y-85111326D01*
X173575045Y-85227158D01*
X173571886Y-85234784D01*
X173571885Y-85234786D01*
X173560754Y-85261658D01*
X173519172Y-85362046D01*
X173500115Y-85506800D01*
X173519172Y-85651554D01*
X173522331Y-85659180D01*
X173571885Y-85778812D01*
X173575045Y-85786442D01*
X173663926Y-85902274D01*
X173670476Y-85907300D01*
X173670479Y-85907303D01*
X173773204Y-85986127D01*
X173779757Y-85991155D01*
X173914646Y-86047028D01*
X174059400Y-86066085D01*
X174067588Y-86065007D01*
X174195966Y-86048106D01*
X174204154Y-86047028D01*
X174339043Y-85991155D01*
X174345596Y-85986127D01*
X174448321Y-85907303D01*
X174448324Y-85907300D01*
X174454874Y-85902274D01*
X174543755Y-85786442D01*
X174548252Y-85775585D01*
X174550109Y-85773280D01*
X174551044Y-85771661D01*
X174551296Y-85771807D01*
X174592798Y-85720303D01*
X174664662Y-85697800D01*
X175126149Y-85697800D01*
X175128574Y-85697978D01*
X175133516Y-85699675D01*
X175145138Y-85699239D01*
X175145141Y-85699239D01*
X175181081Y-85697889D01*
X175185809Y-85697800D01*
X175204211Y-85697800D01*
X175208860Y-85696934D01*
X175212092Y-85696725D01*
X175230812Y-85696022D01*
X175230813Y-85696022D01*
X175242441Y-85695585D01*
X175253131Y-85690992D01*
X175258628Y-85689753D01*
X175267484Y-85687062D01*
X175272726Y-85685039D01*
X175284160Y-85682910D01*
X175304387Y-85670442D01*
X175320766Y-85661934D01*
X175334423Y-85656067D01*
X175334425Y-85656066D01*
X175342592Y-85652557D01*
X175347351Y-85648648D01*
X175349545Y-85646454D01*
X175351806Y-85644404D01*
X175351989Y-85644606D01*
X175359439Y-85638716D01*
X175367045Y-85631820D01*
X175376950Y-85625714D01*
X175392940Y-85604686D01*
X175404141Y-85591858D01*
X175845494Y-85150505D01*
X175907806Y-85116479D01*
X175934589Y-85113600D01*
X181226611Y-85113600D01*
X181294732Y-85133602D01*
X181315706Y-85150505D01*
X181756295Y-85591094D01*
X181790321Y-85653406D01*
X181793200Y-85680189D01*
X181793200Y-104383411D01*
X181773198Y-104451532D01*
X181756295Y-104472506D01*
X180517860Y-105710941D01*
X180516016Y-105712533D01*
X180511323Y-105714827D01*
X180503411Y-105723356D01*
X180503410Y-105723357D01*
X180478943Y-105749733D01*
X180475663Y-105753138D01*
X180462659Y-105766142D01*
X180459984Y-105770042D01*
X180457854Y-105772467D01*
X180445106Y-105786209D01*
X180445104Y-105786212D01*
X180437193Y-105794740D01*
X180432882Y-105805545D01*
X180429883Y-105810289D01*
X180425514Y-105818472D01*
X180423239Y-105823607D01*
X180416656Y-105833203D01*
X180413755Y-105845428D01*
X180411171Y-105856317D01*
X180405608Y-105873910D01*
X180396801Y-105895983D01*
X180396200Y-105902112D01*
X180396200Y-105905191D01*
X180396050Y-105908263D01*
X180395779Y-105908250D01*
X180394676Y-105917675D01*
X180394174Y-105927937D01*
X180391487Y-105939259D01*
X180393056Y-105950788D01*
X180393056Y-105950789D01*
X180395049Y-105965432D01*
X180396200Y-105982423D01*
X180396200Y-107020549D01*
X180396022Y-107022974D01*
X180394325Y-107027916D01*
X180394761Y-107039538D01*
X180394761Y-107039541D01*
X180396111Y-107075481D01*
X180396200Y-107080209D01*
X180396200Y-107098611D01*
X180397066Y-107103260D01*
X180397275Y-107106492D01*
X180397361Y-107108768D01*
X180398415Y-107136841D01*
X180403008Y-107147531D01*
X180404247Y-107153028D01*
X180406938Y-107161884D01*
X180408961Y-107167126D01*
X180411090Y-107178560D01*
X180417193Y-107188461D01*
X180423558Y-107198787D01*
X180432066Y-107215166D01*
X180441443Y-107236992D01*
X180445352Y-107241751D01*
X180447546Y-107243945D01*
X180449596Y-107246206D01*
X180449394Y-107246389D01*
X180455283Y-107253838D01*
X180462181Y-107261446D01*
X180468286Y-107271350D01*
X180469190Y-107272037D01*
X180497156Y-107329797D01*
X180489282Y-107398751D01*
X180456533Y-107477813D01*
X180456532Y-107477818D01*
X180453372Y-107485446D01*
X180452295Y-107493630D01*
X180452294Y-107493632D01*
X180441876Y-107572767D01*
X180434315Y-107630200D01*
X180435393Y-107638388D01*
X180450632Y-107754139D01*
X180453372Y-107774954D01*
X180460502Y-107792168D01*
X180505339Y-107900411D01*
X180509245Y-107909842D01*
X180598126Y-108025674D01*
X180604676Y-108030700D01*
X180604679Y-108030703D01*
X180704017Y-108106928D01*
X180713957Y-108114555D01*
X180848846Y-108170428D01*
X180993600Y-108189485D01*
X181001788Y-108188407D01*
X181015446Y-108186609D01*
X181138354Y-108170428D01*
X181273243Y-108114555D01*
X181283183Y-108106928D01*
X181382521Y-108030703D01*
X181382524Y-108030700D01*
X181389074Y-108025674D01*
X181477955Y-107909842D01*
X181481862Y-107900411D01*
X181526698Y-107792168D01*
X181533828Y-107774954D01*
X181536569Y-107754139D01*
X181551807Y-107638388D01*
X181552885Y-107630200D01*
X181545324Y-107572767D01*
X181534906Y-107493632D01*
X181534905Y-107493630D01*
X181533828Y-107485446D01*
X181508634Y-107424622D01*
X181481115Y-107358186D01*
X181481114Y-107358184D01*
X181477955Y-107350558D01*
X181446662Y-107309776D01*
X181421062Y-107243555D01*
X181435327Y-107174007D01*
X181484928Y-107123211D01*
X181498406Y-107116663D01*
X181517466Y-107108768D01*
X181603443Y-107073155D01*
X181610512Y-107067731D01*
X181712721Y-106989303D01*
X181712724Y-106989300D01*
X181719274Y-106984274D01*
X181724300Y-106977724D01*
X181724305Y-106977719D01*
X181760387Y-106930696D01*
X181817725Y-106888829D01*
X181860349Y-106881400D01*
X183279549Y-106881400D01*
X183281974Y-106881578D01*
X183286916Y-106883275D01*
X183298538Y-106882839D01*
X183298541Y-106882839D01*
X183334481Y-106881489D01*
X183339209Y-106881400D01*
X183357611Y-106881400D01*
X183362260Y-106880534D01*
X183365492Y-106880325D01*
X183384212Y-106879622D01*
X183384213Y-106879622D01*
X183395841Y-106879185D01*
X183406531Y-106874592D01*
X183412028Y-106873353D01*
X183420884Y-106870662D01*
X183426126Y-106868639D01*
X183437560Y-106866510D01*
X183457787Y-106854042D01*
X183474164Y-106845535D01*
X183483973Y-106841321D01*
X183492017Y-106837865D01*
X183562501Y-106829352D01*
X183626398Y-106860297D01*
X183639534Y-106874558D01*
X183641099Y-106876123D01*
X183646126Y-106882674D01*
X183659430Y-106892883D01*
X183701294Y-106950221D01*
X183705514Y-107021092D01*
X183670749Y-107082994D01*
X183659426Y-107092804D01*
X183563776Y-107166199D01*
X183563772Y-107166203D01*
X183557226Y-107171226D01*
X183468345Y-107287058D01*
X183465186Y-107294684D01*
X183465185Y-107294686D01*
X183436956Y-107362837D01*
X183412472Y-107421946D01*
X183411395Y-107430130D01*
X183411394Y-107430132D01*
X183399556Y-107520054D01*
X183393415Y-107566700D01*
X183394493Y-107574888D01*
X183411251Y-107702177D01*
X183412472Y-107711454D01*
X183415631Y-107719080D01*
X183464232Y-107836412D01*
X183468345Y-107846342D01*
X183485113Y-107868194D01*
X183550780Y-107953773D01*
X183557226Y-107962174D01*
X183563776Y-107967200D01*
X183563779Y-107967203D01*
X183661067Y-108041855D01*
X183673057Y-108051055D01*
X183807946Y-108106928D01*
X183816134Y-108108006D01*
X183878435Y-108116208D01*
X183952700Y-108125985D01*
X183960888Y-108124907D01*
X184089266Y-108108006D01*
X184097454Y-108106928D01*
X184232343Y-108051055D01*
X184244333Y-108041855D01*
X184341621Y-107967203D01*
X184341624Y-107967200D01*
X184348174Y-107962174D01*
X184354621Y-107953773D01*
X184420287Y-107868194D01*
X184437055Y-107846342D01*
X184450016Y-107815053D01*
X184471858Y-107762321D01*
X184516406Y-107707040D01*
X184583770Y-107684619D01*
X184652561Y-107702177D01*
X184700939Y-107754139D01*
X184713733Y-107798956D01*
X184714200Y-107804015D01*
X184714200Y-107809811D01*
X184715065Y-107814456D01*
X184715275Y-107817692D01*
X184715625Y-107826998D01*
X184716415Y-107848041D01*
X184721008Y-107858731D01*
X184722247Y-107864228D01*
X184724938Y-107873084D01*
X184726961Y-107878326D01*
X184729090Y-107889760D01*
X184735193Y-107899661D01*
X184741558Y-107909987D01*
X184750066Y-107926366D01*
X184754071Y-107935687D01*
X184759443Y-107948192D01*
X184763352Y-107952951D01*
X184765546Y-107955145D01*
X184767596Y-107957406D01*
X184767394Y-107957589D01*
X184773284Y-107965039D01*
X184780180Y-107972645D01*
X184786286Y-107982550D01*
X184795547Y-107989592D01*
X184807314Y-107998540D01*
X184820142Y-108009741D01*
X184967337Y-108156936D01*
X185001363Y-108219248D01*
X185003163Y-108229578D01*
X185016563Y-108331363D01*
X185072436Y-108466251D01*
X185161317Y-108582083D01*
X185167867Y-108587109D01*
X185167870Y-108587112D01*
X185270595Y-108665936D01*
X185277148Y-108670964D01*
X185412037Y-108726837D01*
X185556791Y-108745894D01*
X185564979Y-108744816D01*
X185693357Y-108727915D01*
X185701545Y-108726837D01*
X185836434Y-108670964D01*
X185842987Y-108665936D01*
X185945712Y-108587112D01*
X185945715Y-108587109D01*
X185952265Y-108582083D01*
X186041146Y-108466251D01*
X186097019Y-108331363D01*
X186105808Y-108264607D01*
X186114998Y-108194797D01*
X186116076Y-108186609D01*
X186107953Y-108124907D01*
X186098097Y-108050041D01*
X186098096Y-108050039D01*
X186097019Y-108041855D01*
X186065257Y-107965175D01*
X186044306Y-107914595D01*
X186044305Y-107914593D01*
X186041146Y-107906967D01*
X186036118Y-107900414D01*
X186036116Y-107900411D01*
X185962349Y-107804276D01*
X185936748Y-107738056D01*
X185951013Y-107668507D01*
X185985607Y-107627610D01*
X185992903Y-107622012D01*
X186004663Y-107612988D01*
X186015334Y-107604800D01*
X189095715Y-107604800D01*
X189096793Y-107612988D01*
X189110169Y-107714588D01*
X189114772Y-107749554D01*
X189117931Y-107757180D01*
X189163915Y-107868194D01*
X189170645Y-107884442D01*
X189193782Y-107914595D01*
X189232594Y-107965175D01*
X189259526Y-108000274D01*
X189266076Y-108005300D01*
X189266079Y-108005303D01*
X189332283Y-108056103D01*
X189375357Y-108089155D01*
X189510246Y-108145028D01*
X189655000Y-108164085D01*
X189663188Y-108163007D01*
X189791566Y-108146106D01*
X189799754Y-108145028D01*
X189934643Y-108089155D01*
X189977717Y-108056103D01*
X190043921Y-108005303D01*
X190043924Y-108005300D01*
X190050474Y-108000274D01*
X190077407Y-107965175D01*
X190116218Y-107914595D01*
X190139355Y-107884442D01*
X190146086Y-107868194D01*
X190192069Y-107757180D01*
X190195228Y-107749554D01*
X190202251Y-107696212D01*
X190230972Y-107631286D01*
X190290236Y-107592193D01*
X190343617Y-107587736D01*
X190398671Y-107594984D01*
X190406859Y-107593906D01*
X190535237Y-107577005D01*
X190543425Y-107575927D01*
X190678314Y-107520054D01*
X190694891Y-107507334D01*
X190787592Y-107436202D01*
X190787595Y-107436199D01*
X190794145Y-107431173D01*
X190883026Y-107315341D01*
X190892486Y-107292504D01*
X190935740Y-107188079D01*
X190938899Y-107180453D01*
X190941458Y-107161021D01*
X190954830Y-107059444D01*
X190957956Y-107035699D01*
X190949511Y-106971555D01*
X190939977Y-106899131D01*
X190939976Y-106899129D01*
X190938899Y-106890945D01*
X190913386Y-106829352D01*
X190886186Y-106763685D01*
X190886185Y-106763683D01*
X190883026Y-106756057D01*
X190809769Y-106660586D01*
X190799172Y-106646776D01*
X190799171Y-106646775D01*
X190794145Y-106640225D01*
X190787595Y-106635199D01*
X190787592Y-106635196D01*
X190684867Y-106556372D01*
X190684865Y-106556371D01*
X190678314Y-106551344D01*
X190543425Y-106495471D01*
X190398671Y-106476414D01*
X190390483Y-106477492D01*
X190262103Y-106494393D01*
X190262101Y-106494394D01*
X190253917Y-106495471D01*
X190206101Y-106515277D01*
X190126657Y-106548184D01*
X190126655Y-106548185D01*
X190119029Y-106551344D01*
X190003197Y-106640225D01*
X189914316Y-106756057D01*
X189911157Y-106763683D01*
X189911156Y-106763685D01*
X189883956Y-106829352D01*
X189858443Y-106890945D01*
X189857366Y-106899129D01*
X189857365Y-106899131D01*
X189851421Y-106944286D01*
X189822699Y-107009213D01*
X189763435Y-107048306D01*
X189710054Y-107052763D01*
X189655000Y-107045515D01*
X189646812Y-107046593D01*
X189518432Y-107063494D01*
X189518430Y-107063495D01*
X189510246Y-107064572D01*
X189483910Y-107075481D01*
X189382986Y-107117285D01*
X189382984Y-107117286D01*
X189375358Y-107120445D01*
X189259526Y-107209326D01*
X189170645Y-107325158D01*
X189167486Y-107332784D01*
X189167485Y-107332786D01*
X189152316Y-107369407D01*
X189114772Y-107460046D01*
X189113695Y-107468230D01*
X189113694Y-107468232D01*
X189108546Y-107507334D01*
X189095715Y-107604800D01*
X186015334Y-107604800D01*
X186056121Y-107573503D01*
X186056124Y-107573500D01*
X186062674Y-107568474D01*
X186067914Y-107561646D01*
X186123836Y-107488766D01*
X186151555Y-107452642D01*
X186163162Y-107424622D01*
X186195756Y-107345933D01*
X186207428Y-107317754D01*
X186213740Y-107269813D01*
X186225407Y-107181188D01*
X186225407Y-107181187D01*
X186226485Y-107173000D01*
X186217382Y-107103853D01*
X186208506Y-107036432D01*
X186208505Y-107036430D01*
X186207428Y-107028246D01*
X186181225Y-106964988D01*
X186154715Y-106900986D01*
X186154714Y-106900984D01*
X186151555Y-106893358D01*
X186104664Y-106832248D01*
X186067701Y-106784077D01*
X186067700Y-106784076D01*
X186062674Y-106777526D01*
X186056124Y-106772500D01*
X186056121Y-106772497D01*
X185953396Y-106693673D01*
X185953394Y-106693672D01*
X185946843Y-106688645D01*
X185811954Y-106632772D01*
X185781837Y-106628807D01*
X185675388Y-106614793D01*
X185667200Y-106613715D01*
X185659012Y-106614793D01*
X185530632Y-106631694D01*
X185530630Y-106631695D01*
X185522446Y-106632772D01*
X185504453Y-106640225D01*
X185473619Y-106652997D01*
X185403029Y-106660586D01*
X185339542Y-106628807D01*
X185303314Y-106567749D01*
X185299400Y-106536588D01*
X185299400Y-106262114D01*
X185319402Y-106193993D01*
X185373058Y-106147500D01*
X185443332Y-106137396D01*
X185507912Y-106166890D01*
X185525362Y-106185410D01*
X185538695Y-106202786D01*
X185538699Y-106202790D01*
X185543726Y-106209341D01*
X185550276Y-106214367D01*
X185550279Y-106214370D01*
X185653004Y-106293194D01*
X185659557Y-106298222D01*
X185794446Y-106354095D01*
X185939200Y-106373152D01*
X185947388Y-106372074D01*
X186075766Y-106355173D01*
X186083954Y-106354095D01*
X186218843Y-106298222D01*
X186225396Y-106293194D01*
X186328121Y-106214370D01*
X186328124Y-106214367D01*
X186334674Y-106209341D01*
X186340303Y-106202006D01*
X186413777Y-106106252D01*
X186423555Y-106093509D01*
X186433324Y-106069926D01*
X186476269Y-105966247D01*
X186479428Y-105958621D01*
X186480546Y-105950133D01*
X186495690Y-105835095D01*
X186498485Y-105813867D01*
X186483730Y-105701792D01*
X186480506Y-105677299D01*
X186480505Y-105677297D01*
X186479428Y-105669113D01*
X186442472Y-105579894D01*
X186426715Y-105541853D01*
X186426714Y-105541851D01*
X186423555Y-105534225D01*
X186360106Y-105451536D01*
X186339701Y-105424944D01*
X186339700Y-105424943D01*
X186334674Y-105418393D01*
X186328124Y-105413367D01*
X186328121Y-105413364D01*
X186225396Y-105334540D01*
X186225394Y-105334539D01*
X186218843Y-105329512D01*
X186083954Y-105273639D01*
X185939200Y-105254582D01*
X185931012Y-105255660D01*
X185802632Y-105272561D01*
X185802630Y-105272562D01*
X185794446Y-105273639D01*
X185746630Y-105293445D01*
X185667186Y-105326352D01*
X185667184Y-105326353D01*
X185659558Y-105329512D01*
X185598051Y-105376708D01*
X185561595Y-105404682D01*
X185543726Y-105418393D01*
X185454845Y-105534225D01*
X185451686Y-105541851D01*
X185451685Y-105541853D01*
X185435928Y-105579894D01*
X185398972Y-105669113D01*
X185396876Y-105685036D01*
X185395808Y-105693145D01*
X185367084Y-105758072D01*
X185307818Y-105797163D01*
X185236827Y-105798006D01*
X185181791Y-105765792D01*
X184615838Y-105199839D01*
X184581812Y-105137527D01*
X184586877Y-105066712D01*
X184629424Y-105009876D01*
X184656714Y-104994336D01*
X184720009Y-104968118D01*
X184720014Y-104968115D01*
X184727643Y-104964955D01*
X184734196Y-104959927D01*
X184836921Y-104881103D01*
X184836924Y-104881100D01*
X184843474Y-104876074D01*
X184860711Y-104853611D01*
X184905091Y-104795773D01*
X184932355Y-104760242D01*
X184936591Y-104750017D01*
X184976523Y-104653613D01*
X184988228Y-104625354D01*
X184992057Y-104596275D01*
X185006207Y-104488788D01*
X185007285Y-104480600D01*
X184994490Y-104383411D01*
X184989306Y-104344032D01*
X184989305Y-104344030D01*
X184988228Y-104335846D01*
X184932355Y-104200958D01*
X184859844Y-104106460D01*
X184848501Y-104091677D01*
X184848500Y-104091676D01*
X184843474Y-104085126D01*
X184836924Y-104080100D01*
X184836921Y-104080097D01*
X184734196Y-104001273D01*
X184734194Y-104001272D01*
X184727643Y-103996245D01*
X184592754Y-103940372D01*
X184469154Y-103924100D01*
X184404227Y-103895378D01*
X184365135Y-103836113D01*
X184359600Y-103799178D01*
X184359600Y-83932045D01*
X184359778Y-83929624D01*
X184361474Y-83924684D01*
X184359689Y-83877134D01*
X184359600Y-83872407D01*
X184359600Y-83853989D01*
X184358734Y-83849338D01*
X184358523Y-83846090D01*
X184357385Y-83815759D01*
X184352791Y-83805068D01*
X184351554Y-83799577D01*
X184348862Y-83790716D01*
X184346839Y-83785474D01*
X184344710Y-83774040D01*
X184332242Y-83753813D01*
X184323734Y-83737434D01*
X184317867Y-83723777D01*
X184317866Y-83723775D01*
X184314357Y-83715608D01*
X184310448Y-83710849D01*
X184308254Y-83708655D01*
X184306204Y-83706394D01*
X184306406Y-83706211D01*
X184300516Y-83698761D01*
X184293620Y-83691155D01*
X184287514Y-83681250D01*
X184266486Y-83665260D01*
X184253658Y-83654059D01*
X182912859Y-82313260D01*
X182911267Y-82311416D01*
X182908973Y-82306723D01*
X182891083Y-82290127D01*
X182874067Y-82274343D01*
X182870662Y-82271063D01*
X182857658Y-82258059D01*
X182853758Y-82255384D01*
X182851333Y-82253254D01*
X182837591Y-82240506D01*
X182837588Y-82240504D01*
X182829060Y-82232593D01*
X182818255Y-82228282D01*
X182813511Y-82225283D01*
X182805328Y-82220914D01*
X182800193Y-82218639D01*
X182790597Y-82212056D01*
X182767482Y-82206571D01*
X182749890Y-82201008D01*
X182727817Y-82192201D01*
X182721688Y-82191600D01*
X182718609Y-82191600D01*
X182715537Y-82191450D01*
X182715550Y-82191179D01*
X182706125Y-82190076D01*
X182695863Y-82189574D01*
X182684541Y-82186887D01*
X182673012Y-82188456D01*
X182673011Y-82188456D01*
X182658368Y-82190449D01*
X182641377Y-82191600D01*
X173750189Y-82191600D01*
X173682068Y-82171598D01*
X173661094Y-82154695D01*
X172346459Y-80840060D01*
X172344867Y-80838216D01*
X172342573Y-80833523D01*
X172317139Y-80809929D01*
X172307667Y-80801143D01*
X172304262Y-80797863D01*
X172291258Y-80784859D01*
X172287358Y-80782184D01*
X172284933Y-80780054D01*
X172271191Y-80767306D01*
X172271188Y-80767304D01*
X172262660Y-80759393D01*
X172251855Y-80755082D01*
X172247111Y-80752083D01*
X172238928Y-80747714D01*
X172233793Y-80745439D01*
X172224197Y-80738856D01*
X172201082Y-80733371D01*
X172183490Y-80727808D01*
X172161417Y-80719001D01*
X172155288Y-80718400D01*
X172152209Y-80718400D01*
X172149137Y-80718250D01*
X172149150Y-80717979D01*
X172139725Y-80716876D01*
X172129463Y-80716374D01*
X172118141Y-80713687D01*
X172106612Y-80715256D01*
X172106611Y-80715256D01*
X172091968Y-80717249D01*
X172074977Y-80718400D01*
X171240053Y-80718400D01*
X171237627Y-80718222D01*
X171232685Y-80716525D01*
X171221062Y-80716961D01*
X171221060Y-80716961D01*
X171185109Y-80718311D01*
X171180382Y-80718400D01*
X171161989Y-80718400D01*
X171157344Y-80719266D01*
X171154113Y-80719475D01*
X171123760Y-80720614D01*
X171113071Y-80725206D01*
X171107600Y-80726439D01*
X171098713Y-80729139D01*
X171093474Y-80731160D01*
X171082040Y-80733290D01*
X171072140Y-80739393D01*
X171072136Y-80739394D01*
X171061815Y-80745756D01*
X171045442Y-80754262D01*
X171023609Y-80763642D01*
X171018850Y-80767551D01*
X171016656Y-80769745D01*
X171014395Y-80771795D01*
X171014212Y-80771594D01*
X171006761Y-80777484D01*
X170999155Y-80784380D01*
X170989250Y-80790486D01*
X170974465Y-80809929D01*
X170973260Y-80811514D01*
X170962059Y-80824342D01*
X170520706Y-81265695D01*
X170458394Y-81299721D01*
X170431611Y-81302600D01*
X170335471Y-81302600D01*
X170267350Y-81282598D01*
X170220857Y-81228942D01*
X170210753Y-81158668D01*
X170210981Y-81157558D01*
X170211728Y-81155754D01*
X170230785Y-81011000D01*
X170211728Y-80866246D01*
X170172605Y-80771795D01*
X170159015Y-80738986D01*
X170159014Y-80738984D01*
X170155855Y-80731358D01*
X170066974Y-80615526D01*
X170060424Y-80610500D01*
X170060421Y-80610497D01*
X169957696Y-80531673D01*
X169957694Y-80531672D01*
X169951143Y-80526645D01*
X169816254Y-80470772D01*
X169711754Y-80457014D01*
X169646828Y-80428293D01*
X169607736Y-80369028D01*
X169602201Y-80332093D01*
X169602201Y-80212279D01*
X169622203Y-80144158D01*
X169639105Y-80123184D01*
X170123583Y-79638705D01*
X170185896Y-79604680D01*
X170212679Y-79601800D01*
X187710521Y-79601800D01*
X187778642Y-79621802D01*
X187799616Y-79638705D01*
X188030095Y-79869184D01*
X188064121Y-79931496D01*
X188067000Y-79958279D01*
X188067000Y-94983200D01*
X188046998Y-95051321D01*
X187993342Y-95097814D01*
X187941000Y-95109200D01*
X187806459Y-95109200D01*
X187784573Y-95107285D01*
X187780692Y-95106600D01*
X187780689Y-95106600D01*
X187769838Y-95104686D01*
X187758984Y-95106599D01*
X187758447Y-95106599D01*
X187753654Y-95107291D01*
X187717948Y-95111312D01*
X187644165Y-95119621D01*
X187644162Y-95119622D01*
X187637135Y-95120413D01*
X187630456Y-95122750D01*
X187630455Y-95122750D01*
X187517765Y-95162176D01*
X187517763Y-95162177D01*
X187511086Y-95164513D01*
X187398011Y-95235556D01*
X187393007Y-95240559D01*
X187393004Y-95240562D01*
X187350804Y-95282760D01*
X187303580Y-95329981D01*
X187299821Y-95335964D01*
X187299818Y-95335967D01*
X187272538Y-95379382D01*
X187232529Y-95443052D01*
X187212431Y-95500487D01*
X187190758Y-95562419D01*
X187190757Y-95562424D01*
X187188421Y-95569099D01*
X187175565Y-95683198D01*
X187175261Y-95685895D01*
X187174619Y-95690344D01*
X187174619Y-95690943D01*
X187172705Y-95701800D01*
X187174220Y-95710389D01*
X187174620Y-95712659D01*
X187174620Y-95713327D01*
X187175206Y-95717382D01*
X187188403Y-95834506D01*
X187190739Y-95841181D01*
X187190740Y-95841186D01*
X187217477Y-95917591D01*
X187232512Y-95960556D01*
X187303565Y-96073631D01*
X187327443Y-96097507D01*
X187392992Y-96163053D01*
X187392995Y-96163056D01*
X187397999Y-96168059D01*
X187511078Y-96239104D01*
X187517762Y-96241442D01*
X187517763Y-96241443D01*
X187630448Y-96280867D01*
X187637131Y-96283205D01*
X187644162Y-96283997D01*
X187644163Y-96283997D01*
X187697363Y-96289988D01*
X187706518Y-96291611D01*
X187712002Y-96293799D01*
X187718131Y-96294400D01*
X187729464Y-96294400D01*
X187743565Y-96295192D01*
X187753936Y-96296360D01*
X187758376Y-96297001D01*
X187758985Y-96297001D01*
X187769838Y-96298914D01*
X187780689Y-96297000D01*
X187780692Y-96297000D01*
X187784573Y-96296315D01*
X187806459Y-96294400D01*
X187941000Y-96294400D01*
X188009121Y-96314402D01*
X188055614Y-96368058D01*
X188067000Y-96420400D01*
X188067000Y-103742968D01*
X188046998Y-103811089D01*
X187989216Y-103859378D01*
X187975258Y-103865159D01*
X187859426Y-103954040D01*
X187854403Y-103960586D01*
X187836992Y-103983276D01*
X187770545Y-104069872D01*
X187767386Y-104077498D01*
X187767385Y-104077500D01*
X187734478Y-104156944D01*
X187714672Y-104204760D01*
X187695615Y-104349514D01*
X187696693Y-104357702D01*
X187712873Y-104480600D01*
X187714672Y-104494268D01*
X187725784Y-104521094D01*
X187763248Y-104611539D01*
X187770545Y-104629156D01*
X187775572Y-104635707D01*
X187825882Y-104701272D01*
X187859426Y-104744988D01*
X187865976Y-104750014D01*
X187865979Y-104750017D01*
X187968704Y-104828841D01*
X187975257Y-104833869D01*
X188110146Y-104889742D01*
X188118334Y-104890820D01*
X188156024Y-104895782D01*
X188220951Y-104924505D01*
X188260042Y-104983770D01*
X188264499Y-105037150D01*
X188257515Y-105090200D01*
X188258593Y-105098388D01*
X188275001Y-105223019D01*
X188276572Y-105234954D01*
X188292596Y-105273639D01*
X188315740Y-105329512D01*
X188332445Y-105369842D01*
X188371665Y-105420954D01*
X188410501Y-105471566D01*
X188421326Y-105485674D01*
X188427876Y-105490700D01*
X188427879Y-105490703D01*
X188510858Y-105554375D01*
X188537157Y-105574555D01*
X188672046Y-105630428D01*
X188816800Y-105649485D01*
X188824988Y-105648407D01*
X188953366Y-105631506D01*
X188961554Y-105630428D01*
X189096443Y-105574555D01*
X189122742Y-105554375D01*
X189205721Y-105490703D01*
X189205724Y-105490700D01*
X189212274Y-105485674D01*
X189223100Y-105471566D01*
X189261935Y-105420954D01*
X189301155Y-105369842D01*
X189317861Y-105329512D01*
X189341004Y-105273639D01*
X189357028Y-105234954D01*
X189358600Y-105223019D01*
X189375007Y-105098388D01*
X189376085Y-105090200D01*
X189369101Y-105037150D01*
X189358106Y-104953632D01*
X189358105Y-104953630D01*
X189357028Y-104945446D01*
X189333954Y-104889742D01*
X189304315Y-104818186D01*
X189304314Y-104818184D01*
X189301155Y-104810558D01*
X189212274Y-104694726D01*
X189205728Y-104689703D01*
X189205725Y-104689700D01*
X189158696Y-104653613D01*
X189116829Y-104596275D01*
X189109400Y-104553651D01*
X189109400Y-79646361D01*
X189109578Y-79643936D01*
X189111275Y-79638994D01*
X189110839Y-79627372D01*
X189110839Y-79627369D01*
X189109489Y-79591429D01*
X189109400Y-79586701D01*
X189109400Y-79568299D01*
X189108534Y-79563650D01*
X189108325Y-79560418D01*
X189107622Y-79541698D01*
X189107622Y-79541697D01*
X189107185Y-79530069D01*
X189102592Y-79519379D01*
X189101353Y-79513882D01*
X189098662Y-79505026D01*
X189096639Y-79499784D01*
X189094510Y-79488350D01*
X189085224Y-79473285D01*
X189082042Y-79468123D01*
X189073534Y-79451744D01*
X189067668Y-79438090D01*
X189067668Y-79438089D01*
X189064157Y-79429918D01*
X189060248Y-79425160D01*
X189058066Y-79422978D01*
X189056010Y-79420711D01*
X189056211Y-79420529D01*
X189050308Y-79413061D01*
X189043418Y-79405463D01*
X189037314Y-79395560D01*
X189016286Y-79379570D01*
X189003457Y-79368369D01*
X188316145Y-78681056D01*
X188314557Y-78679217D01*
X188312263Y-78674523D01*
X188301974Y-78664978D01*
X188277357Y-78642143D01*
X188273952Y-78638863D01*
X188260948Y-78625859D01*
X188257048Y-78623184D01*
X188254623Y-78621054D01*
X188240881Y-78608306D01*
X188240878Y-78608304D01*
X188232350Y-78600393D01*
X188221545Y-78596082D01*
X188216801Y-78593083D01*
X188208618Y-78588714D01*
X188203483Y-78586439D01*
X188193887Y-78579856D01*
X188170772Y-78574371D01*
X188153180Y-78568808D01*
X188131107Y-78560001D01*
X188124978Y-78559400D01*
X188121899Y-78559400D01*
X188118827Y-78559250D01*
X188118840Y-78558979D01*
X188109415Y-78557876D01*
X188099153Y-78557374D01*
X188087831Y-78554687D01*
X188076302Y-78556256D01*
X188076301Y-78556256D01*
X188061658Y-78558249D01*
X188044667Y-78559400D01*
X169900763Y-78559400D01*
X169898337Y-78559222D01*
X169893395Y-78557525D01*
X169881772Y-78557961D01*
X169881770Y-78557961D01*
X169845819Y-78559311D01*
X169841092Y-78559400D01*
X169822699Y-78559400D01*
X169818054Y-78560266D01*
X169814823Y-78560475D01*
X169784470Y-78561614D01*
X169773781Y-78566206D01*
X169768310Y-78567439D01*
X169759423Y-78570139D01*
X169754184Y-78572160D01*
X169742750Y-78574290D01*
X169732850Y-78580393D01*
X169732846Y-78580394D01*
X169722525Y-78586756D01*
X169706152Y-78595262D01*
X169684319Y-78604642D01*
X169679560Y-78608551D01*
X169677366Y-78610745D01*
X169675105Y-78612795D01*
X169674922Y-78612594D01*
X169667471Y-78618484D01*
X169659865Y-78625380D01*
X169649960Y-78631486D01*
X169642918Y-78640747D01*
X169633970Y-78652514D01*
X169622769Y-78665342D01*
X168681459Y-79606652D01*
X168679615Y-79608244D01*
X168674922Y-79610538D01*
X168667010Y-79619067D01*
X168667009Y-79619068D01*
X168642542Y-79645444D01*
X168639262Y-79648849D01*
X168626258Y-79661853D01*
X168623583Y-79665753D01*
X168621453Y-79668178D01*
X168608705Y-79681920D01*
X168608703Y-79681923D01*
X168600792Y-79690451D01*
X168596481Y-79701256D01*
X168593482Y-79706000D01*
X168589113Y-79714183D01*
X168586838Y-79719318D01*
X168580255Y-79728914D01*
X168577222Y-79741695D01*
X168574770Y-79752028D01*
X168569207Y-79769621D01*
X168560400Y-79791694D01*
X168559799Y-79797823D01*
X168559799Y-79800902D01*
X168559649Y-79803974D01*
X168559378Y-79803961D01*
X168558275Y-79813386D01*
X168557773Y-79823648D01*
X168555086Y-79834970D01*
X168556655Y-79846499D01*
X168556655Y-79846500D01*
X168558648Y-79861143D01*
X168559799Y-79878134D01*
X168559799Y-80332093D01*
X168539797Y-80400214D01*
X168486141Y-80446707D01*
X168450248Y-80457014D01*
X168396143Y-80464137D01*
X168353932Y-80469694D01*
X168353930Y-80469695D01*
X168345746Y-80470772D01*
X168297930Y-80490578D01*
X168218486Y-80523485D01*
X168218484Y-80523486D01*
X168210858Y-80526645D01*
X168095026Y-80615526D01*
X168006145Y-80731358D01*
X168002986Y-80738984D01*
X168002985Y-80738986D01*
X167989395Y-80771795D01*
X167950272Y-80866246D01*
X167931215Y-81011000D01*
X167932293Y-81019188D01*
X167950272Y-81155754D01*
X167947948Y-81156060D01*
X167946546Y-81214965D01*
X167906752Y-81273761D01*
X167841488Y-81301709D01*
X167826529Y-81302600D01*
X167287471Y-81302600D01*
X167219350Y-81282598D01*
X167172857Y-81228942D01*
X167162753Y-81158668D01*
X167162981Y-81157558D01*
X167163728Y-81155754D01*
X167182785Y-81011000D01*
X167163728Y-80866246D01*
X167124605Y-80771795D01*
X167111015Y-80738986D01*
X167111014Y-80738984D01*
X167107855Y-80731358D01*
X167018974Y-80615526D01*
X167012424Y-80610500D01*
X167012421Y-80610497D01*
X166909696Y-80531673D01*
X166909694Y-80531672D01*
X166903143Y-80526645D01*
X166768254Y-80470772D01*
X166663754Y-80457014D01*
X166598828Y-80428293D01*
X166559736Y-80369028D01*
X166554201Y-80332093D01*
X166554201Y-76834078D01*
X166574203Y-76765957D01*
X166591106Y-76744983D01*
X167253384Y-76082705D01*
X167315696Y-76048679D01*
X167342479Y-76045800D01*
X167921709Y-76045800D01*
X167989830Y-76065802D01*
X168036323Y-76119458D01*
X168046427Y-76189732D01*
X168038118Y-76220018D01*
X168017841Y-76268971D01*
X168007372Y-76294246D01*
X168006295Y-76302430D01*
X168006294Y-76302432D01*
X167990522Y-76422234D01*
X167961800Y-76487162D01*
X167902534Y-76526253D01*
X167849154Y-76530710D01*
X167746448Y-76517189D01*
X167746447Y-76517189D01*
X167738259Y-76516111D01*
X167730071Y-76517189D01*
X167601691Y-76534090D01*
X167601689Y-76534091D01*
X167593505Y-76535168D01*
X167562560Y-76547986D01*
X167466245Y-76587881D01*
X167466243Y-76587882D01*
X167458617Y-76591041D01*
X167342785Y-76679922D01*
X167253904Y-76795754D01*
X167250745Y-76803380D01*
X167250744Y-76803382D01*
X167232558Y-76847288D01*
X167198031Y-76930642D01*
X167196954Y-76938826D01*
X167196953Y-76938828D01*
X167185848Y-77023180D01*
X167178974Y-77075396D01*
X167180052Y-77083584D01*
X167196921Y-77211717D01*
X167198031Y-77220150D01*
X167201190Y-77227776D01*
X167246899Y-77338126D01*
X167253904Y-77355038D01*
X167258931Y-77361589D01*
X167313591Y-77432823D01*
X167342785Y-77470870D01*
X167349335Y-77475896D01*
X167349338Y-77475899D01*
X167451744Y-77554478D01*
X167458616Y-77559751D01*
X167593505Y-77615624D01*
X167738259Y-77634681D01*
X167746447Y-77633603D01*
X167874825Y-77616702D01*
X167883013Y-77615624D01*
X168017902Y-77559751D01*
X168024774Y-77554478D01*
X168127180Y-77475899D01*
X168127183Y-77475896D01*
X168133733Y-77470870D01*
X168162928Y-77432823D01*
X168217587Y-77361589D01*
X168222614Y-77355038D01*
X168229620Y-77338126D01*
X168275328Y-77227776D01*
X168278487Y-77220150D01*
X168279598Y-77211717D01*
X168295337Y-77092162D01*
X168324059Y-77027234D01*
X168383325Y-76988143D01*
X168436705Y-76983686D01*
X168539411Y-76997207D01*
X168539412Y-76997207D01*
X168547600Y-76998285D01*
X168555788Y-76997207D01*
X168684166Y-76980306D01*
X168692354Y-76979228D01*
X168827243Y-76923355D01*
X168839044Y-76914300D01*
X168936521Y-76839503D01*
X168936524Y-76839500D01*
X168943074Y-76834474D01*
X168952446Y-76822261D01*
X169011743Y-76744983D01*
X169031955Y-76718642D01*
X169038079Y-76703859D01*
X169084529Y-76591718D01*
X169087828Y-76583754D01*
X169093975Y-76537067D01*
X169105807Y-76447188D01*
X169106885Y-76439000D01*
X169102061Y-76402357D01*
X169088906Y-76302432D01*
X169088905Y-76302430D01*
X169087828Y-76294246D01*
X169077359Y-76268971D01*
X169057082Y-76220018D01*
X169049493Y-76149429D01*
X169081272Y-76085942D01*
X169142330Y-76049714D01*
X169173491Y-76045800D01*
X190275921Y-76045800D01*
X190344042Y-76065802D01*
X190365016Y-76082705D01*
X191560695Y-77278383D01*
X191594720Y-77340695D01*
X191597600Y-77367478D01*
X191597600Y-95669000D01*
X191577598Y-95737121D01*
X191523942Y-95783614D01*
X191471600Y-95795000D01*
X191226825Y-95795000D01*
X191204945Y-95793086D01*
X191190200Y-95790486D01*
X191179348Y-95792399D01*
X191178747Y-95792399D01*
X191174305Y-95793041D01*
X191126934Y-95798378D01*
X191064525Y-95805410D01*
X191064521Y-95805411D01*
X191057500Y-95806202D01*
X190931453Y-95850307D01*
X190818382Y-95921355D01*
X190723955Y-96015782D01*
X190652907Y-96128853D01*
X190608802Y-96254900D01*
X190608011Y-96261921D01*
X190608010Y-96261925D01*
X190603517Y-96301800D01*
X190596052Y-96368058D01*
X190595641Y-96371702D01*
X190595001Y-96376148D01*
X190595001Y-96376738D01*
X190594391Y-96380200D01*
X190593086Y-96387600D01*
X190594999Y-96398452D01*
X190594999Y-96399054D01*
X190595641Y-96403495D01*
X190608802Y-96520300D01*
X190652907Y-96646347D01*
X190723955Y-96759418D01*
X190818382Y-96853845D01*
X190931453Y-96924893D01*
X191057500Y-96968998D01*
X191064523Y-96969789D01*
X191064526Y-96969790D01*
X191102495Y-96974068D01*
X191117739Y-96975785D01*
X191126892Y-96977408D01*
X191132383Y-96979599D01*
X191138512Y-96980200D01*
X191149836Y-96980200D01*
X191163940Y-96980992D01*
X191174291Y-96982158D01*
X191178746Y-96982801D01*
X191179348Y-96982801D01*
X191190200Y-96984714D01*
X191204945Y-96982114D01*
X191226825Y-96980200D01*
X191471600Y-96980200D01*
X191539721Y-97000202D01*
X191586214Y-97053858D01*
X191597600Y-97106200D01*
X191597600Y-101672521D01*
X191577598Y-101740642D01*
X191560695Y-101761616D01*
X190957260Y-102365051D01*
X190955416Y-102366643D01*
X190950723Y-102368937D01*
X190942811Y-102377466D01*
X190942810Y-102377467D01*
X190918343Y-102403843D01*
X190915063Y-102407248D01*
X190902059Y-102420252D01*
X190899384Y-102424152D01*
X190897254Y-102426577D01*
X190884506Y-102440319D01*
X190884504Y-102440322D01*
X190876593Y-102448850D01*
X190872282Y-102459655D01*
X190869283Y-102464399D01*
X190864914Y-102472582D01*
X190862639Y-102477717D01*
X190856056Y-102487313D01*
X190851813Y-102505194D01*
X190850571Y-102510427D01*
X190845008Y-102528020D01*
X190836201Y-102550093D01*
X190835600Y-102556222D01*
X190835600Y-102559301D01*
X190835450Y-102562373D01*
X190835179Y-102562360D01*
X190834076Y-102571785D01*
X190833574Y-102582047D01*
X190830887Y-102593369D01*
X190832456Y-102604898D01*
X190832456Y-102604899D01*
X190834449Y-102619542D01*
X190835600Y-102636533D01*
X190835600Y-103610039D01*
X190835422Y-103612464D01*
X190833725Y-103617406D01*
X190834161Y-103629028D01*
X190834161Y-103629031D01*
X190835511Y-103664971D01*
X190835600Y-103669699D01*
X190835600Y-103688101D01*
X190836466Y-103692750D01*
X190836675Y-103695982D01*
X190836694Y-103696473D01*
X190837815Y-103726331D01*
X190842408Y-103737021D01*
X190843647Y-103742518D01*
X190846338Y-103751374D01*
X190848361Y-103756616D01*
X190850490Y-103768050D01*
X190856593Y-103777951D01*
X190862958Y-103788277D01*
X190871466Y-103804656D01*
X190880843Y-103826482D01*
X190884752Y-103831241D01*
X190886946Y-103833435D01*
X190888996Y-103835696D01*
X190888794Y-103835879D01*
X190894684Y-103843329D01*
X190901580Y-103850935D01*
X190907686Y-103860840D01*
X190916947Y-103867882D01*
X190928710Y-103876827D01*
X190941538Y-103888027D01*
X191407695Y-104354183D01*
X191441720Y-104416496D01*
X191444600Y-104443279D01*
X191444600Y-104706051D01*
X191424598Y-104774172D01*
X191395304Y-104806013D01*
X191348276Y-104842099D01*
X191348272Y-104842103D01*
X191341726Y-104847126D01*
X191252845Y-104962958D01*
X191249686Y-104970584D01*
X191249685Y-104970586D01*
X191225919Y-105027963D01*
X191196972Y-105097846D01*
X191195895Y-105106030D01*
X191195894Y-105106032D01*
X191181041Y-105218855D01*
X191177915Y-105242600D01*
X191178993Y-105250788D01*
X191195634Y-105377189D01*
X191196972Y-105387354D01*
X191202902Y-105401670D01*
X191237345Y-105484821D01*
X191252845Y-105522242D01*
X191277502Y-105554375D01*
X191326719Y-105618516D01*
X191341726Y-105638074D01*
X191348276Y-105643100D01*
X191348279Y-105643103D01*
X191451004Y-105721927D01*
X191457557Y-105726955D01*
X191592446Y-105782828D01*
X191600634Y-105783906D01*
X191643931Y-105789606D01*
X191737200Y-105801885D01*
X191745388Y-105800807D01*
X191773068Y-105797163D01*
X191830469Y-105789606D01*
X191873766Y-105783906D01*
X191881954Y-105782828D01*
X192016843Y-105726955D01*
X192023396Y-105721927D01*
X192126121Y-105643103D01*
X192126124Y-105643100D01*
X192132674Y-105638074D01*
X192147682Y-105618516D01*
X192196898Y-105554375D01*
X192221555Y-105522242D01*
X192237056Y-105484821D01*
X192271498Y-105401670D01*
X192277428Y-105387354D01*
X192278767Y-105377189D01*
X192295407Y-105250788D01*
X192296485Y-105242600D01*
X192293359Y-105218855D01*
X192278506Y-105106032D01*
X192278505Y-105106030D01*
X192277428Y-105097846D01*
X192248481Y-105027963D01*
X192224715Y-104970586D01*
X192224714Y-104970584D01*
X192221555Y-104962958D01*
X192216527Y-104956405D01*
X192216525Y-104956402D01*
X192195238Y-104928660D01*
X192169637Y-104862440D01*
X192183901Y-104792891D01*
X192233503Y-104742095D01*
X192302692Y-104726179D01*
X192311645Y-104727034D01*
X192372800Y-104735085D01*
X192380988Y-104734007D01*
X192509366Y-104717106D01*
X192517554Y-104716028D01*
X192652443Y-104660155D01*
X192660969Y-104653613D01*
X192761721Y-104576303D01*
X192761724Y-104576300D01*
X192768274Y-104571274D01*
X192779100Y-104557166D01*
X192833644Y-104486082D01*
X192857155Y-104455442D01*
X192865374Y-104435601D01*
X192906694Y-104335846D01*
X192913028Y-104320554D01*
X192932085Y-104175800D01*
X192922956Y-104106460D01*
X192914106Y-104039232D01*
X192914105Y-104039230D01*
X192913028Y-104031046D01*
X192879050Y-103949017D01*
X192860315Y-103903786D01*
X192860314Y-103903784D01*
X192857155Y-103896158D01*
X192807342Y-103831241D01*
X192773301Y-103786877D01*
X192773300Y-103786876D01*
X192768274Y-103780326D01*
X192761724Y-103775300D01*
X192761721Y-103775297D01*
X192658996Y-103696473D01*
X192658994Y-103696472D01*
X192652443Y-103691445D01*
X192517554Y-103635572D01*
X192463419Y-103628445D01*
X192380988Y-103617593D01*
X192372800Y-103616515D01*
X192232401Y-103634999D01*
X192162254Y-103624060D01*
X192126861Y-103599172D01*
X191914905Y-103387216D01*
X191880879Y-103324904D01*
X191878000Y-103298121D01*
X191878000Y-102970679D01*
X191898002Y-102902558D01*
X191914905Y-102881584D01*
X192518340Y-102278149D01*
X192520184Y-102276557D01*
X192524877Y-102274263D01*
X192557257Y-102239357D01*
X192560537Y-102235952D01*
X192573541Y-102222948D01*
X192576216Y-102219048D01*
X192578346Y-102216623D01*
X192591094Y-102202881D01*
X192591096Y-102202878D01*
X192599007Y-102194350D01*
X192603318Y-102183545D01*
X192606317Y-102178801D01*
X192610686Y-102170618D01*
X192612961Y-102165483D01*
X192619544Y-102155887D01*
X192625029Y-102132772D01*
X192630594Y-102115175D01*
X192631441Y-102113053D01*
X192639399Y-102093107D01*
X192640000Y-102086978D01*
X192640000Y-102083899D01*
X192640150Y-102080827D01*
X192640421Y-102080840D01*
X192641524Y-102071415D01*
X192642026Y-102061153D01*
X192644713Y-102049831D01*
X192642893Y-102036454D01*
X192641151Y-102023658D01*
X192640000Y-102006667D01*
X192640000Y-77055562D01*
X192640178Y-77053136D01*
X192641875Y-77048194D01*
X192640676Y-77016239D01*
X192640089Y-77000618D01*
X192640000Y-76995891D01*
X192640000Y-76977499D01*
X192639135Y-76972852D01*
X192638926Y-76969626D01*
X192638223Y-76950893D01*
X192638222Y-76950891D01*
X192637786Y-76939269D01*
X192633194Y-76928581D01*
X192631962Y-76923114D01*
X192629262Y-76914226D01*
X192627240Y-76908986D01*
X192625110Y-76897550D01*
X192612643Y-76877325D01*
X192604136Y-76860949D01*
X192598267Y-76847288D01*
X192594757Y-76839118D01*
X192590848Y-76834360D01*
X192588666Y-76832178D01*
X192586610Y-76829911D01*
X192586811Y-76829729D01*
X192580908Y-76822261D01*
X192574018Y-76814663D01*
X192567914Y-76804760D01*
X192546882Y-76788767D01*
X192534061Y-76777573D01*
X191697724Y-75941236D01*
X191663700Y-75878925D01*
X191668765Y-75808109D01*
X191711312Y-75751274D01*
X191777832Y-75726463D01*
X191843635Y-75739678D01*
X191846764Y-75741259D01*
X191852660Y-75745117D01*
X192011315Y-75804120D01*
X192018296Y-75805051D01*
X192018298Y-75805052D01*
X192172118Y-75825576D01*
X192172122Y-75825576D01*
X192179099Y-75826507D01*
X192186110Y-75825869D01*
X192186114Y-75825869D01*
X192340652Y-75811805D01*
X192347673Y-75811166D01*
X192508659Y-75758858D01*
X192654056Y-75672184D01*
X192776638Y-75555452D01*
X192780539Y-75549581D01*
X192866410Y-75420335D01*
X192866411Y-75420333D01*
X192870311Y-75414463D01*
X192930420Y-75256224D01*
X192949773Y-75118523D01*
X192953427Y-75092523D01*
X192953427Y-75092518D01*
X192953978Y-75088600D01*
X192954274Y-75067400D01*
X192935406Y-74899184D01*
X192879738Y-74739329D01*
X192790038Y-74595779D01*
X192778573Y-74584233D01*
X192675726Y-74480666D01*
X192670764Y-74475669D01*
X192527844Y-74384969D01*
X192500442Y-74375212D01*
X192375016Y-74330549D01*
X192375011Y-74330548D01*
X192368381Y-74328187D01*
X192361395Y-74327354D01*
X192361391Y-74327353D01*
X192242287Y-74313151D01*
X192200301Y-74308145D01*
X192193298Y-74308881D01*
X192193297Y-74308881D01*
X192038965Y-74325101D01*
X192038961Y-74325102D01*
X192031957Y-74325838D01*
X192025286Y-74328109D01*
X191878387Y-74378117D01*
X191878384Y-74378118D01*
X191871717Y-74380388D01*
X191865719Y-74384078D01*
X191865717Y-74384079D01*
X191733543Y-74465393D01*
X191733541Y-74465395D01*
X191727544Y-74469084D01*
X191606605Y-74587517D01*
X191602794Y-74593431D01*
X191602792Y-74593433D01*
X191565136Y-74651864D01*
X191514909Y-74729800D01*
X191500336Y-74769840D01*
X191459425Y-74882240D01*
X191459424Y-74882245D01*
X191457015Y-74888863D01*
X191435800Y-75056799D01*
X191452318Y-75225262D01*
X191505748Y-75385879D01*
X191509398Y-75391905D01*
X191509398Y-75391906D01*
X191524395Y-75416670D01*
X191542573Y-75485300D01*
X191520762Y-75552863D01*
X191465886Y-75597909D01*
X191395367Y-75606135D01*
X191327526Y-75571037D01*
X190881542Y-75125053D01*
X190879958Y-75123218D01*
X190877663Y-75118523D01*
X190842757Y-75086143D01*
X190839352Y-75082863D01*
X190826348Y-75069859D01*
X190822448Y-75067184D01*
X190820023Y-75065054D01*
X190806281Y-75052306D01*
X190806278Y-75052304D01*
X190797750Y-75044393D01*
X190786945Y-75040082D01*
X190782201Y-75037083D01*
X190774018Y-75032714D01*
X190768883Y-75030439D01*
X190759287Y-75023856D01*
X190736172Y-75018371D01*
X190718580Y-75012808D01*
X190696507Y-75004001D01*
X190690378Y-75003400D01*
X190687299Y-75003400D01*
X190684227Y-75003250D01*
X190684240Y-75002979D01*
X190674815Y-75001876D01*
X190664553Y-75001374D01*
X190653231Y-74998687D01*
X190641702Y-75000256D01*
X190641701Y-75000256D01*
X190627058Y-75002249D01*
X190610067Y-75003400D01*
X167030562Y-75003400D01*
X167028136Y-75003222D01*
X167023194Y-75001525D01*
X167011571Y-75001961D01*
X167011569Y-75001961D01*
X166975618Y-75003311D01*
X166970891Y-75003400D01*
X166952499Y-75003400D01*
X166947854Y-75004266D01*
X166944623Y-75004475D01*
X166914270Y-75005614D01*
X166903578Y-75010208D01*
X166898096Y-75011443D01*
X166889223Y-75014139D01*
X166883984Y-75016161D01*
X166872550Y-75018290D01*
X166852316Y-75030762D01*
X166835959Y-75039259D01*
X166814118Y-75048643D01*
X166809360Y-75052551D01*
X166807166Y-75054745D01*
X166804906Y-75056794D01*
X166804723Y-75056593D01*
X166797271Y-75062484D01*
X166789665Y-75069380D01*
X166779760Y-75075486D01*
X166772718Y-75084747D01*
X166763770Y-75096514D01*
X166752569Y-75109342D01*
X165664686Y-76197225D01*
X165602374Y-76231251D01*
X165531559Y-76226186D01*
X165512592Y-76217250D01*
X165506394Y-76213672D01*
X165499843Y-76208645D01*
X165364954Y-76152772D01*
X165220200Y-76133715D01*
X165212012Y-76134793D01*
X165083632Y-76151694D01*
X165083630Y-76151695D01*
X165075446Y-76152772D01*
X165059546Y-76159358D01*
X164948186Y-76205485D01*
X164948184Y-76205486D01*
X164940558Y-76208645D01*
X164824726Y-76297526D01*
X164735845Y-76413358D01*
X164732686Y-76420984D01*
X164732685Y-76420986D01*
X164729331Y-76429084D01*
X164684782Y-76484364D01*
X164617419Y-76506785D01*
X164548628Y-76489227D01*
X164512960Y-76457569D01*
X164458105Y-76386082D01*
X164458103Y-76386080D01*
X164453074Y-76379526D01*
X164446524Y-76374500D01*
X164446521Y-76374497D01*
X164343796Y-76295673D01*
X164343794Y-76295672D01*
X164337243Y-76290645D01*
X164202354Y-76234772D01*
X164057600Y-76215715D01*
X164033855Y-76218841D01*
X163921032Y-76233694D01*
X163921030Y-76233695D01*
X163912846Y-76234772D01*
X163865030Y-76254578D01*
X163785586Y-76287485D01*
X163785584Y-76287486D01*
X163777958Y-76290645D01*
X163765331Y-76300334D01*
X163670011Y-76373476D01*
X163662126Y-76379526D01*
X163657103Y-76386072D01*
X163641193Y-76406807D01*
X163573245Y-76495358D01*
X163570086Y-76502984D01*
X163570085Y-76502986D01*
X163545359Y-76562679D01*
X163517372Y-76630246D01*
X163516295Y-76638430D01*
X163516294Y-76638432D01*
X163502267Y-76744983D01*
X163498315Y-76775000D01*
X163499393Y-76783188D01*
X163506820Y-76839599D01*
X163517372Y-76919754D01*
X163530270Y-76950893D01*
X163567363Y-77040441D01*
X163573245Y-77054642D01*
X163637768Y-77138730D01*
X163655750Y-77162164D01*
X163662126Y-77170474D01*
X163668672Y-77175497D01*
X163668675Y-77175500D01*
X163715704Y-77211587D01*
X163757571Y-77268925D01*
X163765000Y-77311549D01*
X163765000Y-79035011D01*
X163744998Y-79103132D01*
X163728095Y-79124106D01*
X162610860Y-80241341D01*
X162609016Y-80242933D01*
X162604323Y-80245227D01*
X162596411Y-80253756D01*
X162596410Y-80253757D01*
X162571943Y-80280133D01*
X162568663Y-80283538D01*
X162555659Y-80296542D01*
X162552984Y-80300442D01*
X162550854Y-80302867D01*
X162538106Y-80316609D01*
X162538104Y-80316612D01*
X162530193Y-80325140D01*
X162525882Y-80335945D01*
X162522883Y-80340689D01*
X162518514Y-80348872D01*
X162516239Y-80354007D01*
X162509656Y-80363603D01*
X162506063Y-80378745D01*
X162504171Y-80386717D01*
X162498608Y-80404310D01*
X162489801Y-80426383D01*
X162489200Y-80432512D01*
X162489200Y-80435591D01*
X162489050Y-80438663D01*
X162488779Y-80438650D01*
X162487676Y-80448075D01*
X162487174Y-80458337D01*
X162484487Y-80469659D01*
X162486056Y-80481188D01*
X162486056Y-80481189D01*
X162488049Y-80495832D01*
X162489200Y-80512823D01*
X162489200Y-81304941D01*
X162469198Y-81373062D01*
X162415542Y-81419555D01*
X162346754Y-81429863D01*
X162256589Y-81417993D01*
X162256588Y-81417993D01*
X162248400Y-81416915D01*
X162240212Y-81417993D01*
X162111832Y-81434894D01*
X162111830Y-81434895D01*
X162103646Y-81435972D01*
X162068703Y-81450446D01*
X161976386Y-81488685D01*
X161976384Y-81488686D01*
X161968758Y-81491845D01*
X161852926Y-81580726D01*
X161764045Y-81696558D01*
X161760886Y-81704184D01*
X161760885Y-81704186D01*
X161745110Y-81742270D01*
X161708172Y-81831446D01*
X161707095Y-81839630D01*
X161707094Y-81839632D01*
X161700601Y-81888951D01*
X161689115Y-81976200D01*
X160220403Y-81976200D01*
X160222165Y-81962815D01*
X160230060Y-81902841D01*
X160231138Y-81894653D01*
X160224280Y-81842557D01*
X160213159Y-81758085D01*
X160213158Y-81758083D01*
X160212081Y-81749899D01*
X160193146Y-81704186D01*
X160192492Y-81702606D01*
X160184903Y-81632016D01*
X160216682Y-81568529D01*
X160277740Y-81532302D01*
X160348692Y-81534836D01*
X160353564Y-81536653D01*
X160354564Y-81536921D01*
X160362193Y-81540081D01*
X160370381Y-81541159D01*
X160411839Y-81546617D01*
X160506947Y-81559138D01*
X160515135Y-81558060D01*
X160643513Y-81541159D01*
X160651701Y-81540081D01*
X160786590Y-81484208D01*
X160824037Y-81455474D01*
X160895868Y-81400356D01*
X160895871Y-81400353D01*
X160902421Y-81395327D01*
X160991302Y-81279495D01*
X160997019Y-81265695D01*
X161044016Y-81152233D01*
X161047175Y-81144607D01*
X161048518Y-81134411D01*
X161065154Y-81008041D01*
X161066232Y-80999853D01*
X161056171Y-80923432D01*
X161048253Y-80863285D01*
X161048252Y-80863283D01*
X161047175Y-80855099D01*
X161015975Y-80779776D01*
X160994462Y-80727839D01*
X160994461Y-80727837D01*
X160991302Y-80720211D01*
X160916001Y-80622077D01*
X160907448Y-80610930D01*
X160907447Y-80610929D01*
X160902421Y-80604379D01*
X160883370Y-80589760D01*
X160841504Y-80532424D01*
X160837283Y-80461553D01*
X160872048Y-80399650D01*
X160934761Y-80366369D01*
X160960076Y-80363800D01*
X161892749Y-80363800D01*
X161895174Y-80363978D01*
X161900116Y-80365675D01*
X161911738Y-80365239D01*
X161911741Y-80365239D01*
X161947681Y-80363889D01*
X161952409Y-80363800D01*
X161970811Y-80363800D01*
X161975460Y-80362934D01*
X161978692Y-80362725D01*
X161997412Y-80362022D01*
X161997413Y-80362022D01*
X162009041Y-80361585D01*
X162019731Y-80356992D01*
X162025228Y-80355753D01*
X162034084Y-80353062D01*
X162039326Y-80351039D01*
X162050760Y-80348910D01*
X162070987Y-80336442D01*
X162087366Y-80327934D01*
X162101023Y-80322067D01*
X162101025Y-80322066D01*
X162109192Y-80318557D01*
X162113951Y-80314648D01*
X162116145Y-80312454D01*
X162118406Y-80310404D01*
X162118589Y-80310606D01*
X162126039Y-80304716D01*
X162133645Y-80297820D01*
X162143550Y-80291714D01*
X162159543Y-80270682D01*
X162170738Y-80257862D01*
X162215547Y-80213052D01*
X162851140Y-79577459D01*
X162852984Y-79575867D01*
X162857677Y-79573573D01*
X162871734Y-79558420D01*
X162890057Y-79538667D01*
X162893337Y-79535262D01*
X162906341Y-79522258D01*
X162909016Y-79518358D01*
X162911146Y-79515933D01*
X162923894Y-79502191D01*
X162923896Y-79502188D01*
X162931807Y-79493660D01*
X162936118Y-79482855D01*
X162939117Y-79478111D01*
X162943486Y-79469928D01*
X162945761Y-79464793D01*
X162952344Y-79455197D01*
X162957829Y-79432082D01*
X162963394Y-79414485D01*
X162972199Y-79392417D01*
X162972800Y-79386288D01*
X162972800Y-79383209D01*
X162972950Y-79380137D01*
X162973221Y-79380150D01*
X162974324Y-79370725D01*
X162974826Y-79360463D01*
X162977513Y-79349141D01*
X162973951Y-79322967D01*
X162972800Y-79305977D01*
X162972800Y-77280349D01*
X162992802Y-77212228D01*
X163022096Y-77180387D01*
X163069125Y-77144300D01*
X163069128Y-77144297D01*
X163075674Y-77139274D01*
X163164555Y-77023442D01*
X163167823Y-77015554D01*
X163208095Y-76918327D01*
X163220428Y-76888554D01*
X163221688Y-76878988D01*
X163238407Y-76751988D01*
X163239485Y-76743800D01*
X163231385Y-76682275D01*
X163221506Y-76607232D01*
X163221505Y-76607230D01*
X163220428Y-76599046D01*
X163199278Y-76547986D01*
X163167715Y-76471786D01*
X163167714Y-76471784D01*
X163164555Y-76464158D01*
X163117133Y-76402357D01*
X163080701Y-76354877D01*
X163080700Y-76354876D01*
X163075674Y-76348326D01*
X163069124Y-76343300D01*
X163069121Y-76343297D01*
X162966396Y-76264473D01*
X162966394Y-76264472D01*
X162959843Y-76259445D01*
X162824954Y-76203572D01*
X162680200Y-76184515D01*
X162672012Y-76185593D01*
X162543632Y-76202494D01*
X162543630Y-76202495D01*
X162535446Y-76203572D01*
X162503528Y-76216793D01*
X162408186Y-76256285D01*
X162408184Y-76256286D01*
X162400558Y-76259445D01*
X162284726Y-76348326D01*
X162279703Y-76354872D01*
X162264644Y-76374497D01*
X162195845Y-76464158D01*
X162192685Y-76471786D01*
X162192683Y-76471790D01*
X162175191Y-76514018D01*
X162130642Y-76569298D01*
X162063279Y-76591718D01*
X161994488Y-76574159D01*
X161958821Y-76542502D01*
X161912305Y-76481881D01*
X161912300Y-76481876D01*
X161907274Y-76475326D01*
X161900724Y-76470300D01*
X161900721Y-76470297D01*
X161797996Y-76391473D01*
X161797994Y-76391472D01*
X161791443Y-76386445D01*
X161656554Y-76330572D01*
X161511800Y-76311515D01*
X161503612Y-76312593D01*
X161375232Y-76329494D01*
X161375230Y-76329495D01*
X161367046Y-76330572D01*
X161319230Y-76350378D01*
X161239786Y-76383285D01*
X161239784Y-76383286D01*
X161232158Y-76386445D01*
X161116326Y-76475326D01*
X161111303Y-76481872D01*
X161100955Y-76495358D01*
X161027445Y-76591158D01*
X161024286Y-76598784D01*
X161024285Y-76598786D01*
X160993607Y-76672850D01*
X160971572Y-76726046D01*
X160970495Y-76734230D01*
X160970494Y-76734232D01*
X160963315Y-76788767D01*
X160952515Y-76870800D01*
X160953593Y-76878988D01*
X160969606Y-77000618D01*
X160971572Y-77015554D01*
X160976410Y-77027234D01*
X161024284Y-77142810D01*
X161027445Y-77150442D01*
X161116326Y-77266274D01*
X161122872Y-77271297D01*
X161122875Y-77271300D01*
X161169904Y-77307387D01*
X161211771Y-77364725D01*
X161219200Y-77407349D01*
X161219200Y-78602411D01*
X161199198Y-78670532D01*
X161182295Y-78691506D01*
X160894106Y-78979695D01*
X160831794Y-79013721D01*
X160805011Y-79016600D01*
X147664389Y-79016600D01*
X147596268Y-78996598D01*
X147575294Y-78979695D01*
X144177859Y-75582260D01*
X144176267Y-75580416D01*
X144173973Y-75575723D01*
X144139067Y-75543343D01*
X144135662Y-75540063D01*
X144122658Y-75527059D01*
X144118758Y-75524384D01*
X144116333Y-75522254D01*
X144102591Y-75509506D01*
X144102588Y-75509504D01*
X144094060Y-75501593D01*
X144083255Y-75497282D01*
X144078511Y-75494283D01*
X144070328Y-75489914D01*
X144065193Y-75487639D01*
X144055597Y-75481056D01*
X144032482Y-75475571D01*
X144014890Y-75470008D01*
X143992817Y-75461201D01*
X143986688Y-75460600D01*
X143983609Y-75460600D01*
X143980537Y-75460450D01*
X143980550Y-75460179D01*
X143971125Y-75459076D01*
X143960863Y-75458574D01*
X143949541Y-75455887D01*
X143938012Y-75457456D01*
X143938011Y-75457456D01*
X143923368Y-75459449D01*
X143906377Y-75460600D01*
X112007251Y-75460600D01*
X112004826Y-75460422D01*
X111999884Y-75458725D01*
X111988262Y-75459161D01*
X111988259Y-75459161D01*
X111952319Y-75460511D01*
X111947591Y-75460600D01*
X111929189Y-75460600D01*
X111924540Y-75461466D01*
X111921308Y-75461675D01*
X111902588Y-75462378D01*
X111902587Y-75462378D01*
X111890959Y-75462815D01*
X111880269Y-75467408D01*
X111874772Y-75468647D01*
X111865916Y-75471338D01*
X111860674Y-75473361D01*
X111849240Y-75475490D01*
X111839339Y-75481593D01*
X111829013Y-75487958D01*
X111812633Y-75496466D01*
X111790808Y-75505843D01*
X111786050Y-75509752D01*
X111783868Y-75511934D01*
X111781601Y-75513990D01*
X111781419Y-75513789D01*
X111773951Y-75519692D01*
X111766353Y-75526582D01*
X111756450Y-75532686D01*
X111743603Y-75549581D01*
X111740460Y-75553714D01*
X111729259Y-75566543D01*
X110820256Y-76475545D01*
X110818417Y-76477133D01*
X110813723Y-76479427D01*
X110805811Y-76487956D01*
X110805810Y-76487957D01*
X110781343Y-76514333D01*
X110778063Y-76517738D01*
X110765059Y-76530742D01*
X110762384Y-76534642D01*
X110760254Y-76537067D01*
X110747506Y-76550809D01*
X110747504Y-76550812D01*
X110739593Y-76559340D01*
X110735282Y-76570145D01*
X110732283Y-76574889D01*
X110727914Y-76583072D01*
X110725639Y-76588207D01*
X110719056Y-76597803D01*
X110713571Y-76620917D01*
X110708008Y-76638510D01*
X110699201Y-76660583D01*
X110698600Y-76666712D01*
X110698600Y-76669791D01*
X110698450Y-76672863D01*
X110698179Y-76672850D01*
X110697076Y-76682275D01*
X110696574Y-76692537D01*
X110693887Y-76703859D01*
X109208500Y-76703859D01*
X109208500Y-75207229D01*
X109228502Y-75139108D01*
X109245405Y-75118134D01*
X110229133Y-74134405D01*
X110291445Y-74100380D01*
X110318228Y-74097500D01*
X145039771Y-74097500D01*
X145107892Y-74117502D01*
X145128866Y-74134405D01*
X148908114Y-77913652D01*
X148920619Y-77929134D01*
X148923555Y-77932361D01*
X148929207Y-77941114D01*
X148953470Y-77960241D01*
X148957465Y-77963791D01*
X148957549Y-77963692D01*
X148961512Y-77967050D01*
X148965188Y-77970726D01*
X148969417Y-77973749D01*
X148969418Y-77973749D01*
X148979684Y-77981086D01*
X148984427Y-77984647D01*
X149013707Y-78007729D01*
X149013711Y-78007731D01*
X149021889Y-78014178D01*
X149029957Y-78017011D01*
X149036917Y-78021985D01*
X149046895Y-78024969D01*
X149082618Y-78035652D01*
X149088267Y-78037488D01*
X149133240Y-78053282D01*
X149138436Y-78053732D01*
X149141141Y-78053732D01*
X149143397Y-78053829D01*
X149143873Y-78053972D01*
X149143871Y-78054018D01*
X149144070Y-78054031D01*
X149149987Y-78055800D01*
X149200156Y-78053829D01*
X149205102Y-78053732D01*
X157916118Y-78053732D01*
X157984239Y-78073734D01*
X158003700Y-78089418D01*
X158007758Y-78094706D01*
X158123589Y-78183587D01*
X158258478Y-78239460D01*
X158403232Y-78258517D01*
X158411420Y-78257439D01*
X158539798Y-78240538D01*
X158547986Y-78239460D01*
X158682875Y-78183587D01*
X158689428Y-78178559D01*
X158792153Y-78099735D01*
X158792156Y-78099732D01*
X158798706Y-78094706D01*
X158814799Y-78073734D01*
X158882560Y-77985425D01*
X158887587Y-77978874D01*
X158943460Y-77843986D01*
X158962517Y-77699232D01*
X158946503Y-77577589D01*
X158944538Y-77562664D01*
X158944537Y-77562662D01*
X158943460Y-77554478D01*
X158906115Y-77464319D01*
X158890747Y-77427218D01*
X158890746Y-77427216D01*
X158887587Y-77419590D01*
X158830516Y-77345213D01*
X158803733Y-77310309D01*
X158803732Y-77310308D01*
X158798706Y-77303758D01*
X158792156Y-77298732D01*
X158792153Y-77298729D01*
X158689428Y-77219905D01*
X158689426Y-77219904D01*
X158682875Y-77214877D01*
X158547986Y-77159004D01*
X158403232Y-77139947D01*
X158269090Y-77157607D01*
X158198943Y-77146668D01*
X158145844Y-77099540D01*
X158126654Y-77031186D01*
X158127723Y-77016239D01*
X158138987Y-76930677D01*
X158138987Y-76930676D01*
X158140065Y-76922488D01*
X158127853Y-76829729D01*
X158122086Y-76785920D01*
X158122085Y-76785918D01*
X158121008Y-76777734D01*
X158077563Y-76672850D01*
X158068295Y-76650474D01*
X158068294Y-76650472D01*
X158065135Y-76642846D01*
X158008700Y-76569298D01*
X157981281Y-76533565D01*
X157981280Y-76533564D01*
X157976254Y-76527014D01*
X157969704Y-76521988D01*
X157969701Y-76521985D01*
X157866976Y-76443161D01*
X157866974Y-76443160D01*
X157860423Y-76438133D01*
X157738991Y-76387834D01*
X157733163Y-76385420D01*
X157725534Y-76382260D01*
X157687206Y-76377214D01*
X157588968Y-76364281D01*
X157580780Y-76363203D01*
X157572592Y-76364281D01*
X157444212Y-76381182D01*
X157444210Y-76381183D01*
X157436026Y-76382260D01*
X157402865Y-76395996D01*
X157308766Y-76434973D01*
X157308764Y-76434974D01*
X157301138Y-76438133D01*
X157277670Y-76456141D01*
X157197395Y-76517738D01*
X157185306Y-76527014D01*
X157181769Y-76531623D01*
X157120453Y-76565108D01*
X157093666Y-76567988D01*
X152406581Y-76567988D01*
X152338460Y-76547986D01*
X152291967Y-76494330D01*
X152281863Y-76424056D01*
X152311357Y-76359476D01*
X152339067Y-76335603D01*
X152394642Y-76300334D01*
X152397986Y-76298212D01*
X152642842Y-76095650D01*
X152860378Y-75863997D01*
X152900345Y-75808988D01*
X152950701Y-75739678D01*
X153047166Y-75606906D01*
X153200259Y-75328432D01*
X153317242Y-75032965D01*
X153318225Y-75029135D01*
X153318228Y-75029127D01*
X153395285Y-74729006D01*
X153396271Y-74725167D01*
X153397907Y-74712222D01*
X153435603Y-74413822D01*
X153436100Y-74409891D01*
X153436100Y-74092109D01*
X153409420Y-73880916D01*
X153396768Y-73780765D01*
X153396767Y-73780761D01*
X153396271Y-73776833D01*
X153341450Y-73563319D01*
X153318228Y-73472873D01*
X153318225Y-73472865D01*
X153317242Y-73469035D01*
X153233330Y-73257096D01*
X174898729Y-73257096D01*
X174916113Y-73414553D01*
X174918723Y-73421684D01*
X174918723Y-73421686D01*
X174924121Y-73436435D01*
X174970553Y-73563319D01*
X174974789Y-73569622D01*
X174974789Y-73569623D01*
X175049242Y-73680420D01*
X175058908Y-73694805D01*
X175064527Y-73699918D01*
X175064528Y-73699919D01*
X175081326Y-73715204D01*
X175176076Y-73801419D01*
X175315293Y-73877008D01*
X175468522Y-73917207D01*
X175552477Y-73918526D01*
X175619319Y-73919576D01*
X175619322Y-73919576D01*
X175626916Y-73919695D01*
X175781332Y-73884329D01*
X175851742Y-73848917D01*
X175916072Y-73816563D01*
X175916075Y-73816561D01*
X175922855Y-73813151D01*
X175928626Y-73808222D01*
X175928629Y-73808220D01*
X176037536Y-73715204D01*
X176037536Y-73715203D01*
X176043314Y-73710269D01*
X176044068Y-73711152D01*
X176098617Y-73678327D01*
X176169583Y-73680420D01*
X176215335Y-73707023D01*
X176224326Y-73715204D01*
X176319076Y-73801419D01*
X176458293Y-73877008D01*
X176611522Y-73917207D01*
X176695477Y-73918526D01*
X176762319Y-73919576D01*
X176762322Y-73919576D01*
X176769916Y-73919695D01*
X176924332Y-73884329D01*
X176994742Y-73848917D01*
X177059072Y-73816563D01*
X177059075Y-73816561D01*
X177065855Y-73813151D01*
X177071626Y-73808222D01*
X177071629Y-73808220D01*
X177180536Y-73715204D01*
X177180536Y-73715203D01*
X177186314Y-73710269D01*
X177187068Y-73711152D01*
X177241617Y-73678327D01*
X177312583Y-73680420D01*
X177358335Y-73707023D01*
X177367326Y-73715204D01*
X177462076Y-73801419D01*
X177601293Y-73877008D01*
X177754522Y-73917207D01*
X177838477Y-73918526D01*
X177905319Y-73919576D01*
X177905322Y-73919576D01*
X177912916Y-73919695D01*
X178067332Y-73884329D01*
X178137742Y-73848917D01*
X178202072Y-73816563D01*
X178202075Y-73816561D01*
X178208855Y-73813151D01*
X178214626Y-73808222D01*
X178214629Y-73808220D01*
X178323536Y-73715204D01*
X178323536Y-73715203D01*
X178329314Y-73710269D01*
X178376478Y-73644634D01*
X178432470Y-73600988D01*
X178503173Y-73594542D01*
X178566138Y-73627345D01*
X178583380Y-73647887D01*
X178610668Y-73688497D01*
X178610671Y-73688500D01*
X178614908Y-73694805D01*
X178620527Y-73699918D01*
X178620528Y-73699919D01*
X178637326Y-73715204D01*
X178732076Y-73801419D01*
X178871293Y-73877008D01*
X179024522Y-73917207D01*
X179108477Y-73918526D01*
X179175319Y-73919576D01*
X179175322Y-73919576D01*
X179182916Y-73919695D01*
X179337332Y-73884329D01*
X179407742Y-73848917D01*
X179472072Y-73816563D01*
X179472075Y-73816561D01*
X179478855Y-73813151D01*
X179484626Y-73808222D01*
X179484629Y-73808220D01*
X179593536Y-73715204D01*
X179593536Y-73715203D01*
X179599314Y-73710269D01*
X179691755Y-73581624D01*
X179750842Y-73434641D01*
X179773162Y-73277807D01*
X179773307Y-73264000D01*
X179754276Y-73106733D01*
X179698280Y-72958546D01*
X179645226Y-72881352D01*
X179612855Y-72834251D01*
X179612854Y-72834249D01*
X179608553Y-72827992D01*
X179490275Y-72722611D01*
X179482889Y-72718700D01*
X179356988Y-72652039D01*
X179356989Y-72652039D01*
X179350274Y-72648484D01*
X179196633Y-72609892D01*
X179189034Y-72609852D01*
X179189033Y-72609852D01*
X179123181Y-72609507D01*
X179038221Y-72609062D01*
X179030841Y-72610834D01*
X179030839Y-72610834D01*
X178891563Y-72644271D01*
X178891560Y-72644272D01*
X178884184Y-72646043D01*
X178743414Y-72718700D01*
X178624039Y-72822838D01*
X178619672Y-72829052D01*
X178619669Y-72829055D01*
X178582153Y-72882435D01*
X178526619Y-72926667D01*
X178455987Y-72933853D01*
X178392682Y-72901712D01*
X178375226Y-72881352D01*
X178342855Y-72834251D01*
X178342854Y-72834249D01*
X178338553Y-72827992D01*
X178220275Y-72722611D01*
X178212889Y-72718700D01*
X178086988Y-72652039D01*
X178086989Y-72652039D01*
X178080274Y-72648484D01*
X177926633Y-72609892D01*
X177919034Y-72609852D01*
X177919033Y-72609852D01*
X177853181Y-72609507D01*
X177768221Y-72609062D01*
X177760841Y-72610834D01*
X177760839Y-72610834D01*
X177621563Y-72644271D01*
X177621560Y-72644272D01*
X177614184Y-72646043D01*
X177473414Y-72718700D01*
X177467697Y-72723687D01*
X177467690Y-72723692D01*
X177354745Y-72822221D01*
X177290263Y-72851929D01*
X177219956Y-72842059D01*
X177188097Y-72821349D01*
X177082946Y-72727664D01*
X177077275Y-72722611D01*
X177069889Y-72718700D01*
X176943988Y-72652039D01*
X176943989Y-72652039D01*
X176937274Y-72648484D01*
X176783633Y-72609892D01*
X176776034Y-72609852D01*
X176776033Y-72609852D01*
X176710181Y-72609507D01*
X176625221Y-72609062D01*
X176617841Y-72610834D01*
X176617839Y-72610834D01*
X176478563Y-72644271D01*
X176478560Y-72644272D01*
X176471184Y-72646043D01*
X176330414Y-72718700D01*
X176324697Y-72723687D01*
X176324690Y-72723692D01*
X176211745Y-72822221D01*
X176147263Y-72851929D01*
X176076956Y-72842059D01*
X176045097Y-72821349D01*
X175939946Y-72727664D01*
X175934275Y-72722611D01*
X175926889Y-72718700D01*
X175800988Y-72652039D01*
X175800989Y-72652039D01*
X175794274Y-72648484D01*
X175640633Y-72609892D01*
X175633034Y-72609852D01*
X175633033Y-72609852D01*
X175567181Y-72609507D01*
X175482221Y-72609062D01*
X175474841Y-72610834D01*
X175474839Y-72610834D01*
X175335563Y-72644271D01*
X175335560Y-72644272D01*
X175328184Y-72646043D01*
X175187414Y-72718700D01*
X175068039Y-72822838D01*
X174976950Y-72952444D01*
X174954893Y-73009017D01*
X174922626Y-73091779D01*
X174919406Y-73100037D01*
X174918414Y-73107570D01*
X174918414Y-73107571D01*
X174909726Y-73173568D01*
X174898729Y-73257096D01*
X153233330Y-73257096D01*
X153200259Y-73173568D01*
X153047166Y-72895094D01*
X152866649Y-72646634D01*
X152862706Y-72641207D01*
X152862705Y-72641205D01*
X152860378Y-72638003D01*
X152736540Y-72506128D01*
X152704489Y-72442777D01*
X152711776Y-72372156D01*
X152756087Y-72316685D01*
X152828390Y-72293875D01*
X194264500Y-72293875D01*
X194332621Y-72313877D01*
X194379114Y-72367533D01*
X194390500Y-72419875D01*
X194390500Y-116390174D01*
X194370498Y-116458295D01*
X194316842Y-116504788D01*
X194264500Y-116516174D01*
X174325500Y-116516174D01*
X174257379Y-116496172D01*
X174210886Y-116442516D01*
X174199500Y-116390174D01*
X174199500Y-110326845D01*
X174201919Y-110302274D01*
X174204486Y-110289369D01*
X174202695Y-110280368D01*
X174187907Y-110092514D01*
X174141806Y-109900508D01*
X174066236Y-109718077D01*
X173963059Y-109549713D01*
X173959498Y-109545543D01*
X173924278Y-109504308D01*
X173834815Y-109399563D01*
X173724459Y-109305312D01*
X173685649Y-109245862D01*
X173685141Y-109174867D01*
X173723097Y-109114868D01*
X173787465Y-109084914D01*
X173806288Y-109083500D01*
X173983372Y-109083500D01*
X174008369Y-109082293D01*
X174009873Y-109082147D01*
X174009893Y-109082146D01*
X174026537Y-109080535D01*
X174026540Y-109080534D01*
X174032527Y-109079955D01*
X174127020Y-109052015D01*
X174135400Y-109047668D01*
X174186054Y-109021393D01*
X174186058Y-109021391D01*
X174190042Y-109019324D01*
X174205030Y-109008594D01*
X174246445Y-108978945D01*
X174246450Y-108978940D01*
X174250101Y-108976327D01*
X174253341Y-108973222D01*
X174253347Y-108973217D01*
X178377549Y-105020856D01*
X180270731Y-103206557D01*
X180291498Y-103184167D01*
X180292682Y-103182729D01*
X180292691Y-103182719D01*
X180306272Y-103166227D01*
X180310314Y-103161319D01*
X180313291Y-103155701D01*
X180356012Y-103075077D01*
X180356013Y-103075075D01*
X180358987Y-103069462D01*
X180368868Y-103035812D01*
X180377720Y-103005664D01*
X180377721Y-103005660D01*
X180378989Y-103001341D01*
X180380504Y-102990809D01*
X180388861Y-102932680D01*
X180388861Y-102932673D01*
X180389500Y-102928232D01*
X180389500Y-87106000D01*
X180383570Y-87050841D01*
X180372184Y-86998499D01*
X180364834Y-86971709D01*
X180314731Y-86883722D01*
X180295883Y-86861970D01*
X180270078Y-86832189D01*
X180270073Y-86832184D01*
X180268238Y-86830066D01*
X180234949Y-86797944D01*
X180145230Y-86751013D01*
X180139294Y-86749270D01*
X180081432Y-86732280D01*
X180081428Y-86732279D01*
X180077109Y-86731011D01*
X180072661Y-86730371D01*
X180072654Y-86730370D01*
X180008448Y-86721139D01*
X180008441Y-86721139D01*
X180004000Y-86720500D01*
X178193440Y-86720500D01*
X178190629Y-86720754D01*
X178190620Y-86720754D01*
X178149821Y-86724435D01*
X178149814Y-86724436D01*
X178146998Y-86724690D01*
X178144220Y-86725195D01*
X178144215Y-86725196D01*
X178103759Y-86732555D01*
X178103745Y-86732558D01*
X178102628Y-86732761D01*
X178101495Y-86733010D01*
X178101485Y-86733012D01*
X178091347Y-86735240D01*
X178084176Y-86736816D01*
X177992964Y-86780776D01*
X177988017Y-86784501D01*
X177988016Y-86784502D01*
X177969266Y-86798622D01*
X177902817Y-86823623D01*
X177833400Y-86808730D01*
X177801619Y-86784223D01*
X177648753Y-86621437D01*
X177648752Y-86621436D01*
X177646042Y-86618550D01*
X177401186Y-86415988D01*
X177132874Y-86245712D01*
X177129295Y-86244028D01*
X177129288Y-86244024D01*
X176848927Y-86112096D01*
X176848923Y-86112094D01*
X176845337Y-86110407D01*
X176543108Y-86012207D01*
X176230955Y-85952661D01*
X176135902Y-85946681D01*
X175995155Y-85937825D01*
X175995139Y-85937824D01*
X175993160Y-85937700D01*
X175834440Y-85937700D01*
X175832461Y-85937824D01*
X175832445Y-85937825D01*
X175691698Y-85946681D01*
X175596645Y-85952661D01*
X175284492Y-86012207D01*
X174982263Y-86110407D01*
X174978677Y-86112094D01*
X174978673Y-86112096D01*
X174698312Y-86244024D01*
X174698305Y-86244028D01*
X174694726Y-86245712D01*
X174426414Y-86415988D01*
X174181558Y-86618550D01*
X174178854Y-86621429D01*
X174178847Y-86621436D01*
X174108611Y-86696231D01*
X174028228Y-86781830D01*
X173967018Y-86817794D01*
X173896078Y-86814957D01*
X173867505Y-86800256D01*
X173865109Y-86797944D01*
X173775390Y-86751013D01*
X173769454Y-86749270D01*
X173711592Y-86732280D01*
X173711588Y-86732279D01*
X173707269Y-86731011D01*
X173702821Y-86730371D01*
X173702814Y-86730370D01*
X173638608Y-86721139D01*
X173638601Y-86721139D01*
X173634160Y-86720500D01*
X161459845Y-86720500D01*
X161391724Y-86700498D01*
X161385503Y-86696231D01*
X154916774Y-81969083D01*
X154916729Y-81969050D01*
X154916319Y-81968751D01*
X154915276Y-81968012D01*
X154914523Y-81967479D01*
X154909992Y-81964271D01*
X154903771Y-81960004D01*
X154830098Y-81925013D01*
X154825333Y-81923614D01*
X154825328Y-81923612D01*
X154766300Y-81906280D01*
X154766296Y-81906279D01*
X154761977Y-81905011D01*
X154757529Y-81904371D01*
X154757522Y-81904370D01*
X154693316Y-81895139D01*
X154693309Y-81895139D01*
X154688868Y-81894500D01*
X146230869Y-81894500D01*
X146162748Y-81874498D01*
X146151414Y-81866290D01*
X142229054Y-78679372D01*
X142229024Y-78679349D01*
X142228359Y-78678808D01*
X142216927Y-78670035D01*
X142213108Y-78667269D01*
X142209945Y-78664978D01*
X142209939Y-78664975D01*
X142205593Y-78661827D01*
X142200771Y-78659461D01*
X142200768Y-78659459D01*
X142166982Y-78642880D01*
X142126495Y-78623013D01*
X142121342Y-78621500D01*
X142121337Y-78621498D01*
X142062697Y-78604280D01*
X142062693Y-78604279D01*
X142058374Y-78603011D01*
X142053926Y-78602371D01*
X142053919Y-78602370D01*
X141989713Y-78593139D01*
X141989706Y-78593139D01*
X141985265Y-78592500D01*
X114470000Y-78592500D01*
X114466654Y-78592860D01*
X114466649Y-78592860D01*
X114418205Y-78598068D01*
X114418199Y-78598069D01*
X114414841Y-78598430D01*
X114411541Y-78599148D01*
X114411540Y-78599148D01*
X114398650Y-78601952D01*
X114362499Y-78609816D01*
X114335709Y-78617166D01*
X114328858Y-78621067D01*
X114328856Y-78621068D01*
X114262842Y-78658659D01*
X114247722Y-78667269D01*
X114231811Y-78681056D01*
X114198439Y-78709973D01*
X114194066Y-78713762D01*
X114161944Y-78747051D01*
X114115013Y-78836770D01*
X114095011Y-78904891D01*
X114094371Y-78909339D01*
X114094370Y-78909346D01*
X114085139Y-78973552D01*
X114084500Y-78978000D01*
X114084500Y-100634507D01*
X114088172Y-100678010D01*
X114095254Y-100719657D01*
X114098402Y-100735255D01*
X114140253Y-100827453D01*
X114143859Y-100832478D01*
X114143862Y-100832483D01*
X114179023Y-100881478D01*
X114181647Y-100885134D01*
X114184758Y-100888373D01*
X114184764Y-100888380D01*
X114228535Y-100933949D01*
X114232813Y-100938403D01*
X114236362Y-100941173D01*
X114825927Y-101401321D01*
X124564163Y-109001896D01*
X124564711Y-109002304D01*
X124564723Y-109002313D01*
X124573162Y-109008594D01*
X124573188Y-109008613D01*
X124573688Y-109008985D01*
X124583091Y-109015655D01*
X124587787Y-109017931D01*
X124587794Y-109017935D01*
X124655421Y-109050710D01*
X124655425Y-109050711D01*
X124660120Y-109052987D01*
X124665126Y-109054457D01*
X124665129Y-109054458D01*
X124723918Y-109071720D01*
X124723922Y-109071721D01*
X124728241Y-109072989D01*
X124732689Y-109073629D01*
X124732696Y-109073630D01*
X124796902Y-109082861D01*
X124796909Y-109082861D01*
X124801350Y-109083500D01*
X134148751Y-109083500D01*
X134216872Y-109103502D01*
X134263365Y-109157158D01*
X134273469Y-109227432D01*
X134243975Y-109292012D01*
X134230584Y-109305309D01*
X134120203Y-109399581D01*
X133991961Y-109549728D01*
X133989382Y-109553937D01*
X133989378Y-109553942D01*
X133986769Y-109558200D01*
X133888786Y-109718088D01*
X133813218Y-109900516D01*
X133767118Y-110092518D01*
X133766729Y-110097460D01*
X133752947Y-110272532D01*
X133752346Y-110280160D01*
X133750514Y-110289369D01*
X133753081Y-110302274D01*
X133755500Y-110326845D01*
X133755500Y-116252442D01*
X133735498Y-116320563D01*
X133718595Y-116341538D01*
X133580862Y-116479270D01*
X133518550Y-116513295D01*
X133491767Y-116516174D01*
X124798232Y-116516174D01*
X124730111Y-116496172D01*
X124709136Y-116479269D01*
X124571404Y-116341536D01*
X124537379Y-116279224D01*
X124534500Y-116252441D01*
X124534500Y-110326845D01*
X124536919Y-110302274D01*
X124539486Y-110289369D01*
X124537695Y-110280368D01*
X124522907Y-110092514D01*
X124476806Y-109900508D01*
X124401236Y-109718077D01*
X124298059Y-109549713D01*
X124294498Y-109545543D01*
X124259278Y-109504308D01*
X124169815Y-109399563D01*
X124059459Y-109305312D01*
X124023427Y-109274538D01*
X124023424Y-109274536D01*
X124019661Y-109271322D01*
X123948037Y-109227432D01*
X123855521Y-109170739D01*
X123855515Y-109170736D01*
X123851295Y-109168150D01*
X123846720Y-109166255D01*
X123846716Y-109166253D01*
X123695218Y-109103502D01*
X123668862Y-109092585D01*
X123569231Y-109068666D01*
X123481668Y-109047644D01*
X123481662Y-109047643D01*
X123476855Y-109046489D01*
X123289209Y-109031721D01*
X123280000Y-109029889D01*
X123267103Y-109032454D01*
X123242524Y-109034875D01*
X121352476Y-109034875D01*
X121327897Y-109032454D01*
X121315000Y-109029889D01*
X121305583Y-109031762D01*
X121298620Y-109032310D01*
X121298430Y-109032310D01*
X121298184Y-109032344D01*
X121211393Y-109039175D01*
X121118149Y-109046513D01*
X121113342Y-109047667D01*
X121113336Y-109047668D01*
X120930954Y-109091454D01*
X120930949Y-109091456D01*
X120926145Y-109092609D01*
X120921574Y-109094502D01*
X120921572Y-109094503D01*
X120748295Y-109166275D01*
X120748291Y-109166277D01*
X120743716Y-109168172D01*
X120575354Y-109271343D01*
X120425203Y-109399581D01*
X120296961Y-109549728D01*
X120294382Y-109553937D01*
X120294378Y-109553942D01*
X120291769Y-109558200D01*
X120193786Y-109718088D01*
X120118218Y-109900516D01*
X120072118Y-110092518D01*
X120071729Y-110097460D01*
X120057947Y-110272532D01*
X120057346Y-110280160D01*
X120055514Y-110289369D01*
X120058081Y-110302274D01*
X120060500Y-110326845D01*
X120060500Y-116390174D01*
X120040498Y-116458295D01*
X119986842Y-116504788D01*
X119934500Y-116516174D01*
X107615500Y-116516174D01*
X107547379Y-116496172D01*
X107500886Y-116442516D01*
X107489500Y-116390174D01*
X107489500Y-72419875D01*
X107509502Y-72351754D01*
X107563158Y-72305261D01*
X107615500Y-72293875D01*
X148992810Y-72293875D01*
X149060931Y-72313877D01*
G37*
%TD.AperFunction*%
%TA.AperFunction,Conductor*%
G36*
X143829732Y-76065802D02*
G01*
X143850706Y-76082705D01*
X147248141Y-79480140D01*
X147249733Y-79481984D01*
X147252027Y-79486677D01*
X147260556Y-79494589D01*
X147260557Y-79494590D01*
X147286933Y-79519057D01*
X147290338Y-79522337D01*
X147303341Y-79535340D01*
X147307239Y-79538014D01*
X147309674Y-79540152D01*
X147327507Y-79556694D01*
X147331313Y-79560225D01*
X147367652Y-79621217D01*
X147365248Y-79692172D01*
X147324863Y-79750564D01*
X147259320Y-79777853D01*
X147245623Y-79778600D01*
X147156389Y-79778600D01*
X147088268Y-79758598D01*
X147067294Y-79741695D01*
X143822259Y-76496660D01*
X143820667Y-76494816D01*
X143818373Y-76490123D01*
X143809479Y-76481872D01*
X143783467Y-76457743D01*
X143780062Y-76454463D01*
X143767058Y-76441459D01*
X143763158Y-76438784D01*
X143760733Y-76436654D01*
X143746991Y-76423906D01*
X143746988Y-76423904D01*
X143738460Y-76415993D01*
X143727655Y-76411682D01*
X143722911Y-76408683D01*
X143714728Y-76404314D01*
X143709593Y-76402039D01*
X143699997Y-76395456D01*
X143676882Y-76389971D01*
X143659290Y-76384408D01*
X143637217Y-76375601D01*
X143631088Y-76375000D01*
X143628009Y-76375000D01*
X143624937Y-76374850D01*
X143624950Y-76374579D01*
X143615525Y-76373476D01*
X143605263Y-76372974D01*
X143593941Y-76370287D01*
X143582412Y-76371856D01*
X143582411Y-76371856D01*
X143567768Y-76373849D01*
X143550777Y-76375000D01*
X112794652Y-76375000D01*
X112792226Y-76374822D01*
X112787284Y-76373125D01*
X112775661Y-76373561D01*
X112775659Y-76373561D01*
X112739708Y-76374911D01*
X112734981Y-76375000D01*
X112716589Y-76375000D01*
X112711944Y-76375866D01*
X112708713Y-76376075D01*
X112678360Y-76377214D01*
X112667668Y-76381808D01*
X112662186Y-76383043D01*
X112653325Y-76385736D01*
X112648082Y-76387759D01*
X112636640Y-76389890D01*
X112616415Y-76402357D01*
X112600038Y-76410864D01*
X112578209Y-76420243D01*
X112573450Y-76424151D01*
X112571264Y-76426337D01*
X112568990Y-76428399D01*
X112568807Y-76428198D01*
X112561361Y-76434084D01*
X112553755Y-76440980D01*
X112543850Y-76447086D01*
X112536808Y-76456347D01*
X112527860Y-76468114D01*
X112516659Y-76480942D01*
X111836260Y-77161341D01*
X111834416Y-77162933D01*
X111829723Y-77165227D01*
X111821811Y-77173756D01*
X111821810Y-77173757D01*
X111797343Y-77200133D01*
X111794063Y-77203538D01*
X111781059Y-77216542D01*
X111778384Y-77220442D01*
X111776254Y-77222867D01*
X111763506Y-77236609D01*
X111763504Y-77236612D01*
X111755593Y-77245140D01*
X111751282Y-77255945D01*
X111748283Y-77260689D01*
X111743914Y-77268872D01*
X111741639Y-77274007D01*
X111735056Y-77283603D01*
X111731467Y-77298729D01*
X111729571Y-77306717D01*
X111724008Y-77324310D01*
X111715201Y-77346383D01*
X111714600Y-77352512D01*
X111714600Y-77355591D01*
X111714450Y-77358663D01*
X111714179Y-77358650D01*
X111713076Y-77368075D01*
X111712574Y-77378337D01*
X111709887Y-77389659D01*
X111711456Y-77401188D01*
X111711456Y-77401189D01*
X111713449Y-77415832D01*
X111714600Y-77432823D01*
X111714600Y-102600949D01*
X111714422Y-102603374D01*
X111712725Y-102608316D01*
X111713161Y-102619938D01*
X111713161Y-102619941D01*
X111714511Y-102655881D01*
X111714600Y-102660609D01*
X111714600Y-102679011D01*
X111715466Y-102683660D01*
X111715675Y-102686892D01*
X111716815Y-102717241D01*
X111721408Y-102727931D01*
X111722647Y-102733428D01*
X111725338Y-102742284D01*
X111727361Y-102747526D01*
X111729490Y-102758960D01*
X111735593Y-102768861D01*
X111741958Y-102779187D01*
X111750466Y-102795566D01*
X111759843Y-102817392D01*
X111763752Y-102822151D01*
X111765946Y-102824345D01*
X111767996Y-102826606D01*
X111767794Y-102826789D01*
X111773684Y-102834239D01*
X111780580Y-102841845D01*
X111786686Y-102851750D01*
X111795947Y-102858792D01*
X111807714Y-102867740D01*
X111820542Y-102878941D01*
X113389941Y-104448340D01*
X113391533Y-104450184D01*
X113393827Y-104454877D01*
X113402356Y-104462789D01*
X113402357Y-104462790D01*
X113428733Y-104487257D01*
X113432138Y-104490537D01*
X113445142Y-104503541D01*
X113449042Y-104506216D01*
X113451467Y-104508346D01*
X113465209Y-104521094D01*
X113465212Y-104521096D01*
X113473740Y-104529007D01*
X113484545Y-104533318D01*
X113489289Y-104536317D01*
X113497472Y-104540686D01*
X113502607Y-104542961D01*
X113512203Y-104549544D01*
X113535317Y-104555029D01*
X113552910Y-104560592D01*
X113574983Y-104569399D01*
X113581112Y-104570000D01*
X113584191Y-104570000D01*
X113587263Y-104570150D01*
X113587250Y-104570421D01*
X113596675Y-104571524D01*
X113606937Y-104572026D01*
X113618259Y-104574713D01*
X113629788Y-104573144D01*
X113629789Y-104573144D01*
X113639760Y-104571787D01*
X113644433Y-104571151D01*
X113661423Y-104570000D01*
X114881811Y-104570000D01*
X114949932Y-104590002D01*
X114970906Y-104606905D01*
X116503695Y-106139694D01*
X116537721Y-106202006D01*
X116540600Y-106228789D01*
X116540600Y-107119051D01*
X116520598Y-107187172D01*
X116491304Y-107219013D01*
X116444276Y-107255099D01*
X116444272Y-107255103D01*
X116437726Y-107260126D01*
X116432703Y-107266672D01*
X116422087Y-107280507D01*
X116348845Y-107375958D01*
X116345685Y-107383587D01*
X116339786Y-107397828D01*
X116295237Y-107453108D01*
X116227873Y-107475529D01*
X116159082Y-107457970D01*
X116123415Y-107426313D01*
X116039901Y-107317476D01*
X116039897Y-107317472D01*
X116034874Y-107310926D01*
X116028328Y-107305903D01*
X116028325Y-107305900D01*
X115981296Y-107269813D01*
X115939429Y-107212475D01*
X115932000Y-107169851D01*
X115932000Y-106106252D01*
X115932178Y-106103826D01*
X115933875Y-106098884D01*
X115933206Y-106081042D01*
X115932089Y-106051308D01*
X115932000Y-106046581D01*
X115932000Y-106028189D01*
X115931134Y-106023544D01*
X115930925Y-106020313D01*
X115930560Y-106010591D01*
X115929786Y-105989960D01*
X115925192Y-105979269D01*
X115923957Y-105973786D01*
X115921261Y-105964913D01*
X115919239Y-105959674D01*
X115917110Y-105948240D01*
X115904638Y-105928006D01*
X115896141Y-105911649D01*
X115886757Y-105889808D01*
X115882848Y-105885050D01*
X115880665Y-105882867D01*
X115878610Y-105880601D01*
X115878811Y-105880419D01*
X115872908Y-105872951D01*
X115866018Y-105865353D01*
X115859914Y-105855450D01*
X115838886Y-105839460D01*
X115826057Y-105828259D01*
X115422743Y-105424944D01*
X115018655Y-105020856D01*
X115017067Y-105019017D01*
X115014773Y-105014323D01*
X114979867Y-104981943D01*
X114976462Y-104978663D01*
X114963458Y-104965659D01*
X114959558Y-104962984D01*
X114957133Y-104960854D01*
X114943391Y-104948106D01*
X114943388Y-104948104D01*
X114934860Y-104940193D01*
X114924055Y-104935882D01*
X114919311Y-104932883D01*
X114911128Y-104928514D01*
X114905993Y-104926239D01*
X114896397Y-104919656D01*
X114873282Y-104914171D01*
X114855690Y-104908608D01*
X114833617Y-104899801D01*
X114827488Y-104899200D01*
X114824409Y-104899200D01*
X114821337Y-104899050D01*
X114821350Y-104898779D01*
X114811925Y-104897676D01*
X114801663Y-104897174D01*
X114790341Y-104894487D01*
X114778812Y-104896056D01*
X114778811Y-104896056D01*
X114764168Y-104898049D01*
X114747177Y-104899200D01*
X113374389Y-104899200D01*
X113306268Y-104879198D01*
X113285294Y-104862295D01*
X111320705Y-102897706D01*
X111286679Y-102835394D01*
X111283800Y-102808611D01*
X111283800Y-76891789D01*
X111303802Y-76823668D01*
X111320705Y-76802694D01*
X112040694Y-76082705D01*
X112103006Y-76048679D01*
X112129789Y-76045800D01*
X143761611Y-76045800D01*
X143829732Y-76065802D01*
G37*
%TD.AperFunction*%
%TA.AperFunction,Conductor*%
G36*
X147636525Y-93175140D02*
G01*
X147737410Y-93179897D01*
X147751180Y-93181308D01*
X148017545Y-93223496D01*
X148032977Y-93226946D01*
X148289027Y-93301335D01*
X148303912Y-93306694D01*
X148548615Y-93412587D01*
X148562707Y-93419767D01*
X148792225Y-93555504D01*
X148805302Y-93564391D01*
X149015987Y-93727815D01*
X149027856Y-93738280D01*
X149216386Y-93926810D01*
X149226851Y-93938679D01*
X149390275Y-94149364D01*
X149399162Y-94162441D01*
X149534896Y-94391953D01*
X149542079Y-94406051D01*
X149647972Y-94650754D01*
X149653331Y-94665639D01*
X149722227Y-94902779D01*
X149727719Y-94921684D01*
X149731170Y-94937121D01*
X149773358Y-95203483D01*
X149774769Y-95217257D01*
X149779054Y-95308149D01*
X149779525Y-95318139D01*
X149779665Y-95324073D01*
X149779666Y-99246273D01*
X149779666Y-100015924D01*
X149779526Y-100021859D01*
X149774769Y-100122741D01*
X149773358Y-100136514D01*
X149746691Y-100304888D01*
X149731171Y-100402874D01*
X149727720Y-100418311D01*
X149664910Y-100634507D01*
X149653332Y-100674358D01*
X149647972Y-100689246D01*
X149542079Y-100933949D01*
X149534899Y-100948041D01*
X149399162Y-101177559D01*
X149390275Y-101190636D01*
X149226851Y-101401321D01*
X149216386Y-101413190D01*
X149027856Y-101601720D01*
X149015987Y-101612185D01*
X148805302Y-101775609D01*
X148792225Y-101784496D01*
X148562707Y-101920233D01*
X148548615Y-101927413D01*
X148303912Y-102033306D01*
X148289027Y-102038665D01*
X148032977Y-102113054D01*
X148017545Y-102116504D01*
X147751180Y-102158692D01*
X147737409Y-102160103D01*
X147646517Y-102164388D01*
X147636527Y-102164859D01*
X147630593Y-102164999D01*
X145285063Y-102164999D01*
X142938742Y-102165000D01*
X142932807Y-102164860D01*
X142932786Y-102164859D01*
X142831922Y-102160103D01*
X142818152Y-102158692D01*
X142551787Y-102116504D01*
X142536355Y-102113054D01*
X142280305Y-102038665D01*
X142265420Y-102033306D01*
X142020717Y-101927413D01*
X142006625Y-101920233D01*
X141777107Y-101784496D01*
X141764030Y-101775609D01*
X141553345Y-101612185D01*
X141541476Y-101601720D01*
X141352946Y-101413190D01*
X141342481Y-101401321D01*
X141179057Y-101190636D01*
X141170170Y-101177559D01*
X141034433Y-100948041D01*
X141027253Y-100933949D01*
X140921360Y-100689246D01*
X140916000Y-100674358D01*
X140904422Y-100634507D01*
X140841612Y-100418311D01*
X140838161Y-100402874D01*
X140822642Y-100304888D01*
X140795974Y-100136514D01*
X140794563Y-100122740D01*
X140789807Y-100021861D01*
X140789667Y-100015927D01*
X140789666Y-95324076D01*
X140789806Y-95318141D01*
X140794563Y-95217259D01*
X140795974Y-95203483D01*
X140838162Y-94937121D01*
X140841613Y-94921684D01*
X140847106Y-94902779D01*
X140916001Y-94665639D01*
X140921360Y-94650754D01*
X141027253Y-94406051D01*
X141034436Y-94391953D01*
X141170170Y-94162441D01*
X141179057Y-94149364D01*
X141342481Y-93938679D01*
X141352946Y-93926810D01*
X141541476Y-93738280D01*
X141553345Y-93727815D01*
X141764030Y-93564391D01*
X141777107Y-93555504D01*
X142006625Y-93419767D01*
X142020717Y-93412587D01*
X142265420Y-93306694D01*
X142280305Y-93301335D01*
X142536355Y-93226946D01*
X142551787Y-93223496D01*
X142818152Y-93181308D01*
X142831923Y-93179897D01*
X142932804Y-93175141D01*
X142938739Y-93175001D01*
X145284269Y-93175001D01*
X147630590Y-93175000D01*
X147636525Y-93175140D01*
G37*
%TD.AperFunction*%
%TA.AperFunction,Conductor*%
G36*
X134227459Y-94675215D02*
G01*
X134311888Y-94680157D01*
X134328458Y-94682236D01*
X134531218Y-94721465D01*
X134549229Y-94726359D01*
X134741109Y-94794118D01*
X134758199Y-94801619D01*
X134937954Y-94896997D01*
X134953752Y-94906946D01*
X135117432Y-95027842D01*
X135131591Y-95040020D01*
X135275596Y-95183775D01*
X135287798Y-95197912D01*
X135379127Y-95321110D01*
X135408975Y-95361374D01*
X135418954Y-95377159D01*
X135450850Y-95437020D01*
X135514639Y-95556738D01*
X135522176Y-95573826D01*
X135590269Y-95765582D01*
X135595197Y-95783595D01*
X135634768Y-95986229D01*
X135636878Y-96002832D01*
X135642106Y-96089960D01*
X135642332Y-96097507D01*
X135642332Y-99242764D01*
X135642117Y-99250127D01*
X135637175Y-99334555D01*
X135635096Y-99351126D01*
X135595868Y-99553881D01*
X135590972Y-99571902D01*
X135523217Y-99763771D01*
X135515713Y-99780867D01*
X135420338Y-99960618D01*
X135410386Y-99976420D01*
X135289490Y-100140100D01*
X135277312Y-100154259D01*
X135133557Y-100298264D01*
X135119424Y-100310464D01*
X134955950Y-100431650D01*
X134940176Y-100441621D01*
X134760592Y-100537308D01*
X134743512Y-100544842D01*
X134551751Y-100612937D01*
X134533739Y-100617865D01*
X134462138Y-100631847D01*
X134331103Y-100657436D01*
X134314500Y-100659546D01*
X134227372Y-100664774D01*
X134219825Y-100665000D01*
X131074568Y-100665000D01*
X131067205Y-100664785D01*
X131067017Y-100664774D01*
X130982776Y-100659843D01*
X130966206Y-100657764D01*
X130961818Y-100656915D01*
X130763446Y-100618535D01*
X130745435Y-100613641D01*
X130553555Y-100545882D01*
X130536465Y-100538381D01*
X130356710Y-100443003D01*
X130340912Y-100433054D01*
X130177232Y-100312158D01*
X130163073Y-100299980D01*
X130019068Y-100156225D01*
X130006866Y-100142089D01*
X130005392Y-100140100D01*
X129885682Y-99978618D01*
X129875709Y-99962841D01*
X129780025Y-99783263D01*
X129772489Y-99766177D01*
X129704395Y-99574419D01*
X129699467Y-99556405D01*
X129659896Y-99353771D01*
X129657786Y-99337168D01*
X129652558Y-99250040D01*
X129652332Y-99242493D01*
X129652332Y-96097236D01*
X129652547Y-96089873D01*
X129657489Y-96005445D01*
X129659568Y-95988874D01*
X129672631Y-95921355D01*
X129698797Y-95786114D01*
X129703692Y-95768098D01*
X129771450Y-95576223D01*
X129778951Y-95559133D01*
X129874329Y-95379378D01*
X129884278Y-95363580D01*
X130005174Y-95199900D01*
X130017352Y-95185741D01*
X130161107Y-95041736D01*
X130175243Y-95029534D01*
X130338714Y-94908350D01*
X130354488Y-94898379D01*
X130534072Y-94802692D01*
X130551152Y-94795158D01*
X130742914Y-94727063D01*
X130760925Y-94722135D01*
X130838664Y-94706954D01*
X130963561Y-94682564D01*
X130980164Y-94680454D01*
X131067292Y-94675226D01*
X131074839Y-94675000D01*
X134220096Y-94675000D01*
X134227459Y-94675215D01*
G37*
%TD.AperFunction*%
%TA.AperFunction,Conductor*%
G36*
X177602127Y-94675215D02*
G01*
X177686556Y-94680157D01*
X177703126Y-94682236D01*
X177905886Y-94721465D01*
X177923897Y-94726359D01*
X178115777Y-94794118D01*
X178132867Y-94801619D01*
X178312622Y-94896997D01*
X178328420Y-94906946D01*
X178492100Y-95027842D01*
X178506259Y-95040020D01*
X178650264Y-95183775D01*
X178662464Y-95197908D01*
X178783650Y-95361382D01*
X178793621Y-95377156D01*
X178845895Y-95475263D01*
X178889307Y-95556737D01*
X178896842Y-95573820D01*
X178947824Y-95717390D01*
X178964937Y-95765581D01*
X178969865Y-95783595D01*
X179009436Y-95986229D01*
X179011546Y-96002832D01*
X179016774Y-96089960D01*
X179017000Y-96097507D01*
X179017000Y-99242764D01*
X179016785Y-99250127D01*
X179011843Y-99334555D01*
X179009764Y-99351126D01*
X178970536Y-99553881D01*
X178965640Y-99571902D01*
X178897885Y-99763771D01*
X178890381Y-99780867D01*
X178795006Y-99960618D01*
X178785054Y-99976420D01*
X178664158Y-100140100D01*
X178651980Y-100154259D01*
X178508225Y-100298264D01*
X178494092Y-100310464D01*
X178330618Y-100431650D01*
X178314844Y-100441621D01*
X178135260Y-100537308D01*
X178118180Y-100544842D01*
X177926419Y-100612937D01*
X177908407Y-100617865D01*
X177836806Y-100631847D01*
X177705771Y-100657436D01*
X177689168Y-100659546D01*
X177602040Y-100664774D01*
X177594493Y-100665000D01*
X174449236Y-100665000D01*
X174441873Y-100664785D01*
X174441685Y-100664774D01*
X174357444Y-100659843D01*
X174340874Y-100657764D01*
X174336486Y-100656915D01*
X174138114Y-100618535D01*
X174120103Y-100613641D01*
X173928223Y-100545882D01*
X173911133Y-100538381D01*
X173731378Y-100443003D01*
X173715580Y-100433054D01*
X173551900Y-100312158D01*
X173537741Y-100299980D01*
X173393736Y-100156225D01*
X173381534Y-100142089D01*
X173380060Y-100140100D01*
X173260350Y-99978618D01*
X173250377Y-99962841D01*
X173154693Y-99783263D01*
X173147157Y-99766177D01*
X173079063Y-99574419D01*
X173074135Y-99556405D01*
X173034564Y-99353771D01*
X173032454Y-99337168D01*
X173027226Y-99250040D01*
X173027000Y-99242493D01*
X173027000Y-96097236D01*
X173027215Y-96089873D01*
X173032157Y-96005445D01*
X173034236Y-95988874D01*
X173047299Y-95921355D01*
X173073465Y-95786114D01*
X173078360Y-95768098D01*
X173146118Y-95576223D01*
X173153619Y-95559133D01*
X173248997Y-95379378D01*
X173258946Y-95363580D01*
X173379842Y-95199900D01*
X173392020Y-95185741D01*
X173535775Y-95041736D01*
X173549911Y-95029534D01*
X173713382Y-94908350D01*
X173729156Y-94898379D01*
X173908740Y-94802692D01*
X173925820Y-94795158D01*
X174117582Y-94727063D01*
X174135593Y-94722135D01*
X174213332Y-94706954D01*
X174338229Y-94682564D01*
X174354832Y-94680454D01*
X174441960Y-94675226D01*
X174449507Y-94675000D01*
X177594764Y-94675000D01*
X177602127Y-94675215D01*
G37*
%TD.AperFunction*%
%TD*%
M02*
