%TF.GenerationSoftware,KiCad,Pcbnew,(6.0.10)*%
%TF.CreationDate,2023-02-27T01:31:51-05:00*%
%TF.ProjectId,vehicle side connector,76656869-636c-4652-9073-69646520636f,rev?*%
%TF.SameCoordinates,Original*%
%TF.FileFunction,Soldermask,Bot*%
%TF.FilePolarity,Negative*%
%FSLAX46Y46*%
G04 Gerber Fmt 4.6, Leading zero omitted, Abs format (unit mm)*
G04 Created by KiCad (PCBNEW (6.0.10)) date 2023-02-27 01:31:51*
%MOMM*%
%LPD*%
G01*
G04 APERTURE LIST*
G04 Aperture macros list*
%AMRoundRect*
0 Rectangle with rounded corners*
0 $1 Rounding radius*
0 $2 $3 $4 $5 $6 $7 $8 $9 X,Y pos of 4 corners*
0 Add a 4 corners polygon primitive as box body*
4,1,4,$2,$3,$4,$5,$6,$7,$8,$9,$2,$3,0*
0 Add four circle primitives for the rounded corners*
1,1,$1+$1,$2,$3*
1,1,$1+$1,$4,$5*
1,1,$1+$1,$6,$7*
1,1,$1+$1,$8,$9*
0 Add four rect primitives between the rounded corners*
20,1,$1+$1,$2,$3,$4,$5,0*
20,1,$1+$1,$4,$5,$6,$7,0*
20,1,$1+$1,$6,$7,$8,$9,0*
20,1,$1+$1,$8,$9,$2,$3,0*%
%AMOutline5P*
0 Free polygon, 5 corners , with rotation*
0 The origin of the aperture is its center*
0 number of corners: always 5*
0 $1 to $10 corner X, Y*
0 $11 Rotation angle, in degrees counterclockwise*
0 create outline with 5 corners*
4,1,5,$1,$2,$3,$4,$5,$6,$7,$8,$9,$10,$1,$2,$11*%
%AMOutline6P*
0 Free polygon, 6 corners , with rotation*
0 The origin of the aperture is its center*
0 number of corners: always 6*
0 $1 to $12 corner X, Y*
0 $13 Rotation angle, in degrees counterclockwise*
0 create outline with 6 corners*
4,1,6,$1,$2,$3,$4,$5,$6,$7,$8,$9,$10,$11,$12,$1,$2,$13*%
%AMOutline7P*
0 Free polygon, 7 corners , with rotation*
0 The origin of the aperture is its center*
0 number of corners: always 7*
0 $1 to $14 corner X, Y*
0 $15 Rotation angle, in degrees counterclockwise*
0 create outline with 7 corners*
4,1,7,$1,$2,$3,$4,$5,$6,$7,$8,$9,$10,$11,$12,$13,$14,$1,$2,$15*%
%AMOutline8P*
0 Free polygon, 8 corners , with rotation*
0 The origin of the aperture is its center*
0 number of corners: always 8*
0 $1 to $16 corner X, Y*
0 $17 Rotation angle, in degrees counterclockwise*
0 create outline with 8 corners*
4,1,8,$1,$2,$3,$4,$5,$6,$7,$8,$9,$10,$11,$12,$13,$14,$15,$16,$1,$2,$17*%
G04 Aperture macros list end*
%ADD10C,0.150000*%
%ADD11C,0.010000*%
%ADD12C,3.050000*%
%ADD13Outline6P,-0.380000X3.350000X0.380000X3.350000X0.380000X-3.198000X0.228000X-3.350000X-0.228000X-3.350000X-0.380000X-3.198000X0.000000*%
%ADD14Outline8P,-4.365000X3.182500X-4.197500X3.350000X4.197500X3.350000X4.365000X3.182500X4.365000X-3.182500X4.197500X-3.350000X-4.197500X-3.350000X-4.365000X-3.182500X0.000000*%
%ADD15RoundRect,2.250000X2.250000X2.250000X-2.250000X2.250000X-2.250000X-2.250000X2.250000X-2.250000X0*%
%ADD16C,9.000000*%
%ADD17RoundRect,1.500000X1.500000X1.500000X-1.500000X1.500000X-1.500000X-1.500000X1.500000X-1.500000X0*%
%ADD18C,6.000000*%
G04 APERTURE END LIST*
D10*
X195643500Y-109093000D02*
X106108500Y-109093000D01*
X106108500Y-109093000D02*
X106108500Y-118237000D01*
X106108500Y-118237000D02*
X195643500Y-118237000D01*
X195643500Y-118237000D02*
X195643500Y-109093000D01*
G36*
X195643500Y-109093000D02*
G01*
X106108500Y-109093000D01*
X106108500Y-118237000D01*
X195643500Y-118237000D01*
X195643500Y-109093000D01*
G37*
%TO.C,J3*%
G36*
X159703200Y-75849200D02*
G01*
X158750800Y-75849200D01*
X158750800Y-73246800D01*
X159703200Y-73246800D01*
X159703200Y-75849200D01*
G37*
D11*
X159703200Y-75849200D02*
X158750800Y-75849200D01*
X158750800Y-73246800D01*
X159703200Y-73246800D01*
X159703200Y-75849200D01*
G36*
X162703200Y-75849200D02*
G01*
X161750800Y-75849200D01*
X161750800Y-73246800D01*
X162703200Y-73246800D01*
X162703200Y-75849200D01*
G37*
X162703200Y-75849200D02*
X161750800Y-75849200D01*
X161750800Y-73246800D01*
X162703200Y-73246800D01*
X162703200Y-75849200D01*
G36*
X158203200Y-85249200D02*
G01*
X157250800Y-85249200D01*
X157250800Y-82646800D01*
X158203200Y-82646800D01*
X158203200Y-85249200D01*
G37*
X158203200Y-85249200D02*
X157250800Y-85249200D01*
X157250800Y-82646800D01*
X158203200Y-82646800D01*
X158203200Y-85249200D01*
G36*
X171703200Y-85249200D02*
G01*
X170750800Y-85249200D01*
X170750800Y-82646800D01*
X171703200Y-82646800D01*
X171703200Y-85249200D01*
G37*
X171703200Y-85249200D02*
X170750800Y-85249200D01*
X170750800Y-82646800D01*
X171703200Y-82646800D01*
X171703200Y-85249200D01*
G36*
X167203200Y-85249200D02*
G01*
X166250800Y-85249200D01*
X166250800Y-82646800D01*
X167203200Y-82646800D01*
X167203200Y-85249200D01*
G37*
X167203200Y-85249200D02*
X166250800Y-85249200D01*
X166250800Y-82646800D01*
X167203200Y-82646800D01*
X167203200Y-85249200D01*
G36*
X164203200Y-85249200D02*
G01*
X163250800Y-85249200D01*
X163250800Y-82646800D01*
X164203200Y-82646800D01*
X164203200Y-85249200D01*
G37*
X164203200Y-85249200D02*
X163250800Y-85249200D01*
X163250800Y-82646800D01*
X164203200Y-82646800D01*
X164203200Y-85249200D01*
G36*
X168703200Y-75849200D02*
G01*
X167750800Y-75849200D01*
X167750800Y-73246800D01*
X168703200Y-73246800D01*
X168703200Y-75849200D01*
G37*
X168703200Y-75849200D02*
X167750800Y-75849200D01*
X167750800Y-73246800D01*
X168703200Y-73246800D01*
X168703200Y-75849200D01*
G36*
X165703200Y-75849200D02*
G01*
X164750800Y-75849200D01*
X164750800Y-73246800D01*
X165703200Y-73246800D01*
X165703200Y-75849200D01*
G37*
X165703200Y-75849200D02*
X164750800Y-75849200D01*
X164750800Y-73246800D01*
X165703200Y-73246800D01*
X165703200Y-75849200D01*
G36*
X156173200Y-80749200D02*
G01*
X154220800Y-80749200D01*
X154220800Y-75546800D01*
X156173200Y-75546800D01*
X156173200Y-80749200D01*
G37*
X156173200Y-80749200D02*
X154220800Y-80749200D01*
X154220800Y-75546800D01*
X156173200Y-75546800D01*
X156173200Y-80749200D01*
G36*
X161203200Y-85249200D02*
G01*
X160250800Y-85249200D01*
X160250800Y-82646800D01*
X161203200Y-82646800D01*
X161203200Y-85249200D01*
G37*
X161203200Y-85249200D02*
X160250800Y-85249200D01*
X160250800Y-82646800D01*
X161203200Y-82646800D01*
X161203200Y-85249200D01*
G36*
X173203200Y-75849200D02*
G01*
X172250800Y-75849200D01*
X172250800Y-73246800D01*
X173203200Y-73246800D01*
X173203200Y-75849200D01*
G37*
X173203200Y-75849200D02*
X172250800Y-75849200D01*
X172250800Y-73246800D01*
X173203200Y-73246800D01*
X173203200Y-75849200D01*
G36*
X167203200Y-75849200D02*
G01*
X166250800Y-75849200D01*
X166250800Y-73246800D01*
X167203200Y-73246800D01*
X167203200Y-75849200D01*
G37*
X167203200Y-75849200D02*
X166250800Y-75849200D01*
X166250800Y-73246800D01*
X167203200Y-73246800D01*
X167203200Y-75849200D01*
G36*
X162703200Y-85249200D02*
G01*
X161750800Y-85249200D01*
X161750800Y-82646800D01*
X162703200Y-82646800D01*
X162703200Y-85249200D01*
G37*
X162703200Y-85249200D02*
X161750800Y-85249200D01*
X161750800Y-82646800D01*
X162703200Y-82646800D01*
X162703200Y-85249200D01*
G36*
X159703200Y-85249200D02*
G01*
X158750800Y-85249200D01*
X158750800Y-82646800D01*
X159703200Y-82646800D01*
X159703200Y-85249200D01*
G37*
X159703200Y-85249200D02*
X158750800Y-85249200D01*
X158750800Y-82646800D01*
X159703200Y-82646800D01*
X159703200Y-85249200D01*
G36*
X173203200Y-85249200D02*
G01*
X172250800Y-85249200D01*
X172250800Y-82646800D01*
X173203200Y-82646800D01*
X173203200Y-85249200D01*
G37*
X173203200Y-85249200D02*
X172250800Y-85249200D01*
X172250800Y-82646800D01*
X173203200Y-82646800D01*
X173203200Y-85249200D01*
G36*
X158203200Y-75849200D02*
G01*
X157250800Y-75849200D01*
X157250800Y-73246800D01*
X158203200Y-73246800D01*
X158203200Y-75849200D01*
G37*
X158203200Y-75849200D02*
X157250800Y-75849200D01*
X157250800Y-73246800D01*
X158203200Y-73246800D01*
X158203200Y-75849200D01*
G36*
X170203200Y-75849200D02*
G01*
X169250800Y-75849200D01*
X169250800Y-73246800D01*
X170203200Y-73246800D01*
X170203200Y-75849200D01*
G37*
X170203200Y-75849200D02*
X169250800Y-75849200D01*
X169250800Y-73246800D01*
X170203200Y-73246800D01*
X170203200Y-75849200D01*
G36*
X168703200Y-85249200D02*
G01*
X167750800Y-85249200D01*
X167750800Y-82646800D01*
X168703200Y-82646800D01*
X168703200Y-85249200D01*
G37*
X168703200Y-85249200D02*
X167750800Y-85249200D01*
X167750800Y-82646800D01*
X168703200Y-82646800D01*
X168703200Y-85249200D01*
G36*
X165703200Y-85249200D02*
G01*
X164750800Y-85249200D01*
X164750800Y-82646800D01*
X165703200Y-82646800D01*
X165703200Y-85249200D01*
G37*
X165703200Y-85249200D02*
X164750800Y-85249200D01*
X164750800Y-82646800D01*
X165703200Y-82646800D01*
X165703200Y-85249200D01*
G36*
X161203200Y-75849200D02*
G01*
X160250800Y-75849200D01*
X160250800Y-73246800D01*
X161203200Y-73246800D01*
X161203200Y-75849200D01*
G37*
X161203200Y-75849200D02*
X160250800Y-75849200D01*
X160250800Y-73246800D01*
X161203200Y-73246800D01*
X161203200Y-75849200D01*
G36*
X170203200Y-85249200D02*
G01*
X169250800Y-85249200D01*
X169250800Y-82646800D01*
X170203200Y-82646800D01*
X170203200Y-85249200D01*
G37*
X170203200Y-85249200D02*
X169250800Y-85249200D01*
X169250800Y-82646800D01*
X170203200Y-82646800D01*
X170203200Y-85249200D01*
G36*
X176233200Y-80749200D02*
G01*
X174280800Y-80749200D01*
X174280800Y-75546800D01*
X176233200Y-75546800D01*
X176233200Y-80749200D01*
G37*
X176233200Y-80749200D02*
X174280800Y-80749200D01*
X174280800Y-75546800D01*
X176233200Y-75546800D01*
X176233200Y-80749200D01*
G36*
X164203200Y-75849200D02*
G01*
X163250800Y-75849200D01*
X163250800Y-73246800D01*
X164203200Y-73246800D01*
X164203200Y-75849200D01*
G37*
X164203200Y-75849200D02*
X163250800Y-75849200D01*
X163250800Y-73246800D01*
X164203200Y-73246800D01*
X164203200Y-75849200D01*
G36*
X171703200Y-75849200D02*
G01*
X170750800Y-75849200D01*
X170750800Y-73246800D01*
X171703200Y-73246800D01*
X171703200Y-75849200D01*
G37*
X171703200Y-75849200D02*
X170750800Y-75849200D01*
X170750800Y-73246800D01*
X171703200Y-73246800D01*
X171703200Y-75849200D01*
%TD*%
D12*
%TO.C,H1*%
X150910600Y-74251000D03*
%TD*%
%TO.C,H2*%
X175913800Y-88463200D03*
%TD*%
D13*
%TO.C,J1*%
X174752000Y-112447000D03*
X176022000Y-112447000D03*
X177292000Y-112447000D03*
X178562000Y-112447000D03*
X179832000Y-112447000D03*
X181102000Y-112447000D03*
X182372000Y-112447000D03*
X183642000Y-112447000D03*
X184912000Y-112447000D03*
X186182000Y-112447000D03*
X187452000Y-112447000D03*
X188722000Y-112447000D03*
X189992000Y-112447000D03*
X191262000Y-112447000D03*
X192532000Y-112447000D03*
X193802000Y-112447000D03*
%TD*%
%TO.C,J4*%
X108077000Y-112447000D03*
X109347000Y-112447000D03*
X110617000Y-112447000D03*
X111887000Y-112447000D03*
X113157000Y-112447000D03*
X114427000Y-112447000D03*
X115697000Y-112447000D03*
X116967000Y-112447000D03*
X118237000Y-112447000D03*
X119507000Y-112447000D03*
%TD*%
D14*
%TO.C,J2*%
X129159000Y-112447000D03*
X141159000Y-112447000D03*
X153159000Y-112447000D03*
X165159000Y-112447000D03*
%TD*%
D12*
%TO.C,H3*%
X125901400Y-88453200D03*
%TD*%
D15*
%TO.C,J6*%
X145284666Y-97670000D03*
D16*
X156184666Y-97670000D03*
%TD*%
D17*
%TO.C,J5*%
X132647332Y-97670000D03*
D18*
X125447332Y-97670000D03*
%TD*%
D17*
%TO.C,J7*%
X176022000Y-97670000D03*
D18*
X168822000Y-97670000D03*
%TD*%
M02*
